<?xml version="1.0" encoding="utf-8"?>
<!-- Generator: Adobe Illustrator 23.0.4, SVG Export Plug-In . SVG Version: 6.00 Build 0)  -->
<svg version="1.1" id="Layer_1" xmlns="http://www.w3.org/2000/svg" xmlns:xlink="http://www.w3.org/1999/xlink" x="0px" y="0px"
	 viewBox="0 0 1024 124" style="enable-background:new 0 0 1024 124;" xml:space="preserve">
<style type="text/css">
	.st0{enable-background:new    ;}
	.st1{fill:#F2D834;}
</style>
<g class="st0">
	<path class="st1" d="M147.2,40.3H137l-1.6,5.2h-6.8l9.9-26.6h7.2l9.9,26.6h-6.8L147.2,40.3z M138.7,35.1h6.8l-3.4-11.2L138.7,35.1z
		"/>
	<path class="st1" d="M185.6,18.9v5.2h-7.2v21.4h-6.6V24.1h-7.2v-5.2H185.6z"/>
	<path class="st1" d="M199.6,31.4h-0.8c-2.5,0-4.3,0.6-5.4,1.9v12.2h-6.4V25.9h6.2v3.3c0.4-1.1,0.9-1.9,1.7-2.5s1.8-0.9,3-0.9
		c0.4,0,0.7,0,0.9,0.1s0.5,0.1,0.8,0.2L199.6,31.4z"/>
	<path class="st1" d="M211,25.5c2.6,0,4.6,0.8,6.1,2.3c1.5,1.5,2.2,3.6,2.2,6.3c0,1-0.1,2.1-0.4,3.2h-11.4c0.1,1.2,0.5,2.2,1.2,2.9
		c0.8,0.7,1.9,1.1,3.5,1.1c1,0,2-0.1,3-0.3c1.1-0.2,2-0.4,2.7-0.8l0.8,4.1c-1,0.5-2.2,0.9-3.4,1.2c-1.3,0.3-2.6,0.4-3.9,0.4
		c-1.7,0-3.2-0.2-4.5-0.7c-1.3-0.5-2.4-1.2-3.3-2.1c-0.9-0.9-1.5-1.9-2-3.2c-0.5-1.2-0.7-2.6-0.7-4.1c0-1.6,0.2-3,0.7-4.3
		c0.5-1.3,1.1-2.4,2-3.3c0.9-0.9,1.9-1.6,3.1-2.1C208.1,25.8,209.4,25.5,211,25.5z M210.8,29.6c-1,0-1.8,0.3-2.3,1
		c-0.5,0.7-0.8,1.6-0.8,2.7h5.7c0.1-0.2,0.1-0.4,0.1-0.7c0-0.9-0.2-1.6-0.7-2.1C212.2,29.9,211.6,29.6,210.8,29.6z"/>
	<path class="st1" d="M227.3,45.5l-6.8-19.6h6.4l3.8,13.8l3.8-13.8h6.4l-6.8,19.6H227.3z"/>
	<path class="st1" d="M262.7,35.7c0,1.4-0.2,2.8-0.7,4c-0.5,1.2-1.1,2.3-2,3.2c-0.9,0.9-2,1.6-3.3,2.2c-1.3,0.5-2.8,0.8-4.5,0.8
		s-3.2-0.3-4.5-0.8c-1.3-0.5-2.4-1.2-3.3-2.2c-0.9-0.9-1.5-2-2-3.2c-0.5-1.2-0.7-2.6-0.7-4c0-1.4,0.2-2.8,0.7-4
		c0.5-1.2,1.1-2.3,2-3.2c0.9-0.9,2-1.6,3.3-2.2c1.3-0.5,2.8-0.8,4.5-0.8s3.2,0.3,4.5,0.8c1.3,0.5,2.4,1.2,3.3,2.2
		c0.9,0.9,1.5,2,2,3.2C262.5,32.9,262.7,34.3,262.7,35.7z M256.3,35.7c0-0.7-0.1-1.4-0.2-2c-0.1-0.7-0.4-1.2-0.7-1.8
		c-0.3-0.5-0.7-0.9-1.2-1.2c-0.5-0.3-1.2-0.5-1.9-0.5c-0.8,0-1.4,0.2-1.9,0.5c-0.5,0.3-0.9,0.7-1.2,1.2c-0.3,0.5-0.5,1.1-0.7,1.8
		c-0.1,0.7-0.2,1.3-0.2,2s0.1,1.4,0.2,2c0.1,0.7,0.4,1.2,0.7,1.8c0.3,0.5,0.7,0.9,1.2,1.2c0.5,0.3,1.2,0.5,1.9,0.5
		c0.8,0,1.4-0.2,1.9-0.5c0.5-0.3,0.9-0.7,1.2-1.2c0.3-0.5,0.5-1.1,0.7-1.8C256.2,37.1,256.3,36.4,256.3,35.7z"/>
	<path class="st1" d="M293.3,45.5h-6.1v-2.5c-0.6,0.9-1.4,1.6-2.4,2.1c-1,0.5-2.1,0.8-3.5,0.8c-1.1,0-2.1-0.2-3.1-0.7
		c-1-0.5-1.8-1.1-2.5-2s-1.3-1.9-1.7-3.1c-0.4-1.2-0.6-2.6-0.6-4.1c0-1.7,0.3-3.2,0.8-4.5c0.5-1.3,1.3-2.4,2.2-3.3s2-1.5,3.2-2
		c1.2-0.4,2.5-0.7,3.9-0.7c0.7,0,1.3,0,1.8,0.1c0.5,0.1,1,0.2,1.4,0.3v-8.7h6.4V45.5z M283.6,41c1.4,0,2.5-0.5,3.3-1.4v-9
		c-0.6-0.2-1.3-0.3-2.3-0.3c-1.6,0-2.8,0.5-3.6,1.5c-0.8,1-1.2,2.3-1.2,4.1c0,1.5,0.3,2.8,0.9,3.7S282.3,41,283.6,41z"/>
	<path class="st1" d="M308.8,43.6c-0.6,0.6-1.4,1.2-2.5,1.6c-1.1,0.5-2.2,0.7-3.5,0.7c-0.9,0-1.7-0.1-2.4-0.4s-1.3-0.7-1.7-1.2
		c-0.5-0.5-0.8-1.1-1.1-1.8c-0.3-0.7-0.4-1.4-0.4-2.2c0-1.8,0.6-3.2,1.7-4.1c1.1-0.9,2.7-1.5,4.8-1.6c0.8-0.1,1.6-0.1,2.5-0.1
		c0.9,0,1.6-0.1,2.3-0.1v-0.6c0-2.1-1.2-3.2-3.6-3.2c-0.9,0-1.8,0.1-2.7,0.3c-0.9,0.2-1.7,0.5-2.4,0.9l-1.2-4.4c0.9-0.5,2-1,3.3-1.3
		c1.3-0.3,2.6-0.5,4.1-0.5c2.7,0,4.9,0.7,6.4,2.1c1.5,1.4,2.3,3.6,2.3,6.4v11.4h-6.2V43.6z M305.3,41.7c0.6,0,1.2-0.1,1.7-0.2
		c0.5-0.2,1-0.4,1.5-0.6v-2.9c-0.6,0.1-1.2,0.1-1.7,0.2c-0.5,0.1-1,0.1-1.5,0.2c-1.3,0.2-2,0.8-2,1.8c0,0.5,0.2,0.9,0.5,1.2
		C304.2,41.6,304.7,41.7,305.3,41.7z"/>
	<path class="st1" d="M345.8,37.5c0,1.2-0.2,2.3-0.7,3.3c-0.5,1-1.1,1.9-2,2.7c-0.9,0.8-1.9,1.4-3.2,1.8c-1.3,0.4-2.7,0.7-4.3,0.7
		c-1.5,0-2.9-0.2-4.4-0.5c-1.5-0.3-2.8-0.8-4.1-1.4l1.3-5c0.9,0.5,2,0.8,3.2,1.2c1.2,0.3,2.4,0.5,3.8,0.5c1.1,0,2-0.2,2.8-0.6
		c0.7-0.4,1.1-1.1,1.1-2c0-0.7-0.3-1.3-0.9-1.8c-0.6-0.5-1.8-1.1-3.4-1.7c-2.6-1-4.5-2.1-5.7-3.4c-1.2-1.3-1.8-2.9-1.8-4.9
		c0-2.6,0.8-4.6,2.5-5.9c1.7-1.4,4-2,7-2c1.5,0,3,0.2,4.4,0.5c1.4,0.3,2.6,0.8,3.5,1.3l-1.1,4.9c-0.9-0.5-2-0.8-3.1-1.1
		c-1.1-0.3-2.2-0.4-3.4-0.4c-1,0-1.8,0.2-2.4,0.5c-0.6,0.3-0.9,0.9-0.9,1.7c0,0.4,0.1,0.7,0.2,1c0.1,0.3,0.3,0.5,0.6,0.8
		c0.3,0.2,0.7,0.5,1.2,0.7c0.5,0.2,1.1,0.5,1.9,0.8c1.1,0.5,2.2,0.9,3.2,1.4c1,0.5,1.8,1.1,2.6,1.8c0.7,0.7,1.3,1.4,1.7,2.3
		C345.6,35.4,345.8,36.4,345.8,37.5z"/>
	<path class="st1" d="M368.8,35.7c0,1.4-0.2,2.8-0.7,4c-0.5,1.2-1.1,2.3-2,3.2c-0.9,0.9-2,1.6-3.3,2.2c-1.3,0.5-2.8,0.8-4.5,0.8
		s-3.2-0.3-4.5-0.8c-1.3-0.5-2.4-1.2-3.3-2.2c-0.9-0.9-1.5-2-2-3.2c-0.5-1.2-0.7-2.6-0.7-4c0-1.4,0.2-2.8,0.7-4
		c0.5-1.2,1.1-2.3,2-3.2c0.9-0.9,2-1.6,3.3-2.2c1.3-0.5,2.8-0.8,4.5-0.8s3.2,0.3,4.5,0.8c1.3,0.5,2.4,1.2,3.3,2.2
		c0.9,0.9,1.5,2,2,3.2C368.6,32.9,368.8,34.3,368.8,35.7z M362.4,35.7c0-0.7-0.1-1.4-0.2-2c-0.1-0.7-0.4-1.2-0.7-1.8
		c-0.3-0.5-0.7-0.9-1.2-1.2c-0.5-0.3-1.2-0.5-1.9-0.5c-0.8,0-1.4,0.2-1.9,0.5c-0.5,0.3-0.9,0.7-1.2,1.2c-0.3,0.5-0.5,1.1-0.7,1.8
		c-0.1,0.7-0.2,1.3-0.2,2s0.1,1.4,0.2,2c0.1,0.7,0.4,1.2,0.7,1.8c0.3,0.5,0.7,0.9,1.2,1.2c0.5,0.3,1.2,0.5,1.9,0.5
		c0.8,0,1.4-0.2,1.9-0.5c0.5-0.3,0.9-0.7,1.2-1.2c0.3-0.5,0.5-1.1,0.7-1.8C362.3,37.1,362.4,36.4,362.4,35.7z"/>
	<path class="st1" d="M384.8,31.4H384c-2.5,0-4.3,0.6-5.4,1.9v12.2h-6.4V25.9h6.2v3.3c0.4-1.1,0.9-1.9,1.7-2.5s1.8-0.9,3-0.9
		c0.4,0,0.7,0,0.9,0.1s0.5,0.1,0.8,0.2L384.8,31.4z"/>
	<path class="st1" d="M385.3,25.9h3v-5.1h6.4v5.1h5.6v4.9h-5.6v7.6c0,0.8,0.2,1.4,0.5,1.8c0.3,0.4,0.9,0.7,1.8,0.7
		c0.5,0,1,0,1.5-0.1c0.5-0.1,1-0.2,1.4-0.3l0.4,4.5c-0.6,0.3-1.4,0.5-2.4,0.7c-0.9,0.2-1.9,0.2-2.8,0.2c-1.3,0-2.3-0.2-3.2-0.6
		c-0.9-0.4-1.6-0.9-2.1-1.6c-0.5-0.7-0.9-1.4-1.2-2.3c-0.3-0.9-0.4-1.8-0.4-2.9v-7.8h-3V25.9z"/>
	<path class="st1" d="M412.2,25.5c2.6,0,4.6,0.8,6.1,2.3c1.5,1.5,2.2,3.6,2.2,6.3c0,1-0.1,2.1-0.4,3.2h-11.4
		c0.1,1.2,0.5,2.2,1.2,2.9c0.8,0.7,1.9,1.1,3.5,1.1c1,0,2-0.1,3-0.3c1.1-0.2,2-0.4,2.7-0.8l0.8,4.1c-1,0.5-2.2,0.9-3.4,1.2
		c-1.3,0.3-2.6,0.4-3.9,0.4c-1.7,0-3.2-0.2-4.5-0.7c-1.3-0.5-2.4-1.2-3.3-2.1c-0.9-0.9-1.5-1.9-2-3.2c-0.5-1.2-0.7-2.6-0.7-4.1
		c0-1.6,0.2-3,0.7-4.3c0.5-1.3,1.1-2.4,2-3.3c0.9-0.9,1.9-1.6,3.1-2.1C409.3,25.8,410.7,25.5,412.2,25.5z M412,29.6
		c-1,0-1.8,0.3-2.3,1c-0.5,0.7-0.8,1.6-0.8,2.7h5.7c0.1-0.2,0.1-0.4,0.1-0.7c0-0.9-0.2-1.6-0.7-2.1C413.5,29.9,412.9,29.6,412,29.6z
		"/>
	<path class="st1" d="M430.7,25.9h3v-5.1h6.4v5.1h5.6v4.9h-5.6v7.6c0,0.8,0.2,1.4,0.5,1.8c0.3,0.4,0.9,0.7,1.8,0.7
		c0.5,0,1,0,1.5-0.1c0.5-0.1,1-0.2,1.4-0.3l0.4,4.5c-0.6,0.3-1.4,0.5-2.4,0.7c-0.9,0.2-1.9,0.2-2.8,0.2c-1.3,0-2.3-0.2-3.2-0.6
		c-0.9-0.4-1.6-0.9-2.1-1.6c-0.5-0.7-0.9-1.4-1.2-2.3c-0.3-0.9-0.4-1.8-0.4-2.9v-7.8h-3V25.9z"/>
	<path class="st1" d="M457.6,25.5c2.6,0,4.6,0.8,6.1,2.3c1.5,1.5,2.2,3.6,2.2,6.3c0,1-0.1,2.1-0.4,3.2h-11.4
		c0.1,1.2,0.5,2.2,1.2,2.9c0.8,0.7,1.9,1.1,3.5,1.1c1,0,2-0.1,3-0.3c1.1-0.2,2-0.4,2.7-0.8l0.8,4.1c-1,0.5-2.2,0.9-3.4,1.2
		c-1.3,0.3-2.6,0.4-3.9,0.4c-1.7,0-3.2-0.2-4.5-0.7c-1.3-0.5-2.4-1.2-3.3-2.1c-0.9-0.9-1.5-1.9-2-3.2c-0.5-1.2-0.7-2.6-0.7-4.1
		c0-1.6,0.2-3,0.7-4.3c0.5-1.3,1.1-2.4,2-3.3c0.9-0.9,1.9-1.6,3.1-2.1C454.7,25.8,456.1,25.5,457.6,25.5z M457.4,29.6
		c-1,0-1.8,0.3-2.3,1c-0.5,0.7-0.8,1.6-0.8,2.7h5.7c0.1-0.2,0.1-0.4,0.1-0.7c0-0.9-0.2-1.6-0.7-2.1
		C458.9,29.9,458.3,29.6,457.4,29.6z"/>
	<path class="st1" d="M491,30.5c-0.7,0-1.3,0.2-1.8,0.5c-0.5,0.3-1,0.7-1.4,1.1c0.1,0.5,0.2,1,0.2,1.6s0.1,1.1,0.1,1.7v10.1h-6.4
		V35.3c0-1.6-0.2-2.8-0.6-3.6c-0.4-0.8-1.1-1.1-2.2-1.1c-0.7,0-1.2,0.1-1.7,0.4c-0.5,0.3-0.9,0.7-1.2,1.1v13.4h-6.4V25.9h6.2v2.6
		c0.6-1.1,1.4-1.8,2.4-2.3c1-0.5,2-0.7,3.1-0.7c1.3,0,2.3,0.3,3.2,0.8c0.8,0.5,1.6,1.4,2.4,2.5c1.4-2.2,3.6-3.3,6.5-3.3
		c1.3,0,2.4,0.3,3.2,0.8c0.9,0.5,1.6,1.3,2.1,2.2c0.5,0.9,0.9,2,1.2,3.1c0.2,1.2,0.4,2.4,0.4,3.7v10.1h-6.4V35.3
		c0-1.6-0.2-2.8-0.6-3.6C492.8,30.9,492.1,30.5,491,30.5z"/>
	<path class="st1" d="M517.4,45.5V25.8l-4.8,1.7l-1.4-5l9-3.6h3.7v26.6H517.4z"/>
	<path class="st1" d="M528.9,20.5c2.3-1.4,4.8-2.1,7.5-2.1c1.2,0,2.4,0.2,3.4,0.5c1.1,0.4,2,0.9,2.8,1.6c0.8,0.7,1.4,1.5,1.9,2.5
		c0.5,1,0.7,2.2,0.7,3.4c0,1-0.1,2-0.4,2.9c-0.3,0.9-0.6,1.8-1.1,2.6s-1,1.6-1.6,2.3s-1.3,1.4-1.9,2.1c-0.7,0.7-1.5,1.5-2.2,2.1
		c-0.8,0.7-1.4,1.3-2.1,1.8h9.5v5.1h-17l-1-3.7c0.7-0.7,1.4-1.4,1.9-2c0.6-0.6,1.1-1.1,1.6-1.6c0.5-0.5,1-1,1.4-1.5
		c0.5-0.5,0.9-1,1.4-1.6c0.6-0.6,1.1-1.2,1.7-1.9c0.6-0.7,1.1-1.3,1.6-2c0.5-0.7,0.9-1.4,1.2-2.1c0.3-0.7,0.5-1.4,0.5-2.1
		c0-1.1-0.3-1.9-1-2.6c-0.6-0.6-1.5-1-2.7-1c-0.8,0-1.6,0.1-2.3,0.4c-0.7,0.2-1.5,0.6-2.2,1L528.9,20.5z"/>
	<path class="st1" d="M564.3,39.5c0,0.5,0.1,0.9,0.3,1.2c0.2,0.3,0.6,0.4,1.2,0.4c0.4,0,0.8,0,1.4-0.1l0.2,4.4
		c-0.5,0.2-1.1,0.3-1.8,0.4c-0.7,0.1-1.4,0.1-2.1,0.1c-1.1,0-2-0.2-2.7-0.5c-0.7-0.3-1.3-0.7-1.7-1.3c-0.4-0.5-0.7-1.1-0.9-1.8
		c-0.2-0.7-0.3-1.4-0.3-2.1v-23h6.4V39.5z"/>
	<path class="st1" d="M589.7,35.7c0,1.4-0.2,2.8-0.7,4c-0.5,1.2-1.1,2.3-2,3.2c-0.9,0.9-2,1.6-3.3,2.2c-1.3,0.5-2.8,0.8-4.5,0.8
		c-1.7,0-3.2-0.3-4.5-0.8c-1.3-0.5-2.4-1.2-3.3-2.2s-1.5-2-2-3.2c-0.5-1.2-0.7-2.6-0.7-4c0-1.4,0.2-2.8,0.7-4c0.5-1.2,1.1-2.3,2-3.2
		c0.9-0.9,2-1.6,3.3-2.2c1.3-0.5,2.8-0.8,4.5-0.8c1.7,0,3.2,0.3,4.5,0.8c1.3,0.5,2.4,1.2,3.3,2.2c0.9,0.9,1.5,2,2,3.2
		C589.5,32.9,589.7,34.3,589.7,35.7z M583.3,35.7c0-0.7-0.1-1.4-0.2-2c-0.1-0.7-0.4-1.2-0.7-1.8c-0.3-0.5-0.7-0.9-1.2-1.2
		c-0.5-0.3-1.2-0.5-1.9-0.5s-1.4,0.2-1.9,0.5c-0.5,0.3-0.9,0.7-1.2,1.2c-0.3,0.5-0.5,1.1-0.7,1.8c-0.1,0.7-0.2,1.3-0.2,2
		s0.1,1.4,0.2,2c0.1,0.7,0.4,1.2,0.7,1.8c0.3,0.5,0.7,0.9,1.2,1.2c0.5,0.3,1.2,0.5,1.9,0.5s1.4-0.2,1.9-0.5c0.5-0.3,0.9-0.7,1.2-1.2
		c0.3-0.5,0.5-1.1,0.7-1.8C583.3,37.1,583.3,36.4,583.3,35.7z"/>
	<path class="st1" d="M599.6,40.5c0,1.3-0.1,2.6-0.3,3.8c-0.2,1.2-0.5,2.4-0.9,3.5s-1,2.2-1.8,3.3c-0.8,1.1-1.7,2.1-2.9,3.1
		l-4.2-3.5c0.6-0.7,1.1-1.3,1.6-2c0.5-0.7,0.9-1.4,1.2-2.1c0.3-0.7,0.6-1.5,0.7-2.3c0.2-0.8,0.2-1.7,0.2-2.7V25.9h6.4V40.5z
		 M592.8,20.2c0-1,0.3-1.9,1-2.6c0.7-0.7,1.5-1,2.6-1c1.1,0,1.9,0.3,2.6,1c0.7,0.7,1,1.5,1,2.6c0,1-0.3,1.9-1,2.6
		c-0.7,0.7-1.5,1-2.6,1c-1.1,0-1.9-0.3-2.6-1C593.2,22.1,592.8,21.2,592.8,20.2z"/>
	<path class="st1" d="M615.1,43.6c-0.6,0.6-1.4,1.2-2.5,1.6c-1.1,0.5-2.2,0.7-3.5,0.7c-0.9,0-1.7-0.1-2.4-0.4s-1.3-0.7-1.7-1.2
		c-0.5-0.5-0.8-1.1-1.1-1.8c-0.3-0.7-0.4-1.4-0.4-2.2c0-1.8,0.6-3.2,1.7-4.1c1.1-0.9,2.7-1.5,4.8-1.6c0.8-0.1,1.6-0.1,2.5-0.1
		c0.9,0,1.6-0.1,2.3-0.1v-0.6c0-2.1-1.2-3.2-3.6-3.2c-0.9,0-1.8,0.1-2.7,0.3c-0.9,0.2-1.7,0.5-2.4,0.9l-1.2-4.4c0.9-0.5,2-1,3.3-1.3
		c1.3-0.3,2.6-0.5,4.1-0.5c2.7,0,4.9,0.7,6.4,2.1c1.5,1.4,2.3,3.6,2.3,6.4v11.4h-6.2V43.6z M611.6,41.7c0.6,0,1.2-0.1,1.7-0.2
		c0.5-0.2,1-0.4,1.5-0.6v-2.9c-0.6,0.1-1.2,0.1-1.7,0.2c-0.5,0.1-1,0.1-1.5,0.2c-1.3,0.2-2,0.8-2,1.8c0,0.5,0.2,0.9,0.5,1.2
		C610.6,41.6,611,41.7,611.6,41.7z"/>
	<path class="st1" d="M639.8,39.1c0,1.1-0.2,2.1-0.6,2.9c-0.4,0.9-1,1.6-1.8,2.1c-0.8,0.6-1.7,1-2.7,1.3c-1,0.3-2.2,0.4-3.4,0.4
		c-1.1,0-2.2-0.1-3.4-0.3c-1.2-0.2-2.2-0.5-3.2-0.9l0.9-4.4c0.8,0.3,1.7,0.6,2.7,0.8c1,0.2,1.9,0.3,2.6,0.3c0.8,0,1.4-0.1,2-0.3
		c0.6-0.2,0.9-0.6,0.9-1.1c0-0.5-0.3-0.8-0.8-1s-1.3-0.5-2.3-0.9c-0.8-0.3-1.6-0.6-2.3-1c-0.7-0.4-1.3-0.8-1.9-1.3
		c-0.5-0.5-0.9-1.1-1.2-1.7c-0.3-0.6-0.4-1.4-0.4-2.2c0-2.1,0.7-3.7,2.2-4.7c1.4-1,3.3-1.5,5.6-1.5c1.2,0,2.3,0.1,3.4,0.3
		s2,0.6,2.9,1.1l-0.9,4.2c-0.7-0.3-1.5-0.6-2.3-0.8c-0.8-0.2-1.6-0.3-2.5-0.3c-0.8,0-1.4,0.1-1.8,0.2c-0.4,0.1-0.6,0.4-0.6,0.9
		c0,0.5,0.2,0.8,0.7,1c0.5,0.2,1.1,0.4,1.9,0.7c0.6,0.2,1.2,0.5,2,0.8c0.7,0.3,1.4,0.7,2,1.2c0.6,0.5,1.2,1.1,1.6,1.7
		C639.5,37.3,639.8,38.1,639.8,39.1z"/>
	<path class="st1" d="M660.5,25.5c2.6,0,4.6,0.8,6.1,2.3c1.5,1.5,2.2,3.6,2.2,6.3c0,1-0.1,2.1-0.4,3.2h-11.4
		c0.1,1.2,0.5,2.2,1.2,2.9c0.8,0.7,1.9,1.1,3.5,1.1c1,0,2-0.1,3-0.3c1.1-0.2,2-0.4,2.7-0.8l0.8,4.1c-1,0.5-2.2,0.9-3.4,1.2
		s-2.6,0.4-3.9,0.4c-1.7,0-3.2-0.2-4.5-0.7s-2.4-1.2-3.3-2.1c-0.9-0.9-1.5-1.9-2-3.2s-0.7-2.6-0.7-4.1c0-1.6,0.2-3,0.7-4.3
		c0.5-1.3,1.1-2.4,2-3.3c0.9-0.9,1.9-1.6,3.1-2.1C657.6,25.8,659,25.5,660.5,25.5z M660.3,29.6c-1,0-1.8,0.3-2.3,1
		c-0.5,0.7-0.8,1.6-0.8,2.7h5.7c0.1-0.2,0.1-0.4,0.1-0.7c0-0.9-0.2-1.6-0.7-2.1S661.1,29.6,660.3,29.6z"/>
	<path class="st1" d="M686.6,39.1c0,1.1-0.2,2.1-0.6,2.9c-0.4,0.9-1,1.6-1.8,2.1c-0.8,0.6-1.7,1-2.7,1.3s-2.2,0.4-3.4,0.4
		c-1.1,0-2.2-0.1-3.4-0.3c-1.2-0.2-2.2-0.5-3.2-0.9l0.9-4.4c0.8,0.3,1.7,0.6,2.7,0.8c1,0.2,1.9,0.3,2.6,0.3c0.8,0,1.4-0.1,2-0.3
		c0.6-0.2,0.9-0.6,0.9-1.1c0-0.5-0.3-0.8-0.8-1s-1.3-0.5-2.3-0.9c-0.8-0.3-1.6-0.6-2.3-1s-1.3-0.8-1.9-1.3c-0.5-0.5-0.9-1.1-1.2-1.7
		c-0.3-0.6-0.4-1.4-0.4-2.2c0-2.1,0.7-3.7,2.2-4.7c1.4-1,3.3-1.5,5.6-1.5c1.2,0,2.3,0.1,3.4,0.3s2,0.6,2.9,1.1l-0.9,4.2
		c-0.7-0.3-1.5-0.6-2.3-0.8c-0.8-0.2-1.6-0.3-2.5-0.3c-0.8,0-1.4,0.1-1.8,0.2s-0.6,0.4-0.6,0.9c0,0.5,0.2,0.8,0.7,1s1.1,0.4,1.9,0.7
		c0.6,0.2,1.2,0.5,2,0.8c0.7,0.3,1.4,0.7,2,1.2c0.6,0.5,1.2,1.1,1.6,1.7C686.4,37.3,686.6,38.1,686.6,39.1z"/>
	<path class="st1" d="M690,25.9h6.1v2.3c1.3-1.8,3.2-2.7,5.9-2.7c1.1,0,2.1,0.2,3.1,0.7c1,0.5,1.8,1.1,2.5,2
		c0.7,0.9,1.3,1.9,1.7,3.1c0.4,1.2,0.6,2.6,0.6,4.1c0,1.7-0.3,3.2-0.8,4.5c-0.5,1.3-1.3,2.4-2.2,3.3s-2,1.5-3.2,2
		c-1.2,0.4-2.5,0.7-3.9,0.7c-0.7,0-1.3,0-1.8-0.1c-0.5-0.1-1-0.2-1.4-0.3v8.3H690V25.9z M699.7,30.4c-0.7,0-1.3,0.1-1.9,0.3
		c-0.5,0.2-1,0.6-1.4,1v9.1c0.3,0.1,0.6,0.2,1,0.2c0.4,0.1,0.8,0.1,1.3,0.1c1.7,0,2.9-0.5,3.6-1.5c0.7-1,1.1-2.4,1.1-4.1
		c0-1.4-0.3-2.6-0.9-3.6C702,30.9,701,30.4,699.7,30.4z"/>
	<path class="st1" d="M724.1,43.6c-0.6,0.6-1.4,1.2-2.5,1.6c-1.1,0.5-2.2,0.7-3.5,0.7c-0.9,0-1.7-0.1-2.4-0.4s-1.3-0.7-1.7-1.2
		c-0.5-0.5-0.8-1.1-1.1-1.8c-0.3-0.7-0.4-1.4-0.4-2.2c0-1.8,0.6-3.2,1.7-4.1s2.7-1.5,4.8-1.6c0.8-0.1,1.6-0.1,2.5-0.1
		c0.9,0,1.6-0.1,2.3-0.1v-0.6c0-2.1-1.2-3.2-3.6-3.2c-0.9,0-1.8,0.1-2.7,0.3c-0.9,0.2-1.7,0.5-2.4,0.9l-1.2-4.4c0.9-0.5,2-1,3.3-1.3
		c1.3-0.3,2.6-0.5,4.1-0.5c2.7,0,4.9,0.7,6.4,2.1c1.5,1.4,2.3,3.6,2.3,6.4v11.4h-6.2V43.6z M720.6,41.7c0.6,0,1.2-0.1,1.7-0.2
		c0.5-0.2,1-0.4,1.5-0.6v-2.9c-0.6,0.1-1.2,0.1-1.7,0.2c-0.5,0.1-1,0.1-1.5,0.2c-1.3,0.2-2,0.8-2,1.8c0,0.5,0.2,0.9,0.5,1.2
		C719.5,41.6,720,41.7,720.6,41.7z"/>
	<path class="st1" d="M740.9,39.5c0,0.5,0.1,0.9,0.3,1.2c0.2,0.3,0.6,0.4,1.2,0.4c0.4,0,0.8,0,1.4-0.1l0.2,4.4
		c-0.5,0.2-1.1,0.3-1.8,0.4c-0.7,0.1-1.4,0.1-2.1,0.1c-1.1,0-2-0.2-2.7-0.5s-1.3-0.7-1.7-1.3c-0.4-0.5-0.7-1.1-0.9-1.8
		c-0.2-0.7-0.3-1.4-0.3-2.1v-23h6.4V39.5z"/>
	<path class="st1" d="M746.8,45.5V17.3h6.4v11c0.6-0.9,1.3-1.6,2.3-2.1c0.9-0.4,1.9-0.7,3-0.7c1.3,0,2.4,0.3,3.3,0.8
		c0.9,0.5,1.6,1.3,2.2,2.2c0.6,0.9,1,2,1.2,3.1c0.3,1.2,0.4,2.4,0.4,3.7v10.1h-6.4V35.3c0-1.6-0.3-2.8-0.8-3.6
		c-0.5-0.8-1.3-1.1-2.3-1.1c-0.7,0-1.2,0.1-1.7,0.4c-0.5,0.3-0.9,0.7-1.2,1.1v13.4H746.8z"/>
	<path class="st1" d="M780.9,43.6c-0.6,0.6-1.4,1.2-2.5,1.6c-1.1,0.5-2.2,0.7-3.5,0.7c-0.9,0-1.7-0.1-2.4-0.4s-1.3-0.7-1.7-1.2
		c-0.5-0.5-0.8-1.1-1.1-1.8c-0.3-0.7-0.4-1.4-0.4-2.2c0-1.8,0.6-3.2,1.7-4.1s2.7-1.5,4.8-1.6c0.8-0.1,1.6-0.1,2.5-0.1
		c0.9,0,1.6-0.1,2.3-0.1v-0.6c0-2.1-1.2-3.2-3.6-3.2c-0.9,0-1.8,0.1-2.7,0.3c-0.9,0.2-1.7,0.5-2.4,0.9l-1.2-4.4c0.9-0.5,2-1,3.3-1.3
		c1.3-0.3,2.6-0.5,4.1-0.5c2.7,0,4.9,0.7,6.4,2.1c1.5,1.4,2.3,3.6,2.3,6.4v11.4h-6.2V43.6z M777.4,41.7c0.6,0,1.2-0.1,1.7-0.2
		c0.5-0.2,1-0.4,1.5-0.6v-2.9c-0.6,0.1-1.2,0.1-1.7,0.2c-0.5,0.1-1,0.1-1.5,0.2c-1.3,0.2-2,0.8-2,1.8c0,0.5,0.2,0.9,0.5,1.2
		C776.3,41.6,776.8,41.7,777.4,41.7z"/>
	<path class="st1" d="M810.1,45.5H804v-2.5c-0.6,0.9-1.4,1.6-2.4,2.1s-2.1,0.8-3.5,0.8c-1.1,0-2.1-0.2-3.1-0.7c-1-0.5-1.8-1.1-2.5-2
		c-0.7-0.9-1.3-1.9-1.7-3.1c-0.4-1.2-0.6-2.6-0.6-4.1c0-1.7,0.3-3.2,0.8-4.5c0.5-1.3,1.3-2.4,2.2-3.3s2-1.5,3.2-2
		c1.2-0.4,2.5-0.7,3.9-0.7c0.7,0,1.3,0,1.8,0.1c0.5,0.1,1,0.2,1.4,0.3v-8.7h6.4V45.5z M800.4,41c1.4,0,2.5-0.5,3.3-1.4v-9
		c-0.6-0.2-1.3-0.3-2.3-0.3c-1.6,0-2.8,0.5-3.6,1.5c-0.8,1-1.2,2.3-1.2,4.1c0,1.5,0.3,2.8,0.9,3.7S799.1,41,800.4,41z"/>
	<path class="st1" d="M825.6,43.6c-0.6,0.6-1.4,1.2-2.5,1.6c-1.1,0.5-2.2,0.7-3.5,0.7c-0.9,0-1.7-0.1-2.4-0.4s-1.3-0.7-1.7-1.2
		c-0.5-0.5-0.8-1.1-1.1-1.8c-0.3-0.7-0.4-1.4-0.4-2.2c0-1.8,0.6-3.2,1.7-4.1s2.7-1.5,4.8-1.6c0.8-0.1,1.6-0.1,2.5-0.1
		c0.9,0,1.6-0.1,2.3-0.1v-0.6c0-2.1-1.2-3.2-3.6-3.2c-0.9,0-1.8,0.1-2.7,0.3c-0.9,0.2-1.7,0.5-2.4,0.9l-1.2-4.4c0.9-0.5,2-1,3.3-1.3
		c1.3-0.3,2.6-0.5,4.1-0.5c2.7,0,4.9,0.7,6.4,2.1c1.5,1.4,2.3,3.6,2.3,6.4v11.4h-6.2V43.6z M822.2,41.7c0.6,0,1.2-0.1,1.7-0.2
		c0.5-0.2,1-0.4,1.5-0.6v-2.9c-0.6,0.1-1.2,0.1-1.7,0.2c-0.5,0.1-1,0.1-1.5,0.2c-1.3,0.2-2,0.8-2,1.8c0,0.5,0.2,0.9,0.5,1.2
		C821.1,41.6,821.5,41.7,822.2,41.7z"/>
	<path class="st1" d="M850.3,39.1c0,1.1-0.2,2.1-0.6,2.9c-0.4,0.9-1,1.6-1.8,2.1c-0.8,0.6-1.7,1-2.7,1.3s-2.2,0.4-3.4,0.4
		c-1.1,0-2.2-0.1-3.4-0.3c-1.2-0.2-2.2-0.5-3.2-0.9l0.9-4.4c0.8,0.3,1.7,0.6,2.7,0.8c1,0.2,1.9,0.3,2.6,0.3c0.8,0,1.4-0.1,2-0.3
		c0.6-0.2,0.9-0.6,0.9-1.1c0-0.5-0.3-0.8-0.8-1s-1.3-0.5-2.3-0.9c-0.8-0.3-1.6-0.6-2.3-1s-1.3-0.8-1.9-1.3c-0.5-0.5-0.9-1.1-1.2-1.7
		c-0.3-0.6-0.4-1.4-0.4-2.2c0-2.1,0.7-3.7,2.2-4.7c1.4-1,3.3-1.5,5.6-1.5c1.2,0,2.3,0.1,3.4,0.3s2,0.6,2.9,1.1l-0.9,4.2
		c-0.7-0.3-1.5-0.6-2.3-0.8c-0.8-0.2-1.6-0.3-2.5-0.3c-0.8,0-1.4,0.1-1.8,0.2s-0.6,0.4-0.6,0.9c0,0.5,0.2,0.8,0.7,1s1.1,0.4,1.9,0.7
		c0.6,0.2,1.2,0.5,2,0.8c0.7,0.3,1.4,0.7,2,1.2c0.6,0.5,1.2,1.1,1.6,1.7C850.1,37.3,850.3,38.1,850.3,39.1z"/>
	<path class="st1" d="M862.3,25.9h6.1v2.3c1.3-1.8,3.2-2.7,5.9-2.7c1.1,0,2.1,0.2,3.1,0.7c1,0.5,1.8,1.1,2.5,2
		c0.7,0.9,1.3,1.9,1.7,3.1c0.4,1.2,0.6,2.6,0.6,4.1c0,1.7-0.3,3.2-0.8,4.5c-0.5,1.3-1.3,2.4-2.2,3.3s-2,1.5-3.2,2
		c-1.2,0.4-2.5,0.7-3.9,0.7c-0.7,0-1.3,0-1.8-0.1c-0.5-0.1-1-0.2-1.4-0.3v8.3h-6.4V25.9z M872,30.4c-0.7,0-1.3,0.1-1.9,0.3
		c-0.5,0.2-1,0.6-1.4,1v9.1c0.3,0.1,0.6,0.2,1,0.2c0.4,0.1,0.8,0.1,1.3,0.1c1.7,0,2.9-0.5,3.6-1.5c0.7-1,1.1-2.4,1.1-4.1
		c0-1.4-0.3-2.6-0.9-3.6C874.3,30.9,873.3,30.4,872,30.4z"/>
	<path class="st1" d="M905.4,35.7c0,1.4-0.2,2.8-0.7,4c-0.5,1.2-1.1,2.3-2,3.2s-2,1.6-3.3,2.2c-1.3,0.5-2.8,0.8-4.5,0.8
		c-1.7,0-3.2-0.3-4.5-0.8c-1.3-0.5-2.4-1.2-3.3-2.2s-1.5-2-2-3.2c-0.5-1.2-0.7-2.6-0.7-4c0-1.4,0.2-2.8,0.7-4c0.5-1.2,1.1-2.3,2-3.2
		c0.9-0.9,2-1.6,3.3-2.2c1.3-0.5,2.8-0.8,4.5-0.8c1.7,0,3.2,0.3,4.5,0.8c1.3,0.5,2.4,1.2,3.3,2.2c0.9,0.9,1.5,2,2,3.2
		C905.2,32.9,905.4,34.3,905.4,35.7z M899,35.7c0-0.7-0.1-1.4-0.2-2c-0.1-0.7-0.4-1.2-0.7-1.8c-0.3-0.5-0.7-0.9-1.2-1.2
		c-0.5-0.3-1.2-0.5-1.9-0.5c-0.8,0-1.4,0.2-1.9,0.5c-0.5,0.3-0.9,0.7-1.2,1.2c-0.3,0.5-0.5,1.1-0.7,1.8c-0.1,0.7-0.2,1.3-0.2,2
		s0.1,1.4,0.2,2c0.1,0.7,0.4,1.2,0.7,1.8c0.3,0.5,0.7,0.9,1.2,1.2c0.5,0.3,1.2,0.5,1.9,0.5c0.8,0,1.4-0.2,1.9-0.5
		c0.5-0.3,0.9-0.7,1.2-1.2c0.3-0.5,0.5-1.1,0.7-1.8C898.9,37.1,899,36.4,899,35.7z"/>
	<path class="st1" d="M921.4,31.4h-0.8c-2.5,0-4.3,0.6-5.4,1.9v12.2h-6.4V25.9h6.2v3.3c0.4-1.1,0.9-1.9,1.7-2.5
		c0.8-0.6,1.8-0.9,3-0.9c0.4,0,0.7,0,0.9,0.1c0.3,0,0.5,0.1,0.8,0.2L921.4,31.4z"/>
</g>
<g class="st0">
	<path class="st1" d="M89.1,73.9h3v-5.1h6.4v5.1h5.6v4.9h-5.6v7.6c0,0.8,0.2,1.4,0.5,1.8c0.3,0.4,0.9,0.7,1.8,0.7c0.5,0,1,0,1.5-0.1
		c0.5-0.1,1-0.2,1.4-0.3l0.4,4.5c-0.6,0.3-1.4,0.5-2.4,0.7c-0.9,0.2-1.9,0.2-2.8,0.2c-1.3,0-2.3-0.2-3.2-0.6
		c-0.9-0.4-1.6-0.9-2.1-1.6c-0.5-0.7-0.9-1.4-1.2-2.3c-0.3-0.9-0.4-1.8-0.4-2.9v-7.8h-3V73.9z"/>
	<path class="st1" d="M126.9,83.7c0,1.4-0.2,2.8-0.7,4c-0.5,1.2-1.1,2.3-2,3.2c-0.9,0.9-2,1.6-3.3,2.2c-1.3,0.5-2.8,0.8-4.5,0.8
		s-3.2-0.3-4.5-0.8c-1.3-0.5-2.4-1.2-3.3-2.2c-0.9-0.9-1.5-2-2-3.2c-0.5-1.2-0.7-2.6-0.7-4c0-1.4,0.2-2.8,0.7-4
		c0.5-1.2,1.1-2.3,2-3.2c0.9-0.9,2-1.6,3.3-2.2c1.3-0.5,2.8-0.8,4.5-0.8s3.2,0.3,4.5,0.8c1.3,0.5,2.4,1.2,3.3,2.2
		c0.9,0.9,1.5,2,2,3.2C126.7,80.9,126.9,82.3,126.9,83.7z M120.5,83.7c0-0.7-0.1-1.4-0.2-2c-0.1-0.7-0.4-1.2-0.7-1.8
		c-0.3-0.5-0.7-0.9-1.2-1.2c-0.5-0.3-1.2-0.5-1.9-0.5c-0.8,0-1.4,0.2-1.9,0.5c-0.5,0.3-0.9,0.7-1.2,1.2c-0.3,0.5-0.5,1.1-0.7,1.8
		c-0.1,0.7-0.2,1.3-0.2,2s0.1,1.4,0.2,2c0.1,0.7,0.4,1.2,0.7,1.8c0.3,0.5,0.7,0.9,1.2,1.2c0.5,0.3,1.2,0.5,1.9,0.5
		c0.8,0,1.4-0.2,1.9-0.5c0.5-0.3,0.9-0.7,1.2-1.2c0.3-0.5,0.5-1.1,0.7-1.8C120.4,85.1,120.5,84.4,120.5,83.7z"/>
	<path class="st1" d="M149,93.5h-6.1v-2.5c-0.6,0.9-1.4,1.6-2.4,2.1c-1,0.5-2.1,0.8-3.5,0.8c-1.1,0-2.1-0.2-3.1-0.7
		c-1-0.5-1.8-1.1-2.5-2s-1.3-1.9-1.7-3.1c-0.4-1.2-0.6-2.6-0.6-4.1c0-1.7,0.3-3.2,0.8-4.5c0.5-1.3,1.3-2.4,2.2-3.3s2-1.5,3.2-2
		c1.2-0.4,2.5-0.7,3.9-0.7c0.7,0,1.3,0,1.8,0.1c0.5,0.1,1,0.2,1.4,0.3v-8.7h6.4V93.5z M139.3,89c1.4,0,2.5-0.5,3.3-1.4v-9
		c-0.6-0.2-1.3-0.3-2.3-0.3c-1.6,0-2.8,0.5-3.6,1.5c-0.8,1-1.2,2.3-1.2,4.1c0,1.5,0.3,2.8,0.9,3.7S138,89,139.3,89z"/>
	<path class="st1" d="M173.3,83.7c0,1.4-0.2,2.8-0.7,4c-0.5,1.2-1.1,2.3-2,3.2c-0.9,0.9-2,1.6-3.3,2.2c-1.3,0.5-2.8,0.8-4.5,0.8
		s-3.2-0.3-4.5-0.8c-1.3-0.5-2.4-1.2-3.3-2.2c-0.9-0.9-1.5-2-2-3.2c-0.5-1.2-0.7-2.6-0.7-4c0-1.4,0.2-2.8,0.7-4
		c0.5-1.2,1.1-2.3,2-3.2c0.9-0.9,2-1.6,3.3-2.2c1.3-0.5,2.8-0.8,4.5-0.8s3.2,0.3,4.5,0.8c1.3,0.5,2.4,1.2,3.3,2.2
		c0.9,0.9,1.5,2,2,3.2C173.1,80.9,173.3,82.3,173.3,83.7z M166.9,83.7c0-0.7-0.1-1.4-0.2-2c-0.1-0.7-0.4-1.2-0.7-1.8
		c-0.3-0.5-0.7-0.9-1.2-1.2c-0.5-0.3-1.2-0.5-1.9-0.5c-0.8,0-1.4,0.2-1.9,0.5c-0.5,0.3-0.9,0.7-1.2,1.2c-0.3,0.5-0.5,1.1-0.7,1.8
		c-0.1,0.7-0.2,1.3-0.2,2s0.1,1.4,0.2,2c0.1,0.7,0.4,1.2,0.7,1.8c0.3,0.5,0.7,0.9,1.2,1.2c0.5,0.3,1.2,0.5,1.9,0.5
		c0.8,0,1.4-0.2,1.9-0.5c0.5-0.3,0.9-0.7,1.2-1.2c0.3-0.5,0.5-1.1,0.7-1.8C166.9,85.1,166.9,84.4,166.9,83.7z"/>
	<path class="st1" d="M204.9,83.7c0,1.4-0.2,2.8-0.7,4c-0.5,1.2-1.1,2.3-2,3.2c-0.9,0.9-2,1.6-3.3,2.2c-1.3,0.5-2.8,0.8-4.5,0.8
		s-3.2-0.3-4.5-0.8c-1.3-0.5-2.4-1.2-3.3-2.2c-0.9-0.9-1.5-2-2-3.2c-0.5-1.2-0.7-2.6-0.7-4c0-1.4,0.2-2.8,0.7-4
		c0.5-1.2,1.1-2.3,2-3.2c0.9-0.9,2-1.6,3.3-2.2c1.3-0.5,2.8-0.8,4.5-0.8s3.2,0.3,4.5,0.8c1.3,0.5,2.4,1.2,3.3,2.2
		c0.9,0.9,1.5,2,2,3.2C204.7,80.9,204.9,82.3,204.9,83.7z M198.5,83.7c0-0.7-0.1-1.4-0.2-2c-0.1-0.7-0.4-1.2-0.7-1.8
		c-0.3-0.5-0.7-0.9-1.2-1.2c-0.5-0.3-1.2-0.5-1.9-0.5c-0.8,0-1.4,0.2-1.9,0.5c-0.5,0.3-0.9,0.7-1.2,1.2c-0.3,0.5-0.5,1.1-0.7,1.8
		c-0.1,0.7-0.2,1.3-0.2,2s0.1,1.4,0.2,2c0.1,0.7,0.4,1.2,0.7,1.8c0.3,0.5,0.7,0.9,1.2,1.2c0.5,0.3,1.2,0.5,1.9,0.5
		c0.8,0,1.4-0.2,1.9-0.5c0.5-0.3,0.9-0.7,1.2-1.2c0.3-0.5,0.5-1.1,0.7-1.8C198.4,85.1,198.5,84.4,198.5,83.7z"/>
	<path class="st1" d="M216.9,73.9h6.1v2.3c1.3-1.8,3.2-2.7,5.9-2.7c1.1,0,2.1,0.2,3.1,0.7s1.8,1.1,2.5,2c0.7,0.9,1.3,1.9,1.7,3.1
		s0.6,2.6,0.6,4.1c0,1.7-0.3,3.2-0.8,4.5c-0.5,1.3-1.3,2.4-2.2,3.3c-0.9,0.9-2,1.5-3.2,2c-1.2,0.4-2.5,0.7-3.9,0.7
		c-0.7,0-1.3,0-1.8-0.1c-0.5-0.1-1-0.2-1.4-0.3v8.3h-6.4V73.9z M226.6,78.4c-0.7,0-1.3,0.1-1.9,0.3c-0.5,0.2-1,0.6-1.4,1v9.1
		c0.3,0.1,0.6,0.2,1,0.2c0.4,0.1,0.8,0.1,1.3,0.1c1.7,0,2.9-0.5,3.6-1.5c0.7-1,1.1-2.4,1.1-4.1c0-1.4-0.3-2.6-0.9-3.6
		C228.9,78.9,227.9,78.4,226.6,78.4z"/>
	<path class="st1" d="M251,91.6c-0.6,0.6-1.4,1.2-2.5,1.6c-1.1,0.5-2.2,0.7-3.5,0.7c-0.9,0-1.7-0.1-2.4-0.4s-1.3-0.7-1.7-1.2
		c-0.5-0.5-0.8-1.1-1.1-1.8c-0.3-0.7-0.4-1.4-0.4-2.2c0-1.8,0.6-3.2,1.7-4.1c1.1-0.9,2.7-1.5,4.8-1.6c0.8-0.1,1.6-0.1,2.5-0.1
		c0.9,0,1.6-0.1,2.3-0.1v-0.6c0-2.1-1.2-3.2-3.6-3.2c-0.9,0-1.8,0.1-2.7,0.3c-0.9,0.2-1.7,0.5-2.4,0.9l-1.2-4.4c0.9-0.5,2-1,3.3-1.3
		c1.3-0.3,2.6-0.5,4.1-0.5c2.7,0,4.9,0.7,6.4,2.1c1.5,1.4,2.3,3.6,2.3,6.4v11.4H251V91.6z M247.5,89.7c0.6,0,1.2-0.1,1.7-0.2
		c0.5-0.2,1-0.4,1.5-0.6v-2.9c-0.6,0.1-1.2,0.1-1.7,0.2c-0.5,0.1-1,0.1-1.5,0.2c-1.3,0.2-2,0.8-2,1.8c0,0.5,0.2,0.9,0.5,1.2
		C246.5,89.6,246.9,89.7,247.5,89.7z"/>
	<path class="st1" d="M261.7,93.5V73.9h6.4v19.6H261.7z M262.3,71.1l2.9-6.8h7l-4.6,6.8H262.3z"/>
	<path class="st1" d="M286.9,87.1c0,1.1-0.2,2.1-0.6,2.9c-0.4,0.9-1,1.6-1.8,2.1c-0.8,0.6-1.7,1-2.7,1.3c-1,0.3-2.2,0.4-3.4,0.4
		c-1.1,0-2.2-0.1-3.4-0.3c-1.2-0.2-2.2-0.5-3.2-0.9l0.9-4.4c0.8,0.3,1.7,0.6,2.7,0.8c1,0.2,1.9,0.3,2.6,0.3c0.8,0,1.4-0.1,2-0.3
		c0.6-0.2,0.9-0.6,0.9-1.1c0-0.5-0.3-0.8-0.8-1c-0.5-0.2-1.3-0.5-2.3-0.9c-0.8-0.3-1.6-0.6-2.3-1c-0.7-0.4-1.3-0.8-1.9-1.3
		c-0.5-0.5-0.9-1.1-1.2-1.7c-0.3-0.6-0.4-1.4-0.4-2.2c0-2.1,0.7-3.7,2.2-4.7c1.4-1,3.3-1.5,5.6-1.5c1.2,0,2.3,0.1,3.4,0.3
		c1,0.2,2,0.6,2.9,1.1l-0.9,4.2c-0.7-0.3-1.5-0.6-2.3-0.8c-0.8-0.2-1.6-0.3-2.5-0.3c-0.8,0-1.4,0.1-1.8,0.2
		c-0.4,0.1-0.6,0.4-0.6,0.9c0,0.5,0.2,0.8,0.7,1c0.5,0.2,1.1,0.4,1.9,0.7c0.6,0.2,1.2,0.5,2,0.8c0.7,0.3,1.4,0.7,2,1.2
		c0.6,0.5,1.2,1.1,1.6,1.7C286.6,85.3,286.9,86.1,286.9,87.1z"/>
	<path class="st1" d="M289.2,97.7c0.3-0.9,0.6-1.7,0.9-2.4c0.2-0.8,0.4-1.5,0.6-2.3c0.2-0.8,0.3-1.6,0.4-2.4
		c0.1-0.9,0.2-1.8,0.2-2.8l6.3,0.5c-0.1,1.1-0.2,2.1-0.4,3.1c-0.2,1-0.4,1.9-0.8,2.9c-0.3,0.9-0.8,1.9-1.3,2.8
		c-0.5,0.9-1.2,1.9-1.9,2.8L289.2,97.7z"/>
	<path class="st1" d="M321.7,91.6c-0.6,0.6-1.4,1.2-2.5,1.6c-1.1,0.5-2.2,0.7-3.5,0.7c-0.9,0-1.7-0.1-2.4-0.4s-1.3-0.7-1.7-1.2
		c-0.5-0.5-0.8-1.1-1.1-1.8c-0.3-0.7-0.4-1.4-0.4-2.2c0-1.8,0.6-3.2,1.7-4.1c1.1-0.9,2.7-1.5,4.8-1.6c0.8-0.1,1.6-0.1,2.5-0.1
		c0.9,0,1.6-0.1,2.3-0.1v-0.6c0-2.1-1.2-3.2-3.6-3.2c-0.9,0-1.8,0.1-2.7,0.3c-0.9,0.2-1.7,0.5-2.4,0.9l-1.2-4.4c0.9-0.5,2-1,3.3-1.3
		c1.3-0.3,2.6-0.5,4.1-0.5c2.7,0,4.9,0.7,6.4,2.1c1.5,1.4,2.3,3.6,2.3,6.4v11.4h-6.2V91.6z M318.2,89.7c0.6,0,1.2-0.1,1.7-0.2
		c0.5-0.2,1-0.4,1.5-0.6v-2.9c-0.6,0.1-1.2,0.1-1.7,0.2c-0.5,0.1-1,0.1-1.5,0.2c-1.3,0.2-2,0.8-2,1.8c0,0.5,0.2,0.9,0.5,1.2
		C317.1,89.6,317.6,89.7,318.2,89.7z"/>
	<path class="st1" d="M341.6,73.5c1,0,2,0.1,3,0.3c1,0.2,1.8,0.5,2.5,0.9l-0.6,4.6c-0.5-0.2-1.1-0.4-1.8-0.5
		c-0.7-0.2-1.4-0.2-2.1-0.2c-1.7,0-3,0.5-3.8,1.4c-0.9,0.9-1.3,2.2-1.3,3.8s0.4,2.9,1.3,3.8c0.9,0.9,2.1,1.4,3.8,1.4
		c0.7,0,1.4-0.1,2.1-0.2c0.7-0.2,1.3-0.3,1.8-0.5l0.6,4.6c-0.7,0.4-1.6,0.7-2.5,0.9c-1,0.2-2,0.3-3,0.3c-1.7,0-3.1-0.2-4.5-0.7
		c-1.3-0.5-2.4-1.2-3.3-2.1c-0.9-0.9-1.6-2-2.1-3.2c-0.5-1.3-0.7-2.6-0.7-4.2c0-1.5,0.2-2.9,0.7-4.2c0.5-1.3,1.2-2.3,2.1-3.2
		c0.9-0.9,2-1.6,3.3-2.1C338.4,73.8,339.9,73.5,341.6,73.5z"/>
	<path class="st1" d="M350.5,93.5V65.3h6.4v11c0.6-0.9,1.3-1.6,2.3-2.1c0.9-0.4,1.9-0.7,3-0.7c1.3,0,2.4,0.3,3.3,0.8
		c0.9,0.5,1.6,1.3,2.2,2.2c0.6,0.9,1,2,1.2,3.1c0.3,1.2,0.4,2.4,0.4,3.7v10.1h-6.4V83.3c0-1.6-0.3-2.8-0.8-3.6
		c-0.5-0.8-1.3-1.1-2.3-1.1c-0.7,0-1.2,0.1-1.7,0.4c-0.5,0.3-0.9,0.7-1.2,1.1v13.4H350.5z"/>
	<path class="st1" d="M382.5,73.5c2.6,0,4.6,0.8,6.1,2.3c1.5,1.5,2.2,3.6,2.2,6.3c0,1-0.1,2.1-0.4,3.2h-11.4
		c0.1,1.2,0.5,2.2,1.2,2.9c0.8,0.7,1.9,1.1,3.5,1.1c1,0,2-0.1,3-0.3c1.1-0.2,2-0.4,2.7-0.8l0.8,4.1c-1,0.5-2.2,0.9-3.4,1.2
		c-1.3,0.3-2.6,0.4-3.9,0.4c-1.7,0-3.2-0.2-4.5-0.7c-1.3-0.5-2.4-1.2-3.3-2.1c-0.9-0.9-1.5-1.9-2-3.2c-0.5-1.2-0.7-2.6-0.7-4.1
		c0-1.6,0.2-3,0.7-4.3c0.5-1.3,1.1-2.4,2-3.3c0.9-0.9,1.9-1.6,3.1-2.1C379.6,73.8,381,73.5,382.5,73.5z M382.3,77.6
		c-1,0-1.8,0.3-2.3,1c-0.5,0.7-0.8,1.6-0.8,2.7h5.7c0.1-0.2,0.1-0.4,0.1-0.7c0-0.9-0.2-1.6-0.7-2.1
		C383.8,77.9,383.1,77.6,382.3,77.6z"/>
	<path class="st1" d="M413.8,91.6c-0.6,0.6-1.4,1.2-2.5,1.6c-1.1,0.5-2.2,0.7-3.5,0.7c-0.9,0-1.7-0.1-2.4-0.4s-1.3-0.7-1.7-1.2
		c-0.5-0.5-0.8-1.1-1.1-1.8c-0.3-0.7-0.4-1.4-0.4-2.2c0-1.8,0.6-3.2,1.7-4.1c1.1-0.9,2.7-1.5,4.8-1.6c0.8-0.1,1.6-0.1,2.5-0.1
		c0.9,0,1.6-0.1,2.3-0.1v-0.6c0-2.1-1.2-3.2-3.6-3.2c-0.9,0-1.8,0.1-2.7,0.3c-0.9,0.2-1.7,0.5-2.4,0.9l-1.2-4.4c0.9-0.5,2-1,3.3-1.3
		c1.3-0.3,2.6-0.5,4.1-0.5c2.7,0,4.9,0.7,6.4,2.1c1.5,1.4,2.3,3.6,2.3,6.4v11.4h-6.2V91.6z M410.3,89.7c0.6,0,1.2-0.1,1.7-0.2
		c0.5-0.2,1-0.4,1.5-0.6v-2.9c-0.6,0.1-1.2,0.1-1.7,0.2c-0.5,0.1-1,0.1-1.5,0.2c-1.3,0.2-2,0.8-2,1.8c0,0.5,0.2,0.9,0.5,1.2
		C409.2,89.6,409.7,89.7,410.3,89.7z"/>
	<path class="st1" d="M442.7,73.9V78h-2.9l0,0c0.3,0.8,0.4,1.6,0.4,2.3c0,0.9-0.2,1.8-0.5,2.6c-0.4,0.8-0.9,1.5-1.6,2.1
		c-0.7,0.6-1.6,1.1-2.6,1.4c-1.1,0.3-2.3,0.5-3.7,0.5h-0.2c-0.1,0.2-0.2,0.4-0.3,0.5c-0.1,0.2-0.1,0.4-0.1,0.6
		c0,0.4,0.1,0.6,0.4,0.8c0.3,0.2,0.6,0.3,1.1,0.3l3.4,0.2c2,0.1,3.6,0.6,4.7,1.5c1.2,0.9,1.8,2.2,1.8,4c0,1.2-0.3,2.3-1,3.2
		c-0.7,0.9-1.5,1.7-2.6,2.3c-1.1,0.6-2.3,1.1-3.7,1.4c-1.4,0.3-2.7,0.5-4.2,0.5c-1.1,0-2.2-0.1-3.3-0.2c-1.1-0.2-2-0.4-2.8-0.8
		c-0.8-0.4-1.5-0.9-2-1.5c-0.5-0.6-0.8-1.4-0.8-2.4c0-0.6,0.1-1.2,0.4-1.6c0.3-0.5,0.6-0.9,1.1-1.2c0.5-0.3,1-0.6,1.6-0.9
		c0.6-0.2,1.2-0.4,1.8-0.6c-1.2-0.6-1.8-1.5-1.8-2.7c0-0.5,0.1-1,0.3-1.4c0.2-0.4,0.4-0.8,0.7-1.1c0.3-0.3,0.6-0.6,1-0.8
		s0.7-0.4,1-0.5c-1.7-0.5-3-1.2-3.9-2.3c-0.9-1.1-1.3-2.4-1.3-3.9c0-1,0.2-1.8,0.5-2.7c0.4-0.8,0.9-1.5,1.6-2.1
		c0.7-0.6,1.6-1.1,2.6-1.4c1.1-0.3,2.3-0.5,3.7-0.5c0.6,0,1.1,0,1.7,0.1c0.5,0.1,1,0.2,1.5,0.3H442.7z M429.9,93.6
		c-0.3,0.2-0.7,0.5-1,0.9c-0.3,0.3-0.5,0.8-0.5,1.4c0,0.7,0.3,1.3,0.9,1.6s1.5,0.5,2.6,0.5c0.6,0,1.2-0.1,1.7-0.2
		c0.6-0.1,1.1-0.3,1.5-0.5c0.5-0.2,0.8-0.5,1.1-0.8c0.3-0.3,0.4-0.7,0.4-1.1c0-0.5-0.2-0.8-0.5-1c-0.3-0.2-0.9-0.3-1.6-0.4
		L429.9,93.6z M431.8,83c0.9,0,1.6-0.2,2.1-0.7s0.7-1.2,0.7-2c0-0.9-0.2-1.5-0.7-2s-1.2-0.7-2.1-0.7c-0.9,0-1.6,0.2-2.1,0.7
		s-0.7,1.2-0.7,2c0,0.9,0.2,1.5,0.7,2S430.8,83,431.8,83z"/>
	<path class="st1" d="M465.1,83.7c0,1.4-0.2,2.8-0.7,4c-0.5,1.2-1.1,2.3-2,3.2c-0.9,0.9-2,1.6-3.3,2.2c-1.3,0.5-2.8,0.8-4.5,0.8
		s-3.2-0.3-4.5-0.8c-1.3-0.5-2.4-1.2-3.3-2.2c-0.9-0.9-1.5-2-2-3.2c-0.5-1.2-0.7-2.6-0.7-4c0-1.4,0.2-2.8,0.7-4
		c0.5-1.2,1.1-2.3,2-3.2c0.9-0.9,2-1.6,3.3-2.2c1.3-0.5,2.8-0.8,4.5-0.8s3.2,0.3,4.5,0.8c1.3,0.5,2.4,1.2,3.3,2.2
		c0.9,0.9,1.5,2,2,3.2C464.9,80.9,465.1,82.3,465.1,83.7z M458.7,83.7c0-0.7-0.1-1.4-0.2-2c-0.1-0.7-0.4-1.2-0.7-1.8
		c-0.3-0.5-0.7-0.9-1.2-1.2c-0.5-0.3-1.2-0.5-1.9-0.5c-0.8,0-1.4,0.2-1.9,0.5c-0.5,0.3-0.9,0.7-1.2,1.2c-0.3,0.5-0.5,1.1-0.7,1.8
		c-0.1,0.7-0.2,1.3-0.2,2s0.1,1.4,0.2,2c0.1,0.7,0.4,1.2,0.7,1.8c0.3,0.5,0.7,0.9,1.2,1.2c0.5,0.3,1.2,0.5,1.9,0.5
		c0.8,0,1.4-0.2,1.9-0.5c0.5-0.3,0.9-0.7,1.2-1.2c0.3-0.5,0.5-1.1,0.7-1.8C458.6,85.1,458.7,84.4,458.7,83.7z"/>
	<path class="st1" d="M481.1,79.4h-0.8c-2.5,0-4.3,0.6-5.4,1.9v12.2h-6.4V73.9h6.2v3.3c0.4-1.1,0.9-1.9,1.7-2.5s1.8-0.9,3-0.9
		c0.4,0,0.7,0,0.9,0.1s0.5,0.1,0.8,0.2L481.1,79.4z"/>
	<path class="st1" d="M494.1,91.6c-0.6,0.6-1.4,1.2-2.5,1.6c-1.1,0.5-2.2,0.7-3.5,0.7c-0.9,0-1.7-0.1-2.4-0.4s-1.3-0.7-1.7-1.2
		c-0.5-0.5-0.8-1.1-1.1-1.8c-0.3-0.7-0.4-1.4-0.4-2.2c0-1.8,0.6-3.2,1.7-4.1c1.1-0.9,2.7-1.5,4.8-1.6c0.8-0.1,1.6-0.1,2.5-0.1
		c0.9,0,1.6-0.1,2.3-0.1v-0.6c0-2.1-1.2-3.2-3.6-3.2c-0.9,0-1.8,0.1-2.7,0.3c-0.9,0.2-1.7,0.5-2.4,0.9l-1.2-4.4c0.9-0.5,2-1,3.3-1.3
		c1.3-0.3,2.6-0.5,4.1-0.5c2.7,0,4.9,0.7,6.4,2.1c1.5,1.4,2.3,3.6,2.3,6.4v11.4h-6.2V91.6z M490.6,89.7c0.6,0,1.2-0.1,1.7-0.2
		c0.5-0.2,1-0.4,1.5-0.6v-2.9c-0.6,0.1-1.2,0.1-1.7,0.2c-0.5,0.1-1,0.1-1.5,0.2c-1.3,0.2-2,0.8-2,1.8c0,0.5,0.2,0.9,0.5,1.2
		C489.5,89.6,490,89.7,490.6,89.7z"/>
	<path class="st1" d="M534.8,78.5c-0.7,0-1.3,0.2-1.8,0.5c-0.5,0.3-1,0.7-1.4,1.1c0.1,0.5,0.2,1,0.2,1.6s0.1,1.1,0.1,1.7v10.1h-6.4
		V83.3c0-1.6-0.2-2.8-0.6-3.6c-0.4-0.8-1.1-1.1-2.2-1.1c-0.7,0-1.2,0.1-1.7,0.4c-0.5,0.3-0.9,0.7-1.2,1.1v13.4h-6.4V73.9h6.2v2.6
		c0.6-1.1,1.4-1.8,2.4-2.3c1-0.5,2-0.7,3.1-0.7c1.3,0,2.3,0.3,3.2,0.8c0.8,0.5,1.6,1.4,2.4,2.5c1.4-2.2,3.6-3.3,6.5-3.3
		c1.3,0,2.4,0.3,3.2,0.8s1.6,1.3,2.1,2.2c0.5,0.9,0.9,2,1.2,3.1c0.2,1.2,0.4,2.4,0.4,3.7v10.1h-6.4V83.3c0-1.6-0.2-2.8-0.6-3.6
		C536.6,78.9,535.9,78.5,534.8,78.5z"/>
	<path class="st1" d="M557.2,73.5c2.6,0,4.6,0.8,6.1,2.3c1.5,1.5,2.2,3.6,2.2,6.3c0,1-0.1,2.1-0.4,3.2h-11.4
		c0.1,1.2,0.5,2.2,1.2,2.9s1.9,1.1,3.5,1.1c1,0,2-0.1,3-0.3c1.1-0.2,2-0.4,2.7-0.8l0.8,4.1c-1,0.5-2.2,0.9-3.4,1.2s-2.6,0.4-3.9,0.4
		c-1.7,0-3.2-0.2-4.5-0.7s-2.4-1.2-3.3-2.1c-0.9-0.9-1.5-1.9-2-3.2s-0.7-2.6-0.7-4.1c0-1.6,0.2-3,0.7-4.3c0.5-1.3,1.1-2.4,2-3.3
		c0.9-0.9,1.9-1.6,3.1-2.1C554.3,73.8,555.7,73.5,557.2,73.5z M557,77.6c-1,0-1.8,0.3-2.3,1c-0.5,0.7-0.8,1.6-0.8,2.7h5.7
		c0.1-0.2,0.1-0.4,0.1-0.7c0-0.9-0.2-1.6-0.7-2.1S557.8,77.6,557,77.6z"/>
	<path class="st1" d="M583.3,87.1c0,1.1-0.2,2.1-0.6,2.9c-0.4,0.9-1,1.6-1.8,2.1c-0.8,0.6-1.7,1-2.7,1.3c-1,0.3-2.2,0.4-3.4,0.4
		c-1.1,0-2.2-0.1-3.4-0.3c-1.2-0.2-2.2-0.5-3.2-0.9l0.9-4.4c0.8,0.3,1.7,0.6,2.7,0.8c1,0.2,1.9,0.3,2.6,0.3c0.8,0,1.4-0.1,2-0.3
		c0.6-0.2,0.9-0.6,0.9-1.1c0-0.5-0.3-0.8-0.8-1s-1.3-0.5-2.3-0.9c-0.8-0.3-1.6-0.6-2.3-1c-0.7-0.4-1.3-0.8-1.9-1.3
		c-0.5-0.5-0.9-1.1-1.2-1.7c-0.3-0.6-0.4-1.4-0.4-2.2c0-2.1,0.7-3.7,2.2-4.7c1.4-1,3.3-1.5,5.6-1.5c1.2,0,2.3,0.1,3.4,0.3
		s2,0.6,2.9,1.1l-0.9,4.2c-0.7-0.3-1.5-0.6-2.3-0.8c-0.8-0.2-1.6-0.3-2.5-0.3c-0.8,0-1.4,0.1-1.8,0.2c-0.4,0.1-0.6,0.4-0.6,0.9
		c0,0.5,0.2,0.8,0.7,1c0.5,0.2,1.1,0.4,1.9,0.7c0.6,0.2,1.2,0.5,2,0.8c0.7,0.3,1.4,0.7,2,1.2c0.6,0.5,1.2,1.1,1.6,1.7
		C583.1,85.3,583.3,86.1,583.3,87.1z"/>
	<path class="st1" d="M608.2,78.5c-0.7,0-1.3,0.2-1.8,0.5c-0.5,0.3-1,0.7-1.4,1.1c0.1,0.5,0.2,1,0.2,1.6s0.1,1.1,0.1,1.7v10.1h-6.4
		V83.3c0-1.6-0.2-2.8-0.6-3.6c-0.4-0.8-1.1-1.1-2.2-1.1c-0.7,0-1.2,0.1-1.7,0.4c-0.5,0.3-0.9,0.7-1.2,1.1v13.4h-6.4V73.9h6.2v2.6
		c0.6-1.1,1.4-1.8,2.4-2.3c1-0.5,2-0.7,3.1-0.7c1.3,0,2.3,0.3,3.2,0.8c0.8,0.5,1.6,1.4,2.4,2.5c1.4-2.2,3.6-3.3,6.5-3.3
		c1.3,0,2.4,0.3,3.2,0.8s1.6,1.3,2.1,2.2c0.5,0.9,0.9,2,1.2,3.1c0.2,1.2,0.4,2.4,0.4,3.7v10.1H611V83.3c0-1.6-0.2-2.8-0.6-3.6
		C610,78.9,609.3,78.5,608.2,78.5z"/>
	<path class="st1" d="M641.5,83.7c0,1.4-0.2,2.8-0.7,4c-0.5,1.2-1.1,2.3-2,3.2s-2,1.6-3.3,2.2c-1.3,0.5-2.8,0.8-4.5,0.8
		c-1.7,0-3.2-0.3-4.5-0.8c-1.3-0.5-2.4-1.2-3.3-2.2s-1.5-2-2-3.2c-0.5-1.2-0.7-2.6-0.7-4c0-1.4,0.2-2.8,0.7-4c0.5-1.2,1.1-2.3,2-3.2
		c0.9-0.9,2-1.6,3.3-2.2c1.3-0.5,2.8-0.8,4.5-0.8c1.7,0,3.2,0.3,4.5,0.8c1.3,0.5,2.4,1.2,3.3,2.2c0.9,0.9,1.5,2,2,3.2
		C641.2,80.9,641.5,82.3,641.5,83.7z M635.1,83.7c0-0.7-0.1-1.4-0.2-2c-0.1-0.7-0.4-1.2-0.7-1.8c-0.3-0.5-0.7-0.9-1.2-1.2
		c-0.5-0.3-1.2-0.5-1.9-0.5c-0.8,0-1.4,0.2-1.9,0.5c-0.5,0.3-0.9,0.7-1.2,1.2c-0.3,0.5-0.5,1.1-0.7,1.8c-0.1,0.7-0.2,1.3-0.2,2
		s0.1,1.4,0.2,2c0.1,0.7,0.4,1.2,0.7,1.8c0.3,0.5,0.7,0.9,1.2,1.2c0.5,0.3,1.2,0.5,1.9,0.5c0.8,0,1.4-0.2,1.9-0.5
		c0.5-0.3,0.9-0.7,1.2-1.2c0.3-0.5,0.5-1.1,0.7-1.8C635,85.1,635.1,84.4,635.1,83.7z"/>
	<path class="st1" d="M664.2,91.6c-0.6,0.6-1.4,1.2-2.5,1.6c-1.1,0.5-2.2,0.7-3.5,0.7c-0.9,0-1.7-0.1-2.4-0.4s-1.3-0.7-1.7-1.2
		c-0.5-0.5-0.8-1.1-1.1-1.8c-0.3-0.7-0.4-1.4-0.4-2.2c0-1.8,0.6-3.2,1.7-4.1s2.7-1.5,4.8-1.6c0.8-0.1,1.6-0.1,2.5-0.1
		c0.9,0,1.6-0.1,2.3-0.1v-0.6c0-2.1-1.2-3.2-3.6-3.2c-0.9,0-1.8,0.1-2.7,0.3c-0.9,0.2-1.7,0.5-2.4,0.9l-1.2-4.4c0.9-0.5,2-1,3.3-1.3
		c1.3-0.3,2.6-0.5,4.1-0.5c2.7,0,4.9,0.7,6.4,2.1c1.5,1.4,2.3,3.6,2.3,6.4v11.4h-6.2V91.6z M660.7,89.7c0.6,0,1.2-0.1,1.7-0.2
		c0.5-0.2,1-0.4,1.5-0.6v-2.9c-0.6,0.1-1.2,0.1-1.7,0.2c-0.5,0.1-1,0.1-1.5,0.2c-1.3,0.2-2,0.8-2,1.8c0,0.5,0.2,0.9,0.5,1.2
		C659.7,89.6,660.1,89.7,660.7,89.7z"/>
	<path class="st1" d="M704.9,78.5c-0.7,0-1.3,0.2-1.8,0.5c-0.5,0.3-1,0.7-1.4,1.1c0.1,0.5,0.2,1,0.2,1.6s0.1,1.1,0.1,1.7v10.1h-6.4
		V83.3c0-1.6-0.2-2.8-0.6-3.6c-0.4-0.8-1.1-1.1-2.2-1.1c-0.7,0-1.2,0.1-1.7,0.4c-0.5,0.3-0.9,0.7-1.2,1.1v13.4h-6.4V73.9h6.2v2.6
		c0.6-1.1,1.4-1.8,2.4-2.3c1-0.5,2-0.7,3.1-0.7c1.3,0,2.3,0.3,3.2,0.8c0.8,0.5,1.6,1.4,2.4,2.5c1.4-2.2,3.6-3.3,6.5-3.3
		c1.3,0,2.4,0.3,3.2,0.8s1.6,1.3,2.1,2.2c0.5,0.9,0.9,2,1.2,3.1c0.2,1.2,0.4,2.4,0.4,3.7v10.1h-6.4V83.3c0-1.6-0.2-2.8-0.6-3.6
		C706.7,78.9,706,78.5,704.9,78.5z"/>
	<path class="st1" d="M729.4,91.6c-0.6,0.6-1.4,1.2-2.5,1.6c-1.1,0.5-2.2,0.7-3.5,0.7c-0.9,0-1.7-0.1-2.4-0.4s-1.3-0.7-1.7-1.2
		c-0.5-0.5-0.8-1.1-1.1-1.8c-0.3-0.7-0.4-1.4-0.4-2.2c0-1.8,0.6-3.2,1.7-4.1s2.7-1.5,4.8-1.6c0.8-0.1,1.6-0.1,2.5-0.1
		c0.9,0,1.6-0.1,2.3-0.1v-0.6c0-2.1-1.2-3.2-3.6-3.2c-0.9,0-1.8,0.1-2.7,0.3c-0.9,0.2-1.7,0.5-2.4,0.9l-1.2-4.4c0.9-0.5,2-1,3.3-1.3
		c1.3-0.3,2.6-0.5,4.1-0.5c2.7,0,4.9,0.7,6.4,2.1c1.5,1.4,2.3,3.6,2.3,6.4v11.4h-6.2V91.6z M725.9,89.7c0.6,0,1.2-0.1,1.7-0.2
		c0.5-0.2,1-0.4,1.5-0.6v-2.9c-0.6,0.1-1.2,0.1-1.7,0.2c-0.5,0.1-1,0.1-1.5,0.2c-1.3,0.2-2,0.8-2,1.8c0,0.5,0.2,0.9,0.5,1.2
		C724.8,89.6,725.3,89.7,725.9,89.7z"/>
	<path class="st1" d="M739.7,68.2c0-1,0.3-1.9,1-2.6c0.7-0.7,1.5-1,2.6-1s1.9,0.3,2.6,1c0.7,0.7,1,1.5,1,2.6c0,1-0.3,1.9-1,2.6
		c-0.7,0.7-1.5,1-2.6,1s-1.9-0.3-2.6-1C740,70.1,739.7,69.2,739.7,68.2z M740.1,93.5V73.9h6.4v19.6H740.1z"/>
	<path class="st1" d="M765.2,87.1c0,1.1-0.2,2.1-0.6,2.9c-0.4,0.9-1,1.6-1.8,2.1c-0.8,0.6-1.7,1-2.7,1.3s-2.2,0.4-3.4,0.4
		c-1.1,0-2.2-0.1-3.4-0.3c-1.2-0.2-2.2-0.5-3.2-0.9l0.9-4.4c0.8,0.3,1.7,0.6,2.7,0.8c1,0.2,1.9,0.3,2.6,0.3c0.8,0,1.4-0.1,2-0.3
		c0.6-0.2,0.9-0.6,0.9-1.1c0-0.5-0.3-0.8-0.8-1s-1.3-0.5-2.3-0.9c-0.8-0.3-1.6-0.6-2.3-1s-1.3-0.8-1.9-1.3c-0.5-0.5-0.9-1.1-1.2-1.7
		c-0.3-0.6-0.4-1.4-0.4-2.2c0-2.1,0.7-3.7,2.2-4.7c1.4-1,3.3-1.5,5.6-1.5c1.2,0,2.3,0.1,3.4,0.3s2,0.6,2.9,1.1l-0.9,4.2
		c-0.7-0.3-1.5-0.6-2.3-0.8c-0.8-0.2-1.6-0.3-2.5-0.3c-0.8,0-1.4,0.1-1.8,0.2s-0.6,0.4-0.6,0.9c0,0.5,0.2,0.8,0.7,1s1.1,0.4,1.9,0.7
		c0.6,0.2,1.2,0.5,2,0.8c0.7,0.3,1.4,0.7,2,1.2c0.6,0.5,1.2,1.1,1.6,1.7C765,85.3,765.2,86.1,765.2,87.1z"/>
	<path class="st1" d="M777.3,73.9h6.1v2.3c1.3-1.8,3.2-2.7,5.9-2.7c1.1,0,2.1,0.2,3.1,0.7c1,0.5,1.8,1.1,2.5,2
		c0.7,0.9,1.3,1.9,1.7,3.1c0.4,1.2,0.6,2.6,0.6,4.1c0,1.7-0.3,3.2-0.8,4.5c-0.5,1.3-1.3,2.4-2.2,3.3s-2,1.5-3.2,2
		c-1.2,0.4-2.5,0.7-3.9,0.7c-0.7,0-1.3,0-1.8-0.1c-0.5-0.1-1-0.2-1.4-0.3v8.3h-6.4V73.9z M786.9,78.4c-0.7,0-1.3,0.1-1.9,0.3
		c-0.5,0.2-1,0.6-1.4,1v9.1c0.3,0.1,0.6,0.2,1,0.2c0.4,0.1,0.8,0.1,1.3,0.1c1.7,0,2.9-0.5,3.6-1.5c0.7-1,1.1-2.4,1.1-4.1
		c0-1.4-0.3-2.6-0.9-3.6C789.2,78.9,788.2,78.4,786.9,78.4z"/>
	<path class="st1" d="M809.5,73.5c2.6,0,4.6,0.8,6.1,2.3c1.5,1.5,2.2,3.6,2.2,6.3c0,1-0.1,2.1-0.4,3.2h-11.4
		c0.1,1.2,0.5,2.2,1.2,2.9c0.8,0.7,1.9,1.1,3.5,1.1c1,0,2-0.1,3-0.3c1.1-0.2,2-0.4,2.7-0.8l0.8,4.1c-1,0.5-2.2,0.9-3.4,1.2
		s-2.6,0.4-3.9,0.4c-1.7,0-3.2-0.2-4.5-0.7s-2.4-1.2-3.3-2.1c-0.9-0.9-1.5-1.9-2-3.2s-0.7-2.6-0.7-4.1c0-1.6,0.2-3,0.7-4.3
		c0.5-1.3,1.1-2.4,2-3.3c0.9-0.9,1.9-1.6,3.1-2.1C806.6,73.8,808,73.5,809.5,73.5z M809.3,77.6c-1,0-1.8,0.3-2.3,1
		c-0.5,0.7-0.8,1.6-0.8,2.7h5.7c0.1-0.2,0.1-0.4,0.1-0.7c0-0.9-0.2-1.6-0.7-2.1S810.1,77.6,809.3,77.6z"/>
	<path class="st1" d="M834,79.4h-0.8c-2.5,0-4.3,0.6-5.4,1.9v12.2h-6.4V73.9h6.2v3.3c0.4-1.1,0.9-1.9,1.7-2.5c0.8-0.6,1.8-0.9,3-0.9
		c0.4,0,0.7,0,0.9,0.1c0.3,0,0.5,0.1,0.8,0.2L834,79.4z"/>
	<path class="st1" d="M834.5,73.9h3v-5.1h6.4v5.1h5.6v4.9h-5.6v7.6c0,0.8,0.2,1.4,0.5,1.8c0.3,0.4,0.9,0.7,1.8,0.7
		c0.5,0,1,0,1.5-0.1c0.5-0.1,1-0.2,1.4-0.3l0.4,4.5c-0.6,0.3-1.4,0.5-2.4,0.7s-1.9,0.2-2.8,0.2c-1.3,0-2.3-0.2-3.2-0.6
		c-0.9-0.4-1.6-0.9-2.1-1.6c-0.5-0.7-0.9-1.4-1.2-2.3c-0.3-0.9-0.4-1.8-0.4-2.9v-7.8h-3V73.9z"/>
	<path class="st1" d="M872.3,83.7c0,1.4-0.2,2.8-0.7,4c-0.5,1.2-1.1,2.3-2,3.2s-2,1.6-3.3,2.2c-1.3,0.5-2.8,0.8-4.5,0.8
		c-1.7,0-3.2-0.3-4.5-0.8c-1.3-0.5-2.4-1.2-3.3-2.2s-1.5-2-2-3.2c-0.5-1.2-0.7-2.6-0.7-4c0-1.4,0.2-2.8,0.7-4c0.5-1.2,1.1-2.3,2-3.2
		c0.9-0.9,2-1.6,3.3-2.2c1.3-0.5,2.8-0.8,4.5-0.8c1.7,0,3.2,0.3,4.5,0.8c1.3,0.5,2.4,1.2,3.3,2.2c0.9,0.9,1.5,2,2,3.2
		C872.1,80.9,872.3,82.3,872.3,83.7z M865.9,83.7c0-0.7-0.1-1.4-0.2-2c-0.1-0.7-0.4-1.2-0.7-1.8c-0.3-0.5-0.7-0.9-1.2-1.2
		c-0.5-0.3-1.2-0.5-1.9-0.5c-0.8,0-1.4,0.2-1.9,0.5c-0.5,0.3-0.9,0.7-1.2,1.2c-0.3,0.5-0.5,1.1-0.7,1.8c-0.1,0.7-0.2,1.3-0.2,2
		s0.1,1.4,0.2,2c0.1,0.7,0.4,1.2,0.7,1.8c0.3,0.5,0.7,0.9,1.2,1.2c0.5,0.3,1.2,0.5,1.9,0.5c0.8,0,1.4-0.2,1.9-0.5
		c0.5-0.3,0.9-0.7,1.2-1.2c0.3-0.5,0.5-1.1,0.7-1.8C865.8,85.1,865.9,84.4,865.9,83.7z"/>
	<path class="st1" d="M902.9,93.5h-6.1v-2.5c-0.6,0.9-1.4,1.6-2.4,2.1s-2.1,0.8-3.5,0.8c-1.1,0-2.1-0.2-3.1-0.7
		c-1-0.5-1.8-1.1-2.5-2c-0.7-0.9-1.3-1.9-1.7-3.1c-0.4-1.2-0.6-2.6-0.6-4.1c0-1.7,0.3-3.2,0.8-4.5c0.5-1.3,1.3-2.4,2.2-3.3
		s2-1.5,3.2-2c1.2-0.4,2.5-0.7,3.9-0.7c0.7,0,1.3,0,1.8,0.1c0.5,0.1,1,0.2,1.4,0.3v-8.7h6.4V93.5z M893.2,89c1.4,0,2.5-0.5,3.3-1.4
		v-9c-0.6-0.2-1.3-0.3-2.3-0.3c-1.6,0-2.8,0.5-3.6,1.5c-0.8,1-1.2,2.3-1.2,4.1c0,1.5,0.3,2.8,0.9,3.7S891.9,89,893.2,89z"/>
	<path class="st1" d="M916.4,73.5c2.6,0,4.6,0.8,6.1,2.3c1.5,1.5,2.2,3.6,2.2,6.3c0,1-0.1,2.1-0.4,3.2H913c0.1,1.2,0.5,2.2,1.2,2.9
		c0.8,0.7,1.9,1.1,3.5,1.1c1,0,2-0.1,3-0.3c1.1-0.2,2-0.4,2.7-0.8l0.8,4.1c-1,0.5-2.2,0.9-3.4,1.2s-2.6,0.4-3.9,0.4
		c-1.7,0-3.2-0.2-4.5-0.7s-2.4-1.2-3.3-2.1c-0.9-0.9-1.5-1.9-2-3.2s-0.7-2.6-0.7-4.1c0-1.6,0.2-3,0.7-4.3c0.5-1.3,1.1-2.4,2-3.3
		c0.9-0.9,1.9-1.6,3.1-2.1C913.5,73.8,914.9,73.5,916.4,73.5z M916.2,77.6c-1,0-1.8,0.3-2.3,1c-0.5,0.7-0.8,1.6-0.8,2.7h5.7
		c0.1-0.2,0.1-0.4,0.1-0.7c0-0.9-0.2-1.6-0.7-2.1S917,77.6,916.2,77.6z"/>
	<path class="st1" d="M950.9,87.1c0,1.1-0.2,2.1-0.6,2.9c-0.4,0.9-1,1.6-1.8,2.1c-0.8,0.6-1.7,1-2.7,1.3s-2.2,0.4-3.4,0.4
		c-1.1,0-2.2-0.1-3.4-0.3c-1.2-0.2-2.2-0.5-3.2-0.9l0.9-4.4c0.8,0.3,1.7,0.6,2.7,0.8c1,0.2,1.9,0.3,2.6,0.3c0.8,0,1.4-0.1,2-0.3
		c0.6-0.2,0.9-0.6,0.9-1.1c0-0.5-0.3-0.8-0.8-1s-1.3-0.5-2.3-0.9c-0.8-0.3-1.6-0.6-2.3-1s-1.3-0.8-1.9-1.3c-0.5-0.5-0.9-1.1-1.2-1.7
		c-0.3-0.6-0.4-1.4-0.4-2.2c0-2.1,0.7-3.7,2.2-4.7c1.4-1,3.3-1.5,5.6-1.5c1.2,0,2.3,0.1,3.4,0.3s2,0.6,2.9,1.1l-0.9,4.2
		c-0.7-0.3-1.5-0.6-2.3-0.8c-0.8-0.2-1.6-0.3-2.5-0.3c-0.8,0-1.4,0.1-1.8,0.2s-0.6,0.4-0.6,0.9c0,0.5,0.2,0.8,0.7,1s1.1,0.4,1.9,0.7
		c0.6,0.2,1.2,0.5,2,0.8c0.7,0.3,1.4,0.7,2,1.2c0.6,0.5,1.2,1.1,1.6,1.7C950.7,85.3,950.9,86.1,950.9,87.1z"/>
	<path class="st1" d="M953.9,68.2c0-1,0.3-1.9,1-2.6c0.7-0.7,1.5-1,2.6-1s1.9,0.3,2.6,1c0.7,0.7,1,1.5,1,2.6c0,1-0.3,1.9-1,2.6
		c-0.7,0.7-1.5,1-2.6,1s-1.9-0.3-2.6-1C954.3,70.1,953.9,69.2,953.9,68.2z M954.3,93.5V73.9h6.4v19.6H954.3z"/>
	<path class="st1" d="M965.3,90.2c0-1,0.3-1.8,0.9-2.5c0.6-0.7,1.5-1.1,2.7-1.1s2.1,0.4,2.7,1.1c0.6,0.7,0.9,1.6,0.9,2.5
		s-0.3,1.8-0.9,2.5c-0.6,0.7-1.5,1.1-2.7,1.1s-2.1-0.4-2.7-1.1C965.6,92,965.3,91.2,965.3,90.2z"/>
</g>
</svg>
