<?xml version="1.0" encoding="utf-8"?>
<!-- Generator: Adobe Illustrator 23.0.4, SVG Export Plug-In . SVG Version: 6.00 Build 0)  -->
<svg version="1.1" id="Layer_1" xmlns="http://www.w3.org/2000/svg" xmlns:xlink="http://www.w3.org/1999/xlink" x="0px" y="0px"
	 viewBox="0 0 1024 200" style="enable-background:new 0 0 1024 200;" xml:space="preserve">
<style type="text/css">
	.st0{enable-background:new    ;}
	.st1{fill:#187231;}
</style>
<g class="st0">
	<path class="st1" d="M144.1,30.8h-10.2l-1.6,5.2h-6.8l9.9-26.6h7.2l9.9,26.6h-6.8L144.1,30.8z M135.6,25.6h6.8l-3.4-11.2
		L135.6,25.6z"/>
	<path class="st1" d="M182.5,9.3v5.2h-7.2v21.4h-6.6V14.5h-7.2V9.3H182.5z"/>
	<path class="st1" d="M196.6,21.9h-0.8c-2.5,0-4.3,0.6-5.4,1.9v12.2h-6.4V16.3h6.2v3.3c0.4-1.1,0.9-1.9,1.7-2.5s1.8-0.9,3-0.9
		c0.4,0,0.7,0,0.9,0.1s0.5,0.1,0.8,0.2L196.6,21.9z"/>
	<path class="st1" d="M207.9,15.9c2.6,0,4.6,0.8,6.1,2.3c1.5,1.5,2.2,3.6,2.2,6.3c0,1-0.1,2.1-0.4,3.2h-11.4
		c0.1,1.2,0.5,2.2,1.2,2.9c0.8,0.7,1.9,1.1,3.5,1.1c1,0,2-0.1,3-0.3c1.1-0.2,2-0.4,2.7-0.8l0.8,4.1c-1,0.5-2.2,0.9-3.4,1.2
		c-1.3,0.3-2.6,0.4-3.9,0.4c-1.7,0-3.2-0.2-4.5-0.7c-1.3-0.5-2.4-1.2-3.3-2.1c-0.9-0.9-1.5-1.9-2-3.2c-0.5-1.2-0.7-2.6-0.7-4.1
		c0-1.6,0.2-3,0.7-4.3c0.5-1.3,1.1-2.4,2-3.3c0.9-0.9,1.9-1.6,3.1-2.1C205,16.2,206.4,15.9,207.9,15.9z M207.7,20
		c-1,0-1.8,0.3-2.3,1c-0.5,0.7-0.8,1.6-0.8,2.7h5.7c0.1-0.2,0.1-0.4,0.1-0.7c0-0.9-0.2-1.6-0.7-2.1C209.2,20.3,208.5,20,207.7,20z"
		/>
	<path class="st1" d="M224.2,35.9l-6.8-19.6h6.4l3.8,13.8l3.8-13.8h6.4L231,35.9H224.2z"/>
	<path class="st1" d="M259.6,26.1c0,1.4-0.2,2.8-0.7,4c-0.5,1.2-1.1,2.3-2,3.2c-0.9,0.9-2,1.6-3.3,2.2c-1.3,0.5-2.8,0.8-4.5,0.8
		s-3.2-0.3-4.5-0.8c-1.3-0.5-2.4-1.2-3.3-2.2c-0.9-0.9-1.5-2-2-3.2c-0.5-1.2-0.7-2.6-0.7-4c0-1.4,0.2-2.8,0.7-4
		c0.5-1.2,1.1-2.3,2-3.2c0.9-0.9,2-1.6,3.3-2.2c1.3-0.5,2.8-0.8,4.5-0.8s3.2,0.3,4.5,0.8c1.3,0.5,2.4,1.2,3.3,2.2
		c0.9,0.9,1.5,2,2,3.2C259.4,23.4,259.6,24.7,259.6,26.1z M253.2,26.1c0-0.7-0.1-1.4-0.2-2c-0.1-0.7-0.4-1.2-0.7-1.8
		c-0.3-0.5-0.7-0.9-1.2-1.2c-0.5-0.3-1.2-0.5-1.9-0.5c-0.8,0-1.4,0.2-1.9,0.5c-0.5,0.3-0.9,0.7-1.2,1.2c-0.3,0.5-0.5,1.1-0.7,1.8
		c-0.1,0.7-0.2,1.3-0.2,2s0.1,1.4,0.2,2c0.1,0.7,0.4,1.2,0.7,1.8c0.3,0.5,0.7,0.9,1.2,1.2c0.5,0.3,1.2,0.5,1.9,0.5
		c0.8,0,1.4-0.2,1.9-0.5c0.5-0.3,0.9-0.7,1.2-1.2c0.3-0.5,0.5-1.1,0.7-1.8C253.2,27.5,253.2,26.8,253.2,26.1z"/>
	<path class="st1" d="M290.2,35.9h-6.1v-2.5c-0.6,0.9-1.4,1.6-2.4,2.1c-1,0.5-2.1,0.8-3.5,0.8c-1.1,0-2.1-0.2-3.1-0.7
		c-1-0.5-1.8-1.1-2.5-2s-1.3-1.9-1.7-3.1c-0.4-1.2-0.6-2.6-0.6-4.1c0-1.7,0.3-3.2,0.8-4.5c0.5-1.3,1.3-2.4,2.2-3.3s2-1.5,3.2-2
		c1.2-0.4,2.5-0.7,3.9-0.7c0.7,0,1.3,0,1.8,0.1c0.5,0.1,1,0.2,1.4,0.3V7.7h6.4V35.9z M280.5,31.5c1.4,0,2.5-0.5,3.3-1.4v-9
		c-0.6-0.2-1.3-0.3-2.3-0.3c-1.6,0-2.8,0.5-3.6,1.5c-0.8,1-1.2,2.3-1.2,4.1c0,1.5,0.3,2.8,0.9,3.7S279.2,31.5,280.5,31.5z"/>
	<path class="st1" d="M305.7,34c-0.6,0.6-1.4,1.2-2.5,1.6c-1.1,0.5-2.2,0.7-3.5,0.7c-0.9,0-1.7-0.1-2.4-0.4s-1.3-0.7-1.7-1.2
		c-0.5-0.5-0.8-1.1-1.1-1.8c-0.3-0.7-0.4-1.4-0.4-2.2c0-1.8,0.6-3.2,1.7-4.1c1.1-0.9,2.7-1.5,4.8-1.6c0.8-0.1,1.6-0.1,2.5-0.1
		c0.9,0,1.6-0.1,2.3-0.1v-0.6c0-2.1-1.2-3.2-3.6-3.2c-0.9,0-1.8,0.1-2.7,0.3c-0.9,0.2-1.7,0.5-2.4,0.9l-1.2-4.4c0.9-0.5,2-1,3.3-1.3
		c1.3-0.3,2.6-0.5,4.1-0.5c2.7,0,4.9,0.7,6.4,2.1c1.5,1.4,2.3,3.6,2.3,6.4v11.4h-6.2V34z M302.3,32.1c0.6,0,1.2-0.1,1.7-0.2
		c0.5-0.2,1-0.4,1.5-0.6v-2.9c-0.6,0.1-1.2,0.1-1.7,0.2c-0.5,0.1-1,0.1-1.5,0.2c-1.3,0.2-2,0.8-2,1.8c0,0.5,0.2,0.9,0.5,1.2
		C301.2,32,301.7,32.1,302.3,32.1z"/>
	<path class="st1" d="M342.7,28c0,1.2-0.2,2.3-0.7,3.3c-0.5,1-1.1,1.9-2,2.7c-0.9,0.8-1.9,1.4-3.2,1.8c-1.3,0.4-2.7,0.7-4.3,0.7
		c-1.5,0-2.9-0.2-4.4-0.5c-1.5-0.3-2.8-0.8-4.1-1.4l1.3-5c0.9,0.5,2,0.8,3.2,1.2c1.2,0.3,2.4,0.5,3.8,0.5c1.1,0,2-0.2,2.8-0.6
		c0.7-0.4,1.1-1.1,1.1-2c0-0.7-0.3-1.3-0.9-1.8c-0.6-0.5-1.8-1.1-3.4-1.7c-2.6-1-4.5-2.1-5.7-3.4c-1.2-1.3-1.8-2.9-1.8-4.9
		c0-2.6,0.8-4.6,2.5-5.9c1.7-1.4,4-2,7-2c1.5,0,3,0.2,4.4,0.5c1.4,0.3,2.6,0.8,3.5,1.3l-1.1,4.9c-0.9-0.5-2-0.8-3.1-1.1
		c-1.1-0.3-2.2-0.4-3.4-0.4c-1,0-1.8,0.2-2.4,0.5c-0.6,0.3-0.9,0.9-0.9,1.7c0,0.4,0.1,0.7,0.2,1c0.1,0.3,0.3,0.5,0.6,0.8
		c0.3,0.2,0.7,0.5,1.2,0.7c0.5,0.2,1.1,0.5,1.9,0.8c1.1,0.5,2.2,0.9,3.2,1.4c1,0.5,1.8,1.1,2.6,1.8c0.7,0.7,1.3,1.4,1.7,2.3
		C342.5,25.8,342.7,26.8,342.7,28z"/>
	<path class="st1" d="M365.7,26.1c0,1.4-0.2,2.8-0.7,4c-0.5,1.2-1.1,2.3-2,3.2c-0.9,0.9-2,1.6-3.3,2.2c-1.3,0.5-2.8,0.8-4.5,0.8
		s-3.2-0.3-4.5-0.8c-1.3-0.5-2.4-1.2-3.3-2.2c-0.9-0.9-1.5-2-2-3.2c-0.5-1.2-0.7-2.6-0.7-4c0-1.4,0.2-2.8,0.7-4
		c0.5-1.2,1.1-2.3,2-3.2c0.9-0.9,2-1.6,3.3-2.2c1.3-0.5,2.8-0.8,4.5-0.8s3.2,0.3,4.5,0.8c1.3,0.5,2.4,1.2,3.3,2.2
		c0.9,0.9,1.5,2,2,3.2C365.5,23.4,365.7,24.7,365.7,26.1z M359.3,26.1c0-0.7-0.1-1.4-0.2-2c-0.1-0.7-0.4-1.2-0.7-1.8
		c-0.3-0.5-0.7-0.9-1.2-1.2c-0.5-0.3-1.2-0.5-1.9-0.5c-0.8,0-1.4,0.2-1.9,0.5c-0.5,0.3-0.9,0.7-1.2,1.2c-0.3,0.5-0.5,1.1-0.7,1.8
		c-0.1,0.7-0.2,1.3-0.2,2s0.1,1.4,0.2,2c0.1,0.7,0.4,1.2,0.7,1.8c0.3,0.5,0.7,0.9,1.2,1.2c0.5,0.3,1.2,0.5,1.9,0.5
		c0.8,0,1.4-0.2,1.9-0.5c0.5-0.3,0.9-0.7,1.2-1.2c0.3-0.5,0.5-1.1,0.7-1.8C359.3,27.5,359.3,26.8,359.3,26.1z"/>
	<path class="st1" d="M381.7,21.9h-0.8c-2.5,0-4.3,0.6-5.4,1.9v12.2h-6.4V16.3h6.2v3.3c0.4-1.1,0.9-1.9,1.7-2.5s1.8-0.9,3-0.9
		c0.4,0,0.7,0,0.9,0.1s0.5,0.1,0.8,0.2L381.7,21.9z"/>
	<path class="st1" d="M382.3,16.3h3v-5.1h6.4v5.1h5.6v4.9h-5.6v7.6c0,0.8,0.2,1.4,0.5,1.8c0.3,0.4,0.9,0.7,1.8,0.7
		c0.5,0,1,0,1.5-0.1c0.5-0.1,1-0.2,1.4-0.3l0.4,4.5c-0.6,0.3-1.4,0.5-2.4,0.7c-0.9,0.2-1.9,0.2-2.8,0.2c-1.3,0-2.3-0.2-3.2-0.6
		c-0.9-0.4-1.6-0.9-2.1-1.6c-0.5-0.7-0.9-1.4-1.2-2.3c-0.3-0.9-0.4-1.8-0.4-2.9v-7.8h-3V16.3z"/>
	<path class="st1" d="M409.2,15.9c2.6,0,4.6,0.8,6.1,2.3c1.5,1.5,2.2,3.6,2.2,6.3c0,1-0.1,2.1-0.4,3.2h-11.4
		c0.1,1.2,0.5,2.2,1.2,2.9c0.8,0.7,1.9,1.1,3.5,1.1c1,0,2-0.1,3-0.3c1.1-0.2,2-0.4,2.7-0.8l0.8,4.1c-1,0.5-2.2,0.9-3.4,1.2
		c-1.3,0.3-2.6,0.4-3.9,0.4c-1.7,0-3.2-0.2-4.5-0.7c-1.3-0.5-2.4-1.2-3.3-2.1c-0.9-0.9-1.5-1.9-2-3.2c-0.5-1.2-0.7-2.6-0.7-4.1
		c0-1.6,0.2-3,0.7-4.3c0.5-1.3,1.1-2.4,2-3.3c0.9-0.9,1.9-1.6,3.1-2.1C406.3,16.2,407.7,15.9,409.2,15.9z M409,20
		c-1,0-1.8,0.3-2.3,1c-0.5,0.7-0.8,1.6-0.8,2.7h5.7c0.1-0.2,0.1-0.4,0.1-0.7c0-0.9-0.2-1.6-0.7-2.1C410.4,20.3,409.8,20,409,20z"/>
	<path class="st1" d="M427.7,16.3h3v-5.1h6.4v5.1h5.6v4.9h-5.6v7.6c0,0.8,0.2,1.4,0.5,1.8c0.3,0.4,0.9,0.7,1.8,0.7
		c0.5,0,1,0,1.5-0.1c0.5-0.1,1-0.2,1.4-0.3l0.4,4.5c-0.6,0.3-1.4,0.5-2.4,0.7c-0.9,0.2-1.9,0.2-2.8,0.2c-1.3,0-2.3-0.2-3.2-0.6
		c-0.9-0.4-1.6-0.9-2.1-1.6c-0.5-0.7-0.9-1.4-1.2-2.3c-0.3-0.9-0.4-1.8-0.4-2.9v-7.8h-3V16.3z"/>
	<path class="st1" d="M454.6,15.9c2.6,0,4.6,0.8,6.1,2.3c1.5,1.5,2.2,3.6,2.2,6.3c0,1-0.1,2.1-0.4,3.2h-11.4
		c0.1,1.2,0.5,2.2,1.2,2.9c0.8,0.7,1.9,1.1,3.5,1.1c1,0,2-0.1,3-0.3c1.1-0.2,2-0.4,2.7-0.8l0.8,4.1c-1,0.5-2.2,0.9-3.4,1.2
		c-1.3,0.3-2.6,0.4-3.9,0.4c-1.7,0-3.2-0.2-4.5-0.7c-1.3-0.5-2.4-1.2-3.3-2.1c-0.9-0.9-1.5-1.9-2-3.2c-0.5-1.2-0.7-2.6-0.7-4.1
		c0-1.6,0.2-3,0.7-4.3c0.5-1.3,1.1-2.4,2-3.3c0.9-0.9,1.9-1.6,3.1-2.1C451.7,16.2,453.1,15.9,454.6,15.9z M454.4,20
		c-1,0-1.8,0.3-2.3,1c-0.5,0.7-0.8,1.6-0.8,2.7h5.7c0.1-0.2,0.1-0.4,0.1-0.7c0-0.9-0.2-1.6-0.7-2.1C455.8,20.3,455.2,20,454.4,20z"
		/>
	<path class="st1" d="M488,21c-0.7,0-1.3,0.2-1.8,0.5c-0.5,0.3-1,0.7-1.4,1.1c0.1,0.5,0.2,1,0.2,1.6s0.1,1.1,0.1,1.7v10.1h-6.4V25.7
		c0-1.6-0.2-2.8-0.6-3.6c-0.4-0.8-1.1-1.1-2.2-1.1c-0.7,0-1.2,0.1-1.7,0.4c-0.5,0.3-0.9,0.7-1.2,1.1v13.4h-6.4V16.3h6.2v2.6
		c0.6-1.1,1.4-1.8,2.4-2.3c1-0.5,2-0.7,3.1-0.7c1.3,0,2.3,0.3,3.2,0.8c0.8,0.5,1.6,1.4,2.4,2.5c1.4-2.2,3.6-3.3,6.5-3.3
		c1.3,0,2.4,0.3,3.2,0.8c0.9,0.5,1.6,1.3,2.1,2.2c0.5,0.9,0.9,2,1.2,3.1c0.2,1.2,0.4,2.4,0.4,3.7v10.1h-6.4V25.7
		c0-1.6-0.2-2.8-0.6-3.6C489.7,21.4,489,21,488,21z"/>
	<path class="st1" d="M521,34c-0.6,0.6-1.4,1.2-2.5,1.6c-1.1,0.5-2.2,0.7-3.5,0.7c-0.9,0-1.7-0.1-2.4-0.4s-1.3-0.7-1.7-1.2
		c-0.5-0.5-0.8-1.1-1.1-1.8c-0.3-0.7-0.4-1.4-0.4-2.2c0-1.8,0.6-3.2,1.7-4.1c1.1-0.9,2.7-1.5,4.8-1.6c0.8-0.1,1.6-0.1,2.5-0.1
		c0.9,0,1.6-0.1,2.3-0.1v-0.6c0-2.1-1.2-3.2-3.6-3.2c-0.9,0-1.8,0.1-2.7,0.3c-0.9,0.2-1.7,0.5-2.4,0.9l-1.2-4.4c0.9-0.5,2-1,3.3-1.3
		c1.3-0.3,2.6-0.5,4.1-0.5c2.7,0,4.9,0.7,6.4,2.1c1.5,1.4,2.3,3.6,2.3,6.4v11.4H521V34z M517.5,32.1c0.6,0,1.2-0.1,1.7-0.2
		c0.5-0.2,1-0.4,1.5-0.6v-2.9c-0.6,0.1-1.2,0.1-1.7,0.2c-0.5,0.1-1,0.1-1.5,0.2c-1.3,0.2-2,0.8-2,1.8c0,0.5,0.2,0.9,0.5,1.2
		C516.5,32,516.9,32.1,517.5,32.1z"/>
	<path class="st1" d="M549.9,16.3v4.1h-2.9l0,0c0.3,0.8,0.4,1.6,0.4,2.3c0,0.9-0.2,1.8-0.5,2.6c-0.4,0.8-0.9,1.5-1.6,2.1
		c-0.7,0.6-1.6,1.1-2.6,1.4c-1.1,0.3-2.3,0.5-3.7,0.5h-0.2c-0.1,0.2-0.2,0.4-0.3,0.5s-0.1,0.4-0.1,0.6c0,0.4,0.1,0.6,0.4,0.8
		c0.3,0.2,0.6,0.3,1.1,0.3l3.4,0.2c2,0.1,3.6,0.6,4.7,1.5c1.2,0.9,1.8,2.2,1.8,4c0,1.2-0.3,2.3-1,3.2c-0.7,0.9-1.5,1.7-2.6,2.3
		c-1.1,0.6-2.3,1.1-3.7,1.4c-1.4,0.3-2.7,0.5-4.2,0.5c-1.1,0-2.2-0.1-3.3-0.2c-1.1-0.2-2-0.4-2.8-0.8c-0.8-0.4-1.5-0.9-2-1.5
		c-0.5-0.6-0.8-1.4-0.8-2.4c0-0.6,0.1-1.2,0.4-1.6s0.6-0.9,1.1-1.2c0.5-0.3,1-0.6,1.6-0.9s1.2-0.4,1.8-0.6c-1.2-0.6-1.8-1.5-1.8-2.7
		c0-0.5,0.1-1,0.3-1.4c0.2-0.4,0.4-0.8,0.7-1.1c0.3-0.3,0.6-0.6,1-0.8c0.4-0.2,0.7-0.4,1-0.5c-1.7-0.5-3-1.2-3.9-2.3
		c-0.9-1.1-1.3-2.4-1.3-3.9c0-1,0.2-1.8,0.5-2.7c0.4-0.8,0.9-1.5,1.6-2.1c0.7-0.6,1.6-1.1,2.6-1.4c1.1-0.3,2.3-0.5,3.7-0.5
		c0.6,0,1.1,0,1.7,0.1c0.5,0.1,1,0.2,1.5,0.3H549.9z M537.1,36c-0.3,0.2-0.7,0.5-1,0.9c-0.3,0.3-0.5,0.8-0.5,1.4
		c0,0.7,0.3,1.3,0.9,1.6c0.6,0.3,1.5,0.5,2.6,0.5c0.6,0,1.2-0.1,1.7-0.2c0.6-0.1,1.1-0.3,1.5-0.5c0.5-0.2,0.8-0.5,1.1-0.8
		c0.3-0.3,0.4-0.7,0.4-1.1c0-0.5-0.2-0.8-0.5-1c-0.3-0.2-0.9-0.3-1.6-0.4L537.1,36z M539,25.4c0.9,0,1.6-0.2,2.1-0.7
		c0.5-0.5,0.7-1.2,0.7-2c0-0.9-0.2-1.5-0.7-2c-0.5-0.5-1.2-0.7-2.1-0.7s-1.6,0.2-2.1,0.7c-0.5,0.5-0.7,1.2-0.7,2
		c0,0.9,0.2,1.5,0.7,2C537.4,25.1,538.1,25.4,539,25.4z"/>
	<path class="st1" d="M561.5,15.9c2.6,0,4.6,0.8,6.1,2.3c1.5,1.5,2.2,3.6,2.2,6.3c0,1-0.1,2.1-0.4,3.2h-11.4
		c0.1,1.2,0.5,2.2,1.2,2.9c0.8,0.7,1.9,1.1,3.5,1.1c1,0,2-0.1,3-0.3c1.1-0.2,2-0.4,2.7-0.8l0.8,4.1c-1,0.5-2.2,0.9-3.4,1.2
		c-1.3,0.3-2.6,0.4-3.9,0.4c-1.7,0-3.2-0.2-4.5-0.7c-1.3-0.5-2.4-1.2-3.3-2.1c-0.9-0.9-1.5-1.9-2-3.2c-0.5-1.2-0.7-2.6-0.7-4.1
		c0-1.6,0.2-3,0.7-4.3s1.1-2.4,2-3.3s1.9-1.6,3.1-2.1C558.6,16.2,560,15.9,561.5,15.9z M561.3,20c-1,0-1.8,0.3-2.3,1
		c-0.5,0.7-0.8,1.6-0.8,2.7h5.7c0.1-0.2,0.1-0.4,0.1-0.7c0-0.9-0.2-1.6-0.7-2.1C562.8,20.3,562.1,20,561.3,20z"/>
	<path class="st1" d="M573.5,35.9V16.3h6.2v2.6c0.6-1.1,1.4-1.8,2.4-2.3c1-0.5,2-0.7,3.1-0.7c1.3,0,2.4,0.3,3.3,0.8s1.6,1.3,2.2,2.2
		c0.6,0.9,1,2,1.2,3.1c0.3,1.2,0.4,2.4,0.4,3.7v10.1h-6.4V25.7c0-1.6-0.3-2.8-0.8-3.6c-0.5-0.8-1.3-1.1-2.3-1.1
		c-0.7,0-1.2,0.1-1.7,0.4c-0.5,0.3-0.9,0.7-1.2,1.1v13.4H573.5z"/>
	<path class="st1" d="M594.6,16.3h3v-5.1h6.4v5.1h5.6v4.9H604v7.6c0,0.8,0.2,1.4,0.5,1.8c0.3,0.4,0.9,0.7,1.8,0.7c0.5,0,1,0,1.5-0.1
		c0.5-0.1,1-0.2,1.4-0.3l0.4,4.5c-0.6,0.3-1.4,0.5-2.4,0.7s-1.9,0.2-2.8,0.2c-1.3,0-2.3-0.2-3.2-0.6c-0.9-0.4-1.6-0.9-2.1-1.6
		c-0.5-0.7-0.9-1.4-1.2-2.3c-0.3-0.9-0.4-1.8-0.4-2.9v-7.8h-3V16.3z"/>
	<path class="st1" d="M621.5,15.9c2.6,0,4.6,0.8,6.1,2.3c1.5,1.5,2.2,3.6,2.2,6.3c0,1-0.1,2.1-0.4,3.2h-11.4
		c0.1,1.2,0.5,2.2,1.2,2.9c0.8,0.7,1.9,1.1,3.5,1.1c1,0,2-0.1,3-0.3c1.1-0.2,2-0.4,2.7-0.8l0.8,4.1c-1,0.5-2.2,0.9-3.4,1.2
		c-1.3,0.3-2.6,0.4-3.9,0.4c-1.7,0-3.2-0.2-4.5-0.7c-1.3-0.5-2.4-1.2-3.3-2.1c-0.9-0.9-1.5-1.9-2-3.2c-0.5-1.2-0.7-2.6-0.7-4.1
		c0-1.6,0.2-3,0.7-4.3s1.1-2.4,2-3.3s1.9-1.6,3.1-2.1C618.6,16.2,620,15.9,621.5,15.9z M621.3,20c-1,0-1.8,0.3-2.3,1
		c-0.5,0.7-0.8,1.6-0.8,2.7h5.7c0.1-0.2,0.1-0.4,0.1-0.7c0-0.9-0.2-1.6-0.7-2.1C622.8,20.3,622.1,20,621.3,20z"/>
	<path class="st1" d="M647.6,29.5c0,1.1-0.2,2.1-0.6,2.9c-0.4,0.9-1,1.6-1.8,2.1s-1.7,1-2.7,1.3c-1,0.3-2.2,0.4-3.4,0.4
		c-1.1,0-2.2-0.1-3.4-0.3c-1.2-0.2-2.2-0.5-3.2-0.9l0.9-4.4c0.8,0.3,1.7,0.6,2.7,0.8c1,0.2,1.9,0.3,2.6,0.3c0.8,0,1.4-0.1,2-0.3
		c0.6-0.2,0.9-0.6,0.9-1.1c0-0.5-0.3-0.8-0.8-1c-0.5-0.2-1.3-0.5-2.3-0.9c-0.8-0.3-1.6-0.6-2.3-1s-1.3-0.8-1.9-1.3
		c-0.5-0.5-0.9-1.1-1.2-1.7c-0.3-0.6-0.4-1.4-0.4-2.2c0-2.1,0.7-3.7,2.2-4.7c1.4-1,3.3-1.5,5.6-1.5c1.2,0,2.3,0.1,3.4,0.3
		s2,0.6,2.9,1.1l-0.9,4.2c-0.7-0.3-1.5-0.6-2.3-0.8c-0.8-0.2-1.6-0.3-2.5-0.3c-0.8,0-1.4,0.1-1.8,0.2c-0.4,0.1-0.6,0.4-0.6,0.9
		c0,0.5,0.2,0.8,0.7,1c0.5,0.2,1.1,0.4,1.9,0.7c0.6,0.2,1.2,0.5,2,0.8c0.7,0.3,1.4,0.7,2,1.2c0.6,0.5,1.2,1.1,1.6,1.7
		C647.4,27.8,647.6,28.6,647.6,29.5z"/>
	<path class="st1" d="M668.3,15.9c2.6,0,4.6,0.8,6.1,2.3c1.5,1.5,2.2,3.6,2.2,6.3c0,1-0.1,2.1-0.4,3.2h-11.4
		c0.1,1.2,0.5,2.2,1.2,2.9c0.8,0.7,1.9,1.1,3.5,1.1c1,0,2-0.1,3-0.3c1.1-0.2,2-0.4,2.7-0.8l0.8,4.1c-1,0.5-2.2,0.9-3.4,1.2
		s-2.6,0.4-3.9,0.4c-1.7,0-3.2-0.2-4.5-0.7s-2.4-1.2-3.3-2.1c-0.9-0.9-1.5-1.9-2-3.2s-0.7-2.6-0.7-4.1c0-1.6,0.2-3,0.7-4.3
		c0.5-1.3,1.1-2.4,2-3.3c0.9-0.9,1.9-1.6,3.1-2.1C665.4,16.2,666.8,15.9,668.3,15.9z M668.1,20c-1,0-1.8,0.3-2.3,1
		c-0.5,0.7-0.8,1.6-0.8,2.7h5.7c0.1-0.2,0.1-0.4,0.1-0.7c0-0.9-0.2-1.6-0.7-2.1S669,20,668.1,20z"/>
	<path class="st1" d="M694.5,29.5c0,1.1-0.2,2.1-0.6,2.9c-0.4,0.9-1,1.6-1.8,2.1c-0.8,0.6-1.7,1-2.7,1.3s-2.2,0.4-3.4,0.4
		c-1.1,0-2.2-0.1-3.4-0.3c-1.2-0.2-2.2-0.5-3.2-0.9l0.9-4.4c0.8,0.3,1.7,0.6,2.7,0.8c1,0.2,1.9,0.3,2.6,0.3c0.8,0,1.4-0.1,2-0.3
		c0.6-0.2,0.9-0.6,0.9-1.1c0-0.5-0.3-0.8-0.8-1s-1.3-0.5-2.3-0.9c-0.8-0.3-1.6-0.6-2.3-1s-1.3-0.8-1.9-1.3c-0.5-0.5-0.9-1.1-1.2-1.7
		c-0.3-0.6-0.4-1.4-0.4-2.2c0-2.1,0.7-3.7,2.2-4.7c1.4-1,3.3-1.5,5.6-1.5c1.2,0,2.3,0.1,3.4,0.3s2,0.6,2.9,1.1l-0.9,4.2
		c-0.7-0.3-1.5-0.6-2.3-0.8c-0.8-0.2-1.6-0.3-2.5-0.3c-0.8,0-1.4,0.1-1.8,0.2s-0.6,0.4-0.6,0.9c0,0.5,0.2,0.8,0.7,1s1.1,0.4,1.9,0.7
		c0.6,0.2,1.2,0.5,2,0.8c0.7,0.3,1.4,0.7,2,1.2c0.6,0.5,1.2,1.1,1.6,1.7C694.2,27.8,694.5,28.6,694.5,29.5z"/>
	<path class="st1" d="M697.9,16.3h6.1v2.3c1.3-1.8,3.2-2.7,5.9-2.7c1.1,0,2.1,0.2,3.1,0.7c1,0.5,1.8,1.1,2.5,2
		c0.7,0.9,1.3,1.9,1.7,3.1c0.4,1.2,0.6,2.6,0.6,4.1c0,1.7-0.3,3.2-0.8,4.5c-0.5,1.3-1.3,2.4-2.2,3.3s-2,1.5-3.2,2
		c-1.2,0.4-2.5,0.7-3.9,0.7c-0.7,0-1.3,0-1.8-0.1c-0.5-0.1-1-0.2-1.4-0.3v8.3h-6.4V16.3z M707.6,20.9c-0.7,0-1.3,0.1-1.9,0.3
		c-0.5,0.2-1,0.6-1.4,1v9.1c0.3,0.1,0.6,0.2,1,0.2c0.4,0.1,0.8,0.1,1.3,0.1c1.7,0,2.9-0.5,3.6-1.5c0.7-1,1.1-2.4,1.1-4.1
		c0-1.4-0.3-2.6-0.9-3.6C709.8,21.3,708.9,20.9,707.6,20.9z"/>
	<path class="st1" d="M732,34c-0.6,0.6-1.4,1.2-2.5,1.6c-1.1,0.5-2.2,0.7-3.5,0.7c-0.9,0-1.7-0.1-2.4-0.4s-1.3-0.7-1.7-1.2
		c-0.5-0.5-0.8-1.1-1.1-1.8c-0.3-0.7-0.4-1.4-0.4-2.2c0-1.8,0.6-3.2,1.7-4.1s2.7-1.5,4.8-1.6c0.8-0.1,1.6-0.1,2.5-0.1
		c0.9,0,1.6-0.1,2.3-0.1v-0.6c0-2.1-1.2-3.2-3.6-3.2c-0.9,0-1.8,0.1-2.7,0.3c-0.9,0.2-1.7,0.5-2.4,0.9l-1.2-4.4c0.9-0.5,2-1,3.3-1.3
		c1.3-0.3,2.6-0.5,4.1-0.5c2.7,0,4.9,0.7,6.4,2.1c1.5,1.4,2.3,3.6,2.3,6.4v11.4H732V34z M728.5,32.1c0.6,0,1.2-0.1,1.7-0.2
		c0.5-0.2,1-0.4,1.5-0.6v-2.9c-0.6,0.1-1.2,0.1-1.7,0.2c-0.5,0.1-1,0.1-1.5,0.2c-1.3,0.2-2,0.8-2,1.8c0,0.5,0.2,0.9,0.5,1.2
		C727.4,32,727.9,32.1,728.5,32.1z"/>
	<path class="st1" d="M748.8,29.9c0,0.5,0.1,0.9,0.3,1.2c0.2,0.3,0.6,0.4,1.2,0.4c0.4,0,0.8,0,1.4-0.1l0.2,4.4
		c-0.5,0.2-1.1,0.3-1.8,0.4c-0.7,0.1-1.4,0.1-2.1,0.1c-1.1,0-2-0.2-2.7-0.5s-1.3-0.7-1.7-1.3c-0.4-0.5-0.7-1.1-0.9-1.8
		c-0.2-0.7-0.3-1.4-0.3-2.1v-23h6.4V29.9z"/>
	<path class="st1" d="M754.7,35.9V7.7h6.4v11c0.6-0.9,1.3-1.6,2.3-2.1c0.9-0.4,1.9-0.7,3-0.7c1.3,0,2.4,0.3,3.3,0.8
		c0.9,0.5,1.6,1.3,2.2,2.2c0.6,0.9,1,2,1.2,3.1c0.3,1.2,0.4,2.4,0.4,3.7v10.1h-6.4V25.7c0-1.6-0.3-2.8-0.8-3.6
		c-0.5-0.8-1.3-1.1-2.3-1.1c-0.7,0-1.2,0.1-1.7,0.4c-0.5,0.3-0.9,0.7-1.2,1.1v13.4H754.7z"/>
	<path class="st1" d="M788.7,34c-0.6,0.6-1.4,1.2-2.5,1.6c-1.1,0.5-2.2,0.7-3.5,0.7c-0.9,0-1.7-0.1-2.4-0.4s-1.3-0.7-1.7-1.2
		c-0.5-0.5-0.8-1.1-1.1-1.8c-0.3-0.7-0.4-1.4-0.4-2.2c0-1.8,0.6-3.2,1.7-4.1s2.7-1.5,4.8-1.6c0.8-0.1,1.6-0.1,2.5-0.1
		c0.9,0,1.6-0.1,2.3-0.1v-0.6c0-2.1-1.2-3.2-3.6-3.2c-0.9,0-1.8,0.1-2.7,0.3c-0.9,0.2-1.7,0.5-2.4,0.9l-1.2-4.4c0.9-0.5,2-1,3.3-1.3
		c1.3-0.3,2.6-0.5,4.1-0.5c2.7,0,4.9,0.7,6.4,2.1c1.5,1.4,2.3,3.6,2.3,6.4v11.4h-6.2V34z M785.3,32.1c0.6,0,1.2-0.1,1.7-0.2
		c0.5-0.2,1-0.4,1.5-0.6v-2.9c-0.6,0.1-1.2,0.1-1.7,0.2c-0.5,0.1-1,0.1-1.5,0.2c-1.3,0.2-2,0.8-2,1.8c0,0.5,0.2,0.9,0.5,1.2
		C784.2,32,784.6,32.1,785.3,32.1z"/>
	<path class="st1" d="M818,35.9h-6.1v-2.5c-0.6,0.9-1.4,1.6-2.4,2.1s-2.1,0.8-3.5,0.8c-1.1,0-2.1-0.2-3.1-0.7c-1-0.5-1.8-1.1-2.5-2
		c-0.7-0.9-1.3-1.9-1.7-3.1c-0.4-1.2-0.6-2.6-0.6-4.1c0-1.7,0.3-3.2,0.8-4.5c0.5-1.3,1.3-2.4,2.2-3.3s2-1.5,3.2-2
		c1.2-0.4,2.5-0.7,3.9-0.7c0.7,0,1.3,0,1.8,0.1c0.5,0.1,1,0.2,1.4,0.3V7.7h6.4V35.9z M808.3,31.5c1.4,0,2.5-0.5,3.3-1.4v-9
		c-0.6-0.2-1.3-0.3-2.3-0.3c-1.6,0-2.8,0.5-3.6,1.5c-0.8,1-1.2,2.3-1.2,4.1c0,1.5,0.3,2.8,0.9,3.7S807,31.5,808.3,31.5z"/>
	<path class="st1" d="M842.3,26.1c0,1.4-0.2,2.8-0.7,4c-0.5,1.2-1.1,2.3-2,3.2s-2,1.6-3.3,2.2c-1.3,0.5-2.8,0.8-4.5,0.8
		c-1.7,0-3.2-0.3-4.5-0.8c-1.3-0.5-2.4-1.2-3.3-2.2s-1.5-2-2-3.2c-0.5-1.2-0.7-2.6-0.7-4c0-1.4,0.2-2.8,0.7-4c0.5-1.2,1.1-2.3,2-3.2
		c0.9-0.9,2-1.6,3.3-2.2c1.3-0.5,2.8-0.8,4.5-0.8c1.7,0,3.2,0.3,4.5,0.8c1.3,0.5,2.4,1.2,3.3,2.2c0.9,0.9,1.5,2,2,3.2
		C842.1,23.4,842.3,24.7,842.3,26.1z M835.9,26.1c0-0.7-0.1-1.4-0.2-2c-0.1-0.7-0.4-1.2-0.7-1.8c-0.3-0.5-0.7-0.9-1.2-1.2
		c-0.5-0.3-1.2-0.5-1.9-0.5c-0.8,0-1.4,0.2-1.9,0.5c-0.5,0.3-0.9,0.7-1.2,1.2c-0.3,0.5-0.5,1.1-0.7,1.8c-0.1,0.7-0.2,1.3-0.2,2
		s0.1,1.4,0.2,2c0.1,0.7,0.4,1.2,0.7,1.8c0.3,0.5,0.7,0.9,1.2,1.2c0.5,0.3,1.2,0.5,1.9,0.5c0.8,0,1.4-0.2,1.9-0.5
		c0.5-0.3,0.9-0.7,1.2-1.2c0.3-0.5,0.5-1.1,0.7-1.8C835.8,27.5,835.9,26.8,835.9,26.1z"/>
	<path class="st1" d="M859.7,29.5c0,1.1-0.2,2.1-0.6,2.9c-0.4,0.9-1,1.6-1.8,2.1c-0.8,0.6-1.7,1-2.7,1.3s-2.2,0.4-3.4,0.4
		c-1.1,0-2.2-0.1-3.4-0.3c-1.2-0.2-2.2-0.5-3.2-0.9l0.9-4.4c0.8,0.3,1.7,0.6,2.7,0.8c1,0.2,1.9,0.3,2.6,0.3c0.8,0,1.4-0.1,2-0.3
		c0.6-0.2,0.9-0.6,0.9-1.1c0-0.5-0.3-0.8-0.8-1s-1.3-0.5-2.3-0.9c-0.8-0.3-1.6-0.6-2.3-1s-1.3-0.8-1.9-1.3c-0.5-0.5-0.9-1.1-1.2-1.7
		c-0.3-0.6-0.4-1.4-0.4-2.2c0-2.1,0.7-3.7,2.2-4.7c1.4-1,3.3-1.5,5.6-1.5c1.2,0,2.3,0.1,3.4,0.3s2,0.6,2.9,1.1l-0.9,4.2
		c-0.7-0.3-1.5-0.6-2.3-0.8c-0.8-0.2-1.6-0.3-2.5-0.3c-0.8,0-1.4,0.1-1.8,0.2s-0.6,0.4-0.6,0.9c0,0.5,0.2,0.8,0.7,1s1.1,0.4,1.9,0.7
		c0.6,0.2,1.2,0.5,2,0.8c0.7,0.3,1.4,0.7,2,1.2c0.6,0.5,1.2,1.1,1.6,1.7C859.5,27.8,859.7,28.6,859.7,29.5z"/>
	<path class="st1" d="M871.7,16.3h6.1v2.3c1.3-1.8,3.2-2.7,5.9-2.7c1.1,0,2.1,0.2,3.1,0.7c1,0.5,1.8,1.1,2.5,2
		c0.7,0.9,1.3,1.9,1.7,3.1c0.4,1.2,0.6,2.6,0.6,4.1c0,1.7-0.3,3.2-0.8,4.5c-0.5,1.3-1.3,2.4-2.2,3.3s-2,1.5-3.2,2
		c-1.2,0.4-2.5,0.7-3.9,0.7c-0.7,0-1.3,0-1.8-0.1c-0.5-0.1-1-0.2-1.4-0.3v8.3h-6.4V16.3z M881.4,20.9c-0.7,0-1.3,0.1-1.9,0.3
		c-0.5,0.2-1,0.6-1.4,1v9.1c0.3,0.1,0.6,0.2,1,0.2c0.4,0.1,0.8,0.1,1.3,0.1c1.7,0,2.9-0.5,3.6-1.5c0.7-1,1.1-2.4,1.1-4.1
		c0-1.4-0.3-2.6-0.9-3.6C883.7,21.3,882.7,20.9,881.4,20.9z"/>
	<path class="st1" d="M914.8,26.1c0,1.4-0.2,2.8-0.7,4c-0.5,1.2-1.1,2.3-2,3.2s-2,1.6-3.3,2.2c-1.3,0.5-2.8,0.8-4.5,0.8
		c-1.7,0-3.2-0.3-4.5-0.8c-1.3-0.5-2.4-1.2-3.3-2.2s-1.5-2-2-3.2c-0.5-1.2-0.7-2.6-0.7-4c0-1.4,0.2-2.8,0.7-4c0.5-1.2,1.1-2.3,2-3.2
		c0.9-0.9,2-1.6,3.3-2.2c1.3-0.5,2.8-0.8,4.5-0.8c1.7,0,3.2,0.3,4.5,0.8c1.3,0.5,2.4,1.2,3.3,2.2c0.9,0.9,1.5,2,2,3.2
		C914.6,23.4,914.8,24.7,914.8,26.1z M908.4,26.1c0-0.7-0.1-1.4-0.2-2c-0.1-0.7-0.4-1.2-0.7-1.8c-0.3-0.5-0.7-0.9-1.2-1.2
		c-0.5-0.3-1.2-0.5-1.9-0.5c-0.8,0-1.4,0.2-1.9,0.5c-0.5,0.3-0.9,0.7-1.2,1.2c-0.3,0.5-0.5,1.1-0.7,1.8c-0.1,0.7-0.2,1.3-0.2,2
		s0.1,1.4,0.2,2c0.1,0.7,0.4,1.2,0.7,1.8c0.3,0.5,0.7,0.9,1.2,1.2c0.5,0.3,1.2,0.5,1.9,0.5c0.8,0,1.4-0.2,1.9-0.5
		c0.5-0.3,0.9-0.7,1.2-1.2c0.3-0.5,0.5-1.1,0.7-1.8C908.3,27.5,908.4,26.8,908.4,26.1z"/>
	<path class="st1" d="M930.8,21.9H930c-2.5,0-4.3,0.6-5.4,1.9v12.2h-6.4V16.3h6.2v3.3c0.4-1.1,0.9-1.9,1.7-2.5
		c0.8-0.6,1.8-0.9,3-0.9c0.4,0,0.7,0,0.9,0.1c0.3,0,0.5,0.1,0.8,0.2L930.8,21.9z"/>
</g>
<g class="st0">
	<path class="st1" d="M143,64.3h3v-5.1h6.4v5.1h5.6v4.9h-5.6v7.6c0,0.8,0.2,1.4,0.5,1.8c0.3,0.4,0.9,0.7,1.8,0.7c0.5,0,1,0,1.5-0.1
		c0.5-0.1,1-0.2,1.4-0.3l0.4,4.5c-0.6,0.3-1.4,0.5-2.4,0.7c-0.9,0.2-1.9,0.2-2.8,0.2c-1.3,0-2.3-0.2-3.2-0.6
		c-0.9-0.4-1.6-0.9-2.1-1.6c-0.5-0.7-0.9-1.4-1.2-2.3C146.1,79,146,78,146,77v-7.8h-3V64.3z"/>
	<path class="st1" d="M180.7,74.1c0,1.4-0.2,2.8-0.7,4c-0.5,1.2-1.1,2.3-2,3.2c-0.9,0.9-2,1.6-3.3,2.2c-1.3,0.5-2.8,0.8-4.5,0.8
		s-3.2-0.3-4.5-0.8c-1.3-0.5-2.4-1.2-3.3-2.2c-0.9-0.9-1.5-2-2-3.2c-0.5-1.2-0.7-2.6-0.7-4c0-1.4,0.2-2.8,0.7-4
		c0.5-1.2,1.1-2.3,2-3.2c0.9-0.9,2-1.6,3.3-2.2c1.3-0.5,2.8-0.8,4.5-0.8s3.2,0.3,4.5,0.8c1.3,0.5,2.4,1.2,3.3,2.2
		c0.9,0.9,1.5,2,2,3.2C180.5,71.4,180.7,72.7,180.7,74.1z M174.3,74.1c0-0.7-0.1-1.4-0.2-2c-0.1-0.7-0.4-1.2-0.7-1.8
		c-0.3-0.5-0.7-0.9-1.2-1.2c-0.5-0.3-1.2-0.5-1.9-0.5c-0.8,0-1.4,0.2-1.9,0.5c-0.5,0.3-0.9,0.7-1.2,1.2c-0.3,0.5-0.5,1.1-0.7,1.8
		c-0.1,0.7-0.2,1.3-0.2,2s0.1,1.4,0.2,2c0.1,0.7,0.4,1.2,0.7,1.8c0.3,0.5,0.7,0.9,1.2,1.2c0.5,0.3,1.2,0.5,1.9,0.5
		c0.8,0,1.4-0.2,1.9-0.5c0.5-0.3,0.9-0.7,1.2-1.2c0.3-0.5,0.5-1.1,0.7-1.8C174.3,75.5,174.3,74.8,174.3,74.1z"/>
	<path class="st1" d="M202.9,83.9h-6.1v-2.5c-0.6,0.9-1.4,1.6-2.4,2.1c-1,0.5-2.1,0.8-3.5,0.8c-1.1,0-2.1-0.2-3.1-0.7
		c-1-0.5-1.8-1.1-2.5-2s-1.3-1.9-1.7-3.1c-0.4-1.2-0.6-2.6-0.6-4.1c0-1.7,0.3-3.2,0.8-4.5c0.5-1.3,1.3-2.4,2.2-3.3s2-1.5,3.2-2
		c1.2-0.4,2.5-0.7,3.9-0.7c0.7,0,1.3,0,1.8,0.1c0.5,0.1,1,0.2,1.4,0.3v-8.7h6.4V83.9z M193.2,79.5c1.4,0,2.5-0.5,3.3-1.4v-9
		c-0.6-0.2-1.3-0.3-2.3-0.3c-1.6,0-2.8,0.5-3.6,1.5c-0.8,1-1.2,2.3-1.2,4.1c0,1.5,0.3,2.8,0.9,3.7S191.9,79.5,193.2,79.5z"/>
	<path class="st1" d="M227.2,74.1c0,1.4-0.2,2.8-0.7,4c-0.5,1.2-1.1,2.3-2,3.2c-0.9,0.9-2,1.6-3.3,2.2c-1.3,0.5-2.8,0.8-4.5,0.8
		s-3.2-0.3-4.5-0.8c-1.3-0.5-2.4-1.2-3.3-2.2c-0.9-0.9-1.5-2-2-3.2c-0.5-1.2-0.7-2.6-0.7-4c0-1.4,0.2-2.8,0.7-4
		c0.5-1.2,1.1-2.3,2-3.2c0.9-0.9,2-1.6,3.3-2.2c1.3-0.5,2.8-0.8,4.5-0.8s3.2,0.3,4.5,0.8c1.3,0.5,2.4,1.2,3.3,2.2
		c0.9,0.9,1.5,2,2,3.2C227,71.4,227.2,72.7,227.2,74.1z M220.8,74.1c0-0.7-0.1-1.4-0.2-2c-0.1-0.7-0.4-1.2-0.7-1.8
		c-0.3-0.5-0.7-0.9-1.2-1.2c-0.5-0.3-1.2-0.5-1.9-0.5c-0.8,0-1.4,0.2-1.9,0.5c-0.5,0.3-0.9,0.7-1.2,1.2c-0.3,0.5-0.5,1.1-0.7,1.8
		c-0.1,0.7-0.2,1.3-0.2,2s0.1,1.4,0.2,2c0.1,0.7,0.4,1.2,0.7,1.8c0.3,0.5,0.7,0.9,1.2,1.2c0.5,0.3,1.2,0.5,1.9,0.5
		c0.8,0,1.4-0.2,1.9-0.5c0.5-0.3,0.9-0.7,1.2-1.2c0.3-0.5,0.5-1.1,0.7-1.8C220.7,75.5,220.8,74.8,220.8,74.1z"/>
	<path class="st1" d="M258.7,74.1c0,1.4-0.2,2.8-0.7,4c-0.5,1.2-1.1,2.3-2,3.2c-0.9,0.9-2,1.6-3.3,2.2c-1.3,0.5-2.8,0.8-4.5,0.8
		s-3.2-0.3-4.5-0.8c-1.3-0.5-2.4-1.2-3.3-2.2c-0.9-0.9-1.5-2-2-3.2c-0.5-1.2-0.7-2.6-0.7-4c0-1.4,0.2-2.8,0.7-4
		c0.5-1.2,1.1-2.3,2-3.2c0.9-0.9,2-1.6,3.3-2.2c1.3-0.5,2.8-0.8,4.5-0.8s3.2,0.3,4.5,0.8c1.3,0.5,2.4,1.2,3.3,2.2
		c0.9,0.9,1.5,2,2,3.2C258.5,71.4,258.7,72.7,258.7,74.1z M252.3,74.1c0-0.7-0.1-1.4-0.2-2c-0.1-0.7-0.4-1.2-0.7-1.8
		c-0.3-0.5-0.7-0.9-1.2-1.2c-0.5-0.3-1.2-0.5-1.9-0.5c-0.8,0-1.4,0.2-1.9,0.5c-0.5,0.3-0.9,0.7-1.2,1.2c-0.3,0.5-0.5,1.1-0.7,1.8
		c-0.1,0.7-0.2,1.3-0.2,2s0.1,1.4,0.2,2c0.1,0.7,0.4,1.2,0.7,1.8c0.3,0.5,0.7,0.9,1.2,1.2c0.5,0.3,1.2,0.5,1.9,0.5
		c0.8,0,1.4-0.2,1.9-0.5c0.5-0.3,0.9-0.7,1.2-1.2c0.3-0.5,0.5-1.1,0.7-1.8C252.3,75.5,252.3,74.8,252.3,74.1z"/>
	<path class="st1" d="M270.8,64.3h6.1v2.3c1.3-1.8,3.2-2.7,5.9-2.7c1.1,0,2.1,0.2,3.1,0.7s1.8,1.1,2.5,2c0.7,0.9,1.3,1.9,1.7,3.1
		s0.6,2.6,0.6,4.1c0,1.7-0.3,3.2-0.8,4.5c-0.5,1.3-1.3,2.4-2.2,3.3c-0.9,0.9-2,1.5-3.2,2c-1.2,0.4-2.5,0.7-3.9,0.7
		c-0.7,0-1.3,0-1.8-0.1c-0.5-0.1-1-0.2-1.4-0.3v8.3h-6.4V64.3z M280.5,68.9c-0.7,0-1.3,0.1-1.9,0.3c-0.5,0.2-1,0.6-1.4,1v9.1
		c0.3,0.1,0.6,0.2,1,0.2c0.4,0.1,0.8,0.1,1.3,0.1c1.7,0,2.9-0.5,3.6-1.5c0.7-1,1.1-2.4,1.1-4.1c0-1.4-0.3-2.6-0.9-3.6
		C282.7,69.3,281.8,68.9,280.5,68.9z"/>
	<path class="st1" d="M304.9,82c-0.6,0.6-1.4,1.2-2.5,1.6c-1.1,0.5-2.2,0.7-3.5,0.7c-0.9,0-1.7-0.1-2.4-0.4s-1.3-0.7-1.7-1.2
		c-0.5-0.5-0.8-1.1-1.1-1.8c-0.3-0.7-0.4-1.4-0.4-2.2c0-1.8,0.6-3.2,1.7-4.1c1.1-0.9,2.7-1.5,4.8-1.6c0.8-0.1,1.6-0.1,2.5-0.1
		c0.9,0,1.6-0.1,2.3-0.1v-0.6c0-2.1-1.2-3.2-3.6-3.2c-0.9,0-1.8,0.1-2.7,0.3c-0.9,0.2-1.7,0.5-2.4,0.9l-1.2-4.4c0.9-0.5,2-1,3.3-1.3
		c1.3-0.3,2.6-0.5,4.1-0.5c2.7,0,4.9,0.7,6.4,2.1c1.5,1.4,2.3,3.6,2.3,6.4v11.4h-6.2V82z M301.4,80.1c0.6,0,1.2-0.1,1.7-0.2
		c0.5-0.2,1-0.4,1.5-0.6v-2.9c-0.6,0.1-1.2,0.1-1.7,0.2c-0.5,0.1-1,0.1-1.5,0.2c-1.3,0.2-2,0.8-2,1.8c0,0.5,0.2,0.9,0.5,1.2
		C300.3,80,300.8,80.1,301.4,80.1z"/>
	<path class="st1" d="M315.5,83.9V64.3h6.4v19.6H315.5z M316.1,61.6l2.9-6.8h7l-4.6,6.8H316.1z"/>
	<path class="st1" d="M340.7,77.5c0,1.1-0.2,2.1-0.6,2.9c-0.4,0.9-1,1.6-1.8,2.1c-0.8,0.6-1.7,1-2.7,1.3c-1,0.3-2.2,0.4-3.4,0.4
		c-1.1,0-2.2-0.1-3.4-0.3c-1.2-0.2-2.2-0.5-3.2-0.9l0.9-4.4c0.8,0.3,1.7,0.6,2.7,0.8c1,0.2,1.9,0.3,2.6,0.3c0.8,0,1.4-0.1,2-0.3
		c0.6-0.2,0.9-0.6,0.9-1.1c0-0.5-0.3-0.8-0.8-1c-0.5-0.2-1.3-0.5-2.3-0.9c-0.8-0.3-1.6-0.6-2.3-1c-0.7-0.4-1.3-0.8-1.9-1.3
		c-0.5-0.5-0.9-1.1-1.2-1.7c-0.3-0.6-0.4-1.4-0.4-2.2c0-2.1,0.7-3.7,2.2-4.7c1.4-1,3.3-1.5,5.6-1.5c1.2,0,2.3,0.1,3.4,0.3
		c1,0.2,2,0.6,2.9,1.1l-0.9,4.2c-0.7-0.3-1.5-0.6-2.3-0.8c-0.8-0.2-1.6-0.3-2.5-0.3c-0.8,0-1.4,0.1-1.8,0.2
		c-0.4,0.1-0.6,0.4-0.6,0.9c0,0.5,0.2,0.8,0.7,1c0.5,0.2,1.1,0.4,1.9,0.7c0.6,0.2,1.2,0.5,2,0.8c0.7,0.3,1.4,0.7,2,1.2
		c0.6,0.5,1.2,1.1,1.6,1.7C340.5,75.8,340.7,76.6,340.7,77.5z"/>
	<path class="st1" d="M371.3,83.9h-6.1v-2.5c-0.6,0.9-1.4,1.6-2.4,2.1c-1,0.5-2.1,0.8-3.5,0.8c-1.1,0-2.1-0.2-3.1-0.7
		c-1-0.5-1.8-1.1-2.5-2s-1.3-1.9-1.7-3.1c-0.4-1.2-0.6-2.6-0.6-4.1c0-1.7,0.3-3.2,0.8-4.5c0.5-1.3,1.3-2.4,2.2-3.3s2-1.5,3.2-2
		c1.2-0.4,2.5-0.7,3.9-0.7c0.7,0,1.3,0,1.8,0.1c0.5,0.1,1,0.2,1.4,0.3v-8.7h6.4V83.9z M361.6,79.5c1.4,0,2.5-0.5,3.3-1.4v-9
		c-0.6-0.2-1.3-0.3-2.3-0.3c-1.6,0-2.8,0.5-3.6,1.5c-0.8,1-1.2,2.3-1.2,4.1c0,1.5,0.3,2.8,0.9,3.7S360.3,79.5,361.6,79.5z"/>
	<path class="st1" d="M384.8,63.9c2.6,0,4.6,0.8,6.1,2.3c1.5,1.5,2.2,3.6,2.2,6.3c0,1-0.1,2.1-0.4,3.2h-11.4
		c0.1,1.2,0.5,2.2,1.2,2.9c0.8,0.7,1.9,1.1,3.5,1.1c1,0,2-0.1,3-0.3c1.1-0.2,2-0.4,2.7-0.8l0.8,4.1c-1,0.5-2.2,0.9-3.4,1.2
		c-1.3,0.3-2.6,0.4-3.9,0.4c-1.7,0-3.2-0.2-4.5-0.7c-1.3-0.5-2.4-1.2-3.3-2.1c-0.9-0.9-1.5-1.9-2-3.2c-0.5-1.2-0.7-2.6-0.7-4.1
		c0-1.6,0.2-3,0.7-4.3c0.5-1.3,1.1-2.4,2-3.3c0.9-0.9,1.9-1.6,3.1-2.1C381.9,64.2,383.3,63.9,384.8,63.9z M384.6,68
		c-1,0-1.8,0.3-2.3,1c-0.5,0.7-0.8,1.6-0.8,2.7h5.7c0.1-0.2,0.1-0.4,0.1-0.7c0-0.9-0.2-1.6-0.7-2.1C386,68.3,385.4,68,384.6,68z"/>
	<path class="st1" d="M401.1,83.9l-6.8-19.6h6.4l3.8,13.8l3.8-13.8h6.4l-6.8,19.6H401.1z"/>
	<path class="st1" d="M416.7,58.6c0-1,0.3-1.9,1-2.6c0.7-0.7,1.5-1,2.6-1c1.1,0,1.9,0.3,2.6,1c0.7,0.7,1,1.5,1,2.6
		c0,1-0.3,1.9-1,2.6c-0.7,0.7-1.5,1-2.6,1c-1.1,0-1.9-0.3-2.6-1C417,60.5,416.7,59.6,416.7,58.6z M417.1,83.9V64.3h6.4v19.6H417.1z"
		/>
	<path class="st1" d="M446.8,83.9h-6.1v-2.5c-0.6,0.9-1.4,1.6-2.4,2.1c-1,0.5-2.1,0.8-3.5,0.8c-1.1,0-2.1-0.2-3.1-0.7
		c-1-0.5-1.8-1.1-2.5-2s-1.3-1.9-1.7-3.1c-0.4-1.2-0.6-2.6-0.6-4.1c0-1.7,0.3-3.2,0.8-4.5c0.5-1.3,1.3-2.4,2.2-3.3s2-1.5,3.2-2
		c1.2-0.4,2.5-0.7,3.9-0.7c0.7,0,1.3,0,1.8,0.1c0.5,0.1,1,0.2,1.4,0.3v-8.7h6.4V83.9z M437.1,79.5c1.4,0,2.5-0.5,3.3-1.4v-9
		c-0.6-0.2-1.3-0.3-2.3-0.3c-1.6,0-2.8,0.5-3.6,1.5c-0.8,1-1.2,2.3-1.2,4.1c0,1.5,0.3,2.8,0.9,3.7S435.8,79.5,437.1,79.5z"/>
	<path class="st1" d="M462.3,82c-0.6,0.6-1.4,1.2-2.5,1.6c-1.1,0.5-2.2,0.7-3.5,0.7c-0.9,0-1.7-0.1-2.4-0.4s-1.3-0.7-1.7-1.2
		c-0.5-0.5-0.8-1.1-1.1-1.8c-0.3-0.7-0.4-1.4-0.4-2.2c0-1.8,0.6-3.2,1.7-4.1c1.1-0.9,2.7-1.5,4.8-1.6c0.8-0.1,1.6-0.1,2.5-0.1
		c0.9,0,1.6-0.1,2.3-0.1v-0.6c0-2.1-1.2-3.2-3.6-3.2c-0.9,0-1.8,0.1-2.7,0.3c-0.9,0.2-1.7,0.5-2.4,0.9l-1.2-4.4c0.9-0.5,2-1,3.3-1.3
		c1.3-0.3,2.6-0.5,4.1-0.5c2.7,0,4.9,0.7,6.4,2.1c1.5,1.4,2.3,3.6,2.3,6.4v11.4h-6.2V82z M458.9,80.1c0.6,0,1.2-0.1,1.7-0.2
		c0.5-0.2,1-0.4,1.5-0.6v-2.9c-0.6,0.1-1.2,0.1-1.7,0.2c-0.5,0.1-1,0.1-1.5,0.2c-1.3,0.2-2,0.8-2,1.8c0,0.5,0.2,0.9,0.5,1.2
		C457.8,80,458.2,80.1,458.9,80.1z"/>
	<path class="st1" d="M494.5,69c-0.7,0-1.3,0.2-1.8,0.5c-0.5,0.3-1,0.7-1.4,1.1c0.1,0.5,0.2,1,0.2,1.6s0.1,1.1,0.1,1.7v10.1h-6.4
		V73.7c0-1.6-0.2-2.8-0.6-3.6c-0.4-0.8-1.1-1.1-2.2-1.1c-0.7,0-1.2,0.1-1.7,0.4c-0.5,0.3-0.9,0.7-1.2,1.1v13.4H473V64.3h6.2v2.6
		c0.6-1.1,1.4-1.8,2.4-2.3c1-0.5,2-0.7,3.1-0.7c1.3,0,2.3,0.3,3.2,0.8c0.8,0.5,1.6,1.4,2.4,2.5c1.4-2.2,3.6-3.3,6.5-3.3
		c1.3,0,2.4,0.3,3.2,0.8c0.9,0.5,1.6,1.3,2.1,2.2c0.5,0.9,0.9,2,1.2,3.1c0.2,1.2,0.4,2.4,0.4,3.7v10.1h-6.4V73.7
		c0-1.6-0.2-2.8-0.6-3.6C496.2,69.4,495.5,69,494.5,69z"/>
	<path class="st1" d="M516.9,63.9c2.6,0,4.6,0.8,6.1,2.3c1.5,1.5,2.2,3.6,2.2,6.3c0,1-0.1,2.1-0.4,3.2h-11.4
		c0.1,1.2,0.5,2.2,1.2,2.9c0.8,0.7,1.9,1.1,3.5,1.1c1,0,2-0.1,3-0.3c1.1-0.2,2-0.4,2.7-0.8l0.8,4.1c-1,0.5-2.2,0.9-3.4,1.2
		c-1.3,0.3-2.6,0.4-3.9,0.4c-1.7,0-3.2-0.2-4.5-0.7c-1.3-0.5-2.4-1.2-3.3-2.1c-0.9-0.9-1.5-1.9-2-3.2c-0.5-1.2-0.7-2.6-0.7-4.1
		c0-1.6,0.2-3,0.7-4.3c0.5-1.3,1.1-2.4,2-3.3c0.9-0.9,1.9-1.6,3.1-2.1C514,64.2,515.3,63.9,516.9,63.9z M516.7,68
		c-1,0-1.8,0.3-2.3,1c-0.5,0.7-0.8,1.6-0.8,2.7h5.7c0.1-0.2,0.1-0.4,0.1-0.7c0-0.9-0.2-1.6-0.7-2.1C518.1,68.3,517.5,68,516.7,68z"
		/>
	<path class="st1" d="M528.8,83.9V64.3h6.2v2.6c0.6-1.1,1.4-1.8,2.4-2.3c1-0.5,2-0.7,3.1-0.7c1.3,0,2.4,0.3,3.3,0.8s1.6,1.3,2.2,2.2
		c0.6,0.9,1,2,1.2,3.1c0.3,1.2,0.4,2.4,0.4,3.7v10.1h-6.4V73.7c0-1.6-0.3-2.8-0.8-3.6c-0.5-0.8-1.3-1.1-2.3-1.1
		c-0.7,0-1.2,0.1-1.7,0.4c-0.5,0.3-0.9,0.7-1.2,1.1v13.4H528.8z"/>
	<path class="st1" d="M549.9,64.3h3v-5.1h6.4v5.1h5.6v4.9h-5.6v7.6c0,0.8,0.2,1.4,0.5,1.8c0.3,0.4,0.9,0.7,1.8,0.7
		c0.5,0,1,0,1.5-0.1c0.5-0.1,1-0.2,1.4-0.3l0.4,4.5c-0.6,0.3-1.4,0.5-2.4,0.7c-0.9,0.2-1.9,0.2-2.8,0.2c-1.3,0-2.3-0.2-3.2-0.6
		c-0.9-0.4-1.6-0.9-2.1-1.6c-0.5-0.7-0.9-1.4-1.2-2.3c-0.3-0.9-0.4-1.8-0.4-2.9v-7.8h-3V64.3z"/>
	<path class="st1" d="M576.9,63.9c2.6,0,4.6,0.8,6.1,2.3c1.5,1.5,2.2,3.6,2.2,6.3c0,1-0.1,2.1-0.4,3.2h-11.4
		c0.1,1.2,0.5,2.2,1.2,2.9s1.9,1.1,3.5,1.1c1,0,2-0.1,3-0.3c1.1-0.2,2-0.4,2.7-0.8l0.8,4.1c-1,0.5-2.2,0.9-3.4,1.2s-2.6,0.4-3.9,0.4
		c-1.7,0-3.2-0.2-4.5-0.7s-2.4-1.2-3.3-2.1c-0.9-0.9-1.5-1.9-2-3.2s-0.7-2.6-0.7-4.1c0-1.6,0.2-3,0.7-4.3c0.5-1.3,1.1-2.4,2-3.3
		c0.9-0.9,1.9-1.6,3.1-2.1C574,64.2,575.3,63.9,576.9,63.9z M576.7,68c-1,0-1.8,0.3-2.3,1c-0.5,0.7-0.8,1.6-0.8,2.7h5.7
		c0.1-0.2,0.1-0.4,0.1-0.7c0-0.9-0.2-1.6-0.7-2.1S577.5,68,576.7,68z"/>
	<path class="st1" d="M597,58.6c0-1,0.3-1.9,1-2.6c0.7-0.7,1.5-1,2.6-1c1.1,0,1.9,0.3,2.6,1c0.7,0.7,1,1.5,1,2.6c0,1-0.3,1.9-1,2.6
		c-0.7,0.7-1.5,1-2.6,1c-1.1,0-1.9-0.3-2.6-1C597.4,60.5,597,59.6,597,58.6z M597.4,83.9V64.3h6.4v19.6H597.4z"/>
	<path class="st1" d="M627.2,83.9h-6.1v-2.5c-0.6,0.9-1.4,1.6-2.4,2.1s-2.1,0.8-3.5,0.8c-1.1,0-2.1-0.2-3.1-0.7
		c-1-0.5-1.8-1.1-2.5-2c-0.7-0.9-1.3-1.9-1.7-3.1c-0.4-1.2-0.6-2.6-0.6-4.1c0-1.7,0.3-3.2,0.8-4.5c0.5-1.3,1.3-2.4,2.2-3.3
		s2-1.5,3.2-2c1.2-0.4,2.5-0.7,3.9-0.7c0.7,0,1.3,0,1.8,0.1c0.5,0.1,1,0.2,1.4,0.3v-8.7h6.4V83.9z M617.5,79.5
		c1.4,0,2.5-0.5,3.3-1.4v-9c-0.6-0.2-1.3-0.3-2.3-0.3c-1.6,0-2.8,0.5-3.6,1.5c-0.8,1-1.2,2.3-1.2,4.1c0,1.5,0.3,2.8,0.9,3.7
		C615.2,79,616.2,79.5,617.5,79.5z"/>
	<path class="st1" d="M640.7,63.9c2.6,0,4.6,0.8,6.1,2.3c1.5,1.5,2.2,3.6,2.2,6.3c0,1-0.1,2.1-0.4,3.2h-11.4
		c0.1,1.2,0.5,2.2,1.2,2.9c0.8,0.7,1.9,1.1,3.5,1.1c1,0,2-0.1,3-0.3c1.1-0.2,2-0.4,2.7-0.8l0.8,4.1c-1,0.5-2.2,0.9-3.4,1.2
		c-1.3,0.3-2.6,0.4-3.9,0.4c-1.7,0-3.2-0.2-4.5-0.7c-1.3-0.5-2.4-1.2-3.3-2.1c-0.9-0.9-1.5-1.9-2-3.2c-0.5-1.2-0.7-2.6-0.7-4.1
		c0-1.6,0.2-3,0.7-4.3s1.1-2.4,2-3.3s1.9-1.6,3.1-2.1C637.8,64.2,639.1,63.9,640.7,63.9z M640.5,68c-1,0-1.8,0.3-2.3,1
		c-0.5,0.7-0.8,1.6-0.8,2.7h5.7c0.1-0.2,0.1-0.4,0.1-0.7c0-0.9-0.2-1.6-0.7-2.1C641.9,68.3,641.3,68,640.5,68z"/>
	<path class="st1" d="M652.6,83.9V64.3h6.2v2.6c0.6-1.1,1.4-1.8,2.4-2.3c1-0.5,2-0.7,3.1-0.7c1.3,0,2.4,0.3,3.3,0.8s1.6,1.3,2.2,2.2
		c0.6,0.9,1,2,1.2,3.1c0.3,1.2,0.4,2.4,0.4,3.7v10.1H665V73.7c0-1.6-0.3-2.8-0.8-3.6c-0.5-0.8-1.3-1.1-2.3-1.1
		c-0.7,0-1.2,0.1-1.7,0.4c-0.5,0.3-0.9,0.7-1.2,1.1v13.4H652.6z"/>
	<path class="st1" d="M673.7,64.3h3v-5.1h6.4v5.1h5.6v4.9h-5.6v7.6c0,0.8,0.2,1.4,0.5,1.8c0.3,0.4,0.9,0.7,1.8,0.7
		c0.5,0,1,0,1.5-0.1c0.5-0.1,1-0.2,1.4-0.3l0.4,4.5c-0.6,0.3-1.4,0.5-2.4,0.7s-1.9,0.2-2.8,0.2c-1.3,0-2.3-0.2-3.2-0.6
		c-0.9-0.4-1.6-0.9-2.1-1.6c-0.5-0.7-0.9-1.4-1.2-2.3c-0.3-0.9-0.4-1.8-0.4-2.9v-7.8h-3V64.3z"/>
	<path class="st1" d="M691.6,58.6c0-1,0.3-1.9,1-2.6c0.7-0.7,1.5-1,2.6-1s1.9,0.3,2.6,1c0.7,0.7,1,1.5,1,2.6c0,1-0.3,1.9-1,2.6
		c-0.7,0.7-1.5,1-2.6,1s-1.9-0.3-2.6-1C691.9,60.5,691.6,59.6,691.6,58.6z M692,83.9V64.3h6.4v19.6H692z"/>
	<path class="st1" d="M716.9,83.9V69.1h-6.1v14.9h-6.4V69.3h-3v-4.9h3v-0.4c0-1.5,0.2-2.9,0.6-4c0.4-1.1,1-2,1.8-2.7
		c0.8-0.7,1.7-1.2,2.8-1.5c1.1-0.3,2.4-0.5,3.7-0.5c1.1,0,2.2,0.1,3.1,0.3c0.9,0.2,1.8,0.5,2.6,0.8l-0.8,4.6
		c-0.6-0.2-1.2-0.4-1.9-0.6c-0.7-0.2-1.4-0.2-2.2-0.2c-1.2,0-2.1,0.3-2.6,0.8c-0.6,0.5-0.8,1.3-0.8,2.4v1h12.4v19.6H716.9z"/>
	<path class="st1" d="M737.3,63.9c1,0,2,0.1,3,0.3c1,0.2,1.8,0.5,2.5,0.9l-0.6,4.6c-0.5-0.2-1.1-0.4-1.8-0.5
		c-0.7-0.2-1.4-0.2-2.1-0.2c-1.7,0-3,0.5-3.8,1.4c-0.9,0.9-1.3,2.2-1.3,3.8s0.4,2.9,1.3,3.8c0.9,0.9,2.1,1.4,3.8,1.4
		c0.7,0,1.4-0.1,2.1-0.2c0.7-0.2,1.3-0.3,1.8-0.5l0.6,4.6c-0.7,0.4-1.6,0.7-2.5,0.9c-1,0.2-2,0.3-3,0.3c-1.7,0-3.1-0.2-4.5-0.7
		c-1.3-0.5-2.4-1.2-3.3-2.1s-1.6-2-2.1-3.2c-0.5-1.3-0.7-2.6-0.7-4.2c0-1.5,0.2-2.9,0.7-4.2c0.5-1.3,1.2-2.3,2.1-3.2s2-1.6,3.3-2.1
		C734.1,64.2,735.6,63.9,737.3,63.9z"/>
	<path class="st1" d="M757.1,82c-0.6,0.6-1.4,1.2-2.5,1.6c-1.1,0.5-2.2,0.7-3.5,0.7c-0.9,0-1.7-0.1-2.4-0.4s-1.3-0.7-1.7-1.2
		c-0.5-0.5-0.8-1.1-1.1-1.8c-0.3-0.7-0.4-1.4-0.4-2.2c0-1.8,0.6-3.2,1.7-4.1s2.7-1.5,4.8-1.6c0.8-0.1,1.6-0.1,2.5-0.1
		c0.9,0,1.6-0.1,2.3-0.1v-0.6c0-2.1-1.2-3.2-3.6-3.2c-0.9,0-1.8,0.1-2.7,0.3c-0.9,0.2-1.7,0.5-2.4,0.9l-1.2-4.4c0.9-0.5,2-1,3.3-1.3
		c1.3-0.3,2.6-0.5,4.1-0.5c2.7,0,4.9,0.7,6.4,2.1c1.5,1.4,2.3,3.6,2.3,6.4v11.4h-6.2V82z M753.6,80.1c0.6,0,1.2-0.1,1.7-0.2
		c0.5-0.2,1-0.4,1.5-0.6v-2.9c-0.6,0.1-1.2,0.1-1.7,0.2c-0.5,0.1-1,0.1-1.5,0.2c-1.3,0.2-2,0.8-2,1.8c0,0.5,0.2,0.9,0.5,1.2
		C752.5,80,753,80.1,753.6,80.1z"/>
	<path class="st1" d="M786.3,83.9h-6.1v-2.5c-0.6,0.9-1.4,1.6-2.4,2.1s-2.1,0.8-3.5,0.8c-1.1,0-2.1-0.2-3.1-0.7
		c-1-0.5-1.8-1.1-2.5-2c-0.7-0.9-1.3-1.9-1.7-3.1c-0.4-1.2-0.6-2.6-0.6-4.1c0-1.7,0.3-3.2,0.8-4.5c0.5-1.3,1.3-2.4,2.2-3.3
		s2-1.5,3.2-2c1.2-0.4,2.5-0.7,3.9-0.7c0.7,0,1.3,0,1.8,0.1c0.5,0.1,1,0.2,1.4,0.3v-8.7h6.4V83.9z M776.7,79.5
		c1.4,0,2.5-0.5,3.3-1.4v-9c-0.6-0.2-1.3-0.3-2.3-0.3c-1.6,0-2.8,0.5-3.6,1.5c-0.8,1-1.2,2.3-1.2,4.1c0,1.5,0.3,2.8,0.9,3.7
		S775.4,79.5,776.7,79.5z"/>
	<path class="st1" d="M810.7,74.1c0,1.4-0.2,2.8-0.7,4c-0.5,1.2-1.1,2.3-2,3.2s-2,1.6-3.3,2.2c-1.3,0.5-2.8,0.8-4.5,0.8
		c-1.7,0-3.2-0.3-4.5-0.8c-1.3-0.5-2.4-1.2-3.3-2.2s-1.5-2-2-3.2c-0.5-1.2-0.7-2.6-0.7-4c0-1.4,0.2-2.8,0.7-4c0.5-1.2,1.1-2.3,2-3.2
		c0.9-0.9,2-1.6,3.3-2.2c1.3-0.5,2.8-0.8,4.5-0.8c1.7,0,3.2,0.3,4.5,0.8c1.3,0.5,2.4,1.2,3.3,2.2c0.9,0.9,1.5,2,2,3.2
		C810.4,71.4,810.7,72.7,810.7,74.1z M804.3,74.1c0-0.7-0.1-1.4-0.2-2c-0.1-0.7-0.4-1.2-0.7-1.8c-0.3-0.5-0.7-0.9-1.2-1.2
		c-0.5-0.3-1.2-0.5-1.9-0.5c-0.8,0-1.4,0.2-1.9,0.5c-0.5,0.3-0.9,0.7-1.2,1.2c-0.3,0.5-0.5,1.1-0.7,1.8c-0.1,0.7-0.2,1.3-0.2,2
		s0.1,1.4,0.2,2c0.1,0.7,0.4,1.2,0.7,1.8c0.3,0.5,0.7,0.9,1.2,1.2c0.5,0.3,1.2,0.5,1.9,0.5c0.8,0,1.4-0.2,1.9-0.5
		c0.5-0.3,0.9-0.7,1.2-1.2c0.3-0.5,0.5-1.1,0.7-1.8C804.2,75.5,804.3,74.8,804.3,74.1z"/>
	<path class="st1" d="M828.1,77.5c0,1.1-0.2,2.1-0.6,2.9c-0.4,0.9-1,1.6-1.8,2.1c-0.8,0.6-1.7,1-2.7,1.3s-2.2,0.4-3.4,0.4
		c-1.1,0-2.2-0.1-3.4-0.3c-1.2-0.2-2.2-0.5-3.2-0.9l0.9-4.4c0.8,0.3,1.7,0.6,2.7,0.8c1,0.2,1.9,0.3,2.6,0.3c0.8,0,1.4-0.1,2-0.3
		c0.6-0.2,0.9-0.6,0.9-1.1c0-0.5-0.3-0.8-0.8-1s-1.3-0.5-2.3-0.9c-0.8-0.3-1.6-0.6-2.3-1s-1.3-0.8-1.9-1.3c-0.5-0.5-0.9-1.1-1.2-1.7
		c-0.3-0.6-0.4-1.4-0.4-2.2c0-2.1,0.7-3.7,2.2-4.7c1.4-1,3.3-1.5,5.6-1.5c1.2,0,2.3,0.1,3.4,0.3s2,0.6,2.9,1.1l-0.9,4.2
		c-0.7-0.3-1.5-0.6-2.3-0.8c-0.8-0.2-1.6-0.3-2.5-0.3c-0.8,0-1.4,0.1-1.8,0.2s-0.6,0.4-0.6,0.9c0,0.5,0.2,0.8,0.7,1s1.1,0.4,1.9,0.7
		c0.6,0.2,1.2,0.5,2,0.8c0.7,0.3,1.4,0.7,2,1.2c0.6,0.5,1.2,1.1,1.6,1.7C827.8,75.8,828.1,76.6,828.1,77.5z"/>
	<path class="st1" d="M858.7,92.2h-6.4v-9.7c-0.6,0.6-1.3,1-2.1,1.4c-0.8,0.3-1.8,0.5-2.9,0.5c-1.3,0-2.5-0.2-3.6-0.7
		c-1.1-0.5-1.9-1.2-2.7-2.1c-0.7-0.9-1.3-1.9-1.6-3.2s-0.6-2.6-0.6-4c0-1.6,0.2-3,0.7-4.3c0.5-1.3,1.2-2.4,2.1-3.3
		c0.9-0.9,2.1-1.6,3.5-2.1c1.4-0.5,3-0.7,4.9-0.7c1.7,0,3.2,0.2,4.6,0.5c1.4,0.3,2.7,0.8,4,1.4V92.2z M849.1,79.5
		c1.2,0,2.3-0.3,3.2-1v-9.3c-0.6-0.3-1.4-0.4-2.2-0.4c-1.6,0-2.8,0.5-3.6,1.5c-0.8,1-1.2,2.4-1.2,4.1c0,1.6,0.3,2.9,0.9,3.8
		C846.8,79,847.8,79.5,849.1,79.5z"/>
	<path class="st1" d="M881.8,64.3v19.6h-6.2v-2.6c-0.7,1.1-1.6,1.9-2.5,2.3c-0.9,0.4-1.9,0.6-3,0.6c-1.3,0-2.4-0.3-3.3-0.8
		c-0.9-0.5-1.6-1.3-2.2-2.2c-0.5-0.9-0.9-2-1.2-3.1c-0.2-1.2-0.4-2.4-0.4-3.7V64.3h6.4v10.2c0,1.6,0.2,2.8,0.7,3.6
		c0.5,0.8,1.2,1.1,2.2,1.1c0.7,0,1.2-0.1,1.7-0.4c0.5-0.3,0.9-0.7,1.2-1.1V64.3H881.8z"/>
	<path class="st1" d="M895.3,63.9c2.6,0,4.6,0.8,6.1,2.3c1.5,1.5,2.2,3.6,2.2,6.3c0,1-0.1,2.1-0.4,3.2h-11.4
		c0.1,1.2,0.5,2.2,1.2,2.9c0.8,0.7,1.9,1.1,3.5,1.1c1,0,2-0.1,3-0.3c1.1-0.2,2-0.4,2.7-0.8l0.8,4.1c-1,0.5-2.2,0.9-3.4,1.2
		s-2.6,0.4-3.9,0.4c-1.7,0-3.2-0.2-4.5-0.7s-2.4-1.2-3.3-2.1c-0.9-0.9-1.5-1.9-2-3.2s-0.7-2.6-0.7-4.1c0-1.6,0.2-3,0.7-4.3
		c0.5-1.3,1.1-2.4,2-3.3c0.9-0.9,1.9-1.6,3.1-2.1C892.4,64.2,893.8,63.9,895.3,63.9z M895.1,68c-1,0-1.8,0.3-2.3,1
		c-0.5,0.7-0.8,1.6-0.8,2.7h5.7c0.1-0.2,0.1-0.4,0.1-0.7c0-0.9-0.2-1.6-0.7-2.1S895.9,68,895.1,68z"/>
</g>
<g class="st0">
	<path class="st1" d="M127.5,112.3h6.1v2.3c1.3-1.8,3.2-2.7,5.9-2.7c1.1,0,2.1,0.2,3.1,0.7s1.8,1.1,2.5,2c0.7,0.9,1.3,1.9,1.7,3.1
		s0.6,2.6,0.6,4.1c0,1.7-0.3,3.2-0.8,4.5c-0.5,1.3-1.3,2.4-2.2,3.3c-0.9,0.9-2,1.5-3.2,2c-1.2,0.4-2.5,0.7-3.9,0.7
		c-0.7,0-1.3,0-1.8-0.1c-0.5-0.1-1-0.2-1.4-0.3v8.3h-6.4V112.3z M137.1,116.9c-0.7,0-1.3,0.1-1.9,0.3c-0.5,0.2-1,0.6-1.4,1v9.1
		c0.3,0.1,0.6,0.2,1,0.2c0.4,0.1,0.8,0.1,1.3,0.1c1.7,0,2.9-0.5,3.6-1.5c0.7-1,1.1-2.4,1.1-4.1c0-1.4-0.3-2.6-0.9-3.6
		C139.4,117.3,138.5,116.9,137.1,116.9z"/>
	<path class="st1" d="M170.5,122.1c0,1.4-0.2,2.8-0.7,4c-0.5,1.2-1.1,2.3-2,3.2c-0.9,0.9-2,1.6-3.3,2.2c-1.3,0.5-2.8,0.8-4.5,0.8
		s-3.2-0.3-4.5-0.8c-1.3-0.5-2.4-1.2-3.3-2.2c-0.9-0.9-1.5-2-2-3.2c-0.5-1.2-0.7-2.6-0.7-4c0-1.4,0.2-2.8,0.7-4
		c0.5-1.2,1.1-2.3,2-3.2c0.9-0.9,2-1.6,3.3-2.2c1.3-0.5,2.8-0.8,4.5-0.8s3.2,0.3,4.5,0.8c1.3,0.5,2.4,1.2,3.3,2.2
		c0.9,0.9,1.5,2,2,3.2C170.3,119.4,170.5,120.7,170.5,122.1z M164.1,122.1c0-0.7-0.1-1.4-0.2-2c-0.1-0.7-0.4-1.2-0.7-1.8
		c-0.3-0.5-0.7-0.9-1.2-1.2c-0.5-0.3-1.2-0.5-1.9-0.5c-0.8,0-1.4,0.2-1.9,0.5c-0.5,0.3-0.9,0.7-1.2,1.2c-0.3,0.5-0.5,1.1-0.7,1.8
		c-0.1,0.7-0.2,1.3-0.2,2s0.1,1.4,0.2,2c0.1,0.7,0.4,1.2,0.7,1.8c0.3,0.5,0.7,0.9,1.2,1.2c0.5,0.3,1.2,0.5,1.9,0.5
		c0.8,0,1.4-0.2,1.9-0.5c0.5-0.3,0.9-0.7,1.2-1.2c0.3-0.5,0.5-1.1,0.7-1.8C164.1,123.5,164.1,122.8,164.1,122.1z"/>
	<path class="st1" d="M192.7,131.9h-6.1v-2.5c-0.6,0.9-1.4,1.6-2.4,2.1c-1,0.5-2.1,0.8-3.5,0.8c-1.1,0-2.1-0.2-3.1-0.7
		c-1-0.5-1.8-1.1-2.5-2s-1.3-1.9-1.7-3.1c-0.4-1.2-0.6-2.6-0.6-4.1c0-1.7,0.3-3.2,0.8-4.5c0.5-1.3,1.3-2.4,2.2-3.3s2-1.5,3.2-2
		c1.2-0.4,2.5-0.7,3.9-0.7c0.7,0,1.3,0,1.8,0.1c0.5,0.1,1,0.2,1.4,0.3v-8.7h6.4V131.9z M183,127.5c1.4,0,2.5-0.5,3.3-1.4v-9
		c-0.6-0.2-1.3-0.3-2.3-0.3c-1.6,0-2.8,0.5-3.6,1.5c-0.8,1-1.2,2.3-1.2,4.1c0,1.5,0.3,2.8,0.9,3.7S181.7,127.5,183,127.5z"/>
	<path class="st1" d="M206.1,111.9c2.6,0,4.6,0.8,6.1,2.3c1.5,1.5,2.2,3.6,2.2,6.3c0,1-0.1,2.1-0.4,3.2h-11.4
		c0.1,1.2,0.5,2.2,1.2,2.9c0.8,0.7,1.9,1.1,3.5,1.1c1,0,2-0.1,3-0.3c1.1-0.2,2-0.4,2.7-0.8l0.8,4.1c-1,0.5-2.2,0.9-3.4,1.2
		c-1.3,0.3-2.6,0.4-3.9,0.4c-1.7,0-3.2-0.2-4.5-0.7c-1.3-0.5-2.4-1.2-3.3-2.1c-0.9-0.9-1.5-1.9-2-3.2c-0.5-1.2-0.7-2.6-0.7-4.1
		c0-1.6,0.2-3,0.7-4.3c0.5-1.3,1.1-2.4,2-3.3c0.9-0.9,1.9-1.6,3.1-2.1C203.3,112.2,204.6,111.9,206.1,111.9z M205.9,116
		c-1,0-1.8,0.3-2.3,1c-0.5,0.7-0.8,1.6-0.8,2.7h5.7c0.1-0.2,0.1-0.4,0.1-0.7c0-0.9-0.2-1.6-0.7-2.1C207.4,116.3,206.8,116,205.9,116
		z"/>
	<path class="st1" d="M239.5,117c-0.7,0-1.3,0.2-1.8,0.5c-0.5,0.3-1,0.7-1.4,1.1c0.1,0.5,0.2,1,0.2,1.6s0.1,1.1,0.1,1.7v10.1h-6.4
		v-10.2c0-1.6-0.2-2.8-0.6-3.6c-0.4-0.8-1.1-1.1-2.2-1.1c-0.7,0-1.2,0.1-1.7,0.4c-0.5,0.3-0.9,0.7-1.2,1.1v13.4h-6.4v-19.6h6.2v2.6
		c0.6-1.1,1.4-1.8,2.4-2.3c1-0.5,2-0.7,3.1-0.7c1.3,0,2.3,0.3,3.2,0.8c0.8,0.5,1.6,1.4,2.4,2.5c1.4-2.2,3.6-3.3,6.5-3.3
		c1.3,0,2.4,0.3,3.2,0.8c0.9,0.5,1.6,1.3,2.1,2.2c0.5,0.9,0.9,2,1.2,3.1c0.2,1.2,0.4,2.4,0.4,3.7v10.1h-6.4v-10.2
		c0-1.6-0.2-2.8-0.6-3.6C241.3,117.4,240.6,117,239.5,117z"/>
	<path class="st1" d="M271.7,131.9v-14.7h-3v-4.9h3v-0.6c0-2.9,0.8-5,2.3-6.4c1.5-1.4,3.5-2.1,6-2.1c0.6,0,1.3,0,2,0.1
		c0.7,0.1,1.3,0.3,1.9,0.5l-0.5,4.5c-0.6-0.2-1.3-0.3-2.1-0.3c-1,0-1.8,0.2-2.4,0.7c-0.6,0.5-0.9,1.3-0.9,2.6v0.8h4.5v4.9h-4.5v14.7
		H271.7z"/>
	<path class="st1" d="M295.5,130c-0.6,0.6-1.4,1.2-2.5,1.6c-1.1,0.5-2.2,0.7-3.5,0.7c-0.9,0-1.7-0.1-2.4-0.4s-1.3-0.7-1.7-1.2
		c-0.5-0.5-0.8-1.1-1.1-1.8c-0.3-0.7-0.4-1.4-0.4-2.2c0-1.8,0.6-3.2,1.7-4.1c1.1-0.9,2.7-1.5,4.8-1.6c0.8-0.1,1.6-0.1,2.5-0.1
		c0.9,0,1.6-0.1,2.3-0.1v-0.6c0-2.1-1.2-3.2-3.6-3.2c-0.9,0-1.8,0.1-2.7,0.3c-0.9,0.2-1.7,0.5-2.4,0.9l-1.2-4.4c0.9-0.5,2-1,3.3-1.3
		c1.3-0.3,2.6-0.5,4.1-0.5c2.7,0,4.9,0.7,6.4,2.1c1.5,1.4,2.3,3.6,2.3,6.4v11.4h-6.2V130z M292,128.1c0.6,0,1.2-0.1,1.7-0.2
		c0.5-0.2,1-0.4,1.5-0.6v-2.9c-0.6,0.1-1.2,0.1-1.7,0.2c-0.5,0.1-1,0.1-1.5,0.2c-1.3,0.2-2,0.8-2,1.8c0,0.5,0.2,0.9,0.5,1.2
		C290.9,128,291.4,128.1,292,128.1z"/>
	<path class="st1" d="M305.5,131.9v-4.4l8-10.7h-7.9v-4.5h15v4.4l-7.9,10.7h8.6v4.5H305.5z"/>
	<path class="st1" d="M333.5,111.9c2.6,0,4.6,0.8,6.1,2.3c1.5,1.5,2.2,3.6,2.2,6.3c0,1-0.1,2.1-0.4,3.2h-11.4
		c0.1,1.2,0.5,2.2,1.2,2.9c0.8,0.7,1.9,1.1,3.5,1.1c1,0,2-0.1,3-0.3c1.1-0.2,2-0.4,2.7-0.8l0.8,4.1c-1,0.5-2.2,0.9-3.4,1.2
		c-1.3,0.3-2.6,0.4-3.9,0.4c-1.7,0-3.2-0.2-4.5-0.7c-1.3-0.5-2.4-1.2-3.3-2.1c-0.9-0.9-1.5-1.9-2-3.2c-0.5-1.2-0.7-2.6-0.7-4.1
		c0-1.6,0.2-3,0.7-4.3c0.5-1.3,1.1-2.4,2-3.3c0.9-0.9,1.9-1.6,3.1-2.1C330.6,112.2,332,111.9,333.5,111.9z M333.3,116
		c-1,0-1.8,0.3-2.3,1c-0.5,0.7-0.8,1.6-0.8,2.7h5.7c0.1-0.2,0.1-0.4,0.1-0.7c0-0.9-0.2-1.6-0.7-2.1C334.8,116.3,334.1,116,333.3,116
		z"/>
	<path class="st1" d="M358,117.9h-0.8c-2.5,0-4.3,0.6-5.4,1.9v12.2h-6.4v-19.6h6.2v3.3c0.4-1.1,0.9-1.9,1.7-2.5s1.8-0.9,3-0.9
		c0.4,0,0.7,0,0.9,0.1s0.5,0.1,0.8,0.2L358,117.9z"/>
	<path class="st1" d="M383.2,125.5c0,1.1-0.2,2.1-0.6,2.9c-0.4,0.9-1,1.6-1.8,2.1c-0.8,0.6-1.7,1-2.7,1.3c-1,0.3-2.2,0.4-3.4,0.4
		c-1.1,0-2.2-0.1-3.4-0.3c-1.2-0.2-2.2-0.5-3.2-0.9l0.9-4.4c0.8,0.3,1.7,0.6,2.7,0.8c1,0.2,1.9,0.3,2.6,0.3c0.8,0,1.4-0.1,2-0.3
		c0.6-0.2,0.9-0.6,0.9-1.1c0-0.5-0.3-0.8-0.8-1c-0.5-0.2-1.3-0.5-2.3-0.9c-0.8-0.3-1.6-0.6-2.3-1c-0.7-0.4-1.3-0.8-1.9-1.3
		c-0.5-0.5-0.9-1.1-1.2-1.7c-0.3-0.6-0.4-1.4-0.4-2.2c0-2.1,0.7-3.7,2.2-4.7c1.4-1,3.3-1.5,5.6-1.5c1.2,0,2.3,0.1,3.4,0.3
		c1,0.2,2,0.6,2.9,1.1l-0.9,4.2c-0.7-0.3-1.5-0.6-2.3-0.8c-0.8-0.2-1.6-0.3-2.5-0.3c-0.8,0-1.4,0.1-1.8,0.2
		c-0.4,0.1-0.6,0.4-0.6,0.9c0,0.5,0.2,0.8,0.7,1c0.5,0.2,1.1,0.4,1.9,0.7c0.6,0.2,1.2,0.5,2,0.8c0.7,0.3,1.4,0.7,2,1.2
		c0.6,0.5,1.2,1.1,1.6,1.7C383,123.8,383.2,124.6,383.2,125.5z"/>
	<path class="st1" d="M405,112.3v19.6h-6.2v-2.6c-0.7,1.1-1.6,1.9-2.5,2.3c-0.9,0.4-1.9,0.6-3,0.6c-1.3,0-2.4-0.3-3.3-0.8
		c-0.9-0.5-1.6-1.3-2.2-2.2c-0.5-0.9-0.9-2-1.2-3.1c-0.2-1.2-0.4-2.4-0.4-3.7v-10.1h6.4v10.2c0,1.6,0.2,2.8,0.7,3.6
		c0.5,0.8,1.2,1.1,2.2,1.1c0.7,0,1.2-0.1,1.7-0.4c0.5-0.3,0.9-0.7,1.2-1.1v-13.4H405z"/>
	<path class="st1" d="M420.5,130c-0.6,0.6-1.4,1.2-2.5,1.6c-1.1,0.5-2.2,0.7-3.5,0.7c-0.9,0-1.7-0.1-2.4-0.4s-1.3-0.7-1.7-1.2
		c-0.5-0.5-0.8-1.1-1.1-1.8c-0.3-0.7-0.4-1.4-0.4-2.2c0-1.8,0.6-3.2,1.7-4.1c1.1-0.9,2.7-1.5,4.8-1.6c0.8-0.1,1.6-0.1,2.5-0.1
		c0.9,0,1.6-0.1,2.3-0.1v-0.6c0-2.1-1.2-3.2-3.6-3.2c-0.9,0-1.8,0.1-2.7,0.3c-0.9,0.2-1.7,0.5-2.4,0.9l-1.2-4.4c0.9-0.5,2-1,3.3-1.3
		c1.3-0.3,2.6-0.5,4.1-0.5c2.7,0,4.9,0.7,6.4,2.1c1.5,1.4,2.3,3.6,2.3,6.4v11.4h-6.2V130z M417,128.1c0.6,0,1.2-0.1,1.7-0.2
		c0.5-0.2,1-0.4,1.5-0.6v-2.9c-0.6,0.1-1.2,0.1-1.7,0.2c-0.5,0.1-1,0.1-1.5,0.2c-1.3,0.2-2,0.8-2,1.8c0,0.5,0.2,0.9,0.5,1.2
		C415.9,128,416.4,128.1,417,128.1z"/>
	<path class="st1" d="M450.5,130c-0.6,0.6-1.4,1.2-2.5,1.6c-1.1,0.5-2.2,0.7-3.5,0.7c-0.9,0-1.7-0.1-2.4-0.4s-1.3-0.7-1.7-1.2
		c-0.5-0.5-0.8-1.1-1.1-1.8c-0.3-0.7-0.4-1.4-0.4-2.2c0-1.8,0.6-3.2,1.7-4.1c1.1-0.9,2.7-1.5,4.8-1.6c0.8-0.1,1.6-0.1,2.5-0.1
		c0.9,0,1.6-0.1,2.3-0.1v-0.6c0-2.1-1.2-3.2-3.6-3.2c-0.9,0-1.8,0.1-2.7,0.3c-0.9,0.2-1.7,0.5-2.4,0.9l-1.2-4.4c0.9-0.5,2-1,3.3-1.3
		c1.3-0.3,2.6-0.5,4.1-0.5c2.7,0,4.9,0.7,6.4,2.1c1.5,1.4,2.3,3.6,2.3,6.4v11.4h-6.2V130z M447,128.1c0.6,0,1.2-0.1,1.7-0.2
		c0.5-0.2,1-0.4,1.5-0.6v-2.9c-0.6,0.1-1.2,0.1-1.7,0.2c-0.5,0.1-1,0.1-1.5,0.2c-1.3,0.2-2,0.8-2,1.8c0,0.5,0.2,0.9,0.5,1.2
		C445.9,128,446.4,128.1,447,128.1z"/>
	<path class="st1" d="M461.2,112.3h6.1v2.3c1.3-1.8,3.2-2.7,5.9-2.7c1.1,0,2.1,0.2,3.1,0.7s1.8,1.1,2.5,2c0.7,0.9,1.3,1.9,1.7,3.1
		s0.6,2.6,0.6,4.1c0,1.7-0.3,3.2-0.8,4.5c-0.5,1.3-1.3,2.4-2.2,3.3c-0.9,0.9-2,1.5-3.2,2c-1.2,0.4-2.5,0.7-3.9,0.7
		c-0.7,0-1.3,0-1.8-0.1c-0.5-0.1-1-0.2-1.4-0.3v8.3h-6.4V112.3z M470.9,116.9c-0.7,0-1.3,0.1-1.9,0.3c-0.5,0.2-1,0.6-1.4,1v9.1
		c0.3,0.1,0.6,0.2,1,0.2c0.4,0.1,0.8,0.1,1.3,0.1c1.7,0,2.9-0.5,3.6-1.5c0.7-1,1.1-2.4,1.1-4.1c0-1.4-0.3-2.6-0.9-3.6
		C473.1,117.3,472.2,116.9,470.9,116.9z"/>
	<path class="st1" d="M504.3,122.1c0,1.4-0.2,2.8-0.7,4c-0.5,1.2-1.1,2.3-2,3.2c-0.9,0.9-2,1.6-3.3,2.2c-1.3,0.5-2.8,0.8-4.5,0.8
		s-3.2-0.3-4.5-0.8c-1.3-0.5-2.4-1.2-3.3-2.2c-0.9-0.9-1.5-2-2-3.2c-0.5-1.2-0.7-2.6-0.7-4c0-1.4,0.2-2.8,0.7-4
		c0.5-1.2,1.1-2.3,2-3.2c0.9-0.9,2-1.6,3.3-2.2c1.3-0.5,2.8-0.8,4.5-0.8s3.2,0.3,4.5,0.8c1.3,0.5,2.4,1.2,3.3,2.2
		c0.9,0.9,1.5,2,2,3.2C504,119.4,504.3,120.7,504.3,122.1z M497.9,122.1c0-0.7-0.1-1.4-0.2-2c-0.1-0.7-0.4-1.2-0.7-1.8
		c-0.3-0.5-0.7-0.9-1.2-1.2c-0.5-0.3-1.2-0.5-1.9-0.5c-0.8,0-1.4,0.2-1.9,0.5c-0.5,0.3-0.9,0.7-1.2,1.2c-0.3,0.5-0.5,1.1-0.7,1.8
		c-0.1,0.7-0.2,1.3-0.2,2s0.1,1.4,0.2,2c0.1,0.7,0.4,1.2,0.7,1.8c0.3,0.5,0.7,0.9,1.2,1.2c0.5,0.3,1.2,0.5,1.9,0.5
		c0.8,0,1.4-0.2,1.9-0.5c0.5-0.3,0.9-0.7,1.2-1.2c0.3-0.5,0.5-1.1,0.7-1.8C497.8,123.5,497.9,122.8,497.9,122.1z"/>
	<path class="st1" d="M521.7,125.5c0,1.1-0.2,2.1-0.6,2.9c-0.4,0.9-1,1.6-1.8,2.1c-0.8,0.6-1.7,1-2.7,1.3c-1,0.3-2.2,0.4-3.4,0.4
		c-1.1,0-2.2-0.1-3.4-0.3c-1.2-0.2-2.2-0.5-3.2-0.9l0.9-4.4c0.8,0.3,1.7,0.6,2.7,0.8c1,0.2,1.9,0.3,2.6,0.3c0.8,0,1.4-0.1,2-0.3
		c0.6-0.2,0.9-0.6,0.9-1.1c0-0.5-0.3-0.8-0.8-1s-1.3-0.5-2.3-0.9c-0.8-0.3-1.6-0.6-2.3-1c-0.7-0.4-1.3-0.8-1.9-1.3
		c-0.5-0.5-0.9-1.1-1.2-1.7c-0.3-0.6-0.4-1.4-0.4-2.2c0-2.1,0.7-3.7,2.2-4.7c1.4-1,3.3-1.5,5.6-1.5c1.2,0,2.3,0.1,3.4,0.3
		s2,0.6,2.9,1.1l-0.9,4.2c-0.7-0.3-1.5-0.6-2.3-0.8c-0.8-0.2-1.6-0.3-2.5-0.3c-0.8,0-1.4,0.1-1.8,0.2c-0.4,0.1-0.6,0.4-0.6,0.9
		c0,0.5,0.2,0.8,0.7,1c0.5,0.2,1.1,0.4,1.9,0.7c0.6,0.2,1.2,0.5,2,0.8c0.7,0.3,1.4,0.7,2,1.2c0.6,0.5,1.2,1.1,1.6,1.7
		C521.4,123.8,521.7,124.6,521.7,125.5z"/>
	<path class="st1" d="M522.9,112.3h3v-5.1h6.4v5.1h5.6v4.9h-5.6v7.6c0,0.8,0.2,1.4,0.5,1.8c0.3,0.4,0.9,0.7,1.8,0.7
		c0.5,0,1,0,1.5-0.1c0.5-0.1,1-0.2,1.4-0.3l0.4,4.5c-0.6,0.3-1.4,0.5-2.4,0.7c-0.9,0.2-1.9,0.2-2.8,0.2c-1.3,0-2.3-0.2-3.2-0.6
		c-0.9-0.4-1.6-0.9-2.1-1.6c-0.5-0.7-0.9-1.4-1.2-2.3c-0.3-0.9-0.4-1.8-0.4-2.9v-7.8h-3V112.3z"/>
	<path class="st1" d="M552,130c-0.6,0.6-1.4,1.2-2.5,1.6c-1.1,0.5-2.2,0.7-3.5,0.7c-0.9,0-1.7-0.1-2.4-0.4s-1.3-0.7-1.7-1.2
		c-0.5-0.5-0.8-1.1-1.1-1.8c-0.3-0.7-0.4-1.4-0.4-2.2c0-1.8,0.6-3.2,1.7-4.1c1.1-0.9,2.7-1.5,4.8-1.6c0.8-0.1,1.6-0.1,2.5-0.1
		c0.9,0,1.6-0.1,2.3-0.1v-0.6c0-2.1-1.2-3.2-3.6-3.2c-0.9,0-1.8,0.1-2.7,0.3c-0.9,0.2-1.7,0.5-2.4,0.9l-1.2-4.4c0.9-0.5,2-1,3.3-1.3
		c1.3-0.3,2.6-0.5,4.1-0.5c2.7,0,4.9,0.7,6.4,2.1c1.5,1.4,2.3,3.6,2.3,6.4v11.4H552V130z M548.5,128.1c0.6,0,1.2-0.1,1.7-0.2
		c0.5-0.2,1-0.4,1.5-0.6v-2.9c-0.6,0.1-1.2,0.1-1.7,0.2c-0.5,0.1-1,0.1-1.5,0.2c-1.3,0.2-2,0.8-2,1.8c0,0.5,0.2,0.9,0.5,1.2
		C547.4,128,547.9,128.1,548.5,128.1z"/>
	<path class="st1" d="M562.7,131.9v-19.6h6.2v2.6c0.6-1.1,1.4-1.8,2.4-2.3c1-0.5,2-0.7,3.1-0.7c1.3,0,2.4,0.3,3.3,0.8
		s1.6,1.3,2.2,2.2c0.6,0.9,1,2,1.2,3.1c0.3,1.2,0.4,2.4,0.4,3.7v10.1h-6.4v-10.2c0-1.6-0.3-2.8-0.8-3.6c-0.5-0.8-1.3-1.1-2.3-1.1
		c-0.7,0-1.2,0.1-1.7,0.4c-0.5,0.3-0.9,0.7-1.2,1.1v13.4H562.7z"/>
	<path class="st1" d="M596.7,130c-0.6,0.6-1.4,1.2-2.5,1.6c-1.1,0.5-2.2,0.7-3.5,0.7c-0.9,0-1.7-0.1-2.4-0.4s-1.3-0.7-1.7-1.2
		c-0.5-0.5-0.8-1.1-1.1-1.8c-0.3-0.7-0.4-1.4-0.4-2.2c0-1.8,0.6-3.2,1.7-4.1s2.7-1.5,4.8-1.6c0.8-0.1,1.6-0.1,2.5-0.1
		c0.9,0,1.6-0.1,2.3-0.1v-0.6c0-2.1-1.2-3.2-3.6-3.2c-0.9,0-1.8,0.1-2.7,0.3c-0.9,0.2-1.7,0.5-2.4,0.9l-1.2-4.4c0.9-0.5,2-1,3.3-1.3
		c1.3-0.3,2.6-0.5,4.1-0.5c2.7,0,4.9,0.7,6.4,2.1c1.5,1.4,2.3,3.6,2.3,6.4v11.4h-6.2V130z M593.2,128.1c0.6,0,1.2-0.1,1.7-0.2
		s1-0.4,1.5-0.6v-2.9c-0.6,0.1-1.2,0.1-1.7,0.2c-0.5,0.1-1,0.1-1.5,0.2c-1.3,0.2-2,0.8-2,1.8c0,0.5,0.2,0.9,0.5,1.2
		C592.1,128,592.6,128.1,593.2,128.1z"/>
	<path class="st1" d="M616,131.9v-28.2h6.4v11c0.6-0.9,1.3-1.6,2.3-2.1c0.9-0.4,1.9-0.7,3-0.7c1.3,0,2.4,0.3,3.3,0.8
		s1.6,1.3,2.2,2.2c0.6,0.9,1,2,1.2,3.1c0.3,1.2,0.4,2.4,0.4,3.7v10.1h-6.4v-10.2c0-1.6-0.3-2.8-0.8-3.6c-0.5-0.8-1.3-1.1-2.3-1.1
		c-0.7,0-1.2,0.1-1.7,0.4c-0.5,0.3-0.9,0.7-1.2,1.1v13.4H616z"/>
	<path class="st1" d="M658.8,122.1c0,1.4-0.2,2.8-0.7,4c-0.5,1.2-1.1,2.3-2,3.2s-2,1.6-3.3,2.2c-1.3,0.5-2.8,0.8-4.5,0.8
		c-1.7,0-3.2-0.3-4.5-0.8c-1.3-0.5-2.4-1.2-3.3-2.2s-1.5-2-2-3.2c-0.5-1.2-0.7-2.6-0.7-4c0-1.4,0.2-2.8,0.7-4c0.5-1.2,1.1-2.3,2-3.2
		c0.9-0.9,2-1.6,3.3-2.2c1.3-0.5,2.8-0.8,4.5-0.8c1.7,0,3.2,0.3,4.5,0.8c1.3,0.5,2.4,1.2,3.3,2.2c0.9,0.9,1.5,2,2,3.2
		C658.6,119.4,658.8,120.7,658.8,122.1z M652.4,122.1c0-0.7-0.1-1.4-0.2-2c-0.1-0.7-0.4-1.2-0.7-1.8c-0.3-0.5-0.7-0.9-1.2-1.2
		c-0.5-0.3-1.2-0.5-1.9-0.5c-0.8,0-1.4,0.2-1.9,0.5c-0.5,0.3-0.9,0.7-1.2,1.2c-0.3,0.5-0.5,1.1-0.7,1.8c-0.1,0.7-0.2,1.3-0.2,2
		s0.1,1.4,0.2,2c0.1,0.7,0.4,1.2,0.7,1.8c0.3,0.5,0.7,0.9,1.2,1.2c0.5,0.3,1.2,0.5,1.9,0.5c0.8,0,1.4-0.2,1.9-0.5
		c0.5-0.3,0.9-0.7,1.2-1.2c0.3-0.5,0.5-1.1,0.7-1.8C652.4,123.5,652.4,122.8,652.4,122.1z"/>
	<path class="st1" d="M674.8,117.9H674c-2.5,0-4.3,0.6-5.4,1.9v12.2h-6.4v-19.6h6.2v3.3c0.4-1.1,0.9-1.9,1.7-2.5
		c0.8-0.6,1.8-0.9,3-0.9c0.4,0,0.7,0,0.9,0.1c0.3,0,0.5,0.1,0.8,0.2L674.8,117.9z"/>
	<path class="st1" d="M687.8,130c-0.6,0.6-1.4,1.2-2.5,1.6c-1.1,0.5-2.2,0.7-3.5,0.7c-0.9,0-1.7-0.1-2.4-0.4s-1.3-0.7-1.7-1.2
		c-0.5-0.5-0.8-1.1-1.1-1.8c-0.3-0.7-0.4-1.4-0.4-2.2c0-1.8,0.6-3.2,1.7-4.1s2.7-1.5,4.8-1.6c0.8-0.1,1.6-0.1,2.5-0.1
		c0.9,0,1.6-0.1,2.3-0.1v-0.6c0-2.1-1.2-3.2-3.6-3.2c-0.9,0-1.8,0.1-2.7,0.3c-0.9,0.2-1.7,0.5-2.4,0.9l-1.2-4.4c0.9-0.5,2-1,3.3-1.3
		c1.3-0.3,2.6-0.5,4.1-0.5c2.7,0,4.9,0.7,6.4,2.1c1.5,1.4,2.3,3.6,2.3,6.4v11.4h-6.2V130z M684.3,128.1c0.6,0,1.2-0.1,1.7-0.2
		c0.5-0.2,1-0.4,1.5-0.6v-2.9c-0.6,0.1-1.2,0.1-1.7,0.2c-0.5,0.1-1,0.1-1.5,0.2c-1.3,0.2-2,0.8-2,1.8c0,0.5,0.2,0.9,0.5,1.2
		C683.2,128,683.7,128.1,684.3,128.1z"/>
	<path class="st1" d="M715.8,111.9c2.6,0,4.6,0.8,6.1,2.3c1.5,1.5,2.2,3.6,2.2,6.3c0,1-0.1,2.1-0.4,3.2h-11.4
		c0.1,1.2,0.5,2.2,1.2,2.9c0.8,0.7,1.9,1.1,3.5,1.1c1,0,2-0.1,3-0.3c1.1-0.2,2-0.4,2.7-0.8l0.8,4.1c-1,0.5-2.2,0.9-3.4,1.2
		s-2.6,0.4-3.9,0.4c-1.7,0-3.2-0.2-4.5-0.7s-2.4-1.2-3.3-2.1c-0.9-0.9-1.5-1.9-2-3.2s-0.7-2.6-0.7-4.1c0-1.6,0.2-3,0.7-4.3
		c0.5-1.3,1.1-2.4,2-3.3c0.9-0.9,1.9-1.6,3.1-2.1C712.9,112.2,714.3,111.9,715.8,111.9z M715.6,116c-1,0-1.8,0.3-2.3,1
		c-0.5,0.7-0.8,1.6-0.8,2.7h5.7c0.1-0.2,0.1-0.4,0.1-0.7c0-0.9-0.2-1.6-0.7-2.1S716.4,116,715.6,116z"/>
	<path class="st1" d="M749.2,117c-0.7,0-1.3,0.2-1.8,0.5c-0.5,0.3-1,0.7-1.4,1.1c0.1,0.5,0.2,1,0.2,1.6s0.1,1.1,0.1,1.7v10.1h-6.4
		v-10.2c0-1.6-0.2-2.8-0.6-3.6c-0.4-0.8-1.1-1.1-2.2-1.1c-0.7,0-1.2,0.1-1.7,0.4c-0.5,0.3-0.9,0.7-1.2,1.1v13.4h-6.4v-19.6h6.2v2.6
		c0.6-1.1,1.4-1.8,2.4-2.3c1-0.5,2-0.7,3.1-0.7c1.3,0,2.3,0.3,3.2,0.8c0.8,0.5,1.6,1.4,2.4,2.5c1.4-2.2,3.6-3.3,6.5-3.3
		c1.3,0,2.4,0.3,3.2,0.8s1.6,1.3,2.1,2.2c0.5,0.9,0.9,2,1.2,3.1c0.2,1.2,0.4,2.4,0.4,3.7v10.1H752v-10.2c0-1.6-0.2-2.8-0.6-3.6
		C750.9,117.4,750.2,117,749.2,117z"/>
	<path class="st1" d="M790.1,140.2h-6.4v-9.7c-0.6,0.6-1.3,1-2.1,1.4c-0.8,0.3-1.8,0.5-2.9,0.5c-1.3,0-2.5-0.2-3.6-0.7
		c-1.1-0.5-1.9-1.2-2.7-2.1c-0.7-0.9-1.3-1.9-1.6-3.2s-0.6-2.6-0.6-4c0-1.6,0.2-3,0.7-4.3c0.5-1.3,1.2-2.4,2.1-3.3
		c0.9-0.9,2.1-1.6,3.5-2.1c1.4-0.5,3-0.7,4.9-0.7c1.7,0,3.2,0.2,4.6,0.5c1.4,0.3,2.7,0.8,4,1.4V140.2z M780.5,127.5
		c1.2,0,2.3-0.3,3.2-1v-9.3c-0.6-0.3-1.4-0.4-2.2-0.4c-1.6,0-2.8,0.5-3.6,1.5c-0.8,1-1.2,2.4-1.2,4.1c0,1.6,0.3,2.9,0.9,3.8
		C778.2,127,779.2,127.5,780.5,127.5z"/>
	<path class="st1" d="M813.2,112.3v19.6h-6.2v-2.6c-0.7,1.1-1.6,1.9-2.5,2.3c-0.9,0.4-1.9,0.6-3,0.6c-1.3,0-2.4-0.3-3.3-0.8
		c-0.9-0.5-1.6-1.3-2.2-2.2c-0.5-0.9-0.9-2-1.2-3.1c-0.2-1.2-0.4-2.4-0.4-3.7v-10.1h6.4v10.2c0,1.6,0.2,2.8,0.7,3.6
		c0.5,0.8,1.2,1.1,2.2,1.1c0.7,0,1.2-0.1,1.7-0.4c0.5-0.3,0.9-0.7,1.2-1.1v-13.4H813.2z"/>
	<path class="st1" d="M828.7,130c-0.6,0.6-1.4,1.2-2.5,1.6c-1.1,0.5-2.2,0.7-3.5,0.7c-0.9,0-1.7-0.1-2.4-0.4s-1.3-0.7-1.7-1.2
		c-0.5-0.5-0.8-1.1-1.1-1.8c-0.3-0.7-0.4-1.4-0.4-2.2c0-1.8,0.6-3.2,1.7-4.1s2.7-1.5,4.8-1.6c0.8-0.1,1.6-0.1,2.5-0.1
		c0.9,0,1.6-0.1,2.3-0.1v-0.6c0-2.1-1.2-3.2-3.6-3.2c-0.9,0-1.8,0.1-2.7,0.3c-0.9,0.2-1.7,0.5-2.4,0.9l-1.2-4.4c0.9-0.5,2-1,3.3-1.3
		c1.3-0.3,2.6-0.5,4.1-0.5c2.7,0,4.9,0.7,6.4,2.1c1.5,1.4,2.3,3.6,2.3,6.4v11.4h-6.2V130z M825.3,128.1c0.6,0,1.2-0.1,1.7-0.2
		c0.5-0.2,1-0.4,1.5-0.6v-2.9c-0.6,0.1-1.2,0.1-1.7,0.2c-0.5,0.1-1,0.1-1.5,0.2c-1.3,0.2-2,0.8-2,1.8c0,0.5,0.2,0.9,0.5,1.2
		C824.2,128,824.6,128.1,825.3,128.1z"/>
	<path class="st1" d="M845.5,125.9c0,0.5,0.1,0.9,0.3,1.2c0.2,0.3,0.6,0.4,1.2,0.4c0.4,0,0.8,0,1.4-0.1l0.2,4.4
		c-0.5,0.2-1.1,0.3-1.8,0.4c-0.7,0.1-1.4,0.1-2.1,0.1c-1.1,0-2-0.2-2.7-0.5s-1.3-0.7-1.7-1.3c-0.4-0.5-0.7-1.1-0.9-1.8
		c-0.2-0.7-0.3-1.4-0.3-2.1v-23h6.4V125.9z"/>
	<path class="st1" d="M870,140.2h-6.4v-9.7c-0.6,0.6-1.3,1-2.1,1.4c-0.8,0.3-1.8,0.5-2.9,0.5c-1.3,0-2.5-0.2-3.6-0.7
		c-1.1-0.5-1.9-1.2-2.7-2.1c-0.7-0.9-1.3-1.9-1.6-3.2s-0.6-2.6-0.6-4c0-1.6,0.2-3,0.7-4.3c0.5-1.3,1.2-2.4,2.1-3.3
		c0.9-0.9,2.1-1.6,3.5-2.1c1.4-0.5,3-0.7,4.9-0.7c1.7,0,3.2,0.2,4.6,0.5c1.4,0.3,2.7,0.8,4,1.4V140.2z M860.5,127.5
		c1.2,0,2.3-0.3,3.2-1v-9.3c-0.6-0.3-1.4-0.4-2.2-0.4c-1.6,0-2.8,0.5-3.6,1.5c-0.8,1-1.2,2.4-1.2,4.1c0,1.6,0.3,2.9,0.9,3.8
		C858.1,127,859.1,127.5,860.5,127.5z"/>
	<path class="st1" d="M893.2,112.3v19.6H887v-2.6c-0.7,1.1-1.6,1.9-2.5,2.3c-0.9,0.4-1.9,0.6-3,0.6c-1.3,0-2.4-0.3-3.3-0.8
		c-0.9-0.5-1.6-1.3-2.2-2.2c-0.5-0.9-0.9-2-1.2-3.1c-0.2-1.2-0.4-2.4-0.4-3.7v-10.1h6.4v10.2c0,1.6,0.2,2.8,0.7,3.6
		c0.5,0.8,1.2,1.1,2.2,1.1c0.7,0,1.2-0.1,1.7-0.4c0.5-0.3,0.9-0.7,1.2-1.1v-13.4H893.2z"/>
	<path class="st1" d="M906.7,111.9c2.6,0,4.6,0.8,6.1,2.3c1.5,1.5,2.2,3.6,2.2,6.3c0,1-0.1,2.1-0.4,3.2h-11.4
		c0.1,1.2,0.5,2.2,1.2,2.9c0.8,0.7,1.9,1.1,3.5,1.1c1,0,2-0.1,3-0.3c1.1-0.2,2-0.4,2.7-0.8l0.8,4.1c-1,0.5-2.2,0.9-3.4,1.2
		s-2.6,0.4-3.9,0.4c-1.7,0-3.2-0.2-4.5-0.7s-2.4-1.2-3.3-2.1c-0.9-0.9-1.5-1.9-2-3.2s-0.7-2.6-0.7-4.1c0-1.6,0.2-3,0.7-4.3
		c0.5-1.3,1.1-2.4,2-3.3c0.9-0.9,1.9-1.6,3.1-2.1C903.8,112.2,905.1,111.9,906.7,111.9z M906.5,116c-1,0-1.8,0.3-2.3,1
		c-0.5,0.7-0.8,1.6-0.8,2.7h5.7c0.1-0.2,0.1-0.4,0.1-0.7c0-0.9-0.2-1.6-0.7-2.1S907.3,116,906.5,116z"/>
	<path class="st1" d="M931.1,117.9h-0.8c-2.5,0-4.3,0.6-5.4,1.9v12.2h-6.4v-19.6h6.2v3.3c0.4-1.1,0.9-1.9,1.7-2.5
		c0.8-0.6,1.8-0.9,3-0.9c0.4,0,0.7,0,0.9,0.1c0.3,0,0.5,0.1,0.8,0.2L931.1,117.9z"/>
</g>
<g class="st0">
	<path class="st1" d="M215.8,173.9c0,0.5,0.1,0.9,0.3,1.2c0.2,0.3,0.6,0.4,1.2,0.4c0.4,0,0.8,0,1.4-0.1l0.2,4.4
		c-0.5,0.2-1.1,0.3-1.8,0.4c-0.7,0.1-1.4,0.1-2.1,0.1c-1.1,0-2-0.2-2.7-0.5c-0.7-0.3-1.3-0.7-1.7-1.3c-0.4-0.5-0.7-1.1-0.9-1.8
		c-0.2-0.7-0.3-1.4-0.3-2.1v-23h6.4V173.9z"/>
	<path class="st1" d="M240.1,160.3v19.6h-6.2v-2.6c-0.7,1.1-1.6,1.9-2.5,2.3c-0.9,0.4-1.9,0.6-3,0.6c-1.3,0-2.4-0.3-3.3-0.8
		c-0.9-0.5-1.6-1.3-2.2-2.2c-0.5-0.9-0.9-2-1.2-3.1c-0.2-1.2-0.4-2.4-0.4-3.7v-10.1h6.4v10.2c0,1.6,0.2,2.8,0.7,3.6
		c0.5,0.8,1.2,1.1,2.2,1.1c0.7,0,1.2-0.1,1.7-0.4c0.5-0.3,0.9-0.7,1.2-1.1v-13.4H240.1z"/>
	<path class="st1" d="M263.1,160.3v4.1h-2.9l0,0c0.3,0.8,0.4,1.6,0.4,2.3c0,0.9-0.2,1.8-0.5,2.6c-0.4,0.8-0.9,1.5-1.6,2.1
		c-0.7,0.6-1.6,1.1-2.6,1.4c-1.1,0.3-2.3,0.5-3.7,0.5h-0.2c-0.1,0.2-0.2,0.4-0.3,0.5c-0.1,0.2-0.1,0.4-0.1,0.6
		c0,0.4,0.1,0.6,0.4,0.8c0.3,0.2,0.6,0.3,1.1,0.3l3.4,0.2c2,0.1,3.6,0.6,4.7,1.5c1.2,0.9,1.8,2.2,1.8,4c0,1.2-0.3,2.3-1,3.2
		c-0.7,0.9-1.5,1.7-2.6,2.3c-1.1,0.6-2.3,1.1-3.7,1.4c-1.4,0.3-2.7,0.5-4.2,0.5c-1.1,0-2.2-0.1-3.3-0.2c-1.1-0.2-2-0.4-2.8-0.8
		c-0.8-0.4-1.5-0.9-2-1.5c-0.5-0.6-0.8-1.4-0.8-2.4c0-0.6,0.1-1.2,0.4-1.6c0.3-0.5,0.6-0.9,1.1-1.2c0.5-0.3,1-0.6,1.6-0.9
		c0.6-0.2,1.2-0.4,1.8-0.6c-1.2-0.6-1.8-1.5-1.8-2.7c0-0.5,0.1-1,0.3-1.4c0.2-0.4,0.4-0.8,0.7-1.1c0.3-0.3,0.6-0.6,1-0.8
		s0.7-0.4,1-0.5c-1.7-0.5-3-1.2-3.9-2.3c-0.9-1.1-1.3-2.4-1.3-3.9c0-1,0.2-1.8,0.5-2.7c0.4-0.8,0.9-1.5,1.6-2.1
		c0.7-0.6,1.6-1.1,2.6-1.4c1.1-0.3,2.3-0.5,3.7-0.5c0.6,0,1.1,0,1.7,0.1c0.5,0.1,1,0.2,1.5,0.3H263.1z M250.3,180
		c-0.3,0.2-0.7,0.5-1,0.9c-0.3,0.3-0.5,0.8-0.5,1.4c0,0.7,0.3,1.3,0.9,1.6s1.5,0.5,2.6,0.5c0.6,0,1.2-0.1,1.7-0.2
		c0.6-0.1,1.1-0.3,1.5-0.5c0.5-0.2,0.8-0.5,1.1-0.8c0.3-0.3,0.4-0.7,0.4-1.1c0-0.5-0.2-0.8-0.5-1c-0.3-0.2-0.9-0.3-1.6-0.4
		L250.3,180z M252.2,169.4c0.9,0,1.6-0.2,2.1-0.7s0.7-1.2,0.7-2c0-0.9-0.2-1.5-0.7-2s-1.2-0.7-2.1-0.7c-0.9,0-1.6,0.2-2.1,0.7
		s-0.7,1.2-0.7,2c0,0.9,0.2,1.5,0.7,2S251.3,169.4,252.2,169.4z"/>
	<path class="st1" d="M276.7,178c-0.6,0.6-1.4,1.2-2.5,1.6c-1.1,0.5-2.2,0.7-3.5,0.7c-0.9,0-1.7-0.1-2.4-0.4s-1.3-0.7-1.7-1.2
		c-0.5-0.5-0.8-1.1-1.1-1.8c-0.3-0.7-0.4-1.4-0.4-2.2c0-1.8,0.6-3.2,1.7-4.1c1.1-0.9,2.7-1.5,4.8-1.6c0.8-0.1,1.6-0.1,2.5-0.1
		c0.9,0,1.6-0.1,2.3-0.1v-0.6c0-2.1-1.2-3.2-3.6-3.2c-0.9,0-1.8,0.1-2.7,0.3c-0.9,0.2-1.7,0.5-2.4,0.9l-1.2-4.4c0.9-0.5,2-1,3.3-1.3
		c1.3-0.3,2.6-0.5,4.1-0.5c2.7,0,4.9,0.7,6.4,2.1c1.5,1.4,2.3,3.6,2.3,6.4v11.4h-6.2V178z M273.2,176.1c0.6,0,1.2-0.1,1.7-0.2
		c0.5-0.2,1-0.4,1.5-0.6v-2.9c-0.6,0.1-1.2,0.1-1.7,0.2c-0.5,0.1-1,0.1-1.5,0.2c-1.3,0.2-2,0.8-2,1.8c0,0.5,0.2,0.9,0.5,1.2
		C272.1,176,272.6,176.1,273.2,176.1z"/>
	<path class="st1" d="M299.9,165.9h-0.8c-2.5,0-4.3,0.6-5.4,1.9v12.2h-6.4v-19.6h6.2v3.3c0.4-1.1,0.9-1.9,1.7-2.5s1.8-0.9,3-0.9
		c0.4,0,0.7,0,0.9,0.1s0.5,0.1,0.8,0.2L299.9,165.9z"/>
	<path class="st1" d="M319.8,159.9c2.6,0,4.6,0.8,6.1,2.3c1.5,1.5,2.2,3.6,2.2,6.3c0,1-0.1,2.1-0.4,3.2h-11.4
		c0.1,1.2,0.5,2.2,1.2,2.9c0.8,0.7,1.9,1.1,3.5,1.1c1,0,2-0.1,3-0.3c1.1-0.2,2-0.4,2.7-0.8l0.8,4.1c-1,0.5-2.2,0.9-3.4,1.2
		c-1.3,0.3-2.6,0.4-3.9,0.4c-1.7,0-3.2-0.2-4.5-0.7c-1.3-0.5-2.4-1.2-3.3-2.1c-0.9-0.9-1.5-1.9-2-3.2c-0.5-1.2-0.7-2.6-0.7-4.1
		c0-1.6,0.2-3,0.7-4.3c0.5-1.3,1.1-2.4,2-3.3c0.9-0.9,1.9-1.6,3.1-2.1C316.9,160.2,318.3,159.9,319.8,159.9z M319.6,164
		c-1,0-1.8,0.3-2.3,1c-0.5,0.7-0.8,1.6-0.8,2.7h5.7c0.1-0.2,0.1-0.4,0.1-0.7c0-0.9-0.2-1.6-0.7-2.1C321.1,164.3,320.5,164,319.6,164
		z"/>
	<path class="st1" d="M352.9,165.9h-0.8c-2.5,0-4.3,0.6-5.4,1.9v12.2h-6.4v-19.6h6.2v3.3c0.4-1.1,0.9-1.9,1.7-2.5s1.8-0.9,3-0.9
		c0.4,0,0.7,0,0.9,0.1s0.5,0.1,0.8,0.2L352.9,165.9z"/>
	<path class="st1" d="M364.2,159.9c2.6,0,4.6,0.8,6.1,2.3c1.5,1.5,2.2,3.6,2.2,6.3c0,1-0.1,2.1-0.4,3.2h-11.4
		c0.1,1.2,0.5,2.2,1.2,2.9c0.8,0.7,1.9,1.1,3.5,1.1c1,0,2-0.1,3-0.3c1.1-0.2,2-0.4,2.7-0.8l0.8,4.1c-1,0.5-2.2,0.9-3.4,1.2
		c-1.3,0.3-2.6,0.4-3.9,0.4c-1.7,0-3.2-0.2-4.5-0.7c-1.3-0.5-2.4-1.2-3.3-2.1c-0.9-0.9-1.5-1.9-2-3.2c-0.5-1.2-0.7-2.6-0.7-4.1
		c0-1.6,0.2-3,0.7-4.3c0.5-1.3,1.1-2.4,2-3.3c0.9-0.9,1.9-1.6,3.1-2.1C361.3,160.2,362.7,159.9,364.2,159.9z M364,164
		c-1,0-1.8,0.3-2.3,1c-0.5,0.7-0.8,1.6-0.8,2.7h5.7c0.1-0.2,0.1-0.4,0.1-0.7c0-0.9-0.2-1.6-0.7-2.1C365.5,164.3,364.8,164,364,164z"
		/>
	<path class="st1" d="M385.5,159.9c1,0,2,0.1,3,0.3c1,0.2,1.8,0.5,2.5,0.9l-0.6,4.6c-0.5-0.2-1.1-0.4-1.8-0.5
		c-0.7-0.2-1.4-0.2-2.1-0.2c-1.7,0-3,0.5-3.8,1.4c-0.9,0.9-1.3,2.2-1.3,3.8s0.4,2.9,1.3,3.8c0.9,0.9,2.1,1.4,3.8,1.4
		c0.7,0,1.4-0.1,2.1-0.2c0.7-0.2,1.3-0.3,1.8-0.5l0.6,4.6c-0.7,0.4-1.6,0.7-2.5,0.9c-1,0.2-2,0.3-3,0.3c-1.7,0-3.1-0.2-4.5-0.7
		c-1.3-0.5-2.4-1.2-3.3-2.1c-0.9-0.9-1.6-2-2.1-3.2c-0.5-1.3-0.7-2.6-0.7-4.2c0-1.5,0.2-2.9,0.7-4.2c0.5-1.3,1.2-2.3,2.1-3.2
		c0.9-0.9,2-1.6,3.3-2.1C382.4,160.2,383.9,159.9,385.5,159.9z"/>
	<path class="st1" d="M403.1,159.9c2.6,0,4.6,0.8,6.1,2.3c1.5,1.5,2.2,3.6,2.2,6.3c0,1-0.1,2.1-0.4,3.2h-11.4
		c0.1,1.2,0.5,2.2,1.2,2.9c0.8,0.7,1.9,1.1,3.5,1.1c1,0,2-0.1,3-0.3c1.1-0.2,2-0.4,2.7-0.8l0.8,4.1c-1,0.5-2.2,0.9-3.4,1.2
		c-1.3,0.3-2.6,0.4-3.9,0.4c-1.7,0-3.2-0.2-4.5-0.7c-1.3-0.5-2.4-1.2-3.3-2.1c-0.9-0.9-1.5-1.9-2-3.2c-0.5-1.2-0.7-2.6-0.7-4.1
		c0-1.6,0.2-3,0.7-4.3c0.5-1.3,1.1-2.4,2-3.3c0.9-0.9,1.9-1.6,3.1-2.1C400.2,160.2,401.6,159.9,403.1,159.9z M402.9,164
		c-1,0-1.8,0.3-2.3,1c-0.5,0.7-0.8,1.6-0.8,2.7h5.7c0.1-0.2,0.1-0.4,0.1-0.7c0-0.9-0.2-1.6-0.7-2.1C404.4,164.3,403.8,164,402.9,164
		z"/>
	<path class="st1" d="M415,151.7h6.4v10.2c0.6-0.6,1.2-1,2-1.4c0.8-0.4,1.8-0.5,3-0.5c1.3,0,2.4,0.2,3.5,0.7s1.9,1.2,2.7,2.1
		s1.3,2,1.7,3.2s0.6,2.6,0.6,4c0,1.4-0.2,2.8-0.7,4c-0.5,1.3-1.2,2.4-2.1,3.3c-0.9,0.9-2.1,1.7-3.5,2.2c-1.4,0.5-3.1,0.8-5,0.8
		c-1.6,0-3.1-0.2-4.6-0.5c-1.5-0.3-2.8-0.8-4-1.4V151.7z M424.6,164.8c-1.2,0-2.3,0.4-3.2,1.1v9.3c0.3,0.1,0.6,0.2,1,0.3
		c0.4,0.1,0.8,0.1,1.2,0.1c0.8,0,1.5-0.1,2.2-0.4c0.6-0.3,1.1-0.7,1.5-1.2c0.4-0.5,0.7-1.1,0.8-1.8c0.2-0.7,0.3-1.4,0.3-2.2
		c0-1.6-0.3-2.9-0.9-3.8C426.9,165.3,425.9,164.8,424.6,164.8z"/>
	<path class="st1" d="M447.2,159.9c2.6,0,4.6,0.8,6.1,2.3c1.5,1.5,2.2,3.6,2.2,6.3c0,1-0.1,2.1-0.4,3.2h-11.4
		c0.1,1.2,0.5,2.2,1.2,2.9c0.8,0.7,1.9,1.1,3.5,1.1c1,0,2-0.1,3-0.3c1.1-0.2,2-0.4,2.7-0.8l0.8,4.1c-1,0.5-2.2,0.9-3.4,1.2
		c-1.3,0.3-2.6,0.4-3.9,0.4c-1.7,0-3.2-0.2-4.5-0.7c-1.3-0.5-2.4-1.2-3.3-2.1c-0.9-0.9-1.5-1.9-2-3.2c-0.5-1.2-0.7-2.6-0.7-4.1
		c0-1.6,0.2-3,0.7-4.3c0.5-1.3,1.1-2.4,2-3.3c0.9-0.9,1.9-1.6,3.1-2.1C444.3,160.2,445.7,159.9,447.2,159.9z M447,164
		c-1,0-1.8,0.3-2.3,1c-0.5,0.7-0.8,1.6-0.8,2.7h5.7c0.1-0.2,0.1-0.4,0.1-0.7c0-0.9-0.2-1.6-0.7-2.1C448.4,164.3,447.8,164,447,164z"
		/>
	<path class="st1" d="M473.3,173.5c0,1.1-0.2,2.1-0.6,2.9c-0.4,0.9-1,1.6-1.8,2.1c-0.8,0.6-1.7,1-2.7,1.3c-1,0.3-2.2,0.4-3.4,0.4
		c-1.1,0-2.2-0.1-3.4-0.3c-1.2-0.2-2.2-0.5-3.2-0.9l0.9-4.4c0.8,0.3,1.7,0.6,2.7,0.8c1,0.2,1.9,0.3,2.6,0.3c0.8,0,1.4-0.1,2-0.3
		c0.6-0.2,0.9-0.6,0.9-1.1c0-0.5-0.3-0.8-0.8-1c-0.5-0.2-1.3-0.5-2.3-0.9c-0.8-0.3-1.6-0.6-2.3-1c-0.7-0.4-1.3-0.8-1.9-1.3
		c-0.5-0.5-0.9-1.1-1.2-1.7c-0.3-0.6-0.4-1.4-0.4-2.2c0-2.1,0.7-3.7,2.2-4.7c1.4-1,3.3-1.5,5.6-1.5c1.2,0,2.3,0.1,3.4,0.3
		c1,0.2,2,0.6,2.9,1.1l-0.9,4.2c-0.7-0.3-1.5-0.6-2.3-0.8c-0.8-0.2-1.6-0.3-2.5-0.3c-0.8,0-1.4,0.1-1.8,0.2
		c-0.4,0.1-0.6,0.4-0.6,0.9c0,0.5,0.2,0.8,0.7,1c0.5,0.2,1.1,0.4,1.9,0.7c0.6,0.2,1.2,0.5,2,0.8c0.7,0.3,1.4,0.7,2,1.2
		c0.6,0.5,1.2,1.1,1.6,1.7C473.1,171.8,473.3,172.6,473.3,173.5z"/>
	<path class="st1" d="M504.9,170.1c0,1.4-0.2,2.8-0.7,4c-0.5,1.2-1.1,2.3-2,3.2c-0.9,0.9-2,1.6-3.3,2.2c-1.3,0.5-2.8,0.8-4.5,0.8
		s-3.2-0.3-4.5-0.8c-1.3-0.5-2.4-1.2-3.3-2.2c-0.9-0.9-1.5-2-2-3.2c-0.5-1.2-0.7-2.6-0.7-4c0-1.4,0.2-2.8,0.7-4
		c0.5-1.2,1.1-2.3,2-3.2c0.9-0.9,2-1.6,3.3-2.2c1.3-0.5,2.8-0.8,4.5-0.8s3.2,0.3,4.5,0.8c1.3,0.5,2.4,1.2,3.3,2.2
		c0.9,0.9,1.5,2,2,3.2C504.6,167.4,504.9,168.7,504.9,170.1z M498.5,170.1c0-0.7-0.1-1.4-0.2-2c-0.1-0.7-0.4-1.2-0.7-1.8
		c-0.3-0.5-0.7-0.9-1.2-1.2c-0.5-0.3-1.2-0.5-1.9-0.5c-0.8,0-1.4,0.2-1.9,0.5c-0.5,0.3-0.9,0.7-1.2,1.2c-0.3,0.5-0.5,1.1-0.7,1.8
		c-0.1,0.7-0.2,1.3-0.2,2s0.1,1.4,0.2,2c0.1,0.7,0.4,1.2,0.7,1.8c0.3,0.5,0.7,0.9,1.2,1.2c0.5,0.3,1.2,0.5,1.9,0.5
		c0.8,0,1.4-0.2,1.9-0.5c0.5-0.3,0.9-0.7,1.2-1.2c0.3-0.5,0.5-1.1,0.7-1.8C498.4,171.5,498.5,170.8,498.5,170.1z"/>
	<path class="st1" d="M530.9,173.5c0,1.1-0.2,2.1-0.6,2.9c-0.4,0.9-1,1.6-1.8,2.1c-0.8,0.6-1.7,1-2.7,1.3c-1,0.3-2.2,0.4-3.4,0.4
		c-1.1,0-2.2-0.1-3.4-0.3c-1.2-0.2-2.2-0.5-3.2-0.9l0.9-4.4c0.8,0.3,1.7,0.6,2.7,0.8c1,0.2,1.9,0.3,2.6,0.3c0.8,0,1.4-0.1,2-0.3
		c0.6-0.2,0.9-0.6,0.9-1.1c0-0.5-0.3-0.8-0.8-1s-1.3-0.5-2.3-0.9c-0.8-0.3-1.6-0.6-2.3-1c-0.7-0.4-1.3-0.8-1.9-1.3
		c-0.5-0.5-0.9-1.1-1.2-1.7c-0.3-0.6-0.4-1.4-0.4-2.2c0-2.1,0.7-3.7,2.2-4.7c1.4-1,3.3-1.5,5.6-1.5c1.2,0,2.3,0.1,3.4,0.3
		s2,0.6,2.9,1.1l-0.9,4.2c-0.7-0.3-1.5-0.6-2.3-0.8c-0.8-0.2-1.6-0.3-2.5-0.3c-0.8,0-1.4,0.1-1.8,0.2c-0.4,0.1-0.6,0.4-0.6,0.9
		c0,0.5,0.2,0.8,0.7,1c0.5,0.2,1.1,0.4,1.9,0.7c0.6,0.2,1.2,0.5,2,0.8c0.7,0.3,1.4,0.7,2,1.2c0.6,0.5,1.2,1.1,1.6,1.7
		C530.6,171.8,530.9,172.6,530.9,173.5z"/>
	<path class="st1" d="M543,159.9c2.6,0,4.6,0.8,6.1,2.3c1.5,1.5,2.2,3.6,2.2,6.3c0,1-0.1,2.1-0.4,3.2h-11.4c0.1,1.2,0.5,2.2,1.2,2.9
		s1.9,1.1,3.5,1.1c1,0,2-0.1,3-0.3c1.1-0.2,2-0.4,2.7-0.8l0.8,4.1c-1,0.5-2.2,0.9-3.4,1.2s-2.6,0.4-3.9,0.4c-1.7,0-3.2-0.2-4.5-0.7
		s-2.4-1.2-3.3-2.1c-0.9-0.9-1.5-1.9-2-3.2s-0.7-2.6-0.7-4.1c0-1.6,0.2-3,0.7-4.3c0.5-1.3,1.1-2.4,2-3.3c0.9-0.9,1.9-1.6,3.1-2.1
		C540.1,160.2,541.5,159.9,543,159.9z M542.8,164c-1,0-1.8,0.3-2.3,1c-0.5,0.7-0.8,1.6-0.8,2.7h5.7c0.1-0.2,0.1-0.4,0.1-0.7
		c0-0.9-0.2-1.6-0.7-2.1S543.6,164,542.8,164z"/>
	<path class="st1" d="M573.3,160.3v19.6h-6.2v-2.6c-0.7,1.1-1.6,1.9-2.5,2.3c-0.9,0.4-1.9,0.6-3,0.6c-1.3,0-2.4-0.3-3.3-0.8
		c-0.9-0.5-1.6-1.3-2.2-2.2c-0.5-0.9-0.9-2-1.2-3.1c-0.2-1.2-0.4-2.4-0.4-3.7v-10.1h6.4v10.2c0,1.6,0.2,2.8,0.7,3.6
		c0.5,0.8,1.2,1.1,2.2,1.1c0.7,0,1.2-0.1,1.7-0.4c0.5-0.3,0.9-0.7,1.2-1.1v-13.4H573.3z"/>
	<path class="st1" d="M584.6,160.3h3v-5.1h6.4v5.1h5.6v4.9H594v7.6c0,0.8,0.2,1.4,0.5,1.8c0.3,0.4,0.9,0.7,1.8,0.7
		c0.5,0,1,0,1.5-0.1c0.5-0.1,1-0.2,1.4-0.3l0.4,4.5c-0.6,0.3-1.4,0.5-2.4,0.7s-1.9,0.2-2.8,0.2c-1.3,0-2.3-0.2-3.2-0.6
		c-0.9-0.4-1.6-0.9-2.1-1.6c-0.5-0.7-0.9-1.4-1.2-2.3c-0.3-0.9-0.4-1.8-0.4-2.9v-7.8h-3V160.3z"/>
	<path class="st1" d="M613.7,178c-0.6,0.6-1.4,1.2-2.5,1.6c-1.1,0.5-2.2,0.7-3.5,0.7c-0.9,0-1.7-0.1-2.4-0.4s-1.3-0.7-1.7-1.2
		c-0.5-0.5-0.8-1.1-1.1-1.8c-0.3-0.7-0.4-1.4-0.4-2.2c0-1.8,0.6-3.2,1.7-4.1s2.7-1.5,4.8-1.6c0.8-0.1,1.6-0.1,2.5-0.1
		c0.9,0,1.6-0.1,2.3-0.1v-0.6c0-2.1-1.2-3.2-3.6-3.2c-0.9,0-1.8,0.1-2.7,0.3c-0.9,0.2-1.7,0.5-2.4,0.9l-1.2-4.4c0.9-0.5,2-1,3.3-1.3
		c1.3-0.3,2.6-0.5,4.1-0.5c2.7,0,4.9,0.7,6.4,2.1c1.5,1.4,2.3,3.6,2.3,6.4v11.4h-6.2V178z M610.2,176.1c0.6,0,1.2-0.1,1.7-0.2
		s1-0.4,1.5-0.6v-2.9c-0.6,0.1-1.2,0.1-1.7,0.2c-0.5,0.1-1,0.1-1.5,0.2c-1.3,0.2-2,0.8-2,1.8c0,0.5,0.2,0.9,0.5,1.2
		C609.1,176,609.6,176.1,610.2,176.1z"/>
	<path class="st1" d="M630.5,173.9c0,0.5,0.1,0.9,0.3,1.2c0.2,0.3,0.6,0.4,1.2,0.4c0.4,0,0.8,0,1.4-0.1l0.2,4.4
		c-0.5,0.2-1.1,0.3-1.8,0.4s-1.4,0.1-2.1,0.1c-1.1,0-2-0.2-2.7-0.5s-1.3-0.7-1.7-1.3c-0.4-0.5-0.7-1.1-0.9-1.8
		c-0.2-0.7-0.3-1.4-0.3-2.1v-23h6.4V173.9z"/>
	<path class="st1" d="M647.4,178c-0.6,0.6-1.5,1.2-2.5,1.6c-1.1,0.5-2.2,0.7-3.5,0.7c-0.9,0-1.7-0.1-2.4-0.4
		c-0.7-0.3-1.3-0.7-1.7-1.2c-0.5-0.5-0.8-1.1-1.1-1.8c-0.3-0.7-0.4-1.4-0.4-2.2c0-1.8,0.6-3.2,1.7-4.1s2.8-1.5,4.8-1.6
		c0.8-0.1,1.6-0.1,2.5-0.1c0.9,0,1.6-0.1,2.3-0.1v-0.6c0-2.1-1.2-3.2-3.6-3.2c-0.9,0-1.8,0.1-2.7,0.3c-0.9,0.2-1.7,0.5-2.4,0.9
		l-1.2-4.4c0.9-0.5,2-1,3.3-1.3c1.3-0.3,2.6-0.5,4.1-0.5c2.7,0,4.9,0.7,6.4,2.1c1.5,1.4,2.3,3.6,2.3,6.4v11.4h-6.1V178z
		 M648.5,157.5c-0.6,0-1.1-0.1-1.6-0.3c-0.5-0.2-1-0.4-1.6-0.7c-0.5-0.2-0.9-0.4-1.3-0.6c-0.4-0.2-0.7-0.3-1-0.3
		c-0.5,0-0.8,0.2-1,0.5c-0.2,0.3-0.5,0.8-0.8,1.3l-3.6-1.7c0.3-0.9,0.6-1.6,1-2.2c0.3-0.6,0.7-1.1,1.1-1.4c0.4-0.4,0.9-0.6,1.4-0.8
		c0.5-0.2,1.1-0.2,1.7-0.2c0.6,0,1.2,0.1,1.7,0.3c0.5,0.2,1,0.4,1.6,0.7c0.5,0.3,0.9,0.5,1.3,0.6c0.3,0.1,0.6,0.2,0.9,0.2
		c0.5,0,0.8-0.2,1.1-0.5c0.3-0.3,0.5-0.8,0.8-1.3l3.4,1.8c-0.4,0.8-0.7,1.5-1.1,2.1c-0.4,0.6-0.7,1.1-1.1,1.4s-0.8,0.7-1.3,0.8
		S649,157.5,648.5,157.5z M643.9,176.1c0.6,0,1.2-0.1,1.8-0.2c0.6-0.2,1.1-0.4,1.5-0.6v-2.9c-0.6,0.1-1.2,0.1-1.7,0.2
		c-0.5,0.1-1,0.1-1.5,0.2c-1.3,0.2-2,0.8-2,1.8c0,0.5,0.2,0.9,0.5,1.2C642.8,176,643.3,176.1,643.9,176.1z"/>
	<path class="st1" d="M677.5,170.1c0,1.4-0.2,2.8-0.7,4c-0.5,1.2-1.1,2.3-2,3.2c-0.9,0.9-2,1.6-3.3,2.2c-1.3,0.5-2.8,0.8-4.5,0.8
		c-1.7,0-3.2-0.3-4.5-0.8c-1.3-0.5-2.4-1.2-3.3-2.2s-1.5-2-2-3.2c-0.5-1.2-0.7-2.6-0.7-4c0-1.4,0.2-2.8,0.7-4c0.5-1.2,1.1-2.3,2-3.2
		c0.9-0.9,2-1.6,3.3-2.2c1.3-0.5,2.8-0.8,4.5-0.8c1.7,0,3.2,0.3,4.5,0.8c1.3,0.5,2.4,1.2,3.3,2.2c0.9,0.9,1.5,2,2,3.2
		C677.3,167.4,677.5,168.7,677.5,170.1z M671.1,170.1c0-0.7-0.1-1.4-0.2-2c-0.1-0.7-0.4-1.2-0.7-1.8c-0.3-0.5-0.7-0.9-1.2-1.2
		c-0.5-0.3-1.2-0.5-1.9-0.5s-1.4,0.2-1.9,0.5c-0.5,0.3-0.9,0.7-1.2,1.2c-0.3,0.5-0.5,1.1-0.7,1.8c-0.1,0.7-0.2,1.3-0.2,2
		s0.1,1.4,0.2,2c0.1,0.7,0.4,1.2,0.7,1.8c0.3,0.5,0.7,0.9,1.2,1.2c0.5,0.3,1.2,0.5,1.9,0.5s1.4-0.2,1.9-0.5c0.5-0.3,0.9-0.7,1.2-1.2
		c0.3-0.5,0.5-1.1,0.7-1.8C671.1,171.5,671.1,170.8,671.1,170.1z"/>
	<path class="st1" d="M689.6,160.3h6.1v2.3c1.3-1.8,3.2-2.7,5.9-2.7c1.1,0,2.1,0.2,3.1,0.7s1.8,1.1,2.5,2c0.7,0.9,1.3,1.9,1.7,3.1
		c0.4,1.2,0.6,2.6,0.6,4.1c0,1.7-0.3,3.2-0.8,4.5c-0.5,1.3-1.3,2.4-2.2,3.3s-2,1.5-3.2,2c-1.2,0.4-2.5,0.7-3.9,0.7
		c-0.7,0-1.3,0-1.8-0.1c-0.5-0.1-1-0.2-1.4-0.3v8.3h-6.4V160.3z M699.3,164.9c-0.7,0-1.3,0.1-1.9,0.3c-0.5,0.2-1,0.6-1.4,1v9.1
		c0.3,0.1,0.6,0.2,1,0.2c0.4,0.1,0.8,0.1,1.3,0.1c1.7,0,2.9-0.5,3.6-1.5c0.7-1,1.1-2.4,1.1-4.1c0-1.4-0.3-2.6-0.9-3.6
		C701.5,165.3,700.6,164.9,699.3,164.9z"/>
	<path class="st1" d="M732.7,170.1c0,1.4-0.2,2.8-0.7,4c-0.5,1.2-1.1,2.3-2,3.2s-2,1.6-3.3,2.2c-1.3,0.5-2.8,0.8-4.5,0.8
		c-1.7,0-3.2-0.3-4.5-0.8c-1.3-0.5-2.4-1.2-3.3-2.2s-1.5-2-2-3.2c-0.5-1.2-0.7-2.6-0.7-4c0-1.4,0.2-2.8,0.7-4c0.5-1.2,1.1-2.3,2-3.2
		c0.9-0.9,2-1.6,3.3-2.2c1.3-0.5,2.8-0.8,4.5-0.8c1.7,0,3.2,0.3,4.5,0.8c1.3,0.5,2.4,1.2,3.3,2.2c0.9,0.9,1.5,2,2,3.2
		C732.4,167.4,732.7,168.7,732.7,170.1z M726.3,170.1c0-0.7-0.1-1.4-0.2-2c-0.1-0.7-0.4-1.2-0.7-1.8c-0.3-0.5-0.7-0.9-1.2-1.2
		c-0.5-0.3-1.2-0.5-1.9-0.5c-0.8,0-1.4,0.2-1.9,0.5c-0.5,0.3-0.9,0.7-1.2,1.2c-0.3,0.5-0.5,1.1-0.7,1.8c-0.1,0.7-0.2,1.3-0.2,2
		s0.1,1.4,0.2,2c0.1,0.7,0.4,1.2,0.7,1.8c0.3,0.5,0.7,0.9,1.2,1.2c0.5,0.3,1.2,0.5,1.9,0.5c0.8,0,1.4-0.2,1.9-0.5
		c0.5-0.3,0.9-0.7,1.2-1.2c0.3-0.5,0.5-1.1,0.7-1.8C726.2,171.5,726.3,170.8,726.3,170.1z"/>
	<path class="st1" d="M748.6,165.9h-0.8c-2.5,0-4.3,0.6-5.4,1.9v12.2h-6.4v-19.6h6.2v3.3c0.4-1.1,0.9-1.9,1.7-2.5
		c0.8-0.6,1.8-0.9,3-0.9c0.4,0,0.7,0,0.9,0.1c0.3,0,0.5,0.1,0.8,0.2L748.6,165.9z"/>
	<path class="st1" d="M777.5,172c0,1.2-0.2,2.3-0.7,3.3c-0.5,1-1.1,1.9-2,2.7c-0.9,0.8-1.9,1.4-3.2,1.8c-1.3,0.4-2.7,0.7-4.3,0.7
		c-1.5,0-2.9-0.2-4.4-0.5c-1.5-0.3-2.8-0.8-4.1-1.4l1.3-5c0.9,0.5,2,0.8,3.2,1.2c1.2,0.3,2.4,0.5,3.8,0.5c1.1,0,2-0.2,2.8-0.6
		c0.7-0.4,1.1-1.1,1.1-2c0-0.7-0.3-1.3-0.9-1.8c-0.6-0.5-1.8-1.1-3.4-1.7c-2.6-1-4.5-2.1-5.7-3.4c-1.2-1.3-1.8-2.9-1.8-4.9
		c0-2.6,0.8-4.6,2.5-5.9s4-2,7-2c1.5,0,3,0.2,4.4,0.5c1.4,0.3,2.6,0.8,3.5,1.3l-1.1,4.9c-0.9-0.5-2-0.8-3.1-1.1
		c-1.1-0.3-2.2-0.4-3.4-0.4c-1,0-1.8,0.2-2.4,0.5c-0.6,0.3-0.9,0.9-0.9,1.7c0,0.4,0.1,0.7,0.2,1c0.1,0.3,0.3,0.5,0.6,0.8
		c0.3,0.2,0.7,0.5,1.2,0.7c0.5,0.2,1.1,0.5,1.9,0.8c1.1,0.5,2.2,0.9,3.2,1.4c1,0.5,1.8,1.1,2.6,1.8c0.7,0.7,1.3,1.4,1.7,2.3
		C777.3,169.8,777.5,170.8,777.5,172z"/>
	<path class="st1" d="M799.1,175.7h-6.3l-5.2-10.7l-0.8,14.9h-6.4l2-26.6h5.9l7.7,16.3l7.7-16.3h5.9l2,26.6h-6.4l-0.8-14.9
		L799.1,175.7z"/>
	<path class="st1" d="M833.3,172c0,1.2-0.2,2.3-0.7,3.3c-0.5,1-1.1,1.9-2,2.7c-0.9,0.8-1.9,1.4-3.2,1.8c-1.3,0.4-2.7,0.7-4.3,0.7
		c-1.5,0-2.9-0.2-4.4-0.5c-1.5-0.3-2.8-0.8-4.1-1.4l1.3-5c0.9,0.5,2,0.8,3.2,1.2c1.2,0.3,2.4,0.5,3.8,0.5c1.1,0,2-0.2,2.8-0.6
		c0.7-0.4,1.1-1.1,1.1-2c0-0.7-0.3-1.3-0.9-1.8c-0.6-0.5-1.8-1.1-3.4-1.7c-2.6-1-4.5-2.1-5.7-3.4c-1.2-1.3-1.8-2.9-1.8-4.9
		c0-2.6,0.8-4.6,2.5-5.9s4-2,7-2c1.5,0,3,0.2,4.4,0.5c1.4,0.3,2.6,0.8,3.5,1.3l-1.1,4.9c-0.9-0.5-2-0.8-3.1-1.1
		c-1.1-0.3-2.2-0.4-3.4-0.4c-1,0-1.8,0.2-2.4,0.5c-0.6,0.3-0.9,0.9-0.9,1.7c0,0.4,0.1,0.7,0.2,1c0.1,0.3,0.3,0.5,0.6,0.8
		c0.3,0.2,0.7,0.5,1.2,0.7c0.5,0.2,1.1,0.5,1.9,0.8c1.1,0.5,2.2,0.9,3.2,1.4c1,0.5,1.8,1.1,2.6,1.8c0.7,0.7,1.3,1.4,1.7,2.3
		C833.1,169.8,833.3,170.8,833.3,172z"/>
	<path class="st1" d="M836.5,176.7c0-1,0.3-1.8,0.9-2.5c0.6-0.7,1.5-1.1,2.7-1.1s2.1,0.4,2.7,1.1c0.6,0.7,0.9,1.6,0.9,2.5
		s-0.3,1.8-0.9,2.5c-0.6,0.7-1.5,1.1-2.7,1.1s-2.1-0.4-2.7-1.1C836.8,178.5,836.5,177.6,836.5,176.7z"/>
</g>
</svg>
