<?xml version="1.0" encoding="utf-8"?>
<!-- Generator: Adobe Illustrator 23.0.4, SVG Export Plug-In . SVG Version: 6.00 Build 0)  -->
<svg version="1.1" id="Layer_1" xmlns="http://www.w3.org/2000/svg" xmlns:xlink="http://www.w3.org/1999/xlink" x="0px" y="0px"
	 viewBox="0 0 1024 250" style="enable-background:new 0 0 1024 250;" xml:space="preserve">
<style type="text/css">
	.st0{fill:#FFFFFF;}
	.st1{fill:#008F30;}
	.st2{fill:#8D6238;}
	.st3{fill:#E3E6E8;}
	.st4{clip-path:url(#SVGID_3_);}
	.st5{fill:#03682C;}
	.st6{fill:#F2D8C3;}
	.st7{fill:#FACA00;}
	.st8{enable-background:new    ;}
	.st9{fill:#636361;}
	.st10{fill:#292B2E;}
</style>
<g>
	<g>
		<g>
			<rect class="st0" width="1024" height="248"/>
		</g>
		<g>
			<path class="st1" d="M0,249.9v0.1h1024V11.6C1008.9,9,511.8-74.9,0,249.9z"/>
		</g>
	</g>
	<g>
		<g>
			<g>
				<g>
					<g>
						<path class="st2" d="M499.6,58.9c0,0,2.1,7.5-9.9,10.5l-34.1,8.4c0,0-3.7,0.9-4.8-2.8l-1.1-3.8c0,0-2.1-7.5,9.9-10.5l30.4-7.4
							C489.9,53.2,497.5,51.4,499.6,58.9L499.6,58.9L499.6,58.9z"/>
					</g>
					<g>
						<path class="st2" d="M497.7,83c0,0,0.7,7.5-11.1,8.2l-33.7,2.2c0,0-3.7,0.2-4.1-3.4l-0.4-3.8c0,0-0.7-7.5,11.1-8.2l29.9-2
							C489.5,76,496.9,75.5,497.7,83L497.7,83L497.7,83z"/>
					</g>
					<g>
						<path class="st2" d="M496.3,101.3c0,0,0.8,7.8-11.7,8.7l-35.4,2.3c0,0-3.9,0.3-4.3-3.6l-0.4-4c0,0-0.8-7.8,11.7-8.7l31.5-2.1
							C487.7,94,495.5,93.4,496.3,101.3L496.3,101.3L496.3,101.3z"/>
					</g>
					<g>
						<path class="st2" d="M482.6,125.6c0,0-0.7,7-11.8,5.6l-31.6-4c0,0-3.4-0.4-3.1-3.9l0.3-3.6c0,0,0.7-7,11.8-5.6l28.1,3.6
							C476.3,117.7,483.2,118.5,482.6,125.6L482.6,125.6L482.6,125.6z"/>
					</g>
					<g>
						<g>
							<g id="SVGID_1_">
								<polygon class="st3" points="429.8,15.5 429.8,110.8 491.4,110.8 491.4,15.5 								"/>
							</g>
						</g>
						<g>
							<g>
								<defs>
									<rect id="SVGID_2_" x="429.8" y="15.5" width="61.6" height="95.3"/>
								</defs>
								<clipPath id="SVGID_3_">
									<use xlink:href="#SVGID_2_"  style="overflow:visible;"/>
								</clipPath>
								<g class="st4">
									<polygon class="st0" points="433.6,15.5 433.6,110.8 487.5,110.8 487.5,15.5 									"/>
								</g>
							</g>
						</g>
					</g>
					<g>
						<path class="st5" d="M491.3,15.6V13c0,0,0-9.4-11.8-9.4h-38c0,0-11.8-0.9-11.8,9.4v2.7L491.3,15.6L491.3,15.6z M429.7,110.9v8
							c0,0,0,7.1,11.8,7.1h38c0,0,11.8,0.5,11.8-9.8v-5.4h-61.6L429.7,110.9L429.7,110.9z"/>
					</g>
					<g>
						<polygon class="st3" points="455.6,9 455.6,10.8 469.3,10.8 469.3,9 						"/>
					</g>
					<g>
						<polygon class="st3" points="451.8,9 451.8,10.8 454.1,10.8 454.1,9 						"/>
					</g>
					<g>
						<path class="st2" d="M451,126.2c0,0,23.9-18.9,12-28.5c-7.3-5.9-11.8,5.8-18.7,8.9c-11.1,4.9-14.5,8.5-14.5,8.5V75.7
							c-1.7,0.5-9.5,4.2-12.4,8.5c-3,4.3-18.3,46.7-19.3,49.6c-0.4,1.4-6.4,15.1-8,17h48.3C442.2,147.5,448.4,139.8,451,126.2
							L451,126.2z"/>
					</g>
					<g>
						<path class="st6" d="M453.5,107.8c0,0-5.2-3-2.8-6.2c0,0,5.3-7.8,9.8-3.8c0.6,0.5,4.4,3.1,1.4,7.4l-1,1.4c0,0-3,4.3-7.3,1.3
							L453.5,107.8L453.5,107.8z"/>
					</g>
				</g>
			</g>
			<g>
				<g>
					<path class="st7" d="M460.1,40.7l-4.3-3.7l-12.2,10.4c0.4,0.4,1,0.7,1.7,0.7h29.5c0.7,0,1.3-0.3,1.7-0.7L464.4,37L460.1,40.7z"
						/>
				</g>
				<g>
					<path class="st7" d="M476.5,24.2c-0.4-0.4-1-0.7-1.7-0.7h-29.5c-0.7,0-1.3,0.3-1.7,0.7L460,38.3L476.5,24.2z"/>
				</g>
				<g>
					<polygon class="st7" points="442.9,25.7 442.9,46.1 454.8,36 					"/>
				</g>
				<g>
					<polygon class="st7" points="465.4,36 477.3,46.1 477.3,25.6 					"/>
				</g>
			</g>
			<g class="st8">
				<path class="st9" d="M452.2,60c0,0.5-0.1,1-0.3,1.4c-0.2,0.4-0.5,0.8-0.9,1.2c-0.4,0.3-0.8,0.6-1.4,0.8
					c-0.5,0.2-1.2,0.3-1.8,0.3c-0.6,0-1.3-0.1-1.9-0.2c-0.6-0.1-1.2-0.3-1.8-0.6l0.6-2.1c0.4,0.2,0.9,0.4,1.4,0.5s1,0.2,1.6,0.2
					c0.5,0,0.9-0.1,1.2-0.3c0.3-0.2,0.5-0.5,0.5-0.9c0-0.3-0.1-0.5-0.4-0.8c-0.3-0.2-0.8-0.5-1.5-0.7c-1.1-0.4-1.9-0.9-2.5-1.5
					c-0.5-0.5-0.8-1.2-0.8-2.1c0-1.1,0.4-2,1.1-2.5c0.7-0.6,1.7-0.9,3-0.9c0.7,0,1.3,0.1,1.9,0.2c0.6,0.1,1.1,0.3,1.5,0.6l-0.5,2.1
					c-0.4-0.2-0.8-0.4-1.3-0.5s-1-0.2-1.5-0.2c-0.4,0-0.8,0.1-1,0.2s-0.4,0.4-0.4,0.7c0,0.2,0,0.3,0.1,0.4c0,0.1,0.1,0.2,0.2,0.3
					s0.3,0.2,0.5,0.3s0.5,0.2,0.8,0.4c0.5,0.2,0.9,0.4,1.4,0.6c0.4,0.2,0.8,0.5,1.1,0.8c0.3,0.3,0.6,0.6,0.7,1
					C452.1,59,452.2,59.5,452.2,60z"/>
				<path class="st9" d="M461.4,61.6h-2.7l-2.2-4.6l-0.3,6.4h-2.8l0.9-11.4h2.5l3.3,7l3.3-7h2.5l0.9,11.4H464l-0.3-6.4L461.4,61.6z"
					/>
				<path class="st9" d="M476.1,60c0,0.5-0.1,1-0.3,1.4c-0.2,0.4-0.5,0.8-0.9,1.2c-0.4,0.3-0.8,0.6-1.4,0.8
					c-0.5,0.2-1.2,0.3-1.8,0.3c-0.6,0-1.3-0.1-1.9-0.2c-0.6-0.1-1.2-0.3-1.8-0.6l0.6-2.1c0.4,0.2,0.9,0.4,1.4,0.5s1,0.2,1.6,0.2
					c0.5,0,0.9-0.1,1.2-0.3c0.3-0.2,0.5-0.5,0.5-0.9c0-0.3-0.1-0.5-0.4-0.8c-0.3-0.2-0.8-0.5-1.5-0.7c-1.1-0.4-1.9-0.9-2.5-1.5
					c-0.5-0.5-0.8-1.2-0.8-2.1c0-1.1,0.4-2,1.1-2.5c0.7-0.6,1.7-0.9,3-0.9c0.7,0,1.3,0.1,1.9,0.2c0.6,0.1,1.1,0.3,1.5,0.6l-0.5,2.1
					c-0.4-0.2-0.8-0.4-1.3-0.5s-1-0.2-1.5-0.2c-0.4,0-0.8,0.1-1,0.2s-0.4,0.4-0.4,0.7c0,0.2,0,0.3,0.1,0.4c0,0.1,0.1,0.2,0.2,0.3
					s0.3,0.2,0.5,0.3s0.5,0.2,0.8,0.4c0.5,0.2,0.9,0.4,1.4,0.6c0.4,0.2,0.8,0.5,1.1,0.8c0.3,0.3,0.6,0.6,0.7,1
					C476.1,59,476.1,59.5,476.1,60z"/>
			</g>
			<g class="st8">
				<path class="st9" d="M443.7,68.4h2.6v1c0.6-0.8,1.4-1.2,2.5-1.2c0.5,0,0.9,0.1,1.3,0.3c0.4,0.2,0.8,0.5,1.1,0.9
					c0.3,0.4,0.5,0.8,0.7,1.3s0.3,1.1,0.3,1.8c0,0.7-0.1,1.4-0.4,2c-0.2,0.6-0.6,1-0.9,1.4c-0.4,0.4-0.9,0.7-1.4,0.9
					c-0.5,0.2-1.1,0.3-1.7,0.3c-0.3,0-0.6,0-0.8-0.1c-0.2,0-0.4-0.1-0.6-0.1v3.6h-2.8L443.7,68.4L443.7,68.4z M447.8,70.3
					c-0.3,0-0.6,0-0.8,0.1c-0.2,0.1-0.4,0.2-0.6,0.4v3.9c0.1,0,0.3,0.1,0.4,0.1c0.2,0,0.3,0,0.5,0c0.7,0,1.2-0.2,1.6-0.7
					c0.3-0.4,0.5-1,0.5-1.8c0-0.6-0.1-1.1-0.4-1.6S448.4,70.3,447.8,70.3z"/>
				<path class="st9" d="M458.3,76c-0.3,0.3-0.6,0.5-1.1,0.7s-0.9,0.3-1.5,0.3c-0.4,0-0.7-0.1-1-0.2s-0.5-0.3-0.7-0.5
					s-0.4-0.5-0.5-0.8s-0.2-0.6-0.2-0.9c0-0.8,0.2-1.4,0.7-1.8s1.2-0.6,2.1-0.7c0.3,0,0.7,0,1.1-0.1c0.4,0,0.7,0,1,0v-0.3
					c0-0.9-0.5-1.4-1.5-1.4c-0.4,0-0.8,0-1.2,0.1c-0.4,0.1-0.7,0.2-1,0.4L454,69c0.4-0.2,0.9-0.4,1.4-0.6c0.5-0.1,1.1-0.2,1.8-0.2
					c1.2,0,2.1,0.3,2.8,0.9c0.7,0.6,1,1.5,1,2.8v4.9h-2.6L458.3,76L458.3,76z M456.8,75.1c0.3,0,0.5,0,0.7-0.1s0.4-0.2,0.6-0.3v-1.3
					c-0.3,0-0.5,0-0.7,0.1s-0.4,0.1-0.6,0.1c-0.6,0.1-0.8,0.3-0.8,0.8c0,0.2,0.1,0.4,0.2,0.5C456.4,75.1,456.6,75.1,456.8,75.1z"/>
				<path class="st9" d="M468.3,70.7H468c-1.1,0-1.9,0.3-2.3,0.8v5.2h-2.8v-8.4h2.7v1.4c0.2-0.5,0.4-0.8,0.7-1.1s0.8-0.4,1.3-0.4
					c0.2,0,0.3,0,0.4,0s0.2,0,0.3,0.1L468.3,70.7z"/>
				<path class="st9" d="M473.9,76c-0.3,0.3-0.6,0.5-1.1,0.7s-0.9,0.3-1.5,0.3c-0.4,0-0.7-0.1-1-0.2s-0.5-0.3-0.7-0.5
					s-0.4-0.5-0.5-0.8s-0.2-0.6-0.2-0.9c0-0.8,0.2-1.4,0.7-1.8s1.2-0.6,2.1-0.7c0.3,0,0.7,0,1.1-0.1c0.4,0,0.7,0,1,0v-0.3
					c0-0.9-0.5-1.4-1.5-1.4c-0.4,0-0.8,0-1.2,0.1c-0.4,0.1-0.7,0.2-1,0.4l-0.5-1.9c0.4-0.2,0.9-0.4,1.4-0.6c0.5-0.1,1.1-0.2,1.8-0.2
					c1.2,0,2.1,0.3,2.8,0.9c0.7,0.6,1,1.5,1,2.8v4.9H474L473.9,76L473.9,76z M472.4,75.1c0.3,0,0.5,0,0.7-0.1s0.4-0.2,0.6-0.3v-1.3
					c-0.3,0-0.5,0-0.7,0.1s-0.4,0.1-0.6,0.1c-0.6,0.1-0.8,0.3-0.8,0.8c0,0.2,0.1,0.4,0.2,0.5C471.9,75.1,472.1,75.1,472.4,75.1z"/>
			</g>
			<g class="st8">
				<path class="st9" d="M439,91.9c0.4-0.2,0.8-0.4,1.2-0.6c0.4-0.2,0.8-0.4,1.2-0.7c0.4-0.3,0.7-0.6,1-1s0.5-0.8,0.7-1.3
					c-0.3,0.3-0.6,0.5-1,0.6s-0.8,0.2-1.1,0.2c-0.5,0-0.9-0.1-1.3-0.2s-0.8-0.4-1.1-0.7s-0.5-0.6-0.7-1.1c-0.2-0.4-0.3-0.9-0.3-1.4
					c0-0.6,0.1-1.1,0.3-1.6c0.2-0.5,0.5-0.9,0.9-1.2c0.4-0.3,0.8-0.5,1.3-0.7s1-0.2,1.5-0.2c0.7,0,1.4,0.1,1.9,0.4s1,0.6,1.3,1.1
					c0.3,0.4,0.6,0.9,0.8,1.5c0.2,0.6,0.2,1.1,0.2,1.7c0,1.8-0.5,3.2-1.6,4.5c-1.1,1.2-2.5,2.2-4.4,2.8L439,91.9z M440.2,85.7
					c0,0.4,0.1,0.8,0.4,1c0.2,0.2,0.6,0.4,1,0.4c0.3,0,0.6-0.1,0.9-0.2s0.5-0.3,0.6-0.4c0-0.3,0-0.6-0.1-0.8
					c-0.1-0.3-0.1-0.5-0.2-0.7s-0.3-0.4-0.5-0.5s-0.4-0.2-0.7-0.2c-0.4,0-0.8,0.1-1,0.4C440.3,84.9,440.2,85.3,440.2,85.7z"/>
				<path class="st9" d="M454.2,84.5l-4.3,9.3h-2.8l4.4-9.2h-4.6v-2.2h6.9L454.2,84.5z"/>
				<path class="st9" d="M466.1,84.5l-4.3,9.3H459l4.4-9.2h-4.6v-2.2h6.9L466.1,84.5z"/>
				<path class="st9" d="M474.3,84.5l-4.3,9.3h-2.8l4.4-9.2H467v-2.2h6.9L474.3,84.5z"/>
				<path class="st9" d="M482.5,84.5l-4.3,9.3h-2.8l4.4-9.2h-4.6v-2.2h6.9L482.5,84.5z"/>
			</g>
		</g>
		<g>
			<g>
				<path class="st10" d="M440.7,246.5h-302c-31.1,0-56.3-25.2-56.3-56.3l0,0c0-31.1,25.2-56.3,56.3-56.3h302
					c31.1,0,56.3,25.2,56.3,56.3l0,0C497,221.3,471.8,246.5,440.7,246.5z"/>
			</g>
			<g>
				<g class="st8">
					<path class="st0" d="M208.6,174.8c0,2.2-0.5,4.3-1.5,6c-1,1.8-2.3,3.3-4,4.5s-3.7,2.1-6.1,2.8c-2.3,0.6-4.8,1-7.6,1h-1.1v14.3
						h-10.4v-42.3h12.2c2.7,0,5.1,0.3,7.4,0.8c2.3,0.6,4.2,1.4,5.8,2.5s2.9,2.6,3.8,4.3C208.1,170.4,208.6,172.5,208.6,174.8z
						 M198.5,174.9c0-3.9-2.8-5.8-8.3-5.8h-1.8v12h1.7c2.8,0,4.8-0.5,6.3-1.7C197.8,178.3,198.5,176.8,198.5,174.9z"/>
					<path class="st0" d="M244.1,187.8c0,2.3-0.4,4.4-1.1,6.4c-0.7,2-1.8,3.7-3.2,5.1c-1.4,1.5-3.1,2.6-5.2,3.4
						c-2.1,0.8-4.4,1.2-7.1,1.2c-2.7,0-5-0.4-7.1-1.2s-3.8-2-5.2-3.4c-1.4-1.5-2.5-3.2-3.2-5.1c-0.7-2-1.1-4.1-1.1-6.4
						c0-2.3,0.4-4.4,1.1-6.4c0.7-2,1.8-3.7,3.2-5.1c1.4-1.5,3.1-2.6,5.2-3.4c2.1-0.8,4.4-1.2,7.1-1.2c2.7,0,5,0.4,7.1,1.2
						s3.8,2,5.2,3.4c1.4,1.5,2.5,3.2,3.2,5.1C243.8,183.4,244.1,185.5,244.1,187.8z M234,187.8c0-1.1-0.1-2.2-0.3-3.2s-0.6-2-1-2.8
						c-0.5-0.8-1.1-1.5-2-2c-0.8-0.5-1.9-0.7-3.1-0.7c-1.2,0-2.3,0.2-3.1,0.7s-1.5,1.1-2,2c-0.5,0.8-0.8,1.8-1,2.8s-0.3,2.1-0.3,3.2
						c0,1.1,0.1,2.2,0.3,3.2s0.6,2,1,2.8c0.5,0.8,1.1,1.5,2,2s1.9,0.7,3.1,0.7c1.2,0,2.3-0.2,3.1-0.7s1.5-1.1,2-2
						c0.5-0.8,0.8-1.8,1-2.8S234,188.9,234,187.8z"/>
					<path class="st0" d="M269.5,181h-1.2c-4,0-6.9,1-8.5,3v19.3h-10.2v-31.1h9.8v5.2c0.6-1.7,1.5-3,2.7-4s2.8-1.5,4.8-1.5
						c0.6,0,1.1,0,1.5,0.1s0.8,0.2,1.2,0.3L269.5,181z"/>
					<path class="st0" d="M315.4,190.7c0,1.9-0.4,3.6-1.1,5.2c-0.7,1.6-1.8,3-3.2,4.3c-1.4,1.2-3.1,2.2-5.1,2.9s-4.3,1-6.8,1
						c-2.3,0-4.7-0.3-7-0.8s-4.5-1.2-6.5-2.2l2.1-7.9c1.5,0.7,3.2,1.3,5,1.9c1.9,0.5,3.9,0.8,6,0.8c1.8,0,3.2-0.3,4.4-1
						c1.1-0.7,1.7-1.7,1.7-3.2c0-1.1-0.5-2-1.5-2.9s-2.8-1.8-5.4-2.8c-4.2-1.6-7.2-3.4-9.1-5.4s-2.9-4.6-2.9-7.7
						c0-4.1,1.3-7.2,4-9.4s6.4-3.2,11.1-3.2c2.4,0,4.7,0.3,6.9,0.8c2.2,0.5,4.1,1.2,5.6,2.1L312,171c-1.5-0.7-3.1-1.3-4.9-1.7
						s-3.6-0.7-5.4-0.7c-1.6,0-2.8,0.3-3.8,0.8s-1.4,1.4-1.4,2.7c0,0.6,0.1,1.1,0.3,1.5c0.2,0.4,0.5,0.8,0.9,1.2s1.1,0.8,1.9,1.1
						c0.8,0.4,1.8,0.8,3,1.3c1.8,0.7,3.5,1.5,5,2.3c1.6,0.8,2.9,1.7,4.1,2.8c1.1,1.1,2,2.3,2.7,3.6
						C315.1,187.3,315.4,188.9,315.4,190.7z"/>
					<path class="st0" d="M349.6,196.6h-10l-8.3-17l-1.3,23.7h-10.2L323,161h9.4l12.2,25.8l12.2-25.8h9.4l3.2,42.3h-10.2l-1.3-23.7
						L349.6,196.6z"/>
					<path class="st0" d="M403.9,190.7c0,1.9-0.4,3.6-1.1,5.2c-0.7,1.6-1.8,3-3.2,4.3c-1.4,1.2-3.1,2.2-5.1,2.9s-4.3,1-6.8,1
						c-2.3,0-4.7-0.3-7-0.8s-4.5-1.2-6.5-2.2l2.1-7.9c1.5,0.7,3.2,1.3,5,1.9c1.9,0.5,3.9,0.8,6,0.8c1.8,0,3.2-0.3,4.4-1
						c1.1-0.7,1.7-1.7,1.7-3.2c0-1.1-0.5-2-1.5-2.9s-2.8-1.8-5.4-2.8c-4.2-1.6-7.2-3.4-9.1-5.4s-2.9-4.6-2.9-7.7
						c0-4.1,1.3-7.2,4-9.4s6.4-3.2,11.1-3.2c2.4,0,4.7,0.3,6.9,0.8c2.2,0.5,4.1,1.2,5.6,2.1l-1.8,7.8c-1.5-0.7-3.1-1.3-4.9-1.7
						s-3.6-0.7-5.4-0.7c-1.6,0-2.8,0.3-3.8,0.8s-1.4,1.4-1.4,2.7c0,0.6,0.1,1.1,0.3,1.5c0.2,0.4,0.5,0.8,0.9,1.2s1.1,0.8,1.9,1.1
						c0.8,0.4,1.8,0.8,3,1.3c1.8,0.7,3.5,1.5,5,2.3c1.6,0.8,2.9,1.7,4.1,2.8c1.1,1.1,2,2.3,2.7,3.6
						C403.6,187.3,403.9,188.9,403.9,190.7z"/>
				</g>
			</g>
			<g>
				<g class="st8">
					<path class="st0" d="M165.1,218.4h10v3.1h-6v3.2h5.7v3.1H169v3.4h6.1v3.1h-10V218.4z"/>
					<path class="st0" d="M186.1,230.5c0,0.7-0.1,1.2-0.4,1.8s-0.6,0.9-1.1,1.3s-1,0.6-1.6,0.8s-1.3,0.3-2.1,0.3
						c-0.6,0-1.3-0.1-2-0.2c-0.7-0.1-1.3-0.3-1.9-0.5l0.5-2.7c0.5,0.2,1,0.4,1.6,0.5s1.1,0.2,1.6,0.2s0.9-0.1,1.2-0.2
						c0.3-0.1,0.5-0.4,0.5-0.7s-0.2-0.5-0.5-0.6s-0.8-0.3-1.4-0.5c-0.5-0.2-1-0.4-1.4-0.6c-0.4-0.2-0.8-0.5-1.1-0.8s-0.6-0.6-0.7-1
						c-0.2-0.4-0.3-0.8-0.3-1.3c0-1.3,0.4-2.2,1.3-2.8c0.9-0.6,2-0.9,3.4-0.9c0.7,0,1.4,0.1,2,0.2c0.6,0.1,1.2,0.4,1.8,0.7L185,226
						c-0.4-0.2-0.9-0.3-1.4-0.5s-1-0.2-1.5-0.2s-0.8,0-1.1,0.1c-0.2,0.1-0.4,0.3-0.4,0.5s0.1,0.5,0.4,0.6c0.3,0.1,0.7,0.3,1.1,0.4
						c0.4,0.1,0.7,0.3,1.2,0.5s0.8,0.4,1.2,0.7s0.7,0.6,0.9,1C186,229.5,186.1,230,186.1,230.5z"/>
					<path class="st0" d="M193.7,222.4c0.6,0,1.2,0.1,1.8,0.2c0.6,0.1,1.1,0.3,1.5,0.5l-0.4,2.7c-0.3-0.1-0.7-0.2-1.1-0.3
						s-0.9-0.1-1.3-0.1c-1,0-1.8,0.3-2.3,0.8c-0.5,0.6-0.8,1.3-0.8,2.3s0.3,1.7,0.8,2.3s1.3,0.8,2.3,0.8c0.4,0,0.9,0,1.3-0.1
						c0.4-0.1,0.8-0.2,1.1-0.3l0.4,2.7c-0.4,0.2-0.9,0.4-1.5,0.5s-1.2,0.2-1.8,0.2c-1,0-1.9-0.1-2.7-0.4c-0.8-0.3-1.5-0.7-2-1.2
						s-1-1.2-1.2-1.9s-0.4-1.6-0.4-2.5s0.1-1.7,0.4-2.5s0.7-1.4,1.2-1.9s1.2-1,2-1.2C191.8,222.5,192.7,222.4,193.7,222.4z"/>
					<path class="st0" d="M210.8,228.5c0,0.9-0.1,1.7-0.4,2.4c-0.3,0.7-0.7,1.4-1.2,1.9c-0.5,0.6-1.2,1-2,1.3s-1.7,0.5-2.7,0.5
						s-1.9-0.2-2.7-0.5s-1.4-0.7-2-1.3c-0.5-0.6-0.9-1.2-1.2-1.9s-0.4-1.5-0.4-2.4s0.1-1.7,0.4-2.4c0.3-0.7,0.7-1.4,1.2-1.9
						s1.2-1,2-1.3s1.7-0.5,2.7-0.5s1.9,0.2,2.7,0.5s1.4,0.7,2,1.3s0.9,1.2,1.2,1.9C210.6,226.8,210.8,227.6,210.8,228.5z
						 M206.9,228.5c0-0.4,0-0.8-0.1-1.2s-0.2-0.7-0.4-1.1s-0.4-0.6-0.7-0.7c-0.3-0.2-0.7-0.3-1.2-0.3s-0.9,0.1-1.2,0.3
						s-0.6,0.4-0.7,0.7c-0.2,0.3-0.3,0.7-0.4,1.1c-0.1,0.4-0.1,0.8-0.1,1.2s0,0.8,0.1,1.2s0.2,0.7,0.4,1.1c0.2,0.3,0.4,0.6,0.7,0.7
						c0.3,0.2,0.7,0.3,1.2,0.3s0.9-0.1,1.2-0.3s0.6-0.4,0.7-0.7c0.2-0.3,0.3-0.7,0.4-1.1S206.9,228.9,206.9,228.5z"/>
					<path class="st0" d="M216.5,230.8c0,0.3,0.1,0.5,0.2,0.7c0.1,0.2,0.4,0.3,0.7,0.3c0.2,0,0.5,0,0.8-0.1l0.1,2.6
						c-0.3,0.1-0.7,0.2-1.1,0.2c-0.4,0.1-0.8,0.1-1.3,0.1c-0.6,0-1.2-0.1-1.6-0.3s-0.8-0.4-1-0.8c-0.3-0.3-0.4-0.7-0.6-1.1
						c-0.1-0.4-0.2-0.8-0.2-1.3v-13.8h3.8v13.5H216.5z"/>
					<path class="st0" d="M220,234.4v-16.9h3.8v6.6c0.4-0.6,0.8-1,1.4-1.2c0.6-0.3,1.2-0.4,1.8-0.4c0.8,0,1.4,0.2,2,0.5
						s1,0.8,1.3,1.3s0.6,1.2,0.7,1.9c0.2,0.7,0.2,1.5,0.2,2.2v6.1h-3.8v-6.1c0-1-0.2-1.7-0.5-2.1c-0.3-0.5-0.8-0.7-1.4-0.7
						c-0.4,0-0.7,0.1-1,0.3s-0.5,0.4-0.7,0.6v8.1H220V234.4z"/>
					<path class="st0" d="M239.2,222.4c1.5,0,2.8,0.5,3.6,1.4s1.3,2.2,1.3,3.8c0,0.6-0.1,1.3-0.2,1.9h-6.8c0,0.7,0.3,1.3,0.7,1.7
						c0.5,0.4,1.2,0.7,2.1,0.7c0.6,0,1.2-0.1,1.8-0.2c0.6-0.1,1.2-0.3,1.6-0.5l0.5,2.5c-0.6,0.3-1.3,0.5-2.1,0.7s-1.5,0.2-2.4,0.2
						c-1,0-1.9-0.1-2.7-0.4c-0.8-0.3-1.4-0.7-2-1.2c-0.5-0.5-0.9-1.2-1.2-1.9s-0.4-1.6-0.4-2.4c0-1,0.1-1.8,0.4-2.6s0.7-1.4,1.2-2
						c0.5-0.5,1.1-0.9,1.9-1.2C237.5,222.5,238.3,222.4,239.2,222.4z M239.1,224.8c-0.6,0-1.1,0.2-1.4,0.6c-0.3,0.4-0.5,0.9-0.5,1.6
						h3.4c0-0.1,0-0.3,0-0.4c0-0.5-0.1-0.9-0.4-1.3C240,225,239.6,224.8,239.1,224.8z"/>
					<path class="st0" d="M246.4,234.4v-11.8h3.7v1.5c0.4-0.6,0.8-1.1,1.4-1.4c0.6-0.3,1.2-0.4,1.9-0.4c0.8,0,1.4,0.2,2,0.5
						s1,0.8,1.3,1.3c0.3,0.5,0.6,1.2,0.7,1.9c0.2,0.7,0.2,1.5,0.2,2.2v6.1h-3.8v-6.1c0-1-0.2-1.7-0.5-2.1c-0.3-0.5-0.8-0.7-1.4-0.7
						c-0.4,0-0.7,0.1-1,0.3s-0.5,0.4-0.7,0.6v8.1L246.4,234.4L246.4,234.4z"/>
					<path class="st0" d="M271.6,234.4h-3.7v-1.5c-0.4,0.5-0.8,0.9-1.4,1.2s-1.3,0.5-2.1,0.5c-0.7,0-1.3-0.1-1.8-0.4
						c-0.6-0.3-1.1-0.7-1.5-1.2s-0.8-1.1-1-1.9c-0.2-0.7-0.4-1.6-0.4-2.5c0-1,0.2-1.9,0.5-2.7s0.8-1.4,1.3-2
						c0.6-0.5,1.2-0.9,1.9-1.2c0.7-0.3,1.5-0.4,2.4-0.4c0.4,0,0.8,0,1.1,0.1c0.3,0.1,0.6,0.1,0.9,0.2v-5.2h3.8L271.6,234.4
						L271.6,234.4z M265.7,231.7c0.8,0,1.5-0.3,2-0.8v-5.4c-0.4-0.1-0.8-0.2-1.4-0.2c-1,0-1.7,0.3-2.1,0.9c-0.5,0.6-0.7,1.4-0.7,2.4
						c0,0.9,0.2,1.7,0.5,2.2C264.4,231.4,265,231.7,265.7,231.7z"/>
					<path class="st0" d="M286.1,228.5c0,0.9-0.1,1.7-0.4,2.4s-0.7,1.4-1.2,1.9c-0.5,0.6-1.2,1-2,1.3s-1.7,0.5-2.7,0.5
						s-1.9-0.2-2.7-0.5c-0.8-0.3-1.4-0.7-2-1.3c-0.5-0.6-0.9-1.2-1.2-1.9c-0.3-0.7-0.4-1.5-0.4-2.4s0.1-1.7,0.4-2.4s0.7-1.4,1.2-1.9
						s1.2-1,2-1.3s1.7-0.5,2.7-0.5s1.9,0.2,2.7,0.5c0.8,0.3,1.4,0.7,2,1.3s0.9,1.2,1.2,1.9C286,226.8,286.1,227.6,286.1,228.5z
						 M282.3,228.5c0-0.4,0-0.8-0.1-1.2s-0.2-0.7-0.4-1.1s-0.4-0.6-0.7-0.7c-0.3-0.2-0.7-0.3-1.2-0.3s-0.9,0.1-1.2,0.3
						s-0.6,0.4-0.7,0.7c-0.2,0.3-0.3,0.7-0.4,1.1c-0.1,0.4-0.1,0.8-0.1,1.2s0,0.8,0.1,1.2s0.2,0.7,0.4,1.1c0.2,0.3,0.4,0.6,0.7,0.7
						c0.3,0.2,0.7,0.3,1.2,0.3s0.9-0.1,1.2-0.3c0.3-0.2,0.6-0.4,0.7-0.7c0.2-0.3,0.3-0.7,0.4-1.1S282.3,228.9,282.3,228.5z"/>
					<path class="st0" d="M305.1,228.5c0,0.9-0.1,1.7-0.4,2.4s-0.7,1.4-1.2,1.9c-0.5,0.6-1.2,1-2,1.3s-1.7,0.5-2.7,0.5
						s-1.9-0.2-2.7-0.5c-0.8-0.3-1.4-0.7-2-1.3c-0.5-0.6-0.9-1.2-1.2-1.9c-0.3-0.7-0.4-1.5-0.4-2.4s0.1-1.7,0.4-2.4s0.7-1.4,1.2-1.9
						s1.2-1,2-1.3s1.7-0.5,2.7-0.5s1.9,0.2,2.7,0.5c0.8,0.3,1.4,0.7,2,1.3s0.9,1.2,1.2,1.9C304.9,226.8,305.1,227.6,305.1,228.5z
						 M301.2,228.5c0-0.4,0-0.8-0.1-1.2s-0.2-0.7-0.4-1.1s-0.4-0.6-0.7-0.7c-0.3-0.2-0.7-0.3-1.2-0.3s-0.9,0.1-1.2,0.3
						s-0.6,0.4-0.7,0.7c-0.2,0.3-0.3,0.7-0.4,1.1c-0.1,0.4-0.1,0.8-0.1,1.2s0,0.8,0.1,1.2s0.2,0.7,0.4,1.1c0.2,0.3,0.4,0.6,0.7,0.7
						c0.3,0.2,0.7,0.3,1.2,0.3s0.9-0.1,1.2-0.3c0.3-0.2,0.6-0.4,0.7-0.7c0.2-0.3,0.3-0.7,0.4-1.1S301.2,228.9,301.2,228.5z"/>
					<path class="st0" d="M315.5,230.5c0,0.7-0.1,1.2-0.4,1.8s-0.6,0.9-1.1,1.3s-1,0.6-1.6,0.8s-1.3,0.3-2.1,0.3
						c-0.6,0-1.3-0.1-2-0.2c-0.7-0.1-1.3-0.3-1.9-0.5l0.5-2.7c0.5,0.2,1,0.4,1.6,0.5s1.1,0.2,1.6,0.2s0.9-0.1,1.2-0.2
						c0.3-0.1,0.5-0.4,0.5-0.7s-0.2-0.5-0.5-0.6s-0.8-0.3-1.4-0.5c-0.5-0.2-1-0.4-1.4-0.6c-0.4-0.2-0.8-0.5-1.1-0.8
						c-0.3-0.3-0.6-0.6-0.7-1c-0.2-0.4-0.3-0.8-0.3-1.3c0-1.3,0.4-2.2,1.3-2.8s2-0.9,3.4-0.9c0.7,0,1.4,0.1,2,0.2
						c0.6,0.1,1.2,0.4,1.8,0.7l-0.5,2.5c-0.4-0.2-0.9-0.3-1.4-0.5s-1-0.2-1.5-0.2s-0.8,0-1.1,0.1c-0.2,0.1-0.4,0.3-0.4,0.5
						s0.1,0.5,0.4,0.6s0.7,0.3,1.1,0.4c0.4,0.1,0.7,0.3,1.2,0.5s0.8,0.4,1.2,0.7c0.4,0.3,0.7,0.6,0.9,1
						C315.4,229.5,315.5,230,315.5,230.5z"/>
					<path class="st0" d="M322.7,234.4v-11.8h3.7v1.5c0.4-0.6,0.8-1.1,1.4-1.4c0.6-0.3,1.2-0.4,1.9-0.4c0.8,0,1.4,0.2,2,0.5
						s1,0.8,1.3,1.3s0.6,1.2,0.7,1.9c0.2,0.7,0.2,1.5,0.2,2.2v6.1h-3.8v-6.1c0-1-0.2-1.7-0.5-2.1c-0.3-0.5-0.8-0.7-1.4-0.7
						c-0.4,0-0.7,0.1-1,0.3s-0.5,0.4-0.7,0.6v8.1L322.7,234.4L322.7,234.4z"/>
					<path class="st0" d="M347.8,222.6v11.8h-3.7v-1.5c-0.4,0.7-1,1.1-1.5,1.4s-1.2,0.4-1.8,0.4c-0.8,0-1.4-0.2-2-0.5
						c-0.5-0.3-1-0.8-1.3-1.3s-0.6-1.2-0.7-1.9s-0.2-1.5-0.2-2.2v-6.1h3.8v6.1c0,1,0.1,1.7,0.4,2.1c0.3,0.5,0.7,0.7,1.3,0.7
						c0.4,0,0.7-0.1,1-0.3s0.5-0.4,0.7-0.6v-8.1L347.8,222.6L347.8,222.6z M340.3,221l1.8-4.1h4.2l-2.8,4.1H340.3z"/>
					<path class="st0" d="M363.5,225.4c-0.4,0-0.8,0.1-1.1,0.3c-0.3,0.2-0.6,0.4-0.8,0.7c0.1,0.3,0.1,0.6,0.1,0.9s0,0.7,0,1v6.1
						h-3.8v-6.1c0-1-0.1-1.7-0.4-2.1c-0.2-0.5-0.7-0.7-1.3-0.7c-0.4,0-0.7,0.1-1,0.3s-0.5,0.4-0.7,0.6v8.1h-3.8v-11.8h3.7v1.5
						c0.4-0.6,0.9-1.1,1.5-1.4c0.6-0.3,1.2-0.4,1.8-0.4c0.8,0,1.4,0.2,1.9,0.5s1,0.8,1.4,1.5c0.8-1.3,2.1-2,3.9-2
						c0.8,0,1.4,0.2,1.9,0.5s1,0.8,1.3,1.3s0.6,1.2,0.7,1.9s0.2,1.5,0.2,2.2v6.1h-3.8v-6.1c0-1-0.1-1.7-0.4-2.1
						C364.6,225.6,364.1,225.4,363.5,225.4z"/>
					<path class="st0" d="M376.9,222.4c1.5,0,2.8,0.5,3.6,1.4s1.3,2.2,1.3,3.8c0,0.6-0.1,1.3-0.2,1.9h-6.8c0,0.7,0.3,1.3,0.7,1.7
						c0.5,0.4,1.2,0.7,2.1,0.7c0.6,0,1.2-0.1,1.8-0.2c0.6-0.1,1.2-0.3,1.6-0.5l0.5,2.5c-0.6,0.3-1.3,0.5-2.1,0.7
						c-0.8,0.2-1.5,0.2-2.4,0.2c-1,0-1.9-0.1-2.7-0.4c-0.8-0.3-1.4-0.7-2-1.2c-0.5-0.5-0.9-1.2-1.2-1.9c-0.3-0.7-0.4-1.6-0.4-2.4
						c0-1,0.1-1.8,0.4-2.6s0.7-1.4,1.2-2c0.5-0.5,1.1-0.9,1.9-1.2C375.2,222.5,376,222.4,376.9,222.4z M376.8,224.8
						c-0.6,0-1.1,0.2-1.4,0.6c-0.3,0.4-0.5,0.9-0.5,1.6h3.4c0-0.1,0-0.3,0-0.4c0-0.5-0.1-0.9-0.4-1.3
						C377.7,225,377.3,224.8,376.8,224.8z"/>
					<path class="st0" d="M391.6,225.9h-0.5c-1.5,0-2.6,0.4-3.2,1.2v7.3h-3.8v-11.8h3.7v2c0.2-0.6,0.6-1.1,1-1.5
						c0.5-0.4,1.1-0.6,1.8-0.6c0.2,0,0.4,0,0.6,0s0.3,0.1,0.5,0.1L391.6,225.9z"/>
					<path class="st0" d="M404.9,228.5c0,0.9-0.1,1.7-0.4,2.4s-0.7,1.4-1.2,1.9c-0.5,0.6-1.2,1-2,1.3s-1.7,0.5-2.7,0.5
						s-1.9-0.2-2.7-0.5c-0.8-0.3-1.4-0.7-2-1.3c-0.5-0.6-0.9-1.2-1.2-1.9c-0.3-0.7-0.4-1.5-0.4-2.4s0.1-1.7,0.4-2.4s0.7-1.4,1.2-1.9
						s1.2-1,2-1.3s1.7-0.5,2.7-0.5s1.9,0.2,2.7,0.5c0.8,0.3,1.4,0.7,2,1.3s0.9,1.2,1.2,1.9C404.8,226.8,404.9,227.6,404.9,228.5z
						 M401.1,228.5c0-0.4,0-0.8-0.1-1.2s-0.2-0.7-0.4-1.1s-0.4-0.6-0.7-0.7c-0.3-0.2-0.7-0.3-1.2-0.3s-0.9,0.1-1.2,0.3
						s-0.6,0.4-0.7,0.7c-0.2,0.3-0.3,0.7-0.4,1.1c-0.1,0.4-0.1,0.8-0.1,1.2s0,0.8,0.1,1.2s0.2,0.7,0.4,1.1c0.2,0.3,0.4,0.6,0.7,0.7
						c0.3,0.2,0.7,0.3,1.2,0.3s0.9-0.1,1.2-0.3c0.3-0.2,0.6-0.4,0.7-0.7c0.2-0.3,0.3-0.7,0.4-1.1S401.1,228.9,401.1,228.5z"/>
					<path class="st0" d="M415.4,230.5c0,0.7-0.1,1.2-0.4,1.8s-0.6,0.9-1.1,1.3s-1,0.6-1.6,0.8s-1.3,0.3-2.1,0.3
						c-0.6,0-1.3-0.1-2-0.2c-0.7-0.1-1.3-0.3-1.9-0.5l0.5-2.7c0.5,0.2,1,0.4,1.6,0.5s1.1,0.2,1.6,0.2s0.9-0.1,1.2-0.2
						c0.3-0.1,0.5-0.4,0.5-0.7s-0.2-0.5-0.5-0.6s-0.8-0.3-1.4-0.5c-0.5-0.2-1-0.4-1.4-0.6c-0.4-0.2-0.8-0.5-1.1-0.8
						c-0.3-0.3-0.6-0.6-0.7-1c-0.2-0.4-0.3-0.8-0.3-1.3c0-1.3,0.4-2.2,1.3-2.8s2-0.9,3.4-0.9c0.7,0,1.4,0.1,2,0.2
						c0.6,0.1,1.2,0.4,1.8,0.7l-0.5,2.5c-0.4-0.2-0.9-0.3-1.4-0.5s-1-0.2-1.5-0.2s-0.8,0-1.1,0.1c-0.2,0.1-0.4,0.3-0.4,0.5
						s0.1,0.5,0.4,0.6s0.7,0.3,1.1,0.4c0.4,0.1,0.7,0.3,1.2,0.5s0.8,0.4,1.2,0.7c0.4,0.3,0.7,0.6,0.9,1
						C415.2,229.5,415.4,230,415.4,230.5z"/>
				</g>
			</g>
		</g>
	</g>
</g>
</svg>
