<?xml version="1.0" encoding="utf-8"?>
<!-- Generator: Adobe Illustrator 23.0.4, SVG Export Plug-In . SVG Version: 6.00 Build 0)  -->
<svg version="1.1" id="Layer_1" xmlns="http://www.w3.org/2000/svg" xmlns:xlink="http://www.w3.org/1999/xlink" x="0px" y="0px"
	 viewBox="0 0 1024 250" style="enable-background:new 0 0 1024 250;" xml:space="preserve">
<style type="text/css">
	.st0{fill:#FFFFFF;}
	.st1{fill:#008F30;}
	.st2{fill:#292B2E;}
	.st3{enable-background:new    ;}
</style>
<g>
	<g>
		<g>
			<rect class="st0" width="1024" height="248"/>
		</g>
		<g>
			<path class="st1" d="M0,249.9v0.1h1024V11.6C1008.9,9,511.8-74.9,0,249.9z"/>
		</g>
	</g>
	<g>
		<g>
			<g>
				<path class="st2" d="M283.2,175.4H132.9c-27.8,0-50.4-22.5-50.4-50.4l0,0c0-27.8,22.5-50.4,50.4-50.4h150.3
					c27.8,0,50.4,22.5,50.4,50.4l0,0C333.5,152.8,311,175.4,283.2,175.4z"/>
			</g>
			<g>
				<g class="st3">
					<path class="st0" d="M145.4,144v-42.3H172v8.3h-16.2v9.6h15.4v8.3h-15.4V144H145.4z"/>
					<path class="st0" d="M202.2,135.8H186l-2.6,8.2h-10.7l15.8-42.3h11.4l15.8,42.3H205L202.2,135.8z M188.6,127.6h10.9l-5.4-17.8
						L188.6,127.6z"/>
					<path class="st0" d="M239.1,144.7c-0.2,0-0.3,0.1-0.5,0.1s-0.4,0-0.7,0c-3.4,0-6.5-0.6-9.2-1.7c-2.7-1.2-5-2.7-6.8-4.7
						s-3.2-4.3-4.2-7c-1-2.6-1.4-5.5-1.4-8.5s0.5-5.8,1.4-8.5c1-2.6,2.4-5,4.2-7s4.1-3.6,6.8-4.7c2.7-1.2,5.7-1.7,9.2-1.7
						c3.4,0,6.5,0.6,9.1,1.7c2.7,1.2,4.9,2.7,6.8,4.7c1.8,2,3.2,4.3,4.2,7c1,2.6,1.5,5.5,1.5,8.5c0,3.9-0.8,7.5-2.4,10.7
						s-3.9,5.8-6.9,7.8l10.2,6.7l-4.9,7.4L239.1,144.7z M237.9,136.5c1.8,0,3.4-0.3,4.8-1c1.4-0.7,2.6-1.6,3.5-2.8
						c1-1.2,1.7-2.6,2.1-4.3c0.5-1.7,0.7-3.5,0.7-5.5s-0.2-3.8-0.7-5.5s-1.2-3.1-2.1-4.3s-2.1-2.1-3.5-2.8c-1.4-0.7-3-1-4.8-1
						c-1.9,0-3.5,0.3-4.9,1s-2.5,1.6-3.5,2.8s-1.7,2.6-2.1,4.3c-0.5,1.7-0.7,3.5-0.7,5.5s0.2,3.8,0.7,5.5s1.2,3.1,2.1,4.3
						c1,1.2,2.1,2.2,3.5,2.8C234.4,136.2,236,136.5,237.9,136.5z"/>
				</g>
			</g>
		</g>
	</g>
</g>
</svg>
