<?xml version="1.0" encoding="utf-8"?>
<!-- Generator: Adobe Illustrator 23.0.4, SVG Export Plug-In . SVG Version: 6.00 Build 0)  -->
<svg version="1.1" id="Layer_1" xmlns="http://www.w3.org/2000/svg" xmlns:xlink="http://www.w3.org/1999/xlink" x="0px" y="0px"
	 viewBox="0 0 1024 250" style="enable-background:new 0 0 1024 250;" xml:space="preserve">
<style type="text/css">
	.st0{fill:#FFFFFF;}
	.st1{fill:#008F30;}
	.st2{fill:#292B2E;}
	.st3{enable-background:new    ;}
</style>
<g>
	<g>
		<g>
			<rect class="st0" width="1024" height="248"/>
		</g>
		<g>
			<path class="st1" d="M0,249.9v0.1h1024V11.6C1008.9,9,511.8-74.9,0,249.9z"/>
		</g>
	</g>
	<g>
		<g>
			<g>
				<path class="st2" d="M463.2,175.4H132.9c-27.8,0-50.4-22.5-50.4-50.4l0,0c0-27.8,22.5-50.4,50.4-50.4h330.3
					c27.8,0,50.4,22.5,50.4,50.4l0,0C513.5,152.8,491,175.4,463.2,175.4z"/>
			</g>
			<g>
				<g class="st3">
					<path class="st0" d="M177.3,115.1c0,2.8-0.8,5.3-2.4,7.4s-3.8,3.7-6.6,4.8l13.9,16.6h-12.8l-11.6-14.7h-1.9V144h-10.4v-42.3
						h13.5c2.6,0,5.1,0.3,7.3,0.8c2.2,0.6,4.2,1.4,5.8,2.5c1.7,1.1,2.9,2.5,3.9,4.2C176.8,110.9,177.3,112.8,177.3,115.1z
						 M167.2,115.3c0-1.9-0.7-3.3-2.2-4.2c-1.5-0.9-3.6-1.4-6.2-1.4h-3v11.9h2.5c2.8,0,5-0.5,6.5-1.7
						C166.5,118.9,167.2,117.3,167.2,115.3z"/>
					<path class="st0" d="M199.4,112.3c4.1,0,7.3,1.2,9.7,3.6c2.4,2.4,3.6,5.7,3.6,9.9c0,1.6-0.2,3.3-0.6,5.1h-18
						c0.1,1.9,0.7,3.4,1.9,4.6c1.2,1.2,3.1,1.7,5.6,1.7c1.5,0,3.1-0.1,4.8-0.4c1.7-0.3,3.1-0.7,4.4-1.2l1.3,6.5
						c-1.6,0.8-3.4,1.4-5.4,1.8c-2,0.4-4.1,0.6-6.3,0.6c-2.7,0-5.1-0.4-7.2-1.2c-2.1-0.8-3.8-1.9-5.2-3.3c-1.4-1.4-2.5-3.1-3.2-5
						c-0.7-1.9-1.1-4.1-1.1-6.5c0-2.5,0.4-4.8,1.1-6.9c0.7-2,1.8-3.8,3.2-5.2c1.4-1.4,3-2.5,5-3.3
						C194.9,112.6,197,112.3,199.4,112.3z M199.1,118.7c-1.6,0-2.8,0.5-3.7,1.6c-0.9,1-1.3,2.5-1.3,4.3h9c0.1-0.3,0.1-0.7,0.1-1.1
						c0-1.4-0.4-2.5-1.1-3.4C201.5,119.2,200.4,118.7,199.1,118.7z"/>
					<path class="st0" d="M240.9,133.9c0,1.7-0.3,3.3-1,4.6c-0.7,1.4-1.6,2.5-2.8,3.4c-1.2,0.9-2.6,1.6-4.3,2.1s-3.5,0.7-5.5,0.7
						c-1.7,0-3.5-0.2-5.3-0.5c-1.9-0.3-3.6-0.8-5.1-1.4l1.4-7c1.3,0.6,2.8,1,4.4,1.2c1.6,0.3,3,0.4,4.2,0.4c1.2,0,2.3-0.2,3.2-0.5
						c0.9-0.4,1.4-1,1.4-1.8c0-0.8-0.4-1.3-1.2-1.6c-0.8-0.3-2-0.8-3.6-1.4c-1.3-0.5-2.5-1-3.7-1.6s-2.1-1.2-3-2
						c-0.8-0.8-1.5-1.7-1.9-2.7c-0.5-1-0.7-2.2-0.7-3.6c0-3.4,1.1-5.9,3.4-7.5s5.3-2.4,9-2.4c1.9,0,3.7,0.2,5.3,0.5
						c1.6,0.4,3.2,1,4.6,1.8l-1.4,6.7c-1.1-0.5-2.4-0.9-3.6-1.2c-1.3-0.3-2.6-0.5-4-0.5c-1.2,0-2.2,0.1-2.8,0.3
						c-0.7,0.2-1,0.7-1,1.4c0,0.7,0.4,1.2,1.2,1.6c0.8,0.3,1.8,0.7,3,1.2c0.9,0.3,2,0.8,3.1,1.2c1.1,0.5,2.2,1.1,3.2,1.9
						c1,0.8,1.8,1.7,2.5,2.8C240.6,131,240.9,132.3,240.9,133.9z"/>
					<path class="st0" d="M275.5,112.9V144h-9.8V140c-1.2,1.8-2.5,3-4,3.7c-1.5,0.7-3,1-4.7,1c-2.1,0-3.8-0.4-5.2-1.3
						c-1.4-0.9-2.6-2-3.4-3.5c-0.9-1.4-1.5-3.1-1.9-5c-0.4-1.9-0.6-3.9-0.6-5.9v-16.1h10.2v16.3c0,2.6,0.4,4.5,1.1,5.7
						c0.7,1.2,1.9,1.8,3.6,1.8c1.1,0,2-0.2,2.8-0.7c0.8-0.5,1.4-1,1.9-1.7v-21.3H275.5z"/>
					<path class="st0" d="M292.9,134.5c0,0.8,0.2,1.4,0.5,1.9c0.3,0.4,1,0.7,2,0.7c0.6,0,1.3-0.1,2.2-0.2l0.3,7
						c-0.8,0.3-1.8,0.5-2.9,0.6c-1.1,0.1-2.2,0.2-3.3,0.2c-1.7,0-3.1-0.3-4.3-0.8s-2.1-1.2-2.7-2c-0.7-0.8-1.2-1.8-1.5-2.9
						c-0.3-1.1-0.4-2.2-0.4-3.3V99.2h10.2V134.5z"/>
					<path class="st0" d="M299,112.9h4.8v-8.1h10.2v8.1h9v7.7h-9v12.1c0,1.2,0.3,2.2,0.8,2.9c0.5,0.7,1.5,1,2.9,1
						c0.8,0,1.5-0.1,2.3-0.2c0.8-0.1,1.5-0.3,2.3-0.5l0.7,7.1c-1,0.5-2.3,0.8-3.7,1.1c-1.5,0.3-3,0.4-4.4,0.4c-2,0-3.7-0.3-5-0.9
						c-1.4-0.6-2.5-1.4-3.4-2.5c-0.9-1-1.5-2.3-1.9-3.7c-0.4-1.4-0.6-2.9-0.6-4.5v-12.4H299V112.9z"/>
					<path class="st0" d="M345.1,141c-1,1-2.3,1.8-4,2.6c-1.7,0.7-3.5,1.1-5.5,1.1c-1.4,0-2.6-0.2-3.7-0.7c-1.1-0.5-2-1.1-2.8-1.9
						c-0.7-0.8-1.3-1.7-1.7-2.8c-0.4-1.1-0.6-2.2-0.6-3.5c0-2.9,0.9-5,2.7-6.5c1.8-1.5,4.4-2.3,7.7-2.6c1.2-0.1,2.5-0.1,3.9-0.2
						c1.4,0,2.6-0.1,3.7-0.1v-1c0-3.4-1.9-5.1-5.7-5.1c-1.5,0-2.9,0.2-4.3,0.5c-1.4,0.3-2.6,0.8-3.8,1.4l-1.8-7
						c1.5-0.8,3.2-1.5,5.2-2.1c2-0.5,4.2-0.8,6.6-0.8c4.4,0,7.8,1.1,10.2,3.4c2.5,2.3,3.7,5.7,3.7,10.2V144h-9.8V141z M339.6,138
						c1,0,1.9-0.1,2.8-0.4c0.9-0.3,1.7-0.6,2.4-1V132c-1,0.1-1.9,0.2-2.7,0.3c-0.8,0.1-1.6,0.2-2.4,0.3c-2.1,0.3-3.1,1.2-3.1,2.9
						c0,0.8,0.3,1.4,0.8,1.8C337.9,137.8,338.6,138,339.6,138z"/>
					<path class="st0" d="M391.6,144h-9.7v-3.9c-1,1.4-2.2,2.5-3.8,3.3c-1.5,0.8-3.4,1.2-5.6,1.2c-1.7,0-3.4-0.4-4.9-1.1
						s-2.8-1.8-4-3.2c-1.1-1.4-2-3-2.6-5c-0.6-1.9-1-4.1-1-6.5c0-2.7,0.4-5.1,1.3-7.2c0.9-2.1,2-3.8,3.5-5.2s3.2-2.4,5.1-3.1
						c1.9-0.7,4-1,6.2-1c1.1,0,2.1,0.1,2.9,0.2c0.8,0.1,1.6,0.3,2.3,0.5V99.2h10.2V144z M376.2,136.9c2.2,0,3.9-0.7,5.2-2.2v-14.3
						c-0.9-0.3-2.1-0.5-3.6-0.5c-2.5,0-4.4,0.8-5.7,2.4c-1.2,1.6-1.9,3.7-1.9,6.4c0,2.4,0.5,4.4,1.4,5.9S374.1,136.9,376.2,136.9z"
						/>
					<path class="st0" d="M430.2,128.5c0,2.3-0.4,4.4-1.1,6.4c-0.7,2-1.8,3.7-3.2,5.1c-1.4,1.5-3.1,2.6-5.2,3.4
						c-2.1,0.8-4.4,1.2-7.1,1.2c-2.7,0-5-0.4-7.1-1.2c-2.1-0.8-3.8-2-5.2-3.4c-1.4-1.5-2.5-3.2-3.2-5.1c-0.7-2-1.1-4.1-1.1-6.4
						c0-2.3,0.4-4.4,1.1-6.4c0.7-2,1.8-3.7,3.2-5.1c1.4-1.5,3.1-2.6,5.2-3.4c2.1-0.8,4.4-1.2,7.1-1.2c2.7,0,5,0.4,7.1,1.2
						c2.1,0.8,3.8,2,5.2,3.4c1.4,1.5,2.5,3.2,3.2,5.1C429.8,124,430.2,126.2,430.2,128.5z M420,128.5c0-1.1-0.1-2.2-0.3-3.2
						c-0.2-1-0.6-2-1-2.8c-0.5-0.8-1.1-1.5-2-2c-0.8-0.5-1.9-0.7-3.1-0.7c-1.2,0-2.3,0.2-3.1,0.7c-0.8,0.5-1.5,1.1-2,2
						c-0.5,0.8-0.8,1.8-1,2.8c-0.2,1-0.3,2.1-0.3,3.2c0,1.1,0.1,2.2,0.3,3.2c0.2,1,0.6,2,1,2.8c0.5,0.8,1.1,1.5,2,2
						c0.8,0.5,1.9,0.7,3.1,0.7c1.2,0,2.3-0.2,3.1-0.7c0.8-0.5,1.5-1.1,2-2c0.5-0.8,0.8-1.8,1-2.8C419.9,130.6,420,129.6,420,128.5z"
						/>
					<path class="st0" d="M457.8,133.9c0,1.7-0.3,3.3-1,4.6c-0.7,1.4-1.6,2.5-2.8,3.4c-1.2,0.9-2.6,1.6-4.3,2.1s-3.5,0.7-5.5,0.7
						c-1.7,0-3.5-0.2-5.3-0.5c-1.9-0.3-3.6-0.8-5.1-1.4l1.4-7c1.3,0.6,2.8,1,4.4,1.2c1.6,0.3,3,0.4,4.2,0.4c1.2,0,2.3-0.2,3.2-0.5
						c0.9-0.4,1.4-1,1.4-1.8c0-0.8-0.4-1.3-1.2-1.6c-0.8-0.3-2-0.8-3.6-1.4c-1.3-0.5-2.5-1-3.7-1.6s-2.1-1.2-3-2
						c-0.8-0.8-1.5-1.7-1.9-2.7c-0.5-1-0.7-2.2-0.7-3.6c0-3.4,1.1-5.9,3.4-7.5s5.3-2.4,9-2.4c1.9,0,3.7,0.2,5.3,0.5
						c1.6,0.4,3.2,1,4.6,1.8l-1.4,6.7c-1.1-0.5-2.4-0.9-3.6-1.2c-1.3-0.3-2.6-0.5-4-0.5c-1.2,0-2.2,0.1-2.8,0.3
						c-0.7,0.2-1,0.7-1,1.4c0,0.7,0.4,1.2,1.2,1.6c0.8,0.3,1.8,0.7,3,1.2c0.9,0.3,2,0.8,3.1,1.2c1.1,0.5,2.2,1.1,3.2,1.9
						c1,0.8,1.8,1.7,2.5,2.8C457.5,131,457.8,132.3,457.8,133.9z"/>
				</g>
			</g>
		</g>
	</g>
</g>
</svg>
