<?xml version="1.0" encoding="utf-8"?>
<!-- Generator: Adobe Illustrator 23.0.4, SVG Export Plug-In . SVG Version: 6.00 Build 0)  -->
<svg version="1.1" id="Layer_1" xmlns="http://www.w3.org/2000/svg" xmlns:xlink="http://www.w3.org/1999/xlink" x="0px" y="0px"
	 viewBox="0 0 1024 250" style="enable-background:new 0 0 1024 250;" xml:space="preserve">
<style type="text/css">
	.st0{fill:#008F30;}
	.st1{fill:#FFFFFF;}
	.st2{fill:#292B2E;}
	.st3{enable-background:new    ;}
</style>
<g>
	<g>
		<g>
			<rect class="st0" width="1024" height="248"/>
		</g>
		<g>
			<path class="st1" d="M0,249.9v0.1h1024V11.6C1008.9,9,511.8-74.9,0,249.9z"/>
		</g>
	</g>
	<g>
		<g>
			<g>
				<path class="st2" d="M393.2,175.4H132.9c-27.8,0-50.4-22.5-50.4-50.4l0,0c0-27.8,22.5-50.4,50.4-50.4h260.3
					c27.8,0,50.4,22.5,50.4,50.4l0,0C443.5,152.8,421,175.4,393.2,175.4z"/>
			</g>
			<g>
				<g class="st3">
					<path class="st1" d="M178,115.5c0,2.2-0.5,4.3-1.5,6c-1,1.8-2.3,3.3-4,4.5s-3.7,2.1-6.1,2.8c-2.3,0.6-4.8,1-7.6,1h-1.1V144
						h-10.4v-42.3h12.2c2.7,0,5.1,0.3,7.4,0.8c2.3,0.6,4.2,1.4,5.8,2.5s2.9,2.6,3.8,4.3C177.6,111.1,178,113.1,178,115.5z
						 M168,115.6c0-3.9-2.8-5.8-8.3-5.8h-1.8v12h1.7c2.8,0,4.8-0.5,6.3-1.7C167.3,119,168,117.5,168,115.6z"/>
					<path class="st1" d="M202.5,121.7h-1.2c-4,0-6.9,1-8.5,3V144h-10.2v-31.1h9.8v5.2c0.6-1.7,1.5-3,2.7-4s2.8-1.5,4.8-1.5
						c0.6,0,1.1,0,1.5,0.1s0.8,0.2,1.2,0.3L202.5,121.7z"/>
					<path class="st1" d="M220.4,112.3c4.1,0,7.3,1.2,9.7,3.6s3.6,5.7,3.6,9.9c0,1.6-0.2,3.3-0.6,5.1h-18c0.1,1.9,0.7,3.4,1.9,4.6
						c1.2,1.2,3.1,1.7,5.6,1.7c1.5,0,3.1-0.1,4.8-0.4c1.7-0.3,3.1-0.7,4.4-1.2l1.3,6.5c-1.6,0.8-3.4,1.4-5.4,1.8
						c-2,0.4-4.1,0.6-6.3,0.6c-2.7,0-5.1-0.4-7.2-1.2c-2.1-0.8-3.8-1.9-5.2-3.3c-1.4-1.4-2.5-3.1-3.2-5s-1.1-4.1-1.1-6.5
						c0-2.5,0.4-4.8,1.1-6.9c0.7-2,1.8-3.8,3.2-5.2c1.4-1.4,3-2.5,5-3.3C215.8,112.6,218,112.3,220.4,112.3z M214.8,108.5l4.6-10.7
						h11.1l-7.4,10.7H214.8z M220.1,118.7c-1.6,0-2.8,0.5-3.7,1.6c-0.9,1-1.3,2.5-1.3,4.3h9c0.1-0.3,0.1-0.7,0.1-1.1
						c0-1.4-0.4-2.5-1.1-3.4S221.4,118.7,220.1,118.7z"/>
					<path class="st1" d="M273.5,120.3c-1.1,0-2.1,0.3-2.9,0.8s-1.6,1.1-2.2,1.8c0.2,0.7,0.3,1.5,0.3,2.5c0.1,0.9,0.1,1.8,0.1,2.7
						V144h-10.2v-16.3c0-2.6-0.3-4.5-1-5.7s-1.8-1.8-3.5-1.8c-1.1,0-2,0.2-2.8,0.7s-1.4,1-1.9,1.7V144h-10.2v-31.1h9.8v4.1
						c1-1.7,2.3-2.9,3.8-3.6c1.6-0.7,3.2-1.1,4.9-1.1c2,0,3.7,0.4,5,1.2c1.3,0.8,2.6,2.2,3.8,4c2.2-3.5,5.7-5.3,10.4-5.3
						c2,0,3.7,0.4,5.1,1.3s2.5,2,3.4,3.5c0.9,1.4,1.5,3.1,1.9,5s0.6,3.9,0.6,5.9V144h-10.2v-16.3c0-2.6-0.3-4.5-1-5.7
						C276.3,120.9,275.1,120.3,273.5,120.3z"/>
					<path class="st1" d="M294.6,103.8c0-1.6,0.5-3,1.6-4.1s2.4-1.7,4.1-1.7s3.1,0.6,4.1,1.7c1.1,1.1,1.6,2.5,1.6,4.1
						s-0.5,3-1.6,4.1s-2.4,1.7-4.1,1.7s-3.1-0.5-4.1-1.7C295.2,106.8,294.6,105.4,294.6,103.8z M295.3,144v-31.1h10.2V144H295.3z"/>
					<path class="st1" d="M344,128.5c0,2.3-0.4,4.4-1.1,6.4s-1.8,3.7-3.2,5.1c-1.4,1.5-3.1,2.6-5.2,3.4c-2.1,0.8-4.4,1.2-7.1,1.2
						s-5-0.4-7.1-1.2s-3.8-2-5.2-3.4c-1.4-1.5-2.5-3.2-3.2-5.1c-0.7-2-1.1-4.1-1.1-6.4c0-2.3,0.4-4.4,1.1-6.4s1.8-3.7,3.2-5.1
						c1.4-1.5,3.1-2.6,5.2-3.4s4.4-1.2,7.1-1.2s5,0.4,7.1,1.2c2.1,0.8,3.8,2,5.2,3.4c1.4,1.5,2.5,3.2,3.2,5.1
						C343.7,124,344,126.2,344,128.5z M333.9,128.5c0-1.1-0.1-2.2-0.3-3.2c-0.2-1-0.6-2-1-2.8c-0.5-0.8-1.1-1.5-2-2
						c-0.8-0.5-1.9-0.7-3.1-0.7s-2.3,0.2-3.1,0.7c-0.8,0.5-1.5,1.1-2,2c-0.5,0.8-0.8,1.8-1,2.8s-0.3,2.1-0.3,3.2
						c0,1.1,0.1,2.2,0.3,3.2c0.2,1,0.6,2,1,2.8c0.5,0.8,1.1,1.5,2,2c0.8,0.5,1.9,0.7,3.1,0.7s2.3-0.2,3.1-0.7c0.8-0.5,1.5-1.1,2-2
						c0.5-0.8,0.8-1.8,1-2.8C333.8,130.6,333.9,129.6,333.9,128.5z"/>
					<path class="st1" d="M371.7,133.9c0,1.7-0.3,3.3-1,4.6c-0.7,1.4-1.6,2.5-2.8,3.4c-1.2,0.9-2.6,1.6-4.3,2.1s-3.5,0.7-5.5,0.7
						c-1.7,0-3.5-0.2-5.3-0.5c-1.9-0.3-3.6-0.8-5.1-1.4l1.4-7c1.3,0.6,2.8,1,4.4,1.2c1.6,0.3,3,0.4,4.2,0.4s2.3-0.2,3.2-0.5
						c0.9-0.4,1.4-1,1.4-1.8s-0.4-1.3-1.2-1.6c-0.8-0.3-2-0.8-3.6-1.4c-1.3-0.5-2.5-1-3.7-1.6s-2.1-1.2-3-2
						c-0.8-0.8-1.5-1.7-1.9-2.7c-0.5-1-0.7-2.2-0.7-3.6c0-3.4,1.1-5.9,3.4-7.5s5.3-2.4,9-2.4c1.9,0,3.7,0.2,5.3,0.5
						c1.6,0.4,3.2,1,4.6,1.8l-1.4,6.7c-1.1-0.5-2.4-0.9-3.6-1.2c-1.3-0.3-2.6-0.5-4-0.5c-1.2,0-2.2,0.1-2.8,0.3
						c-0.7,0.2-1,0.7-1,1.4c0,0.7,0.4,1.2,1.2,1.6c0.8,0.3,1.8,0.7,3,1.2c0.9,0.3,2,0.8,3.1,1.2c1.1,0.5,2.2,1.1,3.2,1.9
						s1.8,1.7,2.5,2.8C371.3,131,371.7,132.3,371.7,133.9z"/>
				</g>
			</g>
		</g>
	</g>
</g>
</svg>
