<?xml version="1.0" encoding="utf-8"?>
<!-- Generator: Adobe Illustrator 23.0.4, SVG Export Plug-In . SVG Version: 6.00 Build 0)  -->
<svg version="1.1" id="Layer_1" xmlns="http://www.w3.org/2000/svg" xmlns:xlink="http://www.w3.org/1999/xlink" x="0px" y="0px"
	 viewBox="0 0 1024 250" style="enable-background:new 0 0 1024 250;" xml:space="preserve">
<style type="text/css">
	.st0{fill:#FFFFFF;}
	.st1{fill:#008F30;}
	.st2{fill:#007561;}
	.st3{fill:#149280;}
	.st4{fill:#7BC6D8;}
	.st5{fill:#9ED3E5;}
	.st6{opacity:0.49;enable-background:new    ;}
	.st7{clip-path:url(#SVGID_2_);fill:#C5C6C8;}
	.st8{clip-path:url(#SVGID_4_);fill:#C5C6C8;}
	.st9{clip-path:url(#SVGID_6_);fill:#C6C7C9;}
	.st10{clip-path:url(#SVGID_8_);fill:#C7C8CA;}
	.st11{clip-path:url(#SVGID_10_);fill:#C8C9CB;}
	.st12{clip-path:url(#SVGID_12_);fill:#C9CACC;}
	.st13{clip-path:url(#SVGID_14_);fill:#CACBCD;}
	.st14{clip-path:url(#SVGID_16_);fill:#CBCCCE;}
	.st15{clip-path:url(#SVGID_18_);fill:#CCCDCF;}
	.st16{clip-path:url(#SVGID_20_);fill:#CDCED0;}
	.st17{clip-path:url(#SVGID_22_);fill:#CECFD1;}
	.st18{clip-path:url(#SVGID_24_);fill:#CFD0D2;}
	.st19{clip-path:url(#SVGID_26_);fill:#D0D1D3;}
	.st20{clip-path:url(#SVGID_28_);fill:#D1D2D4;}
	.st21{clip-path:url(#SVGID_30_);fill:#D2D3D5;}
	.st22{clip-path:url(#SVGID_32_);fill:#D3D4D6;}
	.st23{clip-path:url(#SVGID_34_);fill:#D4D5D6;}
	.st24{clip-path:url(#SVGID_36_);fill:#D5D6D7;}
	.st25{clip-path:url(#SVGID_38_);fill:#D6D7D8;}
	.st26{clip-path:url(#SVGID_40_);fill:#D7D8D9;}
	.st27{clip-path:url(#SVGID_42_);fill:#D8D9DA;}
	.st28{clip-path:url(#SVGID_44_);fill:#D9DADB;}
	.st29{clip-path:url(#SVGID_46_);fill:#DADBDC;}
	.st30{clip-path:url(#SVGID_48_);fill:#DBDCDD;}
	.st31{clip-path:url(#SVGID_50_);fill:#DCDDDE;}
	.st32{clip-path:url(#SVGID_52_);fill:#DDDEDF;}
	.st33{clip-path:url(#SVGID_54_);fill:#DEDFE0;}
	.st34{clip-path:url(#SVGID_56_);fill:#DFE0E1;}
	.st35{clip-path:url(#SVGID_58_);fill:#E0E1E2;}
	.st36{clip-path:url(#SVGID_60_);fill:#E1E2E3;}
	.st37{clip-path:url(#SVGID_62_);fill:#E3E3E4;}
	.st38{clip-path:url(#SVGID_64_);fill:#E4E4E5;}
	.st39{clip-path:url(#SVGID_66_);fill:#E5E5E6;}
	.st40{clip-path:url(#SVGID_68_);fill:#E6E6E7;}
	.st41{clip-path:url(#SVGID_70_);fill:#E7E7E8;}
	.st42{clip-path:url(#SVGID_72_);fill:#E8E8E9;}
	.st43{clip-path:url(#SVGID_74_);fill:#E9E9EA;}
	.st44{clip-path:url(#SVGID_76_);fill:#EAEAEB;}
	.st45{clip-path:url(#SVGID_78_);fill:#EBEBEC;}
	.st46{clip-path:url(#SVGID_80_);fill:#ECECED;}
	.st47{clip-path:url(#SVGID_82_);fill:#EDEDEE;}
	.st48{clip-path:url(#SVGID_84_);fill:#EEEEEF;}
	.st49{clip-path:url(#SVGID_86_);fill:#EFEFF0;}
	.st50{clip-path:url(#SVGID_88_);fill:#F0F0F1;}
	.st51{clip-path:url(#SVGID_90_);fill:#F1F1F1;}
	.st52{clip-path:url(#SVGID_92_);fill:#F2F2F2;}
	.st53{clip-path:url(#SVGID_94_);fill:#F3F3F3;}
	.st54{clip-path:url(#SVGID_96_);fill:#F4F4F4;}
	.st55{clip-path:url(#SVGID_98_);fill:#F5F5F5;}
	.st56{clip-path:url(#SVGID_100_);fill:#F6F6F6;}
	.st57{clip-path:url(#SVGID_102_);fill:#F7F7F7;}
	.st58{clip-path:url(#SVGID_104_);fill:#F8F8F8;}
	.st59{clip-path:url(#SVGID_106_);fill:#F9F9F9;}
	.st60{clip-path:url(#SVGID_108_);fill:#FAFAFA;}
	.st61{clip-path:url(#SVGID_110_);fill:#FBFBFB;}
	.st62{clip-path:url(#SVGID_112_);fill:#FCFCFC;}
	.st63{clip-path:url(#SVGID_114_);fill:#FDFDFD;}
	.st64{clip-path:url(#SVGID_116_);fill:#FEFEFE;}
	.st65{clip-path:url(#SVGID_118_);fill:#FFFFFF;}
	.st66{clip-path:url(#SVGID_120_);fill:#FFFFFF;}
	.st67{fill:#CCCCCC;}
	.st68{fill:#A23911;}
	.st69{fill:#BC450C;}
	.st70{fill:#0D6122;}
	.st71{fill:#057029;}
	.st72{fill:#E6621A;}
	.st73{fill:#24201A;}
	.st74{fill-rule:evenodd;clip-rule:evenodd;fill:#169B38;}
	.st75{fill-rule:evenodd;clip-rule:evenodd;fill:#189C3F;}
	.st76{fill:#005B21;}
	.st77{fill:#189C3F;}
	.st78{fill:#292B2E;}
	.st79{enable-background:new    ;}
</style>
<g>
	<g>
		<g>
			<rect class="st0" width="1024" height="248"/>
		</g>
		<g>
			<path class="st1" d="M0,249.9v0.1h1024V11.6C1008.9,9,511.8-74.9,0,249.9z"/>
		</g>
	</g>
	<g>
		<g>
			<g id="_x32__1_">
				<g>
					<g>
						<g>
							<rect x="357.2" y="79.6" class="st2" width="131.2" height="71.5"/>
						</g>
						<g>
							<rect x="359.3" y="79.6" class="st0" width="126.7" height="71.5"/>
						</g>
						<g>
							<g>
								<g>
									<rect x="363.5" y="104.7" class="st3" width="39.7" height="41.1"/>
								</g>
								<g>
									<g>
										<polygon class="st4" points="400.2,108.6 370.6,108.6 400.2,126.8 										"/>
									</g>
									<g>
										<polygon class="st4" points="400.2,135 366.4,112.6 366.4,107.5 400.2,141.3 										"/>
									</g>
									<g>
										<polygon class="st5" points="400.2,141.8 400.2,141.3 366.4,107.5 366.4,110.5 397.8,141.8 										"/>
									</g>
									<g>
										<polygon class="st4" points="397.8,141.8 366.4,110.5 366.4,141.8 										"/>
									</g>
									<g>
										<polygon class="st5" points="400.2,126.8 370.6,108.6 366.4,108.6 366.4,112.6 400.2,135 										"/>
									</g>
								</g>
							</g>
						</g>
						<g>
							<g>
								<g>
									<rect x="443.3" y="104.7" class="st3" width="39.7" height="41.1"/>
								</g>
								<g>
									<g>
										<polygon class="st4" points="480,108.6 450.4,108.6 480,126.8 										"/>
									</g>
									<g>
										<polygon class="st4" points="480,135 446.2,112.6 446.2,107.5 480,141.3 										"/>
									</g>
									<g>
										<polygon class="st5" points="480,141.8 480,141.3 446.2,107.5 446.2,110.5 477.6,141.8 										"/>
									</g>
									<g>
										<polygon class="st4" points="477.6,141.8 446.2,110.5 446.2,141.8 										"/>
									</g>
									<g>
										<polygon class="st5" points="480,126.8 450.4,108.6 446.2,108.6 446.2,112.6 480,135 										"/>
									</g>
								</g>
							</g>
						</g>
						<g>
							<rect x="352.1" y="151.2" class="st2" width="141.3" height="6"/>
						</g>
						<g>
							<g>
								<rect x="405.8" y="103.4" class="st3" width="32.1" height="47"/>
							</g>
							<g>
								<g>
									<polygon class="st4" points="434.9,107.9 413.8,107.9 434.9,117.6 									"/>
								</g>
								<g>
									<polygon class="st5" points="434.9,117.6 413.8,107.9 408.8,107.9 408.8,108.5 434.9,123.2 									"/>
								</g>
								<g>
									<polygon class="st4" points="434.9,123.2 408.8,108.5 408.8,115.6 427.5,134.3 434.9,134.3 									"/>
								</g>
								<g>
									<polygon class="st5" points="427.5,134.3 408.8,115.6 408.8,134.3 									"/>
								</g>
							</g>
						</g>
						<g class="st6">
							<g>
								<g>
									<defs>
										<polygon id="SVGID_1_" points="357.2,114.2 405.5,151.2 411.5,157.2 493.4,157.2 493.4,151.2 488.4,151.2 488.4,107.9 
											357.2,107.9 										"/>
									</defs>
									<clipPath id="SVGID_2_">
										<use xlink:href="#SVGID_1_"  style="overflow:visible;"/>
									</clipPath>
									<path class="st7" d="M357.2,107.9v49.3V107.9z"/>
								</g>
								<g>
									<defs>
										<polygon id="SVGID_3_" points="357.2,114.2 405.5,151.2 411.5,157.2 493.4,157.2 493.4,151.2 488.4,151.2 488.4,107.9 
											357.2,107.9 										"/>
									</defs>
									<clipPath id="SVGID_4_">
										<use xlink:href="#SVGID_3_"  style="overflow:visible;"/>
									</clipPath>
									<rect x="357.2" y="107.9" class="st8" width="2.3" height="49.3"/>
								</g>
								<g>
									<defs>
										<polygon id="SVGID_5_" points="357.2,114.2 405.5,151.2 411.5,157.2 493.4,157.2 493.4,151.2 488.4,151.2 488.4,107.9 
											357.2,107.9 										"/>
									</defs>
									<clipPath id="SVGID_6_">
										<use xlink:href="#SVGID_5_"  style="overflow:visible;"/>
									</clipPath>
									<rect x="359.5" y="107.9" class="st9" width="2.3" height="49.3"/>
								</g>
								<g>
									<defs>
										<polygon id="SVGID_7_" points="357.2,114.2 405.5,151.2 411.5,157.2 493.4,157.2 493.4,151.2 488.4,151.2 488.4,107.9 
											357.2,107.9 										"/>
									</defs>
									<clipPath id="SVGID_8_">
										<use xlink:href="#SVGID_7_"  style="overflow:visible;"/>
									</clipPath>
									<rect x="361.9" y="107.9" class="st10" width="2.3" height="49.3"/>
								</g>
								<g>
									<defs>
										<polygon id="SVGID_9_" points="357.2,114.2 405.5,151.2 411.5,157.2 493.4,157.2 493.4,151.2 488.4,151.2 488.4,107.9 
											357.2,107.9 										"/>
									</defs>
									<clipPath id="SVGID_10_">
										<use xlink:href="#SVGID_9_"  style="overflow:visible;"/>
									</clipPath>
									<rect x="364.2" y="107.9" class="st11" width="2.3" height="49.3"/>
								</g>
								<g>
									<defs>
										<polygon id="SVGID_11_" points="357.2,114.2 405.5,151.2 411.5,157.2 493.4,157.2 493.4,151.2 488.4,151.2 488.4,107.9 
											357.2,107.9 										"/>
									</defs>
									<clipPath id="SVGID_12_">
										<use xlink:href="#SVGID_11_"  style="overflow:visible;"/>
									</clipPath>
									<rect x="366.6" y="107.9" class="st12" width="2.3" height="49.3"/>
								</g>
								<g>
									<defs>
										<polygon id="SVGID_13_" points="357.2,114.2 405.5,151.2 411.5,157.2 493.4,157.2 493.4,151.2 488.4,151.2 488.4,107.9 
											357.2,107.9 										"/>
									</defs>
									<clipPath id="SVGID_14_">
										<use xlink:href="#SVGID_13_"  style="overflow:visible;"/>
									</clipPath>
									<rect x="368.9" y="107.9" class="st13" width="2.3" height="49.3"/>
								</g>
								<g>
									<defs>
										<polygon id="SVGID_15_" points="357.2,114.2 405.5,151.2 411.5,157.2 493.4,157.2 493.4,151.2 488.4,151.2 488.4,107.9 
											357.2,107.9 										"/>
									</defs>
									<clipPath id="SVGID_16_">
										<use xlink:href="#SVGID_15_"  style="overflow:visible;"/>
									</clipPath>
									<rect x="371.3" y="107.9" class="st14" width="2.3" height="49.3"/>
								</g>
								<g>
									<defs>
										<polygon id="SVGID_17_" points="357.2,114.2 405.5,151.2 411.5,157.2 493.4,157.2 493.4,151.2 488.4,151.2 488.4,107.9 
											357.2,107.9 										"/>
									</defs>
									<clipPath id="SVGID_18_">
										<use xlink:href="#SVGID_17_"  style="overflow:visible;"/>
									</clipPath>
									<rect x="373.6" y="107.9" class="st15" width="2.3" height="49.3"/>
								</g>
								<g>
									<defs>
										<polygon id="SVGID_19_" points="357.2,114.2 405.5,151.2 411.5,157.2 493.4,157.2 493.4,151.2 488.4,151.2 488.4,107.9 
											357.2,107.9 										"/>
									</defs>
									<clipPath id="SVGID_20_">
										<use xlink:href="#SVGID_19_"  style="overflow:visible;"/>
									</clipPath>
									<rect x="376" y="107.9" class="st16" width="2.3" height="49.3"/>
								</g>
								<g>
									<defs>
										<polygon id="SVGID_21_" points="357.2,114.2 405.5,151.2 411.5,157.2 493.4,157.2 493.4,151.2 488.4,151.2 488.4,107.9 
											357.2,107.9 										"/>
									</defs>
									<clipPath id="SVGID_22_">
										<use xlink:href="#SVGID_21_"  style="overflow:visible;"/>
									</clipPath>
									<rect x="378.3" y="107.9" class="st17" width="2.3" height="49.3"/>
								</g>
								<g>
									<defs>
										<polygon id="SVGID_23_" points="357.2,114.2 405.5,151.2 411.5,157.2 493.4,157.2 493.4,151.2 488.4,151.2 488.4,107.9 
											357.2,107.9 										"/>
									</defs>
									<clipPath id="SVGID_24_">
										<use xlink:href="#SVGID_23_"  style="overflow:visible;"/>
									</clipPath>
									<rect x="380.7" y="107.9" class="st18" width="2.3" height="49.3"/>
								</g>
								<g>
									<defs>
										<polygon id="SVGID_25_" points="357.2,114.2 405.5,151.2 411.5,157.2 493.4,157.2 493.4,151.2 488.4,151.2 488.4,107.9 
											357.2,107.9 										"/>
									</defs>
									<clipPath id="SVGID_26_">
										<use xlink:href="#SVGID_25_"  style="overflow:visible;"/>
									</clipPath>
									<rect x="383" y="107.9" class="st19" width="2.3" height="49.3"/>
								</g>
								<g>
									<defs>
										<polygon id="SVGID_27_" points="357.2,114.2 405.5,151.2 411.5,157.2 493.4,157.2 493.4,151.2 488.4,151.2 488.4,107.9 
											357.2,107.9 										"/>
									</defs>
									<clipPath id="SVGID_28_">
										<use xlink:href="#SVGID_27_"  style="overflow:visible;"/>
									</clipPath>
									<rect x="385.4" y="107.9" class="st20" width="2.3" height="49.3"/>
								</g>
								<g>
									<defs>
										<polygon id="SVGID_29_" points="357.2,114.2 405.5,151.2 411.5,157.2 493.4,157.2 493.4,151.2 488.4,151.2 488.4,107.9 
											357.2,107.9 										"/>
									</defs>
									<clipPath id="SVGID_30_">
										<use xlink:href="#SVGID_29_"  style="overflow:visible;"/>
									</clipPath>
									<rect x="387.7" y="107.9" class="st21" width="2.3" height="49.3"/>
								</g>
								<g>
									<defs>
										<polygon id="SVGID_31_" points="357.2,114.2 405.5,151.2 411.5,157.2 493.4,157.2 493.4,151.2 488.4,151.2 488.4,107.9 
											357.2,107.9 										"/>
									</defs>
									<clipPath id="SVGID_32_">
										<use xlink:href="#SVGID_31_"  style="overflow:visible;"/>
									</clipPath>
									<rect x="390.1" y="107.9" class="st22" width="2.3" height="49.3"/>
								</g>
								<g>
									<defs>
										<polygon id="SVGID_33_" points="357.2,114.2 405.5,151.2 411.5,157.2 493.4,157.2 493.4,151.2 488.4,151.2 488.4,107.9 
											357.2,107.9 										"/>
									</defs>
									<clipPath id="SVGID_34_">
										<use xlink:href="#SVGID_33_"  style="overflow:visible;"/>
									</clipPath>
									<rect x="392.4" y="107.9" class="st23" width="2.3" height="49.3"/>
								</g>
								<g>
									<defs>
										<polygon id="SVGID_35_" points="357.2,114.2 405.5,151.2 411.5,157.2 493.4,157.2 493.4,151.2 488.4,151.2 488.4,107.9 
											357.2,107.9 										"/>
									</defs>
									<clipPath id="SVGID_36_">
										<use xlink:href="#SVGID_35_"  style="overflow:visible;"/>
									</clipPath>
									<rect x="394.8" y="107.9" class="st24" width="2.3" height="49.3"/>
								</g>
								<g>
									<defs>
										<polygon id="SVGID_37_" points="357.2,114.2 405.5,151.2 411.5,157.2 493.4,157.2 493.4,151.2 488.4,151.2 488.4,107.9 
											357.2,107.9 										"/>
									</defs>
									<clipPath id="SVGID_38_">
										<use xlink:href="#SVGID_37_"  style="overflow:visible;"/>
									</clipPath>
									<rect x="397.1" y="107.9" class="st25" width="2.3" height="49.3"/>
								</g>
								<g>
									<defs>
										<polygon id="SVGID_39_" points="357.2,114.2 405.5,151.2 411.5,157.2 493.4,157.2 493.4,151.2 488.4,151.2 488.4,107.9 
											357.2,107.9 										"/>
									</defs>
									<clipPath id="SVGID_40_">
										<use xlink:href="#SVGID_39_"  style="overflow:visible;"/>
									</clipPath>
									<rect x="399.5" y="107.9" class="st26" width="2.3" height="49.3"/>
								</g>
								<g>
									<defs>
										<polygon id="SVGID_41_" points="357.2,114.2 405.5,151.2 411.5,157.2 493.4,157.2 493.4,151.2 488.4,151.2 488.4,107.9 
											357.2,107.9 										"/>
									</defs>
									<clipPath id="SVGID_42_">
										<use xlink:href="#SVGID_41_"  style="overflow:visible;"/>
									</clipPath>
									<rect x="401.8" y="107.9" class="st27" width="2.3" height="49.3"/>
								</g>
								<g>
									<defs>
										<polygon id="SVGID_43_" points="357.2,114.2 405.5,151.2 411.5,157.2 493.4,157.2 493.4,151.2 488.4,151.2 488.4,107.9 
											357.2,107.9 										"/>
									</defs>
									<clipPath id="SVGID_44_">
										<use xlink:href="#SVGID_43_"  style="overflow:visible;"/>
									</clipPath>
									<rect x="404.2" y="107.9" class="st28" width="2.3" height="49.3"/>
								</g>
								<g>
									<defs>
										<polygon id="SVGID_45_" points="357.2,114.2 405.5,151.2 411.5,157.2 493.4,157.2 493.4,151.2 488.4,151.2 488.4,107.9 
											357.2,107.9 										"/>
									</defs>
									<clipPath id="SVGID_46_">
										<use xlink:href="#SVGID_45_"  style="overflow:visible;"/>
									</clipPath>
									<rect x="406.5" y="107.9" class="st29" width="2.3" height="49.3"/>
								</g>
								<g>
									<defs>
										<polygon id="SVGID_47_" points="357.2,114.2 405.5,151.2 411.5,157.2 493.4,157.2 493.4,151.2 488.4,151.2 488.4,107.9 
											357.2,107.9 										"/>
									</defs>
									<clipPath id="SVGID_48_">
										<use xlink:href="#SVGID_47_"  style="overflow:visible;"/>
									</clipPath>
									<rect x="408.9" y="107.9" class="st30" width="2.3" height="49.3"/>
								</g>
								<g>
									<defs>
										<polygon id="SVGID_49_" points="357.2,114.2 405.5,151.2 411.5,157.2 493.4,157.2 493.4,151.2 488.4,151.2 488.4,107.9 
											357.2,107.9 										"/>
									</defs>
									<clipPath id="SVGID_50_">
										<use xlink:href="#SVGID_49_"  style="overflow:visible;"/>
									</clipPath>
									<rect x="411.2" y="107.9" class="st31" width="2.3" height="49.3"/>
								</g>
								<g>
									<defs>
										<polygon id="SVGID_51_" points="357.2,114.2 405.5,151.2 411.5,157.2 493.4,157.2 493.4,151.2 488.4,151.2 488.4,107.9 
											357.2,107.9 										"/>
									</defs>
									<clipPath id="SVGID_52_">
										<use xlink:href="#SVGID_51_"  style="overflow:visible;"/>
									</clipPath>
									<rect x="413.6" y="107.9" class="st32" width="2.3" height="49.3"/>
								</g>
								<g>
									<defs>
										<polygon id="SVGID_53_" points="357.2,114.2 405.5,151.2 411.5,157.2 493.4,157.2 493.4,151.2 488.4,151.2 488.4,107.9 
											357.2,107.9 										"/>
									</defs>
									<clipPath id="SVGID_54_">
										<use xlink:href="#SVGID_53_"  style="overflow:visible;"/>
									</clipPath>
									<rect x="415.9" y="107.9" class="st33" width="2.3" height="49.3"/>
								</g>
								<g>
									<defs>
										<polygon id="SVGID_55_" points="357.2,114.2 405.5,151.2 411.5,157.2 493.4,157.2 493.4,151.2 488.4,151.2 488.4,107.9 
											357.2,107.9 										"/>
									</defs>
									<clipPath id="SVGID_56_">
										<use xlink:href="#SVGID_55_"  style="overflow:visible;"/>
									</clipPath>
									<rect x="418.3" y="107.9" class="st34" width="2.3" height="49.3"/>
								</g>
								<g>
									<defs>
										<polygon id="SVGID_57_" points="357.2,114.2 405.5,151.2 411.5,157.2 493.4,157.2 493.4,151.2 488.4,151.2 488.4,107.9 
											357.2,107.9 										"/>
									</defs>
									<clipPath id="SVGID_58_">
										<use xlink:href="#SVGID_57_"  style="overflow:visible;"/>
									</clipPath>
									<rect x="420.6" y="107.9" class="st35" width="2.3" height="49.3"/>
								</g>
								<g>
									<defs>
										<polygon id="SVGID_59_" points="357.2,114.2 405.5,151.2 411.5,157.2 493.4,157.2 493.4,151.2 488.4,151.2 488.4,107.9 
											357.2,107.9 										"/>
									</defs>
									<clipPath id="SVGID_60_">
										<use xlink:href="#SVGID_59_"  style="overflow:visible;"/>
									</clipPath>
									<rect x="423" y="107.9" class="st36" width="2.3" height="49.3"/>
								</g>
								<g>
									<defs>
										<polygon id="SVGID_61_" points="357.2,114.2 405.5,151.2 411.5,157.2 493.4,157.2 493.4,151.2 488.4,151.2 488.4,107.9 
											357.2,107.9 										"/>
									</defs>
									<clipPath id="SVGID_62_">
										<use xlink:href="#SVGID_61_"  style="overflow:visible;"/>
									</clipPath>
									<rect x="425.3" y="107.9" class="st37" width="2.3" height="49.3"/>
								</g>
								<g>
									<defs>
										<polygon id="SVGID_63_" points="357.2,114.2 405.5,151.2 411.5,157.2 493.4,157.2 493.4,151.2 488.4,151.2 488.4,107.9 
											357.2,107.9 										"/>
									</defs>
									<clipPath id="SVGID_64_">
										<use xlink:href="#SVGID_63_"  style="overflow:visible;"/>
									</clipPath>
									<rect x="427.6" y="107.9" class="st38" width="2.3" height="49.3"/>
								</g>
								<g>
									<defs>
										<polygon id="SVGID_65_" points="357.2,114.2 405.5,151.2 411.5,157.2 493.4,157.2 493.4,151.2 488.4,151.2 488.4,107.9 
											357.2,107.9 										"/>
									</defs>
									<clipPath id="SVGID_66_">
										<use xlink:href="#SVGID_65_"  style="overflow:visible;"/>
									</clipPath>
									<rect x="430" y="107.9" class="st39" width="2.3" height="49.3"/>
								</g>
								<g>
									<defs>
										<polygon id="SVGID_67_" points="357.2,114.2 405.5,151.2 411.5,157.2 493.4,157.2 493.4,151.2 488.4,151.2 488.4,107.9 
											357.2,107.9 										"/>
									</defs>
									<clipPath id="SVGID_68_">
										<use xlink:href="#SVGID_67_"  style="overflow:visible;"/>
									</clipPath>
									<rect x="432.3" y="107.9" class="st40" width="2.3" height="49.3"/>
								</g>
								<g>
									<defs>
										<polygon id="SVGID_69_" points="357.2,114.2 405.5,151.2 411.5,157.2 493.4,157.2 493.4,151.2 488.4,151.2 488.4,107.9 
											357.2,107.9 										"/>
									</defs>
									<clipPath id="SVGID_70_">
										<use xlink:href="#SVGID_69_"  style="overflow:visible;"/>
									</clipPath>
									<rect x="434.7" y="107.9" class="st41" width="2.3" height="49.3"/>
								</g>
								<g>
									<defs>
										<polygon id="SVGID_71_" points="357.2,114.2 405.5,151.2 411.5,157.2 493.4,157.2 493.4,151.2 488.4,151.2 488.4,107.9 
											357.2,107.9 										"/>
									</defs>
									<clipPath id="SVGID_72_">
										<use xlink:href="#SVGID_71_"  style="overflow:visible;"/>
									</clipPath>
									<rect x="437" y="107.9" class="st42" width="2.3" height="49.3"/>
								</g>
								<g>
									<defs>
										<polygon id="SVGID_73_" points="357.2,114.2 405.5,151.2 411.5,157.2 493.4,157.2 493.4,151.2 488.4,151.2 488.4,107.9 
											357.2,107.9 										"/>
									</defs>
									<clipPath id="SVGID_74_">
										<use xlink:href="#SVGID_73_"  style="overflow:visible;"/>
									</clipPath>
									<rect x="439.4" y="107.9" class="st43" width="2.3" height="49.3"/>
								</g>
								<g>
									<defs>
										<polygon id="SVGID_75_" points="357.2,114.2 405.5,151.2 411.5,157.2 493.4,157.2 493.4,151.2 488.4,151.2 488.4,107.9 
											357.2,107.9 										"/>
									</defs>
									<clipPath id="SVGID_76_">
										<use xlink:href="#SVGID_75_"  style="overflow:visible;"/>
									</clipPath>
									<rect x="441.7" y="107.9" class="st44" width="2.3" height="49.3"/>
								</g>
								<g>
									<defs>
										<polygon id="SVGID_77_" points="357.2,114.2 405.5,151.2 411.5,157.2 493.4,157.2 493.4,151.2 488.4,151.2 488.4,107.9 
											357.2,107.9 										"/>
									</defs>
									<clipPath id="SVGID_78_">
										<use xlink:href="#SVGID_77_"  style="overflow:visible;"/>
									</clipPath>
									<rect x="444.1" y="107.9" class="st45" width="2.3" height="49.3"/>
								</g>
								<g>
									<defs>
										<polygon id="SVGID_79_" points="357.2,114.2 405.5,151.2 411.5,157.2 493.4,157.2 493.4,151.2 488.4,151.2 488.4,107.9 
											357.2,107.9 										"/>
									</defs>
									<clipPath id="SVGID_80_">
										<use xlink:href="#SVGID_79_"  style="overflow:visible;"/>
									</clipPath>
									<rect x="446.4" y="107.9" class="st46" width="2.3" height="49.3"/>
								</g>
								<g>
									<defs>
										<polygon id="SVGID_81_" points="357.2,114.2 405.5,151.2 411.5,157.2 493.4,157.2 493.4,151.2 488.4,151.2 488.4,107.9 
											357.2,107.9 										"/>
									</defs>
									<clipPath id="SVGID_82_">
										<use xlink:href="#SVGID_81_"  style="overflow:visible;"/>
									</clipPath>
									<rect x="448.8" y="107.9" class="st47" width="2.3" height="49.3"/>
								</g>
								<g>
									<defs>
										<polygon id="SVGID_83_" points="357.2,114.2 405.5,151.2 411.5,157.2 493.4,157.2 493.4,151.2 488.4,151.2 488.4,107.9 
											357.2,107.9 										"/>
									</defs>
									<clipPath id="SVGID_84_">
										<use xlink:href="#SVGID_83_"  style="overflow:visible;"/>
									</clipPath>
									<rect x="451.1" y="107.9" class="st48" width="2.3" height="49.3"/>
								</g>
								<g>
									<defs>
										<polygon id="SVGID_85_" points="357.2,114.2 405.5,151.2 411.5,157.2 493.4,157.2 493.4,151.2 488.4,151.2 488.4,107.9 
											357.2,107.9 										"/>
									</defs>
									<clipPath id="SVGID_86_">
										<use xlink:href="#SVGID_85_"  style="overflow:visible;"/>
									</clipPath>
									<rect x="453.5" y="107.9" class="st49" width="2.3" height="49.3"/>
								</g>
								<g>
									<defs>
										<polygon id="SVGID_87_" points="357.2,114.2 405.5,151.2 411.5,157.2 493.4,157.2 493.4,151.2 488.4,151.2 488.4,107.9 
											357.2,107.9 										"/>
									</defs>
									<clipPath id="SVGID_88_">
										<use xlink:href="#SVGID_87_"  style="overflow:visible;"/>
									</clipPath>
									<rect x="455.8" y="107.9" class="st50" width="2.3" height="49.3"/>
								</g>
								<g>
									<defs>
										<polygon id="SVGID_89_" points="357.2,114.2 405.5,151.2 411.5,157.2 493.4,157.2 493.4,151.2 488.4,151.2 488.4,107.9 
											357.2,107.9 										"/>
									</defs>
									<clipPath id="SVGID_90_">
										<use xlink:href="#SVGID_89_"  style="overflow:visible;"/>
									</clipPath>
									<rect x="458.2" y="107.9" class="st51" width="2.3" height="49.3"/>
								</g>
								<g>
									<defs>
										<polygon id="SVGID_91_" points="357.2,114.2 405.5,151.2 411.5,157.2 493.4,157.2 493.4,151.2 488.4,151.2 488.4,107.9 
											357.2,107.9 										"/>
									</defs>
									<clipPath id="SVGID_92_">
										<use xlink:href="#SVGID_91_"  style="overflow:visible;"/>
									</clipPath>
									<rect x="460.5" y="107.9" class="st52" width="2.3" height="49.3"/>
								</g>
								<g>
									<defs>
										<polygon id="SVGID_93_" points="357.2,114.2 405.5,151.2 411.5,157.2 493.4,157.2 493.4,151.2 488.4,151.2 488.4,107.9 
											357.2,107.9 										"/>
									</defs>
									<clipPath id="SVGID_94_">
										<use xlink:href="#SVGID_93_"  style="overflow:visible;"/>
									</clipPath>
									<rect x="462.9" y="107.9" class="st53" width="2.3" height="49.3"/>
								</g>
								<g>
									<defs>
										<polygon id="SVGID_95_" points="357.2,114.2 405.5,151.2 411.5,157.2 493.4,157.2 493.4,151.2 488.4,151.2 488.4,107.9 
											357.2,107.9 										"/>
									</defs>
									<clipPath id="SVGID_96_">
										<use xlink:href="#SVGID_95_"  style="overflow:visible;"/>
									</clipPath>
									<rect x="465.2" y="107.9" class="st54" width="2.3" height="49.3"/>
								</g>
								<g>
									<defs>
										<polygon id="SVGID_97_" points="357.2,114.2 405.5,151.2 411.5,157.2 493.4,157.2 493.4,151.2 488.4,151.2 488.4,107.9 
											357.2,107.9 										"/>
									</defs>
									<clipPath id="SVGID_98_">
										<use xlink:href="#SVGID_97_"  style="overflow:visible;"/>
									</clipPath>
									<rect x="467.6" y="107.9" class="st55" width="2.3" height="49.3"/>
								</g>
								<g>
									<defs>
										<polygon id="SVGID_99_" points="357.2,114.2 405.5,151.2 411.5,157.2 493.4,157.2 493.4,151.2 488.4,151.2 488.4,107.9 
											357.2,107.9 										"/>
									</defs>
									<clipPath id="SVGID_100_">
										<use xlink:href="#SVGID_99_"  style="overflow:visible;"/>
									</clipPath>
									<rect x="469.9" y="107.9" class="st56" width="2.3" height="49.3"/>
								</g>
								<g>
									<defs>
										<polygon id="SVGID_101_" points="357.2,114.2 405.5,151.2 411.5,157.2 493.4,157.2 493.4,151.2 488.4,151.2 488.4,107.9 
											357.2,107.9 										"/>
									</defs>
									<clipPath id="SVGID_102_">
										<use xlink:href="#SVGID_101_"  style="overflow:visible;"/>
									</clipPath>
									<rect x="472.3" y="107.9" class="st57" width="2.3" height="49.3"/>
								</g>
								<g>
									<defs>
										<polygon id="SVGID_103_" points="357.2,114.2 405.5,151.2 411.5,157.2 493.4,157.2 493.4,151.2 488.4,151.2 488.4,107.9 
											357.2,107.9 										"/>
									</defs>
									<clipPath id="SVGID_104_">
										<use xlink:href="#SVGID_103_"  style="overflow:visible;"/>
									</clipPath>
									<rect x="474.6" y="107.9" class="st58" width="2.3" height="49.3"/>
								</g>
								<g>
									<defs>
										<polygon id="SVGID_105_" points="357.2,114.2 405.5,151.2 411.5,157.2 493.4,157.2 493.4,151.2 488.4,151.2 488.4,107.9 
											357.2,107.9 										"/>
									</defs>
									<clipPath id="SVGID_106_">
										<use xlink:href="#SVGID_105_"  style="overflow:visible;"/>
									</clipPath>
									<rect x="477" y="107.9" class="st59" width="2.3" height="49.3"/>
								</g>
								<g>
									<defs>
										<polygon id="SVGID_107_" points="357.2,114.2 405.5,151.2 411.5,157.2 493.4,157.2 493.4,151.2 488.4,151.2 488.4,107.9 
											357.2,107.9 										"/>
									</defs>
									<clipPath id="SVGID_108_">
										<use xlink:href="#SVGID_107_"  style="overflow:visible;"/>
									</clipPath>
									<rect x="479.3" y="107.9" class="st60" width="2.3" height="49.3"/>
								</g>
								<g>
									<defs>
										<polygon id="SVGID_109_" points="357.2,114.2 405.5,151.2 411.5,157.2 493.4,157.2 493.4,151.2 488.4,151.2 488.4,107.9 
											357.2,107.9 										"/>
									</defs>
									<clipPath id="SVGID_110_">
										<use xlink:href="#SVGID_109_"  style="overflow:visible;"/>
									</clipPath>
									<rect x="481.7" y="107.9" class="st61" width="2.3" height="49.3"/>
								</g>
								<g>
									<defs>
										<polygon id="SVGID_111_" points="357.2,114.2 405.5,151.2 411.5,157.2 493.4,157.2 493.4,151.2 488.4,151.2 488.4,107.9 
											357.2,107.9 										"/>
									</defs>
									<clipPath id="SVGID_112_">
										<use xlink:href="#SVGID_111_"  style="overflow:visible;"/>
									</clipPath>
									<rect x="484" y="107.9" class="st62" width="2.3" height="49.3"/>
								</g>
								<g>
									<defs>
										<polygon id="SVGID_113_" points="357.2,114.2 405.5,151.2 411.5,157.2 493.4,157.2 493.4,151.2 488.4,151.2 488.4,107.9 
											357.2,107.9 										"/>
									</defs>
									<clipPath id="SVGID_114_">
										<use xlink:href="#SVGID_113_"  style="overflow:visible;"/>
									</clipPath>
									<rect x="486.4" y="107.9" class="st63" width="2.3" height="49.3"/>
								</g>
								<g>
									<defs>
										<polygon id="SVGID_115_" points="357.2,114.2 405.5,151.2 411.5,157.2 493.4,157.2 493.4,151.2 488.4,151.2 488.4,107.9 
											357.2,107.9 										"/>
									</defs>
									<clipPath id="SVGID_116_">
										<use xlink:href="#SVGID_115_"  style="overflow:visible;"/>
									</clipPath>
									<rect x="488.7" y="107.9" class="st64" width="2.3" height="49.3"/>
								</g>
								<g>
									<defs>
										<polygon id="SVGID_117_" points="357.2,114.2 405.5,151.2 411.5,157.2 493.4,157.2 493.4,151.2 488.4,151.2 488.4,107.9 
											357.2,107.9 										"/>
									</defs>
									<clipPath id="SVGID_118_">
										<use xlink:href="#SVGID_117_"  style="overflow:visible;"/>
									</clipPath>
									<rect x="491.1" y="107.9" class="st65" width="2.3" height="49.3"/>
								</g>
								<g>
									<defs>
										<polygon id="SVGID_119_" points="357.2,114.2 405.5,151.2 411.5,157.2 493.4,157.2 493.4,151.2 488.4,151.2 488.4,107.9 
											357.2,107.9 										"/>
									</defs>
									<clipPath id="SVGID_120_">
										<use xlink:href="#SVGID_119_"  style="overflow:visible;"/>
									</clipPath>
									<path class="st66" d="M493.4,157.2v-49.3V157.2z"/>
								</g>
							</g>
						</g>
						<g>
							<g>
								<g>
									<polygon class="st1" points="360,82.1 350.1,101.5 361.3,101.5 369.7,82.1 									"/>
								</g>
								<g>
									<polygon class="st0" points="369.7,82.1 361.3,101.5 372.5,101.5 379.3,82.1 									"/>
								</g>
								<g>
									<polygon class="st1" points="379.3,82.1 372.4,101.5 383.6,101.5 389,82.1 									"/>
								</g>
								<g>
									<polygon class="st0" points="389,82.1 383.6,101.5 394.8,101.5 398.6,82.1 									"/>
								</g>
								<g>
									<polygon class="st1" points="398.6,82.1 394.8,101.5 406,101.5 408.3,82.1 									"/>
								</g>
								<g>
									<polygon class="st0" points="408.3,82.1 406,101.4 417.2,101.4 418,82.1 									"/>
								</g>
								<g>
									<polygon class="st1" points="418,82.1 417.2,101.5 428.4,101.5 427.6,82.1 									"/>
								</g>
								<g>
									<polygon class="st0" points="427.6,82.1 428.4,101.4 439.6,101.4 437.3,82.1 									"/>
								</g>
								<g>
									<polygon class="st1" points="437.3,82.1 439.6,101.4 450.7,101.4 446.9,82.1 									"/>
								</g>
								<g>
									<polygon class="st0" points="446.9,82.1 450.7,101.4 461.9,101.4 456.6,82.1 									"/>
								</g>
								<g>
									<polygon class="st1" points="456.6,82.1 461.9,101.4 473.1,101.4 466.2,82.1 									"/>
								</g>
								<g>
									<polygon class="st0" points="466.2,82.1 473.1,101.4 484.3,101.4 475.9,82.1 									"/>
								</g>
								<g>
									<polygon class="st1" points="475.9,82.1 484.3,101.4 495.5,101.4 485.6,82.1 									"/>
								</g>
							</g>
							<g>
								<g>
									<path class="st1" d="M350.1,101.3v4.8c0,2,2.5,3.6,5.6,3.6s5.6-1.6,5.6-3.6v-4.8H350.1z"/>
								</g>
								<g>
									<path class="st67" d="M361.3,101.3v4.8c0,2,2.5,3.6,5.6,3.6s5.6-1.6,5.6-3.6v-4.8H361.3z"/>
								</g>
								<g>
									<path class="st1" d="M372.4,101.3v4.8c0,2,2.5,3.6,5.6,3.6s5.6-1.6,5.6-3.6v-4.8H372.4z"/>
								</g>
								<g>
									<path class="st67" d="M383.6,101.3v4.8c0,2,2.5,3.6,5.6,3.6s5.6-1.6,5.6-3.6v-4.8H383.6z"/>
								</g>
								<g>
									<path class="st1" d="M394.8,101.3v4.8c0,2,2.5,3.6,5.6,3.6s5.6-1.6,5.6-3.6v-4.8H394.8z"/>
								</g>
								<g>
									<path class="st67" d="M406,101.3v4.8c0,2,2.5,3.6,5.6,3.6s5.6-1.6,5.6-3.6v-4.8H406z"/>
								</g>
								<g>
									<path class="st1" d="M417.2,101.3v4.8c0,2,2.5,3.6,5.6,3.6s5.6-1.6,5.6-3.6v-4.8H417.2z"/>
								</g>
								<g>
									<path class="st67" d="M428.4,101.3v4.8c0,2,2.5,3.6,5.6,3.6s5.6-1.6,5.6-3.6v-4.8H428.4z"/>
								</g>
								<g>
									<path class="st1" d="M439.6,101.3v4.8c0,2,2.5,3.6,5.6,3.6s5.6-1.6,5.6-3.6v-4.8H439.6z"/>
								</g>
								<g>
									<path class="st67" d="M450.8,101.3v4.8c0,2,2.5,3.6,5.6,3.6s5.6-1.6,5.6-3.6v-4.8H450.8z"/>
								</g>
								<g>
									<path class="st1" d="M461.9,101.3v4.8c0,2,2.5,3.6,5.6,3.6s5.6-1.6,5.6-3.6v-4.8H461.9z"/>
								</g>
								<g>
									<path class="st67" d="M473.1,101.3v4.7c0,2,2.5,3.6,5.6,3.6s5.6-1.6,5.6-3.6v-4.7H473.1z"/>
								</g>
								<g>
									<path class="st1" d="M484.3,101.3v4.8c0,2,2.5,3.6,5.6,3.6s5.6-1.6,5.6-3.6v-4.8H484.3z"/>
								</g>
							</g>
						</g>
						<g>
							<rect x="357.2" y="79.6" class="st2" width="131.2" height="4.7"/>
						</g>
					</g>
					<g>
						<rect x="430.9" y="111" class="st3" width="2.6" height="13.7"/>
					</g>
					<g>
						<g>
							<polygon class="st5" points="408.8,136.8 408.8,147.2 422.7,147.2 412.4,136.8 							"/>
						</g>
						<g>
							<polygon class="st4" points="412.4,136.8 422.7,147.2 427.4,147.2 417.1,136.8 							"/>
						</g>
						<g>
							<polygon class="st5" points="434.9,136.8 417.1,136.8 427.4,147.2 434.9,147.2 							"/>
						</g>
					</g>
					<g>
						<g>
							<g>
								<path class="st68" d="M377.2,134.7h-7v2l5.9,5.9l0,0c0.6,0,1-0.5,1-1v-6.9H377.2z"/>
							</g>
							<g>
								<path class="st69" d="M370.3,136.7v4.9c0,0.6,0.5,1,1,1h4.9L370.3,136.7z"/>
							</g>
						</g>
						<g>
							<g>
								<path class="st70" d="M382.2,131.5c0-1.1-0.7-2.1-1.8-2.5c-0.1-1-0.7-1.9-1.6-2.2c-0.2-1.2-1.3-2.2-2.6-2.2
									c-0.5,0-1.1,0.2-1.5,0.5c-0.5-0.7-1.3-1.2-2.2-1.2c-1.2,0-2.2,0.8-2.5,1.8h-0.1c-1.4,0-2.6,1.2-2.6,2.6c0,0.2,0,0.4,0.1,0.5
									c0,0,0,0-0.1,0c-1.4,0-2.6,1.2-2.6,2.6c0,1.4,1.2,2.6,2.6,2.6h0.1c-0.1,0.2-0.1,0.5-0.1,0.8c0,1.4,1.2,2.6,2.6,2.6
									c0.5,0,1-0.2,1.4-0.4c0.5,0.7,1.3,1.2,2.2,1.2c1.1,0,2.1-0.7,2.4-1.7c0.5,0.4,1.1,0.6,1.7,0.6c1.4,0,2.6-1.2,2.6-2.6
									c0-0.2,0-0.4-0.1-0.6C381.4,133.7,382.2,132.7,382.2,131.5z"/>
							</g>
							<g>
								<g>
									<path class="st71" d="M367.4,130.1c-1,0-1.8,0.8-1.8,1.8s0.8,1.8,1.8,1.8s1.8-0.8,1.8-1.8
										C369.2,130.9,368.4,130.1,367.4,130.1z"/>
								</g>
								<g>
									<path class="st71" d="M370,130.7c1,0,1.8-0.8,1.8-1.8s-0.8-1.8-1.8-1.8s-1.8,0.8-1.8,1.8
										C368.3,129.9,369.1,130.7,370,130.7z"/>
								</g>
								<g>
									<path class="st71" d="M372.6,128.2c1,0,1.8-0.8,1.8-1.8s-0.8-1.8-1.8-1.8s-1.8,0.8-1.8,1.8
										C370.9,127.4,371.7,128.2,372.6,128.2z"/>
								</g>
								<g>
									<path class="st71" d="M370.9,131.8c-1,0-1.8,0.8-1.8,1.8s0.8,1.8,1.8,1.8s1.8-0.8,1.8-1.8
										C372.6,132.6,371.8,131.8,370.9,131.8z"/>
								</g>
								<g>
									<path class="st71" d="M377,132.1c-1,0-1.8,0.8-1.8,1.8s0.8,1.8,1.8,1.8s1.8-0.8,1.8-1.8C378.8,132.9,378,132.1,377,132.1z"
										/>
								</g>
								<g>
									<path class="st71" d="M377.8,128c-1,0-1.8,0.8-1.8,1.8s0.8,1.8,1.8,1.8s1.8-0.8,1.8-1.8C379.6,128.8,378.8,128,377.8,128z"
										/>
								</g>
								<g>
									<path class="st71" d="M373.7,128.6c-1,0-1.8,0.8-1.8,1.8s0.8,1.8,1.8,1.8s1.8-0.8,1.8-1.8
										C375.4,129.4,374.6,128.6,373.7,128.6z"/>
								</g>
							</g>
							<g>
								<g>
									<path class="st72" d="M369.2,129.8c-0.6,0-1,0.5-1,1c0,0.6,0.5,1,1,1c0.6,0,1-0.5,1-1S369.8,129.8,369.2,129.8z"/>
								</g>
								<g>
									<path class="st72" d="M371.8,127.8c0.6,0,1-0.5,1-1s-0.5-1-1-1c-0.6,0-1,0.5-1,1S371.2,127.8,371.8,127.8z"/>
								</g>
								<g>
									<path class="st72" d="M376.3,128.6c0-0.6-0.5-1-1-1c-0.6,0-1,0.5-1,1c0,0.6,0.5,1,1,1S376.3,129.2,376.3,128.6z"/>
								</g>
								<g>
									<path class="st72" d="M371.9,133.5c-0.6,0-1,0.5-1,1s0.5,1,1,1c0.6,0,1-0.5,1-1S372.5,133.5,371.9,133.5z"/>
								</g>
								<g>
									<path class="st72" d="M378.8,131.3c-0.6,0-1,0.5-1,1c0,0.6,0.5,1,1,1c0.6,0,1-0.5,1-1C379.8,131.7,379.3,131.3,378.8,131.3
										z"/>
								</g>
								<g>
									<path class="st72" d="M376.3,133.5c-0.6,0-1,0.5-1,1s0.5,1,1,1c0.6,0,1,0,1-0.6C377.3,134.4,376.8,133.5,376.3,133.5z"/>
								</g>
							</g>
						</g>
					</g>
					<g>
						<g>
							<rect x="362.4" y="142.8" class="st2" width="41.4" height="2.9"/>
						</g>
						<g>
							<rect x="442.4" y="142.8" class="st2" width="41.4" height="2.9"/>
						</g>
					</g>
					<g>
						<g>
							<g>
								<path class="st68" d="M475.8,134.8h-7v2l5.9,5.9l0,0c0.6,0,1-0.5,1-1v-6.9H475.8z"/>
							</g>
							<g>
								<path class="st69" d="M468.9,136.8v4.9c0,0.6,0.5,1,1,1h4.9L468.9,136.8z"/>
							</g>
						</g>
						<g>
							<g>
								<path class="st70" d="M480.8,131.7c0-1.1-0.7-2.1-1.8-2.5c-0.1-1-0.7-1.9-1.6-2.2c-0.2-1.2-1.3-2.2-2.6-2.2
									c-0.5,0-1.1,0.2-1.5,0.5c-0.5-0.7-1.3-1.2-2.2-1.2c-1.2,0-2.2,0.8-2.5,1.8h-0.1c-1.4,0-2.6,1.2-2.6,2.6c0,0.2,0,0.4,0.1,0.5
									c0,0,0,0-0.1,0c-1.4,0-2.6,1.2-2.6,2.6c0,1.4,1.2,2.6,2.6,2.6h0.1c-0.1,0.2-0.1,0.5-0.1,0.8c0,1.4,1.2,2.6,2.6,2.6
									c0.5,0,1-0.2,1.4-0.4c0.5,0.7,1.3,1.2,2.2,1.2c1.1,0,2.1-0.7,2.4-1.7c0.5,0.4,1.1,0.6,1.7,0.6c1.4,0,2.6-1.2,2.6-2.6
									c0-0.2,0-0.4-0.1-0.6C480,133.8,480.8,132.8,480.8,131.7z"/>
							</g>
							<g>
								<g>
									<path class="st71" d="M466,130.2c-1,0-1.8,0.8-1.8,1.8s0.8,1.8,1.8,1.8s1.8-0.8,1.8-1.8S467,130.2,466,130.2z"/>
								</g>
								<g>
									<path class="st71" d="M468.6,130.8c1,0,1.8-0.8,1.8-1.8s-0.8-1.8-1.8-1.8s-1.8,0.8-1.8,1.8
										C466.9,130,467.7,130.8,468.6,130.8z"/>
								</g>
								<g>
									<path class="st71" d="M471.2,128.3c1,0,1.8-0.8,1.8-1.8s-0.8-1.8-1.8-1.8s-1.8,0.8-1.8,1.8
										C469.5,127.5,470.3,128.3,471.2,128.3z"/>
								</g>
								<g>
									<path class="st71" d="M469.5,132c-1,0-1.8,0.8-1.8,1.8s0.8,1.8,1.8,1.8s1.8-0.8,1.8-1.8C471.2,132.7,470.4,132,469.5,132z"
										/>
								</g>
								<g>
									<path class="st71" d="M475.6,132.2c-1,0-1.8,0.8-1.8,1.8s0.8,1.8,1.8,1.8s1.8-0.8,1.8-1.8S476.6,132.2,475.6,132.2z"/>
								</g>
								<g>
									<path class="st71" d="M476.4,128.1c-1,0-1.8,0.8-1.8,1.8s0.8,1.8,1.8,1.8s1.8-0.8,1.8-1.8
										C478.2,128.9,477.4,128.1,476.4,128.1z"/>
								</g>
								<g>
									<path class="st71" d="M472.3,128.7c-1,0-1.8,0.8-1.8,1.8s0.8,1.8,1.8,1.8s1.8-0.8,1.8-1.8
										C474,129.5,473.2,128.7,472.3,128.7z"/>
								</g>
							</g>
							<g>
								<g>
									<path class="st72" d="M467.8,130c-0.6,0-1,0.5-1,1c0,0.6,0.5,1,1,1c0.6,0,1-0.5,1-1C468.8,130.4,468.4,130,467.8,130z"/>
								</g>
								<g>
									<path class="st72" d="M470.4,127.9c0.6,0,1-0.5,1-1s-0.5-1-1-1c-0.6,0-1,0.5-1,1S469.8,127.9,470.4,127.9z"/>
								</g>
								<g>
									<path class="st72" d="M474.9,128.7c0-0.6-0.5-1-1-1c-0.6,0-1,0.5-1,1c0,0.6,0.5,1,1,1C474.4,129.8,474.9,129.3,474.9,128.7
										z"/>
								</g>
								<g>
									<path class="st72" d="M470.5,133.7c-0.6,0-1,0.5-1,1s0.5,1,1,1c0.6,0,1-0.5,1-1S471.1,133.7,470.5,133.7z"/>
								</g>
								<g>
									<path class="st72" d="M477.4,131.4c-0.6,0-1,0.5-1,1c0,0.6,0.5,1,1,1c0.6,0,1-0.5,1-1C478.4,131.8,477.9,131.4,477.4,131.4
										z"/>
								</g>
								<g>
									<path class="st72" d="M474.9,133.7c-0.6,0-1,0.5-1,1s0.5,1,1,1c0.6,0,1-0.5,1-1S475.4,133.7,474.9,133.7z"/>
								</g>
							</g>
						</g>
					</g>
				</g>
				<g>
					<g>
						<path class="st2" d="M445.1,18.9v-0.6c0-5.7-4.6-10.3-10.3-10.3h-24c-5.7,0-10.3,4.6-10.3,10.3v0.6h-31.3v61h107.3v-61
							C476.5,18.9,445.1,18.9,445.1,18.9z"/>
					</g>
					<g>
						<path class="st0" d="M441.9,22.6v-0.7c0-5.7-4.6-10.3-10.3-10.3H414c-5.7,0-10.3,4.6-10.3,10.3v0.7h-30.2v57h98.6v-57
							C472.1,22.6,441.9,22.6,441.9,22.6z"/>
					</g>
				</g>
			</g>
			<g>
				<g>
					<g>
						<path class="st73" d="M432.3,74v-3.4h2.1v0.8h-1.2V72h1.1v0.7h-1.1v0.6h1.2V74H432.3z M430.5,74v-2.6h-0.8v-0.8h2.5v0.8h-0.8
							V74H430.5z M428,72.2h0.2c0.2,0,0.3,0,0.4-0.1s0.1-0.2,0.1-0.3c0-0.2,0-0.3-0.1-0.4s-0.2-0.1-0.4-0.1H428V72.2z M427.1,74
							v-3.4h1c0.4,0,0.6,0,0.8,0.1c0.1,0,0.3,0.1,0.4,0.2s0.2,0.2,0.3,0.4c0.1,0.1,0.1,0.3,0.1,0.5c0,0.3-0.1,0.5-0.2,0.6
							c-0.1,0.2-0.3,0.3-0.6,0.3l0.9,1.4h-1.1l-0.8-1.3V74H427.1z M425.2,73.3c0.3,0,0.5-0.1,0.6-0.3c0.2-0.2,0.3-0.4,0.3-0.7
							c0-0.3-0.1-0.5-0.3-0.7c-0.2-0.2-0.4-0.3-0.6-0.3c-0.3,0-0.5,0.1-0.6,0.3c-0.2,0.2-0.3,0.4-0.3,0.7c0,0.3,0.1,0.5,0.2,0.7
							C424.7,73.2,424.9,73.3,425.2,73.3z M427,72.3c0,0.2,0,0.5-0.1,0.7s-0.2,0.4-0.4,0.6c-0.2,0.2-0.4,0.3-0.6,0.4
							s-0.5,0.1-0.7,0.1s-0.5,0-0.7-0.1s-0.4-0.2-0.6-0.4c-0.2-0.2-0.3-0.4-0.4-0.6s-0.1-0.4-0.1-0.7c0-0.2,0-0.5,0.1-0.7
							s0.2-0.4,0.4-0.6c0.2-0.2,0.4-0.3,0.6-0.4s0.5-0.1,0.7-0.1s0.5,0,0.7,0.1s0.4,0.2,0.6,0.4c0.2,0.2,0.3,0.4,0.4,0.6
							S427,72.1,427,72.3z M421.2,72.9c0.1,0.2,0.3,0.3,0.4,0.4s0.3,0.1,0.4,0.1s0.2,0,0.3-0.1c0.1-0.1,0.1-0.2,0.1-0.3
							c0-0.1,0-0.2-0.1-0.3c-0.1-0.1-0.2-0.1-0.5-0.2s-0.6-0.2-0.7-0.4c-0.1-0.1-0.2-0.3-0.2-0.6c0-0.3,0.1-0.6,0.3-0.8
							c0.2-0.2,0.5-0.3,0.9-0.3c0.2,0,0.4,0,0.5,0.1c0.2,0.1,0.3,0.1,0.5,0.2l-0.3,0.7c-0.1-0.1-0.2-0.2-0.3-0.2
							c-0.1,0-0.2-0.1-0.3-0.1c-0.1,0-0.2,0-0.3,0.1c-0.1,0.1-0.1,0.1-0.1,0.2s0,0.2,0.1,0.2c0.1,0.1,0.2,0.1,0.4,0.1l0,0
							c0.4,0.1,0.6,0.2,0.7,0.3c0.1,0.1,0.1,0.2,0.2,0.3c0,0.1,0.1,0.2,0.1,0.4c0,0.4-0.1,0.7-0.4,0.9c-0.2,0.2-0.6,0.3-1,0.3
							c-0.2,0-0.5,0-0.7-0.1s-0.4-0.2-0.6-0.4L421.2,72.9z M431,68.4v1.8h-0.6v-0.3c-0.1,0.1-0.2,0.2-0.3,0.3
							c-0.1,0.1-0.2,0.1-0.4,0.1c-0.2,0-0.4-0.1-0.6-0.3c-0.1-0.2-0.2-0.4-0.2-0.7c0-0.3,0.1-0.5,0.2-0.7s0.3-0.3,0.6-0.3
							c0.1,0,0.2,0,0.3,0.1c0.1,0.1,0.2,0.1,0.2,0.3v-0.3H431z M430.4,69.3c0-0.1,0-0.2-0.1-0.3c-0.1-0.1-0.2-0.1-0.3-0.1
							s-0.2,0-0.3,0.1c-0.1,0.1-0.1,0.2-0.1,0.3c0,0.1,0,0.2,0.1,0.3c0.1,0.1,0.2,0.1,0.3,0.1c0.1,0,0.2,0,0.3-0.1
							C430.4,69.5,430.4,69.4,430.4,69.3z M428.9,67.5v2.7h-0.6v-0.3c-0.1,0.1-0.2,0.2-0.3,0.3c-0.1,0.1-0.2,0.1-0.3,0.1
							c-0.2,0-0.4-0.1-0.6-0.3c-0.1-0.2-0.2-0.4-0.2-0.7c0-0.3,0.1-0.5,0.2-0.7s0.3-0.3,0.6-0.3c0.1,0,0.3,0,0.4,0.1
							s0.2,0.1,0.2,0.3v-0.1c0-0.1,0-0.1,0-0.2v-0.9H428.9z M428.3,69.3c0-0.1,0-0.2-0.1-0.3c-0.1-0.1-0.2-0.1-0.3-0.1
							c-0.1,0-0.2,0-0.3,0.1s-0.1,0.2-0.1,0.3c0,0.1,0,0.2,0.1,0.3c0.1,0.1,0.2,0.1,0.3,0.1c0.1,0,0.2,0,0.3-0.1
							C428.3,69.6,428.3,69.4,428.3,69.3z M433,66.8c0.3,0,0.5-0.1,0.6-0.3c0.2-0.2,0.3-0.4,0.3-0.7c0-0.3-0.1-0.5-0.3-0.7
							c-0.2-0.2-0.4-0.3-0.6-0.3c-0.3,0-0.5,0.1-0.6,0.3c-0.2,0.2-0.3,0.4-0.3,0.7c0,0.3,0.1,0.5,0.2,0.7
							C432.6,66.7,432.8,66.8,433,66.8z M434.9,65.8c0,0.2,0,0.5-0.1,0.7s-0.2,0.4-0.4,0.6c-0.2,0.2-0.4,0.3-0.6,0.4
							s-0.5,0.1-0.7,0.1s-0.5,0-0.7-0.1s-0.4-0.2-0.6-0.4c-0.2-0.2-0.3-0.4-0.4-0.6s-0.1-0.4-0.1-0.7c0-0.2,0-0.5,0.1-0.7
							s0.2-0.4,0.4-0.6c0.2-0.2,0.4-0.3,0.6-0.4s0.5-0.1,0.7-0.1s0.5,0,0.7,0.1s0.4,0.2,0.6,0.4c0.2,0.2,0.3,0.4,0.4,0.6
							C434.8,65.3,434.9,65.6,434.9,65.8z M429.4,67.5l-1.4-3.4h1l0.7,1.9v0.1c0,0.1,0,0.2,0.1,0.3c0-0.1,0-0.2,0.1-0.3
							c0-0.1,0-0.1,0-0.2l0.7-1.9h1l-1.4,3.4L429.4,67.5L429.4,67.5z M425.8,67.5v-3.4h2.1v0.8h-1.2v0.6h1.1v0.7h-1.1v0.6h1.2v0.8
							L425.8,67.5L425.8,67.5z M421.1,67.5v-2.6h-0.8v-0.8h2.5v0.8H422v2.6H421.1z"/>
					</g>
					<g>
						<path class="st73" d="M423.8,65.7h0.2c0.2,0,0.3,0,0.4-0.1s0.1-0.2,0.1-0.3c0-0.2,0-0.3-0.1-0.4s-0.2-0.1-0.4-0.1h-0.2V65.7z
							 M422.9,67.5v-3.4h1c0.4,0,0.6,0,0.8,0.1c0.1,0,0.3,0.1,0.4,0.2s0.2,0.2,0.3,0.4c0.1,0.1,0.1,0.3,0.1,0.5
							c0,0.3-0.1,0.5-0.2,0.6c-0.1,0.2-0.3,0.3-0.6,0.3l0.9,1.4h-1.1l-0.8-1.3v1.3L422.9,67.5L422.9,67.5z"/>
					</g>
					<g>
						<path class="st74" d="M416.6,53.4c-0.4,0.2-1.2,1.2-1.6,1.7l-0.8,1l-0.8,1.2c-0.3,0.5-0.6,1.1-0.9,1.7
							c-0.1,0.1-0.1,0.2-0.1,0.4c-0.2,0.5-0.4,1-0.5,1.6c-0.2,0.8-0.3,1.5-0.3,2.3v0.1c0,1.9,0.6,3.6,1.9,5.2l0.8,0.8
							c0.7,0.6,0.8,0.7,1.8,1.3l0.6,0.4c0.1,0.1,0.2,0.1,0.3,0.2c0.6,0.3,1.9,0.8,2.6,1c0.2,0.1,0.6,0.2,0.8,0.2
							c-0.3-0.5-0.5-1,0-1.6c0.1-0.1,0.1-0.1,0.2-0.2l-0.7-0.2c-1-0.3-1.6-0.6-2.5-1.1c-0.1-0.1-0.2-0.1-0.3-0.2
							c-0.4-0.2-0.8-0.5-1.1-0.7c-1.4-1-2.8-2.6-3.1-4.6c-0.2-1.2-0.1-2.2,0.1-3.3c0.3-1.4,0.8-2.4,1.4-3.6c0.1-0.1,0.1-0.2,0.2-0.3
							s0.1-0.2,0.2-0.3c0.6-1,1.1-1.8,1.8-2.7C416.5,53.6,416.6,53.5,416.6,53.4"/>
					</g>
					<g>
						<polygon class="st74" points="416.6,53.4 416.7,53.4 416.6,53.3 						"/>
					</g>
					<g>
						<path class="st74" d="M416.6,53.4L416.6,53.4L416.6,53.4z"/>
					</g>
					<g>
						<path class="st75" d="M419.3,50c0,0.2-0.6,1-0.7,1.2L418,52c-0.7,1-0.9,0.8-1.8,2.4c-1,1.7-1.5,4.3-0.7,6
							c0.2,0.4,0.6,0.9,0.9,1.2s0.6,0.5,1,0.6c1.2,0.4,2.7,0.5,3.8-0.3c1-0.7,1.4-1.9,1.6-3.1c0.1-0.4,0.2-1.1,0.2-1.5
							c0-0.1,0-0.1,0.1-0.2c0,0.2,0,0.3,0,0.4c0,1.1,0,1.6-0.3,2.7c0,0.1-0.1,0.3-0.1,0.4c1.2,0.6,3.1,0.5,4.2-0.2l0.4-0.3
							c0.3-0.2,0.7-0.7,0.9-1.1c0.3-0.7,0.4-1.3,0.2-2.2c-0.2-0.9-0.6-1.7-1.1-2.5c-0.3-0.5-1.2-1.6-1.6-2l-0.3-0.4
							c-0.2-0.2-0.4-0.4-0.6-0.6c-0.2-0.2-0.6-0.4-0.7-0.6c0.4,0.1,2.6,2.1,4.4,2.4c1.2,0.2,2.1,0.1,2.9-0.3
							c0.2-0.1,0.4-0.2,0.5-0.3c0.2-0.2,0.5-0.4,0.7-0.6l0.6-0.7c0.4-0.6,0.7-1.4,0.7-2.1v-0.3c0-0.9-0.4-1.8-1.3-2.4
							c-0.7-0.5-1.8-0.8-2.6-0.8c-0.3,0-0.5-0.1-0.8,0h-0.8c-0.4,0-1.2,0.1-1.6,0.1c0.1-0.1,1.1-0.3,1.2-0.3
							c0.3-0.1,1.4-0.2,1.8-0.1c0.1,0,0.2,0,0.4,0c0.4,0,1.7,0.2,2,0.4c0-0.1,0.1-0.2,0.1-0.3c0.9-2.5-0.5-5.9-4.2-4.8
							c-0.6,0.2-1.1,0.4-1.6,0.6c-0.4,0.2-1,0.6-1.3,0.9c-0.4,0.3-1.1,0.8-1.4,1.2l-0.6,0.5c-0.1,0.1-0.1,0.1-0.2,0.2
							c-0.3,0.3-0.6,0.6-0.9,1c-0.1,0.1-0.2,0.3-0.3,0.4c-0.1,0.2-0.9,1.1-1,1.2c0-0.2,0.5-0.7,0.6-0.9l0.8-1
							c0.1-0.1,0.1-0.1,0.2-0.2c0.8-0.9,1.7-2,2.1-3c0.6-1.5,0.8-3.3-0.1-4.8c-0.5-0.8-1.4-1.3-2.3-1.5c-0.2,0-0.3,0-0.5,0h-0.2l0,0
							c-0.9,0-1.5,0.3-2.3,0.7c-0.2,0.1-0.8,0.5-0.9,0.6c0,0.1,0.1,0.3,0.1,0.4c0.2,0.6,0.9,2.2,0.9,2.8l0,0c-0.2-0.4-0.3-1-0.5-1.4
							c-0.2-0.5-0.4-0.9-0.7-1.3c-0.3-0.4-0.6-0.7-1-0.9c-0.3-0.2-1.1-0.4-1.6-0.3c-0.3,0-0.6,0-0.8,0.1c-0.7,0.2-1.3,0.5-1.9,1
							c-0.5,0.4-1,1-1.2,1.7c-0.4,1.1-0.2,2.4,0.3,3.4c0,0.1,0.1,0.1,0.1,0.2c0.2,0.3,0.4,0.6,0.6,0.9l0.4,0.5
							c0.1,0.1,0.2,0.2,0.2,0.2l0.3,0.2c0.1,0.1,0.1,0.1,0.3,0.2c0.3,0.2,0.3,0.2,0.6,0.4l2.1,1.3c0.2,0.1,0.4,0.3,0.6,0.4
							c0.1,0.1,0.2,0.1,0.3,0.2c0.2,0.2,1.3,0.9,1.4,1.1c-0.1-0.1-0.3-0.2-0.4-0.3c-1-0.7-2.1-1.3-3.2-1.9c-0.2-0.1-0.3-0.1-0.5-0.2
							l-1-0.4c-0.9-0.4-1.9-0.7-2.9-0.7c-0.1,0-0.2,0-0.3,0c-0.1,0-0.2,0-0.3,0c-0.6,0-1.3,0.2-1.8,0.4c-1.6,0.6-2.3,2-1.9,3.7
							c0.3,1,0.5,1.2,1,1.9c0.2-0.1,0.4-0.3,0.6-0.5c0.9-0.7,2-1,3.1-1.2c0.7-0.1,1.3-0.1,2-0.1c0.2,0,0.7,0,0.9,0.1
							c0.1,0,0.1,0,0.1,0c-1.1,0-2.8,0.3-3.8,0.6c-0.8,0.2-1.5,0.6-2.1,1.1c-0.1,0-0.1,0.1-0.1,0.1l-0.3,0.3
							c-0.2,0.2-0.4,0.5-0.6,0.8c-0.7,1.4-0.6,2.9,0.5,4.1c0.1,0.1,0.2,0.2,0.3,0.3c0.1,0.1,0.2,0.2,0.3,0.2
							c0.2,0.2,0.4,0.3,0.7,0.4c0.8,0.4,1.9,0.4,2.8,0.2c1.1-0.2,2.1-0.7,3-1.4c0.2-0.2,0.4-0.3,0.6-0.5l0.7-0.6
							c0.1,0,0.1-0.1,0.1-0.1l0.3-0.3c0.4-0.3,0.7-0.7,1-1.1c0.1-0.1,0.2-0.2,0.3-0.3c0.1-0.1,0.2-0.2,0.2-0.3
							c0.2-0.2,0.3-0.4,0.5-0.6l0.7-0.9C419.1,50.2,419.2,50,419.3,50"/>
					</g>
				</g>
				<g>
					<g>
						<g>
							<path class="st76" d="M408.1,25.4l-0.3-0.3l-0.3,0.4c-0.3,0-0.5,0.1-0.9,0.1h-0.3l1,7c0.1,0.7,0,1-0.1,1.1
								c-0.1,0.2-0.3,0.3-0.6,0.3c-0.3,0-0.6,0-1.1,0l-0.4-0.1l0.2,1.1l-0.2,0.1l0.3,0.3h0.2c0.1,0,0.2,0,0.3,0c0.3,0,0.5,0,0.7,0
								c0.8-0.1,1.4-0.5,1.8-1c0.4-0.6,0.6-1.3,0.5-2.1L408.1,25.4z"/>
						</g>
						<g>
							<path class="st76" d="M416.5,25.6c-0.8-0.7-1.9-1.1-3.1-1s-2.3,0.6-2.9,1.5c-0.6,0.8-0.9,2-0.8,3.2s0.6,2.3,1.4,3
								c0.7,0.6,1.6,1,2.6,1c0.1,0,0.2,0,0.3,0c1.2-0.1,2.2-0.6,2.8-1.4c0.7-0.8,1-1.9,0.9-3.2C417.7,27.4,417.2,26.3,416.5,25.6z
								 M415.5,31c-0.4,0.5-0.9,0.8-1.6,0.9s-1.2-0.1-1.7-0.6s-0.7-1.2-0.8-2.1c-0.1-0.9,0-1.7,0.4-2.2s0.9-0.8,1.6-0.9
								c0.1,0,0.2,0,0.2,0c0.6,0,1.1,0.2,1.5,0.6c0.4,0.5,0.7,1.2,0.8,2.1C416,29.7,415.9,30.5,415.5,31z"/>
						</g>
						<g>
							<path class="st76" d="M433.8,26c-0.7-0.8-1.7-1.3-2.9-1.4c-1.2-0.1-2.4,0.3-3.1,1c-0.8,0.7-1.2,1.8-1.3,3.1
								c0,1.2,0.3,2.4,1,3.2c0.6,0.8,1.7,1.3,2.8,1.4c0.1,0,0.2,0,0.4,0c1,0,2-0.3,2.7-1c0.8-0.7,1.3-1.8,1.4-3
								C434.7,28,434.4,26.8,433.8,26z M432.8,29c-0.1,1-0.4,1.7-0.8,2.2s-1,0.7-1.7,0.6c-0.7,0-1.2-0.3-1.5-0.9
								c-0.4-0.5-0.5-1.3-0.5-2.2c0-1,0.3-1.7,0.7-2.1c0.4-0.5,1-0.7,1.8-0.6c0.7,0.1,1.3,0.3,1.7,0.9
								C432.7,27.3,432.9,28.1,432.8,29z"/>
						</g>
						<g>
							<path class="st76" d="M437.4,26.9c0.2-0.1,0.5-0.2,0.9-0.1c0.3,0,0.8,0.2,1.8,0.7l0.4,0.2l0.2-1.6l-0.3-0.3l-0.1,0.1
								c-0.6-0.3-1.3-0.4-1.9-0.5c-0.8-0.1-1.5,0-2,0.4c-0.6,0.4-0.9,0.9-1,1.6c-0.1,0.5,0.1,1,0.3,1.4c0.3,0.4,0.7,0.8,1.4,1.3
								c0.2,0.2,0.3,0.2,0.5,0.4c0.5,0.4,0.7,0.6,0.8,0.8c0.1,0.2,0.1,0.4,0.1,0.6c0,0.3-0.2,0.5-0.4,0.6c-0.2,0.1-0.5,0.2-0.9,0.1
								c-0.6-0.1-1.3-0.4-2-0.8l-0.4-0.2l-0.2,1.3l-0.2-0.1l-0.1,0.2l0.3,0.3l0.2,0.1c0.8,0.3,1.5,0.5,2,0.6c0.2,0,0.4,0,0.6,0
								c0.6,0,1.2-0.1,1.6-0.4c0.6-0.4,1-0.9,1.1-1.7c0.1-0.5,0-1-0.3-1.5c-0.2-0.4-0.7-0.9-1.4-1.4c-0.2-0.2-0.3-0.2-0.5-0.4
								c-0.4-0.3-0.7-0.6-0.9-0.8c-0.1-0.2-0.2-0.3-0.1-0.5C437.1,27.1,437.2,27,437.4,26.9z"/>
						</g>
						<g>
							<path class="st76" d="M425.1,24.6c-0.8-0.2-1.7-0.4-2.5-0.3c-1.1,0-2.3,0.2-3.2,1.2c-0.7,0.8-1.1,1.9-1,3.2
								c0,1.4,0.4,2.4,1.2,3.2c0.7,0.7,1.8,1.1,3,1.1l0,0c0.9,0,1.8-0.2,2.5-0.4h0.2l0.1-3.6l-0.3-0.3L425,29c-0.4,0-0.6,0-1,0h-0.3
								v2.6c-0.3,0.1-0.6,0.1-0.9,0.1c-0.6,0-1.5-0.3-1.9-0.7c-0.5-0.5-0.7-1.3-0.7-2.2c0-0.9,0.2-1.7,0.6-2.2s1.3-0.8,1.9-0.8
								c0.7,0,1.6,0.2,2.6,0.6l0.4,0.1v-1.6l-0.3-0.3H425.1z"/>
						</g>
					</g>
					<g>
						<g>
							<path class="st77" d="M407.8,25.1h-0.3c-0.5,0.1-0.7,0.1-1.2,0.2H406l1,7c0.1,0.7,0,1-0.1,1.1c-0.1,0.2-0.3,0.3-0.6,0.3
								c-0.3,0-0.6,0-1.1,0l-0.4-0.1l0.2,1.6h0.2c0.1,0,0.2,0,0.3,0c0.3,0,0.5,0,0.7,0c0.8-0.1,1.4-0.5,1.8-1
								c0.4-0.6,0.6-1.3,0.5-2.1L407.8,25.1z"/>
						</g>
						<g>
							<path class="st77" d="M416.2,25.3c-0.8-0.7-1.9-1.1-3.1-1s-2.3,0.6-2.9,1.5c-0.6,0.8-0.9,2-0.8,3.2s0.6,2.3,1.4,3
								c0.7,0.6,1.6,1,2.6,1c0.1,0,0.2,0,0.3,0c1.2-0.1,2.2-0.6,2.8-1.4c0.7-0.8,1-1.9,0.9-3.2C417.4,27.1,416.9,26,416.2,25.3z
								 M415.2,30.7c-0.4,0.5-0.9,0.8-1.6,0.9s-1.2-0.1-1.7-0.6s-0.7-1.2-0.8-2.1c-0.1-0.9,0-1.7,0.4-2.2s0.9-0.8,1.6-0.9
								c0.1,0,0.2,0,0.2,0c0.6,0,1.1,0.2,1.5,0.6c0.4,0.5,0.7,1.2,0.8,2.1C415.7,29.4,415.6,30.2,415.2,30.7z"/>
						</g>
						<g>
							<path class="st77" d="M422.3,24c-1.1,0-2.3,0.2-3.2,1.2c-0.7,0.8-1.1,1.9-1,3.2c0,1.4,0.4,2.4,1.2,3.2c0.7,0.7,1.8,1.1,3,1.1
								l0,0c0.9,0,1.8-0.2,2.5-0.4h0.2l0.1-3.6h-0.3c-0.5,0-0.7,0-1.1,0h-0.3v2.6c-0.3,0.1-0.6,0.1-0.9,0.1c-0.6,0-1.5-0.3-1.9-0.7
								c-0.5-0.5-0.7-1.3-0.7-2.2c0-0.9,0.2-1.7,0.6-2.2s1.3-0.8,1.9-0.8c0.7,0,1.6,0.2,2.6,0.6l0.4,0.1v-1.6l-0.3-0.1
								C424.1,24.2,423.2,23.9,422.3,24z"/>
						</g>
						<g>
							<path class="st77" d="M430.5,24.3c-1.2-0.1-2.4,0.3-3.1,1c-0.8,0.7-1.2,1.8-1.3,3.1c0,1.2,0.3,2.4,1,3.2
								c0.6,0.8,1.7,1.3,2.8,1.4c0.1,0,0.2,0,0.4,0c1,0,2-0.3,2.7-1c0.8-0.7,1.3-1.8,1.4-3c0.1-1.3-0.2-2.4-0.8-3.2
								C432.8,24.9,431.7,24.4,430.5,24.3z M432.5,28.7c-0.1,1-0.4,1.7-0.8,2.2s-1,0.7-1.7,0.6c-0.7,0-1.2-0.3-1.5-0.9
								c-0.4-0.5-0.5-1.3-0.5-2.2c0-1,0.3-1.7,0.7-2.1c0.4-0.5,1-0.7,1.8-0.6c0.7,0.1,1.3,0.3,1.7,0.9
								C432.4,27.1,432.6,27.8,432.5,28.7z"/>
						</g>
						<g>
							<path class="st77" d="M437.1,26.6c0.2-0.1,0.5-0.2,0.9-0.1c0.3,0,0.8,0.2,1.8,0.7l0.4,0.2l0.2-1.6l-0.2-0.1
								c-0.7-0.3-1.4-0.5-2.1-0.6c-0.8-0.1-1.5,0-2,0.4c-0.6,0.4-0.9,0.9-1,1.6c-0.1,0.5,0.1,1,0.3,1.4c0.3,0.4,0.7,0.8,1.4,1.3
								c0.2,0.2,0.3,0.2,0.5,0.4c0.5,0.4,0.7,0.6,0.8,0.8c0.1,0.2,0.1,0.4,0.1,0.6c0,0.3-0.2,0.5-0.4,0.6c-0.2,0.1-0.5,0.2-0.9,0.1
								c-0.6-0.1-1.3-0.4-2-0.8l-0.4-0.2l-0.2,1.7l0.2,0.1c0.8,0.3,1.5,0.5,2,0.6c0.2,0,0.4,0,0.6,0c0.6,0,1.2-0.1,1.6-0.4
								c0.6-0.4,1-0.9,1.1-1.7c0.1-0.5,0-1-0.3-1.5c-0.2-0.4-0.7-0.9-1.4-1.4c-0.2-0.2-0.3-0.2-0.5-0.4c-0.4-0.3-0.7-0.6-0.9-0.8
								c-0.1-0.2-0.2-0.3-0.1-0.5C436.8,26.8,436.9,26.7,437.1,26.6z"/>
						</g>
					</g>
				</g>
			</g>
		</g>
		<g>
			<g>
				<path class="st78" d="M403.2,242H132.9c-27.8,0-50.4-22.5-50.4-50.4l0,0c0-27.8,22.5-50.4,50.4-50.4h270.3
					c27.8,0,50.4,22.5,50.4,50.4l0,0C453.5,219.5,431,242,403.2,242z"/>
			</g>
			<g>
				<g class="st79">
					<path class="st0" d="M172.9,210.7l-17.5-25.2v25.2h-10v-42.3h10l17.5,25.2v-25.2h10v42.3H172.9z"/>
					<path class="st0" d="M207.9,207.6c-1,1-2.3,1.8-4,2.6c-1.7,0.7-3.5,1.1-5.5,1.1c-1.4,0-2.6-0.2-3.7-0.7c-1.1-0.5-2-1.1-2.8-1.9
						c-0.7-0.8-1.3-1.7-1.7-2.8s-0.6-2.2-0.6-3.5c0-2.9,0.9-5,2.7-6.5s4.4-2.3,7.7-2.6c1.2-0.1,2.5-0.1,3.9-0.2
						c1.4,0,2.6-0.1,3.7-0.1v-1c0-3.4-1.9-5.1-5.7-5.1c-1.5,0-2.9,0.2-4.3,0.5c-1.4,0.3-2.6,0.8-3.8,1.4l-1.8-7.1
						c1.5-0.8,3.2-1.5,5.2-2.1c2-0.5,4.2-0.8,6.6-0.8c4.4,0,7.8,1.1,10.2,3.4c2.5,2.3,3.7,5.7,3.7,10.2v18.2h-9.8L207.9,207.6
						L207.9,207.6z M202.4,204.6c1,0,1.9-0.1,2.8-0.4c0.9-0.3,1.7-0.6,2.4-1v-4.6c-1,0.1-1.9,0.2-2.7,0.3s-1.6,0.2-2.4,0.3
						c-2.1,0.3-3.1,1.2-3.1,2.9c0,0.8,0.3,1.4,0.8,1.8C200.6,204.4,201.4,204.6,202.4,204.6z"/>
					<path class="st0" d="M247,200.5c0,1.7-0.3,3.3-1,4.6c-0.7,1.4-1.6,2.5-2.8,3.4s-2.6,1.6-4.3,2.1s-3.5,0.7-5.5,0.7
						c-1.7,0-3.5-0.2-5.3-0.5c-1.9-0.3-3.6-0.8-5.1-1.4l1.4-7c1.3,0.6,2.8,1,4.4,1.2s3,0.4,4.2,0.4s2.3-0.2,3.2-0.5
						c0.9-0.4,1.4-1,1.4-1.8s-0.4-1.3-1.2-1.6s-2-0.8-3.6-1.4c-1.3-0.5-2.5-1-3.7-1.6c-1.1-0.6-2.1-1.2-3-2
						c-0.8-0.8-1.5-1.7-1.9-2.7c-0.5-1-0.7-2.2-0.7-3.6c0-3.4,1.1-5.9,3.4-7.5s5.3-2.4,9-2.4c1.9,0,3.7,0.2,5.3,0.5
						c1.6,0.4,3.2,1,4.6,1.8l-1.4,6.7c-1.1-0.5-2.4-0.9-3.6-1.2c-1.3-0.3-2.6-0.5-4-0.5c-1.2,0-2.2,0.1-2.8,0.3
						c-0.7,0.2-1,0.7-1,1.4s0.4,1.2,1.2,1.6c0.8,0.3,1.8,0.7,3,1.2c0.9,0.3,2,0.8,3.1,1.2c1.1,0.5,2.2,1.1,3.2,1.9
						c1,0.8,1.8,1.7,2.5,2.8C246.7,197.7,247,199,247,200.5z"/>
					<path class="st0" d="M275.9,201.1c0,0.8,0.2,1.4,0.5,1.9c0.3,0.4,1,0.7,2,0.7c0.6,0,1.3-0.1,2.2-0.2l0.3,7
						c-0.8,0.3-1.8,0.5-2.9,0.6s-2.2,0.2-3.3,0.2c-1.7,0-3.1-0.3-4.3-0.8s-2.1-1.2-2.7-2c-0.7-0.8-1.2-1.8-1.5-2.9
						c-0.3-1.1-0.4-2.2-0.4-3.3v-36.5H276v35.3H275.9z"/>
					<path class="st0" d="M316.2,195.1c0,2.3-0.4,4.4-1.1,6.4s-1.8,3.7-3.2,5.1c-1.4,1.5-3.1,2.6-5.2,3.4c-2.1,0.8-4.4,1.2-7.1,1.2
						s-5-0.4-7.1-1.2s-3.8-2-5.2-3.4c-1.4-1.5-2.5-3.2-3.2-5.1c-0.7-2-1.1-4.1-1.1-6.4c0-2.3,0.4-4.4,1.1-6.4s1.8-3.7,3.2-5.1
						c1.4-1.5,3.1-2.6,5.2-3.4c2.1-0.8,4.4-1.2,7.1-1.2s5,0.4,7.1,1.2s3.8,2,5.2,3.4c1.4,1.5,2.5,3.2,3.2,5.1
						C315.9,190.7,316.2,192.8,316.2,195.1z M306.1,195.1c0-1.1-0.1-2.2-0.3-3.2c-0.2-1-0.6-2-1-2.8c-0.5-0.8-1.1-1.5-2-2
						c-0.8-0.5-1.9-0.7-3.1-0.7s-2.3,0.2-3.1,0.7c-0.8,0.5-1.5,1.1-2,2c-0.5,0.8-0.8,1.8-1,2.8s-0.3,2.1-0.3,3.2
						c0,1.1,0.1,2.2,0.3,3.2c0.2,1,0.6,2,1,2.8c0.5,0.8,1.1,1.5,2,2s1.9,0.7,3.1,0.7s2.3-0.2,3.1-0.7s1.5-1.1,2-2
						c0.5-0.8,0.8-1.8,1-2.8C306,197.3,306.1,196.2,306.1,195.1z"/>
					<path class="st0" d="M332,202.7c0,2.1-0.1,4.1-0.4,6s-0.8,3.8-1.5,5.6s-1.7,3.5-2.9,5.2c-1.2,1.7-2.8,3.3-4.7,4.9l-6.7-5.6
						c0.9-1.1,1.8-2.1,2.5-3.2c0.7-1.1,1.4-2.2,1.9-3.3s0.9-2.4,1.1-3.7c0.3-1.3,0.4-2.7,0.4-4.3v-24.8H332V202.7z M321.2,170.5
						c0-1.6,0.5-3,1.6-4.1s2.4-1.7,4.1-1.7s3.1,0.6,4.1,1.7c1.1,1.1,1.6,2.5,1.6,4.1s-0.5,3-1.6,4.1s-2.4,1.7-4.1,1.7
						s-3.1-0.5-4.1-1.7C321.7,173.4,321.2,172.1,321.2,170.5z"/>
					<path class="st0" d="M356.6,207.6c-1,1-2.3,1.8-4,2.6c-1.7,0.7-3.5,1.1-5.5,1.1c-1.4,0-2.6-0.2-3.7-0.7s-2-1.1-2.8-1.9
						c-0.7-0.8-1.3-1.7-1.7-2.8c-0.4-1.1-0.6-2.2-0.6-3.5c0-2.9,0.9-5,2.7-6.5c1.8-1.5,4.4-2.3,7.7-2.6c1.2-0.1,2.5-0.1,3.9-0.2
						c1.4,0,2.6-0.1,3.7-0.1v-1c0-3.4-1.9-5.1-5.7-5.1c-1.5,0-2.9,0.2-4.3,0.5s-2.6,0.8-3.8,1.4l-1.8-7.1c1.5-0.8,3.2-1.5,5.2-2.1
						c2-0.5,4.2-0.8,6.6-0.8c4.4,0,7.8,1.1,10.2,3.4c2.5,2.3,3.7,5.7,3.7,10.2v18.2h-9.8L356.6,207.6L356.6,207.6z M351.1,204.6
						c1,0,1.9-0.1,2.8-0.4c0.9-0.3,1.7-0.6,2.4-1v-4.6c-1,0.1-1.9,0.2-2.7,0.3c-0.8,0.1-1.6,0.2-2.4,0.3c-2.1,0.3-3.1,1.2-3.1,2.9
						c0,0.8,0.3,1.4,0.8,1.8C349.3,204.4,350.1,204.6,351.1,204.6z"/>
					<path class="st0" d="M395.7,200.5c0,1.7-0.3,3.3-1,4.6c-0.7,1.4-1.6,2.5-2.8,3.4c-1.2,0.9-2.6,1.6-4.3,2.1
						c-1.7,0.5-3.5,0.7-5.5,0.7c-1.7,0-3.5-0.2-5.3-0.5c-1.9-0.3-3.6-0.8-5.1-1.4l1.4-7c1.3,0.6,2.8,1,4.4,1.2s3,0.4,4.2,0.4
						s2.3-0.2,3.2-0.5c0.9-0.4,1.4-1,1.4-1.8s-0.4-1.3-1.2-1.6c-0.8-0.3-2-0.8-3.6-1.4c-1.3-0.5-2.5-1-3.7-1.6c-1.1-0.6-2.1-1.2-3-2
						c-0.8-0.8-1.5-1.7-1.9-2.7c-0.5-1-0.7-2.2-0.7-3.6c0-3.4,1.1-5.9,3.4-7.5s5.3-2.4,9-2.4c1.9,0,3.7,0.2,5.3,0.5
						c1.6,0.4,3.2,1,4.6,1.8l-1.4,6.7c-1.1-0.5-2.4-0.9-3.6-1.2c-1.3-0.3-2.6-0.5-4-0.5c-1.2,0-2.2,0.1-2.8,0.3
						c-0.7,0.2-1,0.7-1,1.4s0.4,1.2,1.2,1.6c0.8,0.3,1.8,0.7,3,1.2c0.9,0.3,2,0.8,3.1,1.2c1.1,0.5,2.2,1.1,3.2,1.9
						c1,0.8,1.8,1.7,2.5,2.8C395.4,197.7,395.7,199,395.7,200.5z"/>
				</g>
			</g>
		</g>
	</g>
</g>
</svg>
