<?xml version="1.0" encoding="utf-8"?>
<!-- Generator: Adobe Illustrator 23.0.4, SVG Export Plug-In . SVG Version: 6.00 Build 0)  -->
<svg version="1.1" id="Layer_1" xmlns="http://www.w3.org/2000/svg" xmlns:xlink="http://www.w3.org/1999/xlink" x="0px" y="0px"
	 viewBox="0 0 1024 250" style="enable-background:new 0 0 1024 250;" xml:space="preserve">
<style type="text/css">
	.st0{fill:#008F30;}
	.st1{fill:#FFFFFF;}
	.st2{fill:#292B2E;}
	.st3{enable-background:new    ;}
</style>
<g>
	<g>
		<g>
			<rect class="st0" width="1024" height="248"/>
		</g>
		<g>
			<path class="st1" d="M0,249.9v0.1h1024V11.6C1008.9,9,511.8-74.9,0,249.9z"/>
		</g>
	</g>
	<g>
		<g>
			<g>
				<path class="st2" d="M613.2,175.4H132.9c-27.8,0-50.4-22.5-50.4-50.4l0,0c0-27.8,22.5-50.4,50.4-50.4h480.3
					c27.8,0,50.4,22.5,50.4,50.4l0,0C663.5,152.8,641,175.4,613.2,175.4z"/>
			</g>
			<g>
				<g class="st3">
					<path class="st1" d="M168.2,144.7c-0.2,0-0.3,0.1-0.5,0.1s-0.4,0-0.7,0c-3.4,0-6.5-0.6-9.2-1.7c-2.7-1.2-5-2.7-6.8-4.7
						s-3.2-4.3-4.2-7c-1-2.6-1.4-5.5-1.4-8.5s0.5-5.8,1.4-8.5c1-2.6,2.4-5,4.2-7s4.1-3.6,6.8-4.7c2.7-1.2,5.7-1.7,9.2-1.7
						c3.4,0,6.5,0.6,9.1,1.7c2.7,1.2,4.9,2.7,6.8,4.7c1.8,2,3.2,4.3,4.2,7c1,2.6,1.5,5.5,1.5,8.5c0,3.9-0.8,7.5-2.4,10.7
						s-3.9,5.8-6.9,7.8l10.2,6.7l-4.9,7.4L168.2,144.7z M167,136.5c1.8,0,3.4-0.3,4.8-1c1.4-0.7,2.6-1.6,3.5-2.8
						c1-1.2,1.7-2.6,2.1-4.3c0.5-1.7,0.7-3.5,0.7-5.5s-0.2-3.8-0.7-5.5s-1.2-3.1-2.1-4.3s-2.1-2.1-3.5-2.8c-1.4-0.7-3-1-4.8-1
						c-1.9,0-3.5,0.3-4.9,1s-2.5,1.6-3.5,2.8s-1.7,2.6-2.1,4.3c-0.5,1.7-0.7,3.5-0.7,5.5s0.2,3.8,0.7,5.5s1.2,3.1,2.1,4.3
						c1,1.2,2.1,2.2,3.5,2.8C163.5,136.2,165.2,136.5,167,136.5z"/>
					<path class="st1" d="M223.7,112.9V144H214v-4c-1.2,1.8-2.5,3-4,3.7s-3,1-4.7,1c-2.1,0-3.8-0.4-5.2-1.3c-1.4-0.9-2.6-2-3.4-3.5
						c-0.9-1.4-1.5-3.1-1.9-5s-0.6-3.9-0.6-5.9v-16.1h10.2v16.3c0,2.6,0.4,4.5,1.1,5.7c0.7,1.2,1.9,1.8,3.6,1.8c1.1,0,2-0.2,2.8-0.7
						s1.4-1,1.9-1.7V113L223.7,112.9L223.7,112.9z"/>
					<path class="st1" d="M245.1,112.3c4.1,0,7.3,1.2,9.7,3.6c2.4,2.4,3.6,5.7,3.6,9.9c0,1.6-0.2,3.3-0.6,5.1h-18
						c0.1,1.9,0.7,3.4,1.9,4.6c1.2,1.2,3.1,1.7,5.6,1.7c1.5,0,3.1-0.1,4.8-0.4c1.7-0.3,3.1-0.7,4.4-1.2l1.3,6.5
						c-1.6,0.8-3.4,1.4-5.4,1.8c-2,0.4-4.1,0.6-6.3,0.6c-2.7,0-5.1-0.4-7.2-1.2c-2.1-0.8-3.8-1.9-5.2-3.3c-1.4-1.4-2.5-3.1-3.2-5
						s-1.1-4.1-1.1-6.5c0-2.5,0.4-4.8,1.1-6.9c0.7-2,1.8-3.8,3.2-5.2c1.4-1.4,3-2.5,5-3.3C240.5,112.6,242.7,112.3,245.1,112.3z
						 M244.8,118.7c-1.6,0-2.8,0.5-3.7,1.6c-0.9,1-1.3,2.5-1.3,4.3h9c0.1-0.3,0.1-0.7,0.1-1.1c0-1.4-0.4-2.5-1.1-3.4
						C247.2,119.2,246.1,118.7,244.8,118.7z"/>
					<path class="st1" d="M284,121.7h-1.2c-4,0-6.9,1-8.5,3V144h-10.2v-31.1h9.8v5.2c0.6-1.7,1.5-3,2.7-4s2.8-1.5,4.8-1.5
						c0.6,0,1.1,0,1.5,0.1s0.8,0.2,1.2,0.3L284,121.7z"/>
					<path class="st1" d="M324,133.9c0,1.7-0.3,3.3-1,4.6c-0.7,1.4-1.6,2.5-2.8,3.4c-1.2,0.9-2.6,1.6-4.3,2.1s-3.5,0.7-5.5,0.7
						c-1.7,0-3.5-0.2-5.3-0.5c-1.9-0.3-3.6-0.8-5.1-1.4l1.4-7c1.3,0.6,2.8,1,4.4,1.2c1.6,0.3,3,0.4,4.2,0.4s2.3-0.2,3.2-0.5
						c0.9-0.4,1.4-1,1.4-1.8s-0.4-1.3-1.2-1.6c-0.8-0.3-2-0.8-3.6-1.4c-1.3-0.5-2.5-1-3.7-1.6s-2.1-1.2-3-2
						c-0.8-0.8-1.5-1.7-1.9-2.7c-0.5-1-0.7-2.2-0.7-3.6c0-3.4,1.1-5.9,3.4-7.5s5.3-2.4,9-2.4c1.9,0,3.7,0.2,5.3,0.5
						c1.6,0.4,3.2,1,4.6,1.8l-1.4,6.7c-1.1-0.5-2.4-0.9-3.6-1.2c-1.3-0.3-2.6-0.5-4-0.5c-1.2,0-2.2,0.1-2.8,0.3
						c-0.7,0.2-1,0.7-1,1.4c0,0.7,0.4,1.2,1.2,1.6c0.8,0.3,1.8,0.7,3,1.2c0.9,0.3,2,0.8,3.1,1.2c1.1,0.5,2.2,1.1,3.2,1.9
						s1.8,1.7,2.5,2.8C323.7,131,324,132.3,324,133.9z"/>
					<path class="st1" d="M343.3,112.3c4.1,0,7.3,1.2,9.7,3.6c2.4,2.4,3.6,5.7,3.6,9.9c0,1.6-0.2,3.3-0.6,5.1h-18
						c0.1,1.9,0.7,3.4,1.9,4.6c1.2,1.2,3.1,1.7,5.6,1.7c1.5,0,3.1-0.1,4.8-0.4c1.7-0.3,3.1-0.7,4.4-1.2l1.3,6.5
						c-1.6,0.8-3.4,1.4-5.4,1.8c-2,0.4-4.1,0.6-6.3,0.6c-2.7,0-5.1-0.4-7.2-1.2s-3.8-1.9-5.2-3.3c-1.4-1.4-2.5-3.1-3.2-5
						s-1.1-4.1-1.1-6.5c0-2.5,0.4-4.8,1.1-6.9c0.7-2,1.8-3.8,3.2-5.2c1.4-1.4,3-2.5,5-3.3C338.7,112.6,340.9,112.3,343.3,112.3z
						 M343,118.7c-1.6,0-2.8,0.5-3.7,1.6c-0.9,1-1.3,2.5-1.3,4.3h9c0.1-0.3,0.1-0.7,0.1-1.1c0-1.4-0.4-2.5-1.1-3.4
						S344.3,118.7,343,118.7z"/>
					<path class="st1" d="M382.1,121.7h-1.2c-4,0-6.9,1-8.5,3V144h-10.2v-31.1h9.8v5.2c0.6-1.7,1.5-3,2.7-4s2.8-1.5,4.8-1.5
						c0.6,0,1.1,0,1.5,0.1s0.8,0.2,1.2,0.3L382.1,121.7z"/>
					<path class="st1" d="M417,141c-1,1-2.3,1.8-4,2.6c-1.7,0.7-3.5,1.1-5.5,1.1c-1.4,0-2.6-0.2-3.7-0.7s-2-1.1-2.8-1.9
						c-0.7-0.8-1.3-1.7-1.7-2.8c-0.4-1.1-0.6-2.2-0.6-3.5c0-2.9,0.9-5,2.7-6.5c1.8-1.5,4.4-2.3,7.7-2.6c1.2-0.1,2.5-0.1,3.9-0.2
						c1.4,0,2.6-0.1,3.7-0.1v-1c0-3.4-1.9-5.1-5.7-5.1c-1.5,0-2.9,0.2-4.3,0.5s-2.6,0.8-3.8,1.4l-1.8-7c1.5-0.8,3.2-1.5,5.2-2.1
						c2-0.5,4.2-0.8,6.6-0.8c4.4,0,7.8,1.1,10.2,3.4c2.5,2.3,3.7,5.7,3.7,10.2V144H417V141z M411.5,138c1,0,1.9-0.1,2.8-0.4
						c0.9-0.3,1.7-0.6,2.4-1V132c-1,0.1-1.9,0.2-2.7,0.3c-0.8,0.1-1.6,0.2-2.4,0.3c-2.1,0.3-3.1,1.2-3.1,2.9c0,0.8,0.3,1.4,0.8,1.8
						C409.8,137.8,410.5,138,411.5,138z"/>
					<path class="st1" d="M462.9,112.9v6.5h-4.6l-0.1-0.1c0.5,1.3,0.7,2.5,0.7,3.7c0,1.4-0.3,2.8-0.9,4.1s-1.4,2.4-2.5,3.3
						c-1.1,1-2.5,1.7-4.2,2.3s-3.6,0.8-5.8,0.8h-0.4c-0.2,0.3-0.3,0.6-0.4,0.9c-0.1,0.3-0.2,0.6-0.2,0.9c0,0.6,0.2,1,0.7,1.3
						s1,0.4,1.7,0.5l5.5,0.3c3.1,0.2,5.6,1,7.5,2.4s2.8,3.5,2.8,6.3c0,1.9-0.5,3.7-1.6,5.1c-1,1.5-2.4,2.7-4.1,3.6
						c-1.7,1-3.7,1.7-5.8,2.2c-2.2,0.5-4.4,0.7-6.6,0.7c-1.8,0-3.5-0.1-5.2-0.4c-1.7-0.3-3.2-0.7-4.5-1.3s-2.4-1.4-3.2-2.4
						c-0.8-1-1.2-2.3-1.2-3.7c0-1,0.2-1.8,0.6-2.6c0.4-0.7,1-1.4,1.7-1.9c0.7-0.6,1.5-1,2.5-1.4c0.9-0.4,1.9-0.7,2.9-0.9
						c-1.9-0.9-2.8-2.3-2.8-4.3c0-0.8,0.2-1.5,0.5-2.2c0.3-0.6,0.7-1.2,1.2-1.7s1-0.9,1.6-1.3c0.6-0.4,1.1-0.6,1.6-0.9
						c-2.7-0.7-4.8-2-6.1-3.7c-1.4-1.8-2.1-3.8-2.1-6.1c0-1.5,0.3-2.9,0.9-4.2c0.6-1.3,1.4-2.4,2.5-3.4s2.5-1.7,4.2-2.3
						c1.7-0.5,3.6-0.8,5.8-0.8c0.9,0,1.8,0.1,2.6,0.2s1.6,0.3,2.3,0.5L462.9,112.9L462.9,112.9z M442.6,144.2
						c-0.5,0.4-1,0.8-1.6,1.4c-0.6,0.5-0.8,1.3-0.8,2.2c0,1.2,0.5,2.1,1.5,2.6s2.4,0.8,4.2,0.8c0.9,0,1.9-0.1,2.8-0.3
						s1.7-0.5,2.4-0.8c0.7-0.4,1.3-0.8,1.7-1.3c0.4-0.5,0.6-1,0.6-1.7c0-0.8-0.3-1.3-0.8-1.7c-0.5-0.3-1.4-0.6-2.5-0.6L442.6,144.2z
						 M445.6,127.3c1.5,0,2.6-0.4,3.4-1.2c0.8-0.8,1.1-1.9,1.1-3.2c0-1.4-0.4-2.4-1.1-3.2c-0.8-0.8-1.9-1.2-3.4-1.2
						s-2.6,0.4-3.4,1.2c-0.8,0.8-1.1,1.9-1.1,3.2c0,1.4,0.4,2.4,1.1,3.2C443,126.9,444.1,127.3,445.6,127.3z"/>
					<path class="st1" d="M481.3,112.3c4.1,0,7.3,1.2,9.7,3.6c2.4,2.4,3.6,5.7,3.6,9.9c0,1.6-0.2,3.3-0.6,5.1h-18
						c0.1,1.9,0.7,3.4,1.9,4.6c1.2,1.2,3.1,1.7,5.6,1.7c1.5,0,3.1-0.1,4.8-0.4c1.7-0.3,3.1-0.7,4.4-1.2l1.3,6.5
						c-1.6,0.8-3.4,1.4-5.4,1.8c-2,0.4-4.1,0.6-6.3,0.6c-2.7,0-5.1-0.4-7.2-1.2s-3.8-1.9-5.2-3.3c-1.4-1.4-2.5-3.1-3.2-5
						s-1.1-4.1-1.1-6.5c0-2.5,0.4-4.8,1.1-6.9c0.7-2,1.8-3.8,3.2-5.2c1.4-1.4,3-2.5,5-3.3C476.7,112.6,478.9,112.3,481.3,112.3z
						 M481,118.7c-1.6,0-2.8,0.5-3.7,1.6c-0.9,1-1.3,2.5-1.3,4.3h9c0.1-0.3,0.1-0.7,0.1-1.1c0-1.4-0.4-2.5-1.1-3.4
						S482.3,118.7,481,118.7z"/>
					<path class="st1" d="M500.3,144v-31.1h9.8v4.1c1-1.7,2.2-2.9,3.8-3.6c1.5-0.7,3.2-1.1,4.9-1.1c2.1,0,3.8,0.4,5.3,1.3
						c1.4,0.9,2.6,2,3.5,3.5c0.9,1.4,1.6,3.1,2,5s0.6,3.9,0.6,5.9v16H520v-16.3c0-2.6-0.4-4.5-1.2-5.7s-2-1.8-3.7-1.8
						c-1.1,0-2,0.2-2.8,0.7s-1.4,1-1.9,1.7V144H500.3z"/>
					<path class="st1" d="M533.8,112.9h4.8v-8.1h10.2v8.1h9v7.7h-9v12.1c0,1.2,0.3,2.2,0.8,2.9s1.5,1,2.9,1c0.8,0,1.5-0.1,2.3-0.2
						c0.8-0.1,1.5-0.3,2.3-0.5l0.7,7.1c-1,0.5-2.3,0.8-3.7,1.1c-1.5,0.3-3,0.4-4.4,0.4c-2,0-3.7-0.3-5-0.9c-1.4-0.6-2.5-1.4-3.4-2.5
						c-0.9-1-1.5-2.3-1.9-3.7s-0.6-2.9-0.6-4.5v-12.4H534v-7.6H533.8z"/>
					<path class="st1" d="M576.6,112.3c4.1,0,7.3,1.2,9.7,3.6s3.6,5.7,3.6,9.9c0,1.6-0.2,3.3-0.6,5.1h-18c0.1,1.9,0.7,3.4,1.9,4.6
						c1.2,1.2,3.1,1.7,5.6,1.7c1.5,0,3.1-0.1,4.8-0.4c1.7-0.3,3.1-0.7,4.4-1.2l1.3,6.5c-1.6,0.8-3.4,1.4-5.4,1.8
						c-2,0.4-4.1,0.6-6.3,0.6c-2.7,0-5.1-0.4-7.2-1.2c-2.1-0.8-3.8-1.9-5.2-3.3c-1.4-1.4-2.5-3.1-3.2-5s-1.1-4.1-1.1-6.5
						c0-2.5,0.4-4.8,1.1-6.9c0.7-2,1.8-3.8,3.2-5.2c1.4-1.4,3-2.5,5-3.3C572,112.6,574.1,112.3,576.6,112.3z M576.2,118.7
						c-1.6,0-2.8,0.5-3.7,1.6c-0.9,1-1.3,2.5-1.3,4.3h9c0.1-0.3,0.1-0.7,0.1-1.1c0-1.4-0.4-2.5-1.1-3.4S577.6,118.7,576.2,118.7z"/>
					<path class="st1" d="M620,112.3c0,1.9-0.4,3.6-1.1,5.2c-0.7,1.5-1.8,3-3.1,4.4c-1.4,1.4-3,2.7-4.9,4s-4.1,2.7-6.5,4.2l-4.6-7.2
						c1.4-1,2.8-1.9,4-2.7c1.2-0.8,2.3-1.6,3.2-2.4s1.6-1.5,2.2-2.3c0.5-0.8,0.8-1.6,0.8-2.5c0-1.3-0.4-2.2-1.2-2.8
						c-0.8-0.6-1.9-0.9-3.2-0.9c-1.5,0-2.9,0.2-4.3,0.7c-1.3,0.5-2.6,1.1-3.9,1.8l-2.9-7.2c1.9-1.2,3.8-2.1,5.8-2.7
						c1.9-0.6,4.2-0.9,6.8-0.9c1.8,0,3.5,0.2,5.1,0.7s3,1.2,4.2,2.1s2.1,2.1,2.8,3.5C619.7,108.8,620,110.4,620,112.3z M599.1,138.8
						c0-1.5,0.5-2.9,1.5-4s2.4-1.7,4.3-1.7c1.9,0,3.3,0.6,4.3,1.7c1,1.1,1.5,2.5,1.5,4s-0.5,2.9-1.5,4s-2.4,1.7-4.3,1.7
						c-1.9,0-3.3-0.6-4.3-1.7C599.6,141.7,599.1,140.3,599.1,138.8z"/>
				</g>
			</g>
		</g>
	</g>
</g>
</svg>
