<?xml version="1.0" encoding="utf-8"?>
<!-- Generator: Adobe Illustrator 23.0.4, SVG Export Plug-In . SVG Version: 6.00 Build 0)  -->
<svg version="1.1" id="Layer_1" xmlns="http://www.w3.org/2000/svg" xmlns:xlink="http://www.w3.org/1999/xlink" x="0px" y="0px"
	 viewBox="0 0 1024 250" style="enable-background:new 0 0 1024 250;" xml:space="preserve">
<style type="text/css">
	.st0{fill:#008F30;}
	.st1{fill:#FFFFFF;}
	.st2{fill:#03682C;}
	.st3{fill:#24201A;}
	.st4{fill-rule:evenodd;clip-rule:evenodd;fill:#169B38;}
	.st5{fill-rule:evenodd;clip-rule:evenodd;fill:#189C3F;}
	.st6{fill:#005B21;}
	.st7{fill:#189C3F;}
	.st8{fill:#292B2E;}
	.st9{enable-background:new    ;}
</style>
<g>
	<g>
		<g>
			<rect class="st0" width="1024" height="248"/>
		</g>
		<g>
			<path class="st1" d="M0,249.9v0.1h1024V11.6C1008.9,9,511.8-74.9,0,249.9z"/>
		</g>
	</g>
	<g>
		<g>
			<g>
				<g>
					<g>
						<g>
							<circle class="st2" cx="486.6" cy="31.7" r="18"/>
						</g>
						<g>
							<path class="st2" d="M461.2,78.6c0,13.2,0.1,62.7,0.1,63.4l0.2,42h21.3v-39.7c0,0-0.1-3.6,3.6-3.5c3.7,0,4.1,3.7,4.1,3.7V184
								h20.6v-36.6v-11c8.3-5.3,14.7-12.9,19.3-21.6c2.6-4.8,6.9-11.4,6.9-17c0-5.8-3.6-12.5-5.9-17.6c-3.9-8.4-8.8-16.4-16.2-22.2
								c-0.8-0.6-1.6-1-2.5-1.4c-0.1-0.1-0.1-0.1-0.1-0.2c-12.8-6.4-41.4-3.5-50.1-1.7V55c-13.1-8.8-20.4-24.5-22.9-40.1
								c-2-12.1-20.4-7-18.4,5.1c3.9,24,18,46.1,40.2,56L461.2,78.6z M520,96.8C520,95.9,520.2,95.9,520,96.8L520,96.8z M519.8,97.5
								c-0.1,0.4-0.3,0.8-0.5,1.3c-1.1,2.5-2.3,5.1-3.7,7.5c-1.4,2.5-3,4.9-4.7,7.2l-0.1-35C515,84.1,517.9,90.8,519.8,97.5z"/>
						</g>
					</g>
				</g>
			</g>
			<g>
				<path class="st1" d="M457.2,52.3l-8.8,14.6l13,9V121h48.9V77.5c0,0,4.8,3.7,6.6,9.5l13.2-8.8c0,0-10-18.2-17.2-21.5
					s-16.4-3-16.4-3l-11,4.4l-8-4.4l-11.7,1.5L457.2,52.3z"/>
			</g>
			<g>
				<g>
					<g>
						<path class="st3" d="M495.3,115.5V112h2.1v0.8h-1.2v0.6h1.1v0.7h-1.1v0.6h1.2v0.8H495.3z M493.5,115.5v-2.7h-0.8V112h2.5v0.8
							h-0.8v2.7H493.5z M490.9,113.7h0.2c0.2,0,0.4,0,0.5-0.1s0.1-0.2,0.1-0.3c0-0.2,0-0.3-0.1-0.4s-0.2-0.1-0.4-0.1H491v0.9H490.9z
							 M490,115.5V112h1c0.4,0,0.7,0,0.8,0.1c0.2,0,0.3,0.1,0.4,0.2s0.2,0.2,0.3,0.4c0.1,0.1,0.1,0.3,0.1,0.5c0,0.3-0.1,0.5-0.2,0.7
							s-0.3,0.3-0.6,0.3l1,1.4h-1.1l-0.8-1.4v1.4L490,115.5L490,115.5z M488,114.8c0.3,0,0.5-0.1,0.7-0.3c0.2-0.2,0.3-0.4,0.3-0.7
							c0-0.3-0.1-0.5-0.3-0.7c-0.2-0.2-0.4-0.3-0.7-0.3c-0.3,0-0.5,0.1-0.7,0.3c-0.2,0.2-0.3,0.4-0.3,0.7c0,0.3,0.1,0.5,0.3,0.7
							C487.6,114.7,487.8,114.8,488,114.8z M489.9,113.8c0,0.3,0,0.5-0.1,0.7s-0.2,0.4-0.4,0.6c-0.2,0.2-0.4,0.3-0.6,0.4
							s-0.5,0.1-0.7,0.1c-0.3,0-0.5,0-0.7-0.1s-0.4-0.2-0.6-0.4c-0.2-0.2-0.3-0.4-0.4-0.6s-0.1-0.5-0.1-0.7c0-0.3,0-0.5,0.1-0.7
							s0.2-0.4,0.4-0.6c0.2-0.2,0.4-0.3,0.6-0.4s0.5-0.1,0.7-0.1s0.5,0,0.7,0.1s0.4,0.2,0.6,0.4c0.2,0.2,0.3,0.4,0.4,0.6
							S489.9,113.5,489.9,113.8z M483.9,114.4c0.1,0.2,0.3,0.3,0.4,0.4s0.3,0.1,0.4,0.1s0.2,0,0.3-0.1c0.1-0.1,0.1-0.2,0.1-0.3
							c0-0.1,0-0.2-0.1-0.3c-0.1-0.1-0.2-0.1-0.5-0.2s-0.6-0.2-0.7-0.4c-0.1-0.1-0.2-0.4-0.2-0.6c0-0.3,0.1-0.6,0.3-0.8
							c0.2-0.2,0.5-0.3,0.9-0.3c0.2,0,0.4,0,0.5,0.1c0.2,0.1,0.3,0.1,0.5,0.2l-0.3,0.7c-0.1-0.1-0.2-0.2-0.3-0.2
							c-0.1,0-0.2-0.1-0.3-0.1c-0.1,0-0.2,0-0.3,0.1c-0.1,0.1-0.1,0.1-0.1,0.2s0,0.2,0.1,0.2c0.1,0.1,0.2,0.1,0.4,0.2l0,0
							c0.4,0.1,0.6,0.2,0.8,0.3c0.1,0.1,0.1,0.2,0.2,0.3c0,0.1,0.1,0.3,0.1,0.4c0,0.4-0.1,0.7-0.4,0.9c-0.2,0.2-0.6,0.3-1,0.3
							c-0.2,0-0.5,0-0.7-0.1s-0.4-0.2-0.6-0.4L483.9,114.4z M493.9,109.7v1.8h-0.6v-0.3c-0.1,0.1-0.2,0.2-0.3,0.3
							c-0.1,0.1-0.2,0.1-0.4,0.1c-0.2,0-0.4-0.1-0.6-0.3c-0.1-0.2-0.2-0.4-0.2-0.7c0-0.3,0.1-0.5,0.2-0.7c0.2-0.2,0.4-0.3,0.6-0.3
							c0.1,0,0.3,0,0.4,0.1s0.2,0.1,0.3,0.3v-0.3H493.9z M493.4,110.6c0-0.1,0-0.3-0.1-0.3c-0.1-0.1-0.2-0.1-0.3-0.1s-0.2,0-0.3,0.1
							c-0.1,0.1-0.1,0.2-0.1,0.3c0,0.1,0,0.3,0.1,0.3c0.1,0.1,0.2,0.1,0.3,0.1c0.1,0,0.2,0,0.3-0.1
							C493.3,110.9,493.4,110.8,493.4,110.6z M491.8,108.8v2.8h-0.6v-0.3c-0.1,0.1-0.2,0.2-0.3,0.3c-0.1,0.1-0.2,0.1-0.3,0.1
							c-0.3,0-0.5-0.1-0.6-0.3c-0.1-0.2-0.2-0.4-0.2-0.7c0-0.3,0.1-0.5,0.2-0.7s0.3-0.3,0.6-0.3c0.2,0,0.3,0,0.4,0.1
							s0.2,0.1,0.3,0.3V110c0-0.1,0-0.1,0-0.2v-0.9L491.8,108.8L491.8,108.8z M491.2,110.7c0-0.1,0-0.3-0.1-0.3
							c-0.1-0.1-0.2-0.1-0.3-0.1c-0.1,0-0.2,0-0.3,0.1c-0.1,0.1-0.1,0.2-0.1,0.3c0,0.1,0,0.3,0.1,0.3c0.1,0.1,0.2,0.1,0.3,0.1
							c0.1,0,0.2,0,0.3-0.1C491.2,110.9,491.2,110.8,491.2,110.7z M496.1,108.1c0.3,0,0.5-0.1,0.7-0.3c0.2-0.2,0.3-0.4,0.3-0.7
							c0-0.3-0.1-0.5-0.3-0.7c-0.2-0.2-0.4-0.3-0.7-0.3c-0.3,0-0.5,0.1-0.7,0.3c-0.2,0.2-0.3,0.4-0.3,0.7c0,0.3,0.1,0.5,0.3,0.7
							C495.6,108,495.8,108.1,496.1,108.1z M497.9,107.1c0,0.3,0,0.5-0.1,0.7s-0.2,0.4-0.4,0.6c-0.2,0.2-0.4,0.3-0.6,0.4
							s-0.5,0.1-0.7,0.1c-0.3,0-0.5,0-0.7-0.1s-0.4-0.2-0.6-0.4c-0.2-0.2-0.3-0.4-0.4-0.6s-0.1-0.5-0.1-0.7c0-0.3,0-0.5,0.1-0.7
							s0.2-0.4,0.4-0.6c0.2-0.2,0.4-0.3,0.6-0.4s0.5-0.1,0.7-0.1s0.5,0,0.7,0.1s0.4,0.2,0.6,0.4c0.2,0.2,0.3,0.4,0.4,0.6
							S497.9,106.8,497.9,107.1z M492.4,108.8l-1.5-3.5h1l0.7,2v0.1c0,0.1,0,0.2,0.1,0.3c0-0.1,0-0.2,0.1-0.3c0-0.1,0-0.1,0-0.2
							l0.7-2h1l-1.5,3.5L492.4,108.8L492.4,108.8z M488.6,108.8v-3.5h2.1v0.8h-1.2v0.6h1.1v0.7h-1.1v0.6h1.2v0.8H488.6z
							 M483.8,108.8v-2.7H483v-0.8h2.5v0.8h-0.8v2.7H483.8z"/>
					</g>
					<g>
						<path class="st3" d="M486.6,107h0.2c0.2,0,0.4,0,0.5-0.1s0.1-0.2,0.1-0.3c0-0.2,0-0.3-0.1-0.4s-0.2-0.1-0.4-0.1h-0.2v0.9
							H486.6z M485.7,108.8v-3.5h1c0.4,0,0.7,0,0.8,0.1c0.2,0,0.3,0.1,0.4,0.2s0.2,0.2,0.3,0.4c0.1,0.1,0.1,0.3,0.1,0.5
							c0,0.3-0.1,0.5-0.2,0.7s-0.3,0.3-0.6,0.3l1,1.4h-1.1l-0.8-1.4v1.4L485.7,108.8L485.7,108.8z"/>
					</g>
					<g>
						<path class="st4" d="M479.2,94.4c-0.4,0.3-1.3,1.3-1.7,1.7l-0.8,1l-0.8,1.3c-0.3,0.5-0.6,1.1-0.9,1.7
							c-0.1,0.1-0.1,0.2-0.2,0.4c-0.2,0.5-0.4,1-0.5,1.6c-0.2,0.8-0.3,1.6-0.3,2.3v0.1c0,1.9,0.6,3.7,2,5.3l0.8,0.8
							c0.7,0.6,0.8,0.7,1.8,1.4l0.7,0.4c0.1,0.1,0.2,0.1,0.3,0.2c0.6,0.3,2,0.9,2.6,1c0.2,0.1,0.6,0.2,0.8,0.2
							c-0.3-0.5-0.5-1.1,0-1.7c0.1-0.1,0.1-0.1,0.2-0.2l-0.7-0.2c-1-0.3-1.7-0.6-2.6-1.1c-0.1-0.1-0.2-0.1-0.3-0.2
							c-0.4-0.2-0.8-0.5-1.1-0.7c-1.5-1-2.8-2.6-3.2-4.7c-0.2-1.2-0.1-2.3,0.1-3.3c0.3-1.4,0.8-2.4,1.4-3.7c0.1-0.1,0.1-0.2,0.2-0.3
							c0.1-0.1,0.1-0.2,0.2-0.3c0.6-1,1.1-1.8,1.8-2.8C479.1,94.6,479.2,94.5,479.2,94.4"/>
					</g>
					<g>
						<polygon class="st4" points="479.3,94.4 479.3,94.4 479.3,94.3 						"/>
					</g>
					<g>
						<path class="st4" d="M479.3,94.4L479.3,94.4L479.3,94.4z"/>
					</g>
					<g>
						<path class="st5" d="M481.9,90.9c0,0.2-0.6,1.1-0.7,1.2l-0.6,0.9c-0.8,1.1-0.9,0.8-1.9,2.5s-1.6,4.4-0.7,6.2
							c0.2,0.4,0.6,0.9,0.9,1.2c0.4,0.3,0.6,0.5,1.1,0.7c1.2,0.4,2.8,0.5,3.9-0.3c1-0.8,1.4-2,1.7-3.2c0.1-0.4,0.2-1.1,0.2-1.5
							c0-0.1,0-0.1,0.1-0.2c0,0.2,0,0.3,0,0.5c0,1.2,0,1.6-0.3,2.8c0,0.1-0.1,0.3-0.1,0.4c1.3,0.7,3.2,0.5,4.3-0.2l0.4-0.3
							c0.3-0.2,0.7-0.7,0.9-1.1c0.3-0.8,0.4-1.4,0.2-2.3c-0.2-0.9-0.6-1.7-1.1-2.5c-0.3-0.5-1.2-1.7-1.6-2.1l-0.3-0.4
							c-0.2-0.2-0.4-0.4-0.7-0.7c-0.2-0.2-0.6-0.4-0.7-0.6c0.4,0.1,2.6,2.1,4.6,2.4c1.2,0.2,2.1,0.1,3-0.3c0.2-0.1,0.4-0.2,0.6-0.3
							c0.2-0.2,0.5-0.4,0.7-0.6l0.6-0.7c0.4-0.6,0.7-1.4,0.7-2.1v-0.4c0-0.9-0.5-1.8-1.3-2.4c-0.7-0.5-1.8-0.8-2.7-0.8
							c-0.3,0-0.6-0.1-0.8,0h-0.8c-0.4,0-1.2,0.1-1.6,0.1c0.1-0.1,1.1-0.3,1.3-0.3c0.3-0.1,1.5-0.2,1.8-0.1c0.1,0,0.3,0,0.4,0
							c0.4,0,1.7,0.2,2,0.4c0-0.1,0.1-0.2,0.1-0.3c0.9-2.6-0.5-6-4.3-5c-0.6,0.2-1.1,0.4-1.6,0.6c-0.4,0.2-1,0.6-1.4,0.9
							s-1.1,0.9-1.4,1.2l-0.6,0.5c-0.1,0.1-0.1,0.1-0.2,0.2c-0.3,0.3-0.6,0.7-0.9,1c-0.1,0.1-0.2,0.3-0.3,0.4
							c-0.2,0.2-0.9,1.1-1,1.2c0-0.2,0.5-0.7,0.6-0.9l0.8-1.1c0.1-0.1,0.1-0.1,0.2-0.2c0.8-0.9,1.7-2,2.2-3.1
							c0.6-1.6,0.8-3.4-0.1-4.9c-0.5-0.8-1.4-1.3-2.3-1.5c-0.2,0-0.3,0-0.5,0h-0.2l0,0c-0.9,0-1.6,0.3-2.3,0.7
							c-0.2,0.1-0.8,0.6-0.9,0.6c0,0.1,0.1,0.3,0.1,0.4c0.2,0.7,0.9,2.2,0.9,2.9l0,0c-0.2-0.4-0.3-1-0.5-1.4
							c-0.2-0.5-0.4-0.9-0.7-1.3c-0.3-0.4-0.6-0.7-1-0.9c-0.3-0.2-1.1-0.4-1.6-0.3c-0.3,0-0.6,0-0.9,0.1c-0.8,0.2-1.3,0.6-1.9,1
							c-0.5,0.4-1,1.1-1.3,1.7c-0.4,1.1-0.2,2.4,0.3,3.5c0,0.1,0.1,0.1,0.1,0.2c0.2,0.3,0.4,0.6,0.6,0.9l0.5,0.5
							c0.1,0.1,0.2,0.2,0.2,0.2l0.3,0.2c0.1,0.1,0.1,0.1,0.3,0.2c0.3,0.2,0.3,0.2,0.6,0.4l2.1,1.3c0.2,0.1,0.4,0.3,0.6,0.4
							c0.1,0.1,0.2,0.1,0.3,0.2c0.2,0.2,1.3,0.9,1.4,1.1c-0.1-0.1-0.3-0.2-0.4-0.3c-1.1-0.7-2.1-1.4-3.3-1.9
							c-0.2-0.1-0.3-0.1-0.5-0.2l-1-0.5c-1-0.4-1.9-0.7-3-0.7c-0.1,0-0.2,0-0.3,0c-0.1,0-0.2,0-0.3,0c-0.6,0-1.3,0.2-1.9,0.4
							c-1.6,0.6-2.4,2.1-1.9,3.8c0.3,1,0.5,1.2,1,2c0.2-0.1,0.4-0.4,0.6-0.5c0.9-0.7,2-1,3.2-1.2c0.7-0.1,1.3-0.1,2.1-0.1
							c0.2,0,0.7,0,0.9,0.1c0.1,0,0.1,0,0.1,0.1c-1.1,0-2.8,0.3-3.9,0.6c-0.8,0.2-1.6,0.6-2.2,1.1c-0.1,0-0.1,0.1-0.1,0.1l-0.3,0.3
							c-0.2,0.2-0.4,0.5-0.6,0.8c-0.7,1.4-0.6,3,0.5,4.2c0.1,0.1,0.2,0.2,0.3,0.3c0.1,0.1,0.2,0.2,0.3,0.2c0.2,0.2,0.5,0.3,0.7,0.4
							c0.9,0.4,2,0.4,2.9,0.2c1.1-0.2,2.1-0.7,3-1.4c0.2-0.2,0.4-0.3,0.6-0.5l0.7-0.6c0.1,0,0.1-0.1,0.1-0.1l0.3-0.3
							c0.4-0.4,0.7-0.8,1.1-1.2c0.1-0.1,0.2-0.2,0.3-0.3c0.1-0.1,0.2-0.2,0.2-0.3c0.2-0.2,0.3-0.4,0.5-0.6l0.7-1
							C481.8,91.1,481.9,90.9,481.9,90.9"/>
					</g>
				</g>
				<g>
					<g>
						<g>
							<path class="st6" d="M470.5,65.7l-0.3-0.3l-0.3,0.4c-0.3,0-0.5,0.1-0.9,0.1h-0.3l1,7.2c0.1,0.7,0,1-0.1,1.1
								c-0.1,0.2-0.3,0.3-0.6,0.3c-0.3,0-0.7,0-1.1,0l-0.4-0.1l0.2,1.2l-0.2,0.1l0.3,0.3h0.2c0.1,0,0.2,0,0.3,0c0.3,0,0.5,0,0.7,0
								c0.8-0.1,1.5-0.5,1.9-1c0.4-0.6,0.6-1.3,0.5-2.2L470.5,65.7z"/>
						</g>
						<g>
							<path class="st6" d="M479.1,65.9c-0.8-0.7-2-1.1-3.2-1s-2.3,0.6-3,1.5s-1,2-0.8,3.3c0.1,1.3,0.7,2.3,1.5,3.1
								c0.7,0.6,1.6,1,2.7,1c0.1,0,0.2,0,0.4,0c1.2-0.1,2.2-0.6,2.9-1.4c0.7-0.8,1-2,1-3.3C480.3,67.8,479.9,66.7,479.1,65.9z
								 M478.1,71.5c-0.4,0.5-0.9,0.8-1.6,0.9s-1.2-0.2-1.7-0.6c-0.5-0.5-0.7-1.2-0.8-2.2c-0.1-1,0-1.7,0.4-2.3
								c0.4-0.5,0.9-0.9,1.7-0.9c0.1,0,0.2,0,0.2,0c0.6,0,1.2,0.2,1.6,0.6c0.5,0.5,0.7,1.2,0.8,2.2
								C478.6,70.1,478.5,70.9,478.1,71.5z"/>
						</g>
						<g>
							<path class="st6" d="M496.8,66.3c-0.7-0.8-1.8-1.4-3-1.5s-2.4,0.3-3.2,1c-0.8,0.7-1.2,1.9-1.3,3.2c0,1.3,0.3,2.4,1,3.2
								c0.7,0.8,1.7,1.3,2.8,1.4c0.1,0,0.2,0,0.4,0c1.1,0,2-0.3,2.7-1c0.8-0.7,1.3-1.8,1.4-3.1C497.8,68.3,497.5,67.2,496.8,66.3z
								 M495.8,69.4c-0.1,1-0.4,1.7-0.8,2.2s-1,0.7-1.8,0.6c-0.7,0-1.2-0.3-1.6-0.9S491,70,491.1,69c0-1,0.3-1.7,0.7-2.2
								c0.4-0.5,1.1-0.7,1.8-0.7c0.7,0.1,1.3,0.4,1.7,0.9C495.8,67.7,495.9,68.5,495.8,69.4z"/>
						</g>
						<g>
							<path class="st6" d="M500.6,67.2c0.2-0.1,0.5-0.2,0.9-0.1c0.3,0,0.8,0.2,1.8,0.7l0.4,0.2l0.3-1.6l-0.3-0.3l-0.1,0.1
								c-0.6-0.3-1.3-0.4-1.9-0.5c-0.8-0.1-1.5,0-2.1,0.4s-0.9,0.9-1,1.6c-0.1,0.5,0.1,1,0.3,1.4c0.3,0.4,0.7,0.8,1.4,1.3
								c0.2,0.2,0.3,0.2,0.5,0.4c0.5,0.4,0.7,0.6,0.8,0.8c0.1,0.2,0.2,0.4,0.1,0.6c0,0.3-0.2,0.5-0.4,0.6c-0.2,0.2-0.6,0.2-0.9,0.2
								c-0.6-0.1-1.3-0.4-2-0.8l-0.4-0.3l-0.2,1.4l-0.2-0.1l-0.1,0.2l0.3,0.3l0.2,0.1c0.9,0.3,1.5,0.5,2.1,0.6c0.2,0,0.4,0,0.6,0
								c0.6,0,1.2-0.1,1.7-0.4c0.7-0.4,1-1,1.2-1.7c0.1-0.5,0-1-0.3-1.5c-0.3-0.4-0.7-0.9-1.4-1.4c-0.2-0.2-0.3-0.2-0.6-0.4
								c-0.5-0.3-0.8-0.6-0.9-0.8c-0.1-0.2-0.2-0.3-0.2-0.5C500.2,67.5,500.3,67.3,500.6,67.2z"/>
						</g>
						<g>
							<path class="st6" d="M487.9,64.9c-0.8-0.2-1.7-0.4-2.6-0.3c-1.1,0-2.3,0.2-3.3,1.2c-0.8,0.8-1.1,1.9-1.1,3.3s0.5,2.5,1.2,3.2
								s1.8,1.1,3.1,1.1l0,0c0.9,0,1.8-0.2,2.6-0.4h0.2l0.1-3.7L488,69l-0.1,0.3c-0.4,0-0.6,0-1,0h-0.3v2.6c-0.3,0.1-0.6,0.1-1,0.1
								c-0.6,0-1.5-0.3-2-0.8s-0.7-1.3-0.8-2.2c0-0.9,0.2-1.7,0.6-2.3c0.4-0.5,1.3-0.8,1.9-0.8c0.8,0,1.6,0.2,2.6,0.6l0.4,0.1v-1.7
								l-0.3-0.3L487.9,64.9z"/>
						</g>
					</g>
					<g>
						<g>
							<path class="st7" d="M470.2,65.4h-0.3c-0.5,0.1-0.7,0.1-1.2,0.2h-0.3l1,7.2c0.1,0.7,0,1-0.1,1.1c-0.1,0.2-0.3,0.3-0.6,0.3
								c-0.3,0-0.7,0-1.1,0l-0.4-0.1l0.3,1.6h0.2c0.1,0,0.2,0,0.3,0c0.3,0,0.5,0,0.7,0c0.8-0.1,1.5-0.5,1.9-1
								c0.4-0.6,0.6-1.3,0.5-2.2L470.2,65.4z"/>
						</g>
						<g>
							<path class="st7" d="M478.8,65.6c-0.8-0.7-2-1.1-3.2-1s-2.3,0.6-3,1.5s-1,2-0.8,3.3c0.1,1.3,0.7,2.3,1.5,3.1
								c0.7,0.6,1.6,1,2.7,1c0.1,0,0.2,0,0.4,0c1.2-0.1,2.2-0.6,2.9-1.4c0.7-0.8,1-2,1-3.3C480,67.5,479.6,66.4,478.8,65.6z
								 M477.8,71.2c-0.4,0.5-0.9,0.8-1.6,0.9s-1.2-0.2-1.7-0.6c-0.5-0.5-0.7-1.2-0.8-2.2c-0.1-1,0-1.7,0.4-2.3
								c0.4-0.5,0.9-0.9,1.7-0.9c0.1,0,0.2,0,0.2,0c0.6,0,1.2,0.2,1.6,0.6c0.5,0.5,0.7,1.2,0.8,2.2
								C478.3,69.8,478.2,70.6,477.8,71.2z"/>
						</g>
						<g>
							<path class="st7" d="M485,64.2c-1.1,0-2.3,0.2-3.3,1.2c-0.8,0.8-1.1,1.9-1.1,3.3s0.5,2.5,1.2,3.2s1.8,1.1,3.1,1.1l0,0
								c0.9,0,1.8-0.2,2.6-0.4h0.2L488,69h-0.3c-0.5,0-0.7,0-1.2,0h-0.3v2.6c-0.3,0.1-0.6,0.1-1,0.1c-0.6,0-1.5-0.3-2-0.8
								s-0.7-1.3-0.8-2.2c0-0.9,0.2-1.7,0.6-2.3c0.4-0.5,1.3-0.8,1.9-0.8c0.8,0,1.6,0.2,2.6,0.6l0.4,0.1v-1.7l-0.3-0.1
								C486.9,64.4,486,64.2,485,64.2z"/>
						</g>
						<g>
							<path class="st7" d="M493.5,64.5c-1.2-0.1-2.4,0.3-3.2,1c-0.8,0.7-1.2,1.9-1.3,3.2c0,1.3,0.3,2.4,1,3.2
								c0.7,0.8,1.7,1.3,2.8,1.4c0.1,0,0.2,0,0.4,0c1.1,0,2-0.3,2.7-1c0.8-0.7,1.3-1.8,1.4-3.1c0.1-1.3-0.2-2.5-0.8-3.3
								C495.8,65.2,494.7,64.6,493.5,64.5z M495.5,69.1c-0.1,1-0.4,1.7-0.8,2.2s-1,0.7-1.8,0.6c-0.7,0-1.2-0.3-1.6-0.9
								s-0.6-1.3-0.5-2.3c0-1,0.3-1.7,0.7-2.2c0.4-0.5,1.1-0.7,1.8-0.7c0.7,0.1,1.3,0.4,1.7,0.9C495.4,67.4,495.6,68.2,495.5,69.1z"
								/>
						</g>
						<g>
							<path class="st7" d="M500.3,66.9c0.2-0.1,0.5-0.2,0.9-0.1c0.3,0,0.8,0.2,1.8,0.7l0.4,0.2l0.3-1.6l-0.2-0.1
								c-0.7-0.3-1.4-0.5-2.1-0.6c-0.8-0.1-1.5,0-2.1,0.4s-0.9,0.9-1,1.6c-0.1,0.5,0.1,1,0.3,1.4c0.3,0.4,0.7,0.8,1.4,1.3
								c0.2,0.2,0.3,0.2,0.5,0.4c0.5,0.4,0.7,0.6,0.8,0.8c0.1,0.2,0.2,0.4,0.1,0.6c0,0.3-0.2,0.5-0.4,0.6c-0.2,0.2-0.6,0.2-0.9,0.2
								c-0.6-0.1-1.3-0.4-2-0.8l-0.4-0.3l-0.2,1.8l0.2,0.1c0.9,0.3,1.5,0.5,2.1,0.6c0.2,0,0.4,0,0.6,0c0.6,0,1.2-0.1,1.7-0.4
								c0.7-0.4,1-1,1.2-1.7c0.1-0.5,0-1-0.3-1.5c-0.3-0.4-0.7-0.9-1.4-1.4c-0.2-0.2-0.3-0.2-0.6-0.4c-0.5-0.3-0.8-0.6-0.9-0.8
								c-0.1-0.2-0.2-0.3-0.2-0.5C499.9,67.2,500,67,500.3,66.9z"/>
						</g>
					</g>
				</g>
			</g>
		</g>
		<g>
			<g>
				<path class="st8" d="M463.2,242H132.9c-27.8,0-50.4-22.5-50.4-50.4l0,0c0-27.8,22.5-50.4,50.4-50.4h330.3
					c27.8,0,50.4,22.5,50.4,50.4l0,0C513.5,219.5,491,242,463.2,242z"/>
			</g>
			<g>
				<g class="st9">
					<path class="st1" d="M152.9,210.7l-17.5-25.2v25.2h-10v-42.3h10l17.5,25.2v-25.2h10v42.3H152.9z"/>
					<path class="st1" d="M201.9,195.1c0,2.3-0.4,4.4-1.1,6.4c-0.7,2-1.8,3.7-3.2,5.1c-1.4,1.5-3.1,2.6-5.2,3.4
						c-2.1,0.8-4.4,1.2-7.1,1.2c-2.7,0-5-0.4-7.1-1.2s-3.8-2-5.2-3.4c-1.4-1.5-2.5-3.2-3.2-5.1c-0.7-2-1.1-4.1-1.1-6.4
						c0-2.3,0.4-4.4,1.1-6.4c0.7-2,1.8-3.7,3.2-5.1c1.4-1.5,3.1-2.6,5.2-3.4c2.1-0.8,4.4-1.2,7.1-1.2c2.7,0,5,0.4,7.1,1.2
						s3.8,2,5.2,3.4c1.4,1.5,2.5,3.2,3.2,5.1C201.5,190.7,201.9,192.8,201.9,195.1z M191.7,195.1c0-1.1-0.1-2.2-0.3-3.2
						s-0.6-2-1-2.8c-0.5-0.8-1.1-1.5-2-2c-0.8-0.5-1.9-0.7-3.1-0.7c-1.2,0-2.3,0.2-3.1,0.7s-1.5,1.1-2,2c-0.5,0.8-0.8,1.8-1,2.8
						s-0.3,2.1-0.3,3.2c0,1.1,0.1,2.2,0.3,3.2s0.6,2,1,2.8c0.5,0.8,1.1,1.5,2,2s1.9,0.7,3.1,0.7c1.2,0,2.3-0.2,3.1-0.7s1.5-1.1,2-2
						c0.5-0.8,0.8-1.8,1-2.8C191.6,197.3,191.7,196.2,191.7,195.1z"/>
					<path class="st1" d="M229.5,200.5c0,1.7-0.3,3.3-1,4.6c-0.7,1.4-1.6,2.5-2.8,3.4s-2.6,1.6-4.3,2.1s-3.5,0.7-5.5,0.7
						c-1.7,0-3.5-0.2-5.3-0.5c-1.9-0.3-3.6-0.8-5.1-1.4l1.4-7c1.3,0.6,2.8,1,4.4,1.2s3,0.4,4.2,0.4s2.3-0.2,3.2-0.5
						c0.9-0.4,1.4-1,1.4-1.8s-0.4-1.3-1.2-1.6s-2-0.8-3.6-1.4c-1.3-0.5-2.5-1-3.7-1.6c-1.1-0.6-2.1-1.2-3-2
						c-0.8-0.8-1.5-1.7-1.9-2.7c-0.5-1-0.7-2.2-0.7-3.6c0-3.4,1.1-5.9,3.4-7.5s5.3-2.4,9-2.4c1.9,0,3.7,0.2,5.3,0.5
						c1.6,0.4,3.2,1,4.6,1.8l-1.4,6.7c-1.1-0.5-2.4-0.9-3.6-1.2c-1.3-0.3-2.6-0.5-4-0.5c-1.2,0-2.2,0.1-2.8,0.3
						c-0.7,0.2-1,0.7-1,1.4s0.4,1.2,1.2,1.6c0.8,0.3,1.8,0.7,3,1.2c0.9,0.3,2,0.8,3.1,1.2c1.1,0.5,2.2,1.1,3.2,1.9
						c1,0.8,1.8,1.7,2.5,2.8C229.2,197.7,229.5,199,229.5,200.5z"/>
					<path class="st1" d="M265.6,207.6c-1,1-2.3,1.8-4,2.6c-1.7,0.7-3.5,1.1-5.5,1.1c-1.4,0-2.6-0.2-3.7-0.7c-1.1-0.5-2-1.1-2.8-1.9
						c-0.7-0.8-1.3-1.7-1.7-2.8s-0.6-2.2-0.6-3.5c0-2.9,0.9-5,2.7-6.5s4.4-2.3,7.7-2.6c1.2-0.1,2.5-0.1,3.9-0.2
						c1.4,0,2.6-0.1,3.7-0.1v-1c0-3.4-1.9-5.1-5.7-5.1c-1.5,0-2.9,0.2-4.3,0.5c-1.4,0.3-2.6,0.8-3.8,1.4l-1.8-7.1
						c1.5-0.8,3.2-1.5,5.2-2.1c2-0.5,4.2-0.8,6.6-0.8c4.4,0,7.8,1.1,10.2,3.4c2.5,2.3,3.7,5.7,3.7,10.2v18.2h-9.8L265.6,207.6
						L265.6,207.6z M260.1,204.6c1,0,1.9-0.1,2.8-0.4c0.9-0.3,1.7-0.6,2.4-1v-4.6c-1,0.1-1.9,0.2-2.7,0.3c-0.8,0.1-1.6,0.2-2.4,0.3
						c-2.1,0.3-3.1,1.2-3.1,2.9c0,0.8,0.3,1.4,0.8,1.8C258.4,204.4,259.1,204.6,260.1,204.6z"/>
					<path class="st1" d="M311.6,179.6v6.5H307l-0.1-0.1c0.5,1.3,0.7,2.5,0.7,3.7c0,1.4-0.3,2.8-0.9,4.1s-1.4,2.4-2.5,3.3
						c-1.1,1-2.5,1.7-4.2,2.3s-3.6,0.8-5.8,0.8h-0.4c-0.2,0.3-0.3,0.6-0.4,0.9c-0.1,0.3-0.2,0.6-0.2,0.9c0,0.6,0.2,1,0.7,1.3
						s1,0.4,1.7,0.5l5.5,0.3c3.1,0.2,5.6,1,7.5,2.4s2.8,3.5,2.8,6.3c0,1.9-0.5,3.7-1.6,5.1c-1,1.5-2.4,2.7-4.1,3.6
						c-1.7,1-3.7,1.7-5.8,2.2c-2.2,0.5-4.4,0.7-6.6,0.7c-1.8,0-3.5-0.1-5.2-0.4c-1.7-0.3-3.2-0.7-4.5-1.3s-2.4-1.4-3.2-2.4
						c-0.8-1-1.2-2.3-1.2-3.7c0-1,0.2-1.8,0.6-2.6c0.4-0.7,1-1.4,1.7-1.9c0.7-0.6,1.5-1,2.5-1.4c0.9-0.4,1.9-0.7,2.9-0.9
						c-1.9-0.9-2.8-2.3-2.8-4.3c0-0.8,0.2-1.5,0.5-2.2c0.3-0.6,0.7-1.2,1.2-1.7s1-0.9,1.6-1.3c0.6-0.4,1.1-0.6,1.6-0.9
						c-2.7-0.7-4.8-2-6.1-3.7c-1.4-1.8-2.1-3.8-2.1-6.1c0-1.5,0.3-2.9,0.9-4.2s1.4-2.4,2.5-3.4s2.5-1.7,4.2-2.3s3.6-0.8,5.8-0.8
						c0.9,0,1.8,0.1,2.6,0.2s1.6,0.3,2.3,0.5L311.6,179.6L311.6,179.6z M291.2,210.8c-0.5,0.4-1,0.8-1.6,1.4
						c-0.6,0.6-0.8,1.3-0.8,2.2c0,1.2,0.5,2.1,1.5,2.6c1,0.6,2.4,0.8,4.2,0.8c0.9,0,1.9-0.1,2.8-0.3s1.7-0.5,2.4-0.8
						c0.7-0.4,1.3-0.8,1.7-1.3c0.4-0.5,0.6-1,0.6-1.7c0-0.8-0.3-1.3-0.8-1.7c-0.5-0.3-1.4-0.6-2.5-0.6L291.2,210.8z M294.2,193.9
						c1.5,0,2.6-0.4,3.4-1.2s1.1-1.9,1.1-3.2s-0.4-2.4-1.1-3.2c-0.8-0.8-1.9-1.2-3.4-1.2s-2.6,0.4-3.4,1.2s-1.1,1.9-1.1,3.2
						s0.4,2.4,1.1,3.2S292.7,193.9,294.2,193.9z"/>
					<path class="st1" d="M329.9,178.9c4.1,0,7.3,1.2,9.7,3.6c2.4,2.4,3.6,5.7,3.6,9.9c0,1.6-0.2,3.3-0.6,5.1h-18
						c0.1,1.9,0.7,3.4,1.9,4.6c1.2,1.2,3.1,1.7,5.6,1.7c1.5,0,3.1-0.1,4.8-0.4c1.7-0.3,3.1-0.7,4.4-1.2l1.3,6.5
						c-1.6,0.8-3.4,1.4-5.4,1.8c-2,0.4-4.1,0.6-6.3,0.6c-2.7,0-5.1-0.4-7.2-1.2s-3.8-1.9-5.2-3.3c-1.4-1.4-2.5-3.1-3.2-5
						s-1.1-4.1-1.1-6.5c0-2.5,0.4-4.8,1.1-6.9c0.7-2,1.8-3.8,3.2-5.2c1.4-1.4,3-2.5,5-3.3C325.3,179.3,327.5,178.9,329.9,178.9z
						 M329.6,185.4c-1.6,0-2.8,0.5-3.7,1.6c-0.9,1-1.3,2.5-1.3,4.3h9c0.1-0.3,0.1-0.7,0.1-1.1c0-1.4-0.4-2.5-1.1-3.4
						C331.9,185.8,330.9,185.4,329.6,185.4z"/>
					<path class="st1" d="M348.9,210.7v-31.1h9.8v4.1c1-1.7,2.2-2.9,3.8-3.6c1.5-0.7,3.2-1.1,4.9-1.1c2.1,0,3.8,0.4,5.3,1.3
						c1.4,0.9,2.6,2,3.5,3.5c0.9,1.4,1.6,3.1,2,5s0.6,3.9,0.6,5.9v16.1h-10.2v-16.3c0-2.6-0.4-4.5-1.2-5.7c-0.8-1.2-2-1.8-3.7-1.8
						c-1.1,0-2,0.2-2.8,0.7s-1.4,1-1.9,1.7v21.3L348.9,210.7L348.9,210.7z"/>
					<path class="st1" d="M382.4,179.6h4.8v-8.1h10.2v8.1h9v7.7h-9v12.1c0,1.2,0.3,2.2,0.8,2.9s1.5,1,2.9,1c0.8,0,1.5-0.1,2.3-0.2
						c0.8-0.1,1.5-0.3,2.3-0.5l0.7,7.1c-1,0.5-2.3,0.8-3.7,1.1c-1.5,0.3-3,0.4-4.4,0.4c-2,0-3.7-0.3-5-0.9c-1.4-0.6-2.5-1.4-3.4-2.5
						c-0.9-1-1.5-2.3-1.9-3.7s-0.6-2.9-0.6-4.5v-12.4h-4.8v-7.6H382.4z"/>
					<path class="st1" d="M425.2,178.9c4.1,0,7.3,1.2,9.7,3.6c2.4,2.4,3.6,5.7,3.6,9.9c0,1.6-0.2,3.3-0.6,5.1h-18
						c0.1,1.9,0.7,3.4,1.9,4.6c1.2,1.2,3.1,1.7,5.6,1.7c1.5,0,3.1-0.1,4.8-0.4c1.7-0.3,3.1-0.7,4.4-1.2l1.3,6.5
						c-1.6,0.8-3.4,1.4-5.4,1.8c-2,0.4-4.1,0.6-6.3,0.6c-2.7,0-5.1-0.4-7.2-1.2s-3.8-1.9-5.2-3.3c-1.4-1.4-2.5-3.1-3.2-5
						s-1.1-4.1-1.1-6.5c0-2.5,0.4-4.8,1.1-6.9c0.7-2,1.8-3.8,3.2-5.2c1.4-1.4,3-2.5,5-3.3C420.6,179.3,422.8,178.9,425.2,178.9z
						 M424.9,185.4c-1.6,0-2.8,0.5-3.7,1.6c-0.9,1-1.3,2.5-1.3,4.3h9c0.1-0.3,0.1-0.7,0.1-1.1c0-1.4-0.4-2.5-1.1-3.4
						C427.2,185.8,426.2,185.4,424.9,185.4z"/>
					<path class="st1" d="M466.7,200.5c0,1.7-0.3,3.3-1,4.6c-0.7,1.4-1.6,2.5-2.8,3.4c-1.2,0.9-2.6,1.6-4.3,2.1
						c-1.7,0.5-3.5,0.7-5.5,0.7c-1.7,0-3.5-0.2-5.3-0.5c-1.9-0.3-3.6-0.8-5.1-1.4l1.4-7c1.3,0.6,2.8,1,4.4,1.2s3,0.4,4.2,0.4
						s2.3-0.2,3.2-0.5c0.9-0.4,1.4-1,1.4-1.8s-0.4-1.3-1.2-1.6c-0.8-0.3-2-0.8-3.6-1.4c-1.3-0.5-2.5-1-3.7-1.6c-1.1-0.6-2.1-1.2-3-2
						c-0.8-0.8-1.5-1.7-1.9-2.7c-0.5-1-0.7-2.2-0.7-3.6c0-3.4,1.1-5.9,3.4-7.5s5.3-2.4,9-2.4c1.9,0,3.7,0.2,5.3,0.5
						c1.6,0.4,3.2,1,4.6,1.8l-1.4,6.7c-1.1-0.5-2.4-0.9-3.6-1.2c-1.3-0.3-2.6-0.5-4-0.5c-1.2,0-2.2,0.1-2.8,0.3
						c-0.7,0.2-1,0.7-1,1.4s0.4,1.2,1.2,1.6c0.8,0.3,1.8,0.7,3,1.2c0.9,0.3,2,0.8,3.1,1.2c1.1,0.5,2.2,1.1,3.2,1.9
						c1,0.8,1.8,1.7,2.5,2.8C466.3,197.7,466.7,199,466.7,200.5z"/>
				</g>
			</g>
		</g>
	</g>
</g>
</svg>
