<?xml version="1.0" encoding="utf-8"?>
<!-- Generator: Adobe Illustrator 23.0.4, SVG Export Plug-In . SVG Version: 6.00 Build 0)  -->
<svg version="1.1" id="Layer_1" xmlns="http://www.w3.org/2000/svg" xmlns:xlink="http://www.w3.org/1999/xlink" x="0px" y="0px"
	 viewBox="0 0 1024 250" style="enable-background:new 0 0 1024 250;" xml:space="preserve">
<style type="text/css">
	.st0{fill:#FFFFFF;}
	.st1{fill:#008F30;}
	.st2{fill:#292B2E;}
	.st3{enable-background:new    ;}
</style>
<g>
	<g>
		<g>
			<rect class="st0" width="1024" height="248"/>
		</g>
		<g>
			<path class="st1" d="M0,249.9v0.1h1024V11.6C1008.9,9,511.8-74.9,0,249.9z"/>
		</g>
	</g>
	<g>
		<g>
			<g>
				<circle class="st0" cx="417" cy="75.5" r="62"/>
			</g>
			<g>
				<path class="st1" d="M464,117.8c9.8-11.1,15.8-25.7,15.8-41.6c0-16.6-6.5-31.7-17-42.9l0,0l0,0c-11-11.7-26.4-19.2-43.5-19.8
					l0,0h-1.2c-0.3,0-0.6,0-1,0s-0.6,0-1,0h-1.2l0,0c-17.1,0.6-32.5,8.1-43.5,19.8l0,0l0,0c-10.6,11.2-17,26.3-17,42.9
					c0,15.9,6,30.5,15.8,41.6c0,0,0,0,0,0.1s0.1,0.1,0.1,0.1c11.1,12.4,26.9,20.3,44.6,20.9l0,0h1.2c0.3,0,0.6,0,1,0s0.6,0,1,0h1.2
					l0,0c17.7-0.6,33.6-8.6,44.6-21C463.9,117.9,464,117.9,464,117.8L464,117.8z M358.7,78.4h26c0.2,9.2,2,18.1,5.2,26.4
					c-6.2,2.2-12,5.2-17.6,8.9C364.3,104.1,359.2,91.8,358.7,78.4z M373.6,37.3c5.4,3.5,11.1,6.3,17.1,8.4c-3.7,8.9-5.7,18.5-6,28.3
					h-26C359.2,60,364.8,47.1,373.6,37.3z M475.5,74h-26c-0.3-9.9-2.3-19.5-6-28.3c6-2.1,11.7-4.9,17.1-8.4
					C469.5,47.1,475,60,475.5,74z M414.9,45.8c-6.3-0.2-12.4-1.1-18.3-2.8c4.4-9,10.6-17.1,18.3-23.9V45.8z M414.9,50.1V74H389
					c0.3-9.4,2.2-18.5,5.8-27C401.3,48.9,408.1,50,414.9,50.1z M419.3,50.1c6.9-0.2,13.6-1.2,20.1-3.1c3.5,8.5,5.5,17.6,5.8,27
					h-25.9V50.1z M419.3,45.8V19.2C427,25.9,433.2,34,437.6,43C431.7,44.7,425.5,45.6,419.3,45.8z M441.8,41.7
					c-4.2-8.7-9.9-16.6-17.1-23.5c12.7,1.7,24.1,7.4,32.9,15.8C452.6,37.3,447.3,39.8,441.8,41.7z M392.4,41.7
					c-5.5-1.9-10.8-4.4-15.8-7.6c8.8-8.5,20.2-14.2,32.9-15.8C402.3,25.1,396.6,33,392.4,41.7z M389,78.4h25.9v21.7
					c-7.2,0.2-14.2,1.3-20.9,3.3C391,95.5,389.3,87.1,389,78.4z M414.9,104.4v28.8c-8.3-7.2-14.8-16-19.2-25.8
					C401.9,105.6,408.4,104.6,414.9,104.4z M419.3,133.2v-28.8c6.6,0.2,13,1.2,19.2,3C434.1,117.2,427.6,126,419.3,133.2z
					 M419.3,100.1V78.4h25.9c-0.2,8.7-2,17.2-5,25.1C433.4,101.4,426.4,100.3,419.3,100.1z M449.5,78.4h26
					c-0.5,13.4-5.5,25.7-13.7,35.4c-5.5-3.7-11.4-6.7-17.6-8.9C447.5,96.5,449.3,87.5,449.5,78.4z M375.3,117
					c5.1-3.4,10.6-6.1,16.3-8.2c4.2,9.4,10.3,18,17.9,25.3C396.2,132.4,384.3,126.2,375.3,117z M424.7,134.1
					c7.6-7.3,13.7-15.9,17.9-25.3c5.7,2,11.1,4.8,16.3,8.2C450,126.2,438,132.4,424.7,134.1z"/>
			</g>
		</g>
		<g>
			<path class="st2" d="M369,206.6H132.7c-27.8,0-50.4-22.5-50.4-50.4l0,0c0-27.8,22.5-50.4,50.4-50.4H369
				c27.8,0,50.4,22.5,50.4,50.4l0,0C419.4,184,396.8,206.6,369,206.6z"/>
		</g>
		<g>
			<g class="st3">
				<path class="st0" d="M182.8,175.2L165.3,150v25.2h-10v-42.3h10l17.5,25.2v-25.2h10v42.3H182.8z"/>
				<path class="st0" d="M231.7,159.7c0,2.3-0.4,4.4-1.1,6.4c-0.7,2-1.8,3.7-3.2,5.1c-1.4,1.5-3.1,2.6-5.2,3.4
					c-2.1,0.8-4.4,1.2-7.1,1.2c-2.7,0-5-0.4-7.1-1.2s-3.8-2-5.2-3.4c-1.4-1.5-2.5-3.2-3.2-5.1c-0.7-2-1.1-4.1-1.1-6.4
					s0.4-4.4,1.1-6.4c0.7-2,1.8-3.7,3.2-5.1c1.4-1.5,3.1-2.6,5.2-3.4c2.1-0.8,4.4-1.2,7.1-1.2c2.7,0,5,0.4,7.1,1.2s3.8,2,5.2,3.4
					c1.4,1.5,2.5,3.2,3.2,5.1C231.4,155.3,231.7,157.4,231.7,159.7z M221.6,159.7c0-1.1-0.1-2.2-0.3-3.2s-0.6-2-1-2.8
					c-0.5-0.8-1.1-1.5-2-2s-1.9-0.7-3.1-0.7c-1.2,0-2.3,0.2-3.1,0.7s-1.5,1.1-2,2c-0.5,0.8-0.8,1.8-1,2.8s-0.3,2.1-0.3,3.2
					s0.1,2.2,0.3,3.2s0.6,2,1,2.8c0.5,0.8,1.1,1.5,2,2c0.8,0.5,1.9,0.7,3.1,0.7c1.2,0,2.3-0.2,3.1-0.7s1.5-1.1,2-2
					c0.5-0.8,0.8-1.8,1-2.8C221.5,161.8,221.6,160.8,221.6,159.7z"/>
				<path class="st0" d="M278.9,162.6c0,1.9-0.4,3.6-1.1,5.2c-0.7,1.6-1.8,3-3.2,4.3c-1.4,1.2-3.1,2.2-5.1,2.9s-4.3,1-6.8,1
					c-2.3,0-4.7-0.3-7-0.8c-2.3-0.5-4.5-1.2-6.5-2.2l2.1-7.9c1.5,0.7,3.2,1.3,5,1.9c1.9,0.5,3.9,0.8,6,0.8c1.8,0,3.2-0.3,4.4-1
					c1.1-0.7,1.7-1.7,1.7-3.2c0-1.1-0.5-2-1.5-2.9s-2.8-1.8-5.4-2.8c-4.2-1.6-7.2-3.4-9.1-5.4c-1.9-2-2.9-4.6-2.9-7.7
					c0-4.1,1.3-7.2,4-9.4c2.7-2.2,6.4-3.2,11.1-3.2c2.4,0,4.7,0.3,6.9,0.8c2.2,0.5,4.1,1.2,5.6,2.1l-1.8,7.8
					c-1.5-0.7-3.1-1.3-4.9-1.7s-3.6-0.7-5.4-0.7c-1.6,0-2.8,0.3-3.8,0.8s-1.4,1.4-1.4,2.7c0,0.6,0.1,1.1,0.3,1.5
					c0.2,0.4,0.5,0.8,0.9,1.2s1.1,0.8,1.9,1.1c0.8,0.4,1.8,0.8,3,1.3c1.8,0.7,3.5,1.5,5,2.3c1.6,0.8,2.9,1.7,4.1,2.8
					c1.1,1.1,2,2.3,2.7,3.6C278.6,159.2,278.9,160.8,278.9,162.6z"/>
				<path class="st0" d="M283.9,135c0-1.6,0.5-3,1.6-4.1s2.4-1.7,4.1-1.7s3.1,0.6,4.1,1.7c1.1,1.1,1.6,2.5,1.6,4.1s-0.5,3-1.6,4.1
					s-2.4,1.7-4.1,1.7s-3.1-0.6-4.1-1.7C284.4,138,283.9,136.6,283.9,135z M284.5,175.2v-31.1h10.2v31.1H284.5z"/>
				<path class="st0" d="M299,144.1h4.8V136H314v8.1h9v7.7h-9V164c0,1.2,0.3,2.2,0.8,2.9s1.5,1,2.9,1c0.8,0,1.5-0.1,2.3-0.2
					c0.8-0.1,1.5-0.3,2.3-0.5l0.7,7.1c-1,0.5-2.3,0.8-3.7,1.1c-1.5,0.3-3,0.4-4.4,0.4c-2,0-3.7-0.3-5-0.9c-1.4-0.6-2.5-1.4-3.4-2.5
					c-0.9-1-1.5-2.3-1.9-3.7s-0.6-2.9-0.6-4.5v-12.4h-5V144.1z"/>
				<path class="st0" d="M341.7,143.5c4.1,0,7.3,1.2,9.7,3.6c2.4,2.4,3.6,5.7,3.6,9.9c0,1.6-0.2,3.3-0.6,5.1h-18
					c0.1,1.9,0.7,3.4,1.9,4.6c1.2,1.2,3.1,1.7,5.6,1.7c1.5,0,3.1-0.1,4.8-0.4c1.7-0.3,3.1-0.7,4.4-1.2l1.3,6.5
					c-1.6,0.8-3.4,1.4-5.4,1.8c-2,0.4-4.1,0.6-6.3,0.6c-2.7,0-5.1-0.4-7.2-1.2s-3.8-1.9-5.2-3.3c-1.4-1.4-2.5-3.1-3.2-5
					s-1.1-4.1-1.1-6.5c0-2.5,0.4-4.8,1.1-6.9c0.7-2,1.8-3.8,3.2-5.2c1.4-1.4,3-2.5,5-3.3C337.2,143.9,339.3,143.5,341.7,143.5z
					 M341.4,150c-1.6,0-2.8,0.5-3.7,1.6c-0.9,1-1.3,2.5-1.3,4.3h9c0.1-0.3,0.1-0.7,0.1-1.1c0-1.4-0.4-2.5-1.1-3.4
					C343.8,150.4,342.7,150,341.4,150z"/>
			</g>
		</g>
	</g>
</g>
</svg>
