<?xml version="1.0" encoding="utf-8"?>
<!-- Generator: Adobe Illustrator 23.0.4, SVG Export Plug-In . SVG Version: 6.00 Build 0)  -->
<svg version="1.1" id="Layer_1" xmlns="http://www.w3.org/2000/svg" xmlns:xlink="http://www.w3.org/1999/xlink" x="0px" y="0px"
	 viewBox="0 0 1024 250" style="enable-background:new 0 0 1024 250;" xml:space="preserve">
<style type="text/css">
	.st0{fill:#008F30;}
	.st1{fill:#FFFFFF;}
	.st2{fill:#8D6238;}
	.st3{fill:#E3E6E8;}
	.st4{clip-path:url(#SVGID_3_);}
	.st5{fill:#03682C;}
	.st6{fill:#F2D8C3;}
	.st7{fill:#FACA00;}
	.st8{enable-background:new    ;}
	.st9{fill:#636361;}
	.st10{fill:#292B2E;}
</style>
<g>
	<g>
		<g>
			<rect class="st0" width="1024" height="248"/>
		</g>
		<g>
			<path class="st1" d="M0,249.9v0.1h1024V11.6C1008.9,9,511.8-74.9,0,249.9z"/>
		</g>
	</g>
	<g>
		<g>
			<g>
				<g>
					<g>
						<path class="st2" d="M479.8,63.6c0,0,2.2,8-10.6,11.2l-36.4,8.9c0,0-4,1-5.1-3l-1.1-4.1c0,0-2.2-8,10.6-11.2l32.4-7.9
							C469.5,57.6,477.5,55.6,479.8,63.6L479.8,63.6L479.8,63.6z"/>
					</g>
					<g>
						<path class="st2" d="M477.7,89.3c0,0,0.8,8-11.8,8.8l-35.9,2.4c0,0-3.9,0.3-4.3-3.7l-0.4-4c0,0-0.8-8,11.8-8.8l31.9-2.1
							C469,81.8,477,81.3,477.7,89.3L477.7,89.3L477.7,89.3z"/>
					</g>
					<g>
						<path class="st2" d="M476.3,108.8c0,0,0.8,8.4-12.5,9.2l-37.8,2.5c0,0-4.1,0.3-4.6-3.9l-0.4-4.2c0,0-0.8-8.4,12.5-9.2
							l33.6-2.2C467.1,101,475.5,100.4,476.3,108.8L476.3,108.8L476.3,108.8z"/>
					</g>
					<g>
						<path class="st2" d="M461.6,134.7c0,0-0.7,7.5-12.5,6l-33.7-4.3c0,0-3.7-0.5-3.3-4.1l0.4-3.8c0,0,0.7-7.5,12.5-6l29.9,3.8
							C454.9,126.3,462.3,127.2,461.6,134.7L461.6,134.7L461.6,134.7z"/>
					</g>
					<g>
						<g>
							<g id="SVGID_1_">
								<polygon class="st3" points="405.3,17.3 405.3,118.9 471,118.9 471,17.3 								"/>
							</g>
						</g>
						<g>
							<g>
								<defs>
									<rect id="SVGID_2_" x="405.3" y="17.3" width="65.7" height="101.6"/>
								</defs>
								<clipPath id="SVGID_3_">
									<use xlink:href="#SVGID_2_"  style="overflow:visible;"/>
								</clipPath>
								<g class="st4">
									<polygon class="st1" points="409.4,17.3 409.4,118.9 467,118.9 467,17.3 									"/>
								</g>
							</g>
						</g>
					</g>
					<g>
						<path class="st5" d="M471,17.4v-2.8c0,0,0-10.1-12.6-10.1h-40.6c0,0-12.6-0.9-12.6,10.1v2.8H471L471,17.4z M405.3,119v8.6
							c0,0,0,7.6,12.6,7.6h40.6c0,0,12.6,0.6,12.6-10.4V119H405.3L405.3,119z"/>
					</g>
					<g>
						<polygon class="st3" points="432.9,10.4 432.9,12.3 447.5,12.3 447.5,10.4 						"/>
					</g>
					<g>
						<polygon class="st3" points="428.8,10.4 428.8,12.3 431.3,12.3 431.3,10.4 						"/>
					</g>
					<g>
						<path class="st2" d="M428,135.4c0,0,25.5-20.2,12.8-30.4c-7.8-6.3-12.6,6.2-20,9.4c-11.9,5.3-15.5,9.1-15.5,9.1v-42
							c-1.9,0.5-10.1,4.5-13.3,9.1c-3.2,4.6-19.6,49.8-20.5,52.9c-0.5,1.5-6.8,16.1-8.5,18.2h51.5
							C418.6,158.1,425.2,149.9,428,135.4L428,135.4z"/>
					</g>
					<g>
						<path class="st6" d="M430.6,115.8c0,0-5.5-3.2-3-6.7c0,0,5.6-8.3,10.4-4c0.6,0.5,4.7,3.3,1.5,7.9l-1.1,1.5
							c0,0-3.2,4.6-7.8,1.4V115.8L430.6,115.8z"/>
					</g>
				</g>
			</g>
			<g>
				<g>
					<path class="st7" d="M437.7,44.2l-4.5-4l-13,11.1c0.5,0.4,1.1,0.7,1.8,0.7h31.4c0.7,0,1.3-0.3,1.8-0.7l-13-11.1L437.7,44.2z"/>
				</g>
				<g>
					<path class="st7" d="M455.2,26.6c-0.5-0.4-1.1-0.7-1.8-0.7H422c-0.7,0-1.3,0.3-1.8,0.7l17.5,15L455.2,26.6z"/>
				</g>
				<g>
					<polygon class="st7" points="419.3,28.1 419.3,49.9 432,39.2 					"/>
				</g>
				<g>
					<polygon class="st7" points="443.4,39.2 456,49.9 456,28.1 					"/>
				</g>
			</g>
			<g class="st8">
				<path class="st9" d="M429.2,64.7c0,0.5-0.1,1-0.3,1.5c-0.2,0.5-0.5,0.9-0.9,1.2c-0.4,0.3-0.9,0.6-1.5,0.8
					c-0.6,0.2-1.2,0.3-2,0.3c-0.7,0-1.3-0.1-2-0.2s-1.3-0.4-1.9-0.6l0.6-2.3c0.4,0.2,0.9,0.4,1.4,0.5c0.5,0.2,1.1,0.2,1.7,0.2
					c0.5,0,0.9-0.1,1.3-0.3c0.3-0.2,0.5-0.5,0.5-0.9c0-0.3-0.1-0.6-0.4-0.8c-0.3-0.3-0.8-0.5-1.6-0.8c-1.2-0.5-2.1-1-2.6-1.5
					c-0.5-0.6-0.8-1.3-0.8-2.2c0-1.2,0.4-2.1,1.2-2.7c0.8-0.6,1.8-0.9,3.2-0.9c0.7,0,1.4,0.1,2,0.2c0.6,0.2,1.2,0.4,1.6,0.6
					l-0.5,2.3c-0.4-0.2-0.9-0.4-1.4-0.5s-1-0.2-1.6-0.2c-0.5,0-0.8,0.1-1.1,0.2c-0.3,0.2-0.4,0.4-0.4,0.8c0,0.2,0,0.3,0.1,0.4
					c0,0.1,0.1,0.2,0.3,0.3s0.3,0.2,0.5,0.3s0.5,0.2,0.9,0.4c0.5,0.2,1,0.4,1.4,0.7c0.5,0.2,0.8,0.5,1.2,0.8c0.3,0.3,0.6,0.7,0.8,1
					C429.1,63.7,429.2,64.2,429.2,64.7z"/>
				<path class="st9" d="M439.1,66.4h-2.9l-2.4-4.9l-0.4,6.8h-3l0.9-12.2h2.7l3.5,7.5l3.5-7.5h2.7l0.9,12.2h-3l-0.4-6.8L439.1,66.4z
					"/>
				<path class="st9" d="M454.8,64.7c0,0.5-0.1,1-0.3,1.5c-0.2,0.5-0.5,0.9-0.9,1.2c-0.4,0.3-0.9,0.6-1.5,0.8
					c-0.6,0.2-1.2,0.3-2,0.3c-0.7,0-1.3-0.1-2-0.2s-1.3-0.4-1.9-0.6l0.6-2.3c0.4,0.2,0.9,0.4,1.4,0.5c0.5,0.2,1.1,0.2,1.7,0.2
					c0.5,0,0.9-0.1,1.3-0.3c0.3-0.2,0.5-0.5,0.5-0.9c0-0.3-0.1-0.6-0.4-0.8c-0.3-0.3-0.8-0.5-1.6-0.8c-1.2-0.5-2.1-1-2.6-1.5
					c-0.5-0.6-0.8-1.3-0.8-2.2c0-1.2,0.4-2.1,1.2-2.7c0.8-0.6,1.8-0.9,3.2-0.9c0.7,0,1.4,0.1,2,0.2c0.6,0.2,1.2,0.4,1.6,0.6
					l-0.5,2.3c-0.4-0.2-0.9-0.4-1.4-0.5s-1-0.2-1.6-0.2c-0.5,0-0.8,0.1-1.1,0.2c-0.3,0.2-0.4,0.4-0.4,0.8c0,0.2,0,0.3,0.1,0.4
					c0,0.1,0.1,0.2,0.3,0.3s0.3,0.2,0.5,0.3s0.5,0.2,0.9,0.4c0.5,0.2,1,0.4,1.4,0.7c0.5,0.2,0.8,0.5,1.2,0.8c0.3,0.3,0.6,0.7,0.8,1
					C454.7,63.7,454.8,64.2,454.8,64.7z"/>
			</g>
			<g class="st8">
				<path class="st9" d="M420.1,73.7h2.8v1.1c0.6-0.8,1.5-1.2,2.7-1.2c0.5,0,1,0.1,1.4,0.3s0.8,0.5,1.1,0.9c0.3,0.4,0.6,0.9,0.8,1.4
					c0.2,0.6,0.3,1.2,0.3,1.9c0,0.8-0.1,1.5-0.4,2.1s-0.6,1.1-1,1.5s-0.9,0.7-1.5,0.9s-1.2,0.3-1.8,0.3c-0.3,0-0.6,0-0.8-0.1
					c-0.2,0-0.5-0.1-0.7-0.2v3.8h-2.9V73.7z M424.6,75.8c-0.3,0-0.6,0.1-0.9,0.2c-0.2,0.1-0.5,0.3-0.6,0.5v4.2
					c0.1,0,0.3,0.1,0.5,0.1s0.4,0,0.6,0c0.8,0,1.3-0.2,1.7-0.7c0.3-0.5,0.5-1.1,0.5-1.9c0-0.7-0.1-1.2-0.4-1.7
					C425.6,76,425.2,75.8,424.6,75.8z"/>
				<path class="st9" d="M435.8,81.8c-0.3,0.3-0.7,0.5-1.1,0.7s-1,0.3-1.6,0.3c-0.4,0-0.8-0.1-1.1-0.2c-0.3-0.1-0.6-0.3-0.8-0.5
					c-0.2-0.2-0.4-0.5-0.5-0.8s-0.2-0.6-0.2-1c0-0.8,0.3-1.5,0.8-1.9s1.3-0.7,2.2-0.7c0.4,0,0.7,0,1.1-0.1c0.4,0,0.7,0,1.1,0v-0.3
					c0-1-0.5-1.5-1.6-1.5c-0.4,0-0.8,0-1.2,0.1c-0.4,0.1-0.8,0.2-1.1,0.4l-0.5-2c0.4-0.2,0.9-0.4,1.5-0.6s1.2-0.2,1.9-0.2
					c1.3,0,2.2,0.3,3,1c0.7,0.7,1.1,1.6,1.1,2.9v5.2H436v-0.8H435.8z M434.2,80.9c0.3,0,0.5,0,0.8-0.1c0.2-0.1,0.5-0.2,0.7-0.3v-1.3
					c-0.3,0-0.6,0.1-0.8,0.1c-0.2,0-0.5,0.1-0.7,0.1c-0.6,0.1-0.9,0.4-0.9,0.8c0,0.2,0.1,0.4,0.2,0.5
					C433.7,80.9,433.9,80.9,434.2,80.9z"/>
				<path class="st9" d="M446.4,76.2H446c-1.2,0-2,0.3-2.5,0.9v5.6h-2.9v-9h2.8v1.5c0.2-0.5,0.4-0.9,0.8-1.2
					c0.4-0.3,0.8-0.4,1.4-0.4c0.2,0,0.3,0,0.4,0s0.2,0,0.4,0.1L446.4,76.2z"/>
				<path class="st9" d="M452.4,81.8c-0.3,0.3-0.7,0.5-1.1,0.7s-1,0.3-1.6,0.3c-0.4,0-0.8-0.1-1.1-0.2c-0.3-0.1-0.6-0.3-0.8-0.5
					c-0.2-0.2-0.4-0.5-0.5-0.8s-0.2-0.6-0.2-1c0-0.8,0.3-1.5,0.8-1.9s1.3-0.7,2.2-0.7c0.4,0,0.7,0,1.1-0.1c0.4,0,0.7,0,1.1,0v-0.3
					c0-1-0.5-1.5-1.6-1.5c-0.4,0-0.8,0-1.2,0.1c-0.4,0.1-0.8,0.2-1.1,0.4l-0.5-2c0.4-0.2,0.9-0.4,1.5-0.6s1.2-0.2,1.9-0.2
					c1.3,0,2.2,0.3,3,1c0.7,0.7,1.1,1.6,1.1,2.9v5.2h-2.8v-0.8H452.4z M450.8,80.9c0.3,0,0.5,0,0.8-0.1c0.2-0.1,0.5-0.2,0.7-0.3
					v-1.3c-0.3,0-0.6,0.1-0.8,0.1c-0.2,0-0.5,0.1-0.7,0.1c-0.6,0.1-0.9,0.4-0.9,0.8c0,0.2,0.1,0.4,0.2,0.5
					C450.3,80.9,450.5,80.9,450.8,80.9z"/>
			</g>
			<g class="st8">
				<path class="st9" d="M415.2,98.9c0.4-0.2,0.8-0.4,1.3-0.6c0.4-0.2,0.9-0.5,1.3-0.8s0.8-0.6,1.1-1c0.3-0.4,0.6-0.8,0.7-1.4
					c-0.3,0.3-0.7,0.5-1.1,0.6s-0.8,0.2-1.2,0.2c-0.5,0-0.9-0.1-1.4-0.2c-0.4-0.2-0.8-0.4-1.1-0.7c-0.3-0.3-0.6-0.7-0.8-1.1
					c-0.2-0.4-0.3-1-0.3-1.5c0-0.6,0.1-1.2,0.3-1.7c0.2-0.5,0.5-0.9,0.9-1.2s0.8-0.6,1.4-0.8c0.5-0.2,1.1-0.3,1.6-0.3
					c0.8,0,1.5,0.1,2.1,0.4s1,0.7,1.4,1.1c0.4,0.5,0.6,1,0.8,1.6c0.2,0.6,0.3,1.2,0.3,1.8c0,1.9-0.6,3.5-1.7,4.8s-2.7,2.3-4.7,3
					L415.2,98.9z M416.5,92.3c0,0.4,0.1,0.8,0.4,1.1s0.6,0.4,1.1,0.4c0.3,0,0.7-0.1,0.9-0.2c0.3-0.1,0.5-0.3,0.7-0.5
					c0-0.3,0-0.6-0.1-0.9s-0.1-0.5-0.3-0.8c-0.1-0.2-0.3-0.4-0.5-0.5s-0.5-0.2-0.8-0.2c-0.4,0-0.8,0.1-1.1,0.4
					S416.5,91.8,416.5,92.3z"/>
				<path class="st9" d="M431.4,91l-4.6,9.9h-2.9l4.7-9.9h-4.9v-2.3h7.3L431.4,91z"/>
				<path class="st9" d="M444.1,91l-4.6,9.9h-2.9l4.7-9.9h-4.9v-2.3h7.3L444.1,91z"/>
				<path class="st9" d="M452.8,91l-4.6,9.9h-2.9L450,91h-4.9v-2.3h7.3L452.8,91z"/>
				<path class="st9" d="M461.6,91l-4.6,9.9h-2.9l4.7-9.9h-4.9v-2.3h7.3L461.6,91z"/>
			</g>
		</g>
		<g>
			<g>
				<path class="st10" d="M403.1,245.5H132.8c-27.8,0-50.4-22.5-50.4-50.4l0,0c0-27.8,22.5-50.4,50.4-50.4h270.3
					c27.8,0,50.4,22.5,50.4,50.4l0,0C453.4,222.9,430.9,245.5,403.1,245.5z"/>
			</g>
			<g>
				<g class="st8">
					<path class="st1" d="M185.9,185.6c0,2.2-0.5,4.3-1.5,6c-1,1.8-2.3,3.3-4,4.5s-3.7,2.1-6.1,2.8c-2.3,0.6-4.8,1-7.6,1h-1.1v14.3
						h-10.4v-42.3h12.2c2.7,0,5.1,0.3,7.4,0.8c2.3,0.6,4.2,1.4,5.8,2.5s2.9,2.6,3.8,4.3C185.5,181.2,185.9,183.3,185.9,185.6z
						 M175.9,185.7c0-3.9-2.8-5.8-8.3-5.8h-1.8v12h1.7c2.8,0,4.8-0.5,6.3-1.7C175.2,189.1,175.9,187.6,175.9,185.7z"/>
					<path class="st1" d="M221.5,198.6c0,2.3-0.4,4.4-1.1,6.4c-0.7,2-1.8,3.7-3.2,5.1c-1.4,1.5-3.1,2.6-5.2,3.4
						c-2.1,0.8-4.4,1.2-7.1,1.2c-2.7,0-5-0.4-7.1-1.2s-3.8-2-5.2-3.4c-1.4-1.5-2.5-3.2-3.2-5.1c-0.7-2-1.1-4.1-1.1-6.4
						c0-2.3,0.4-4.4,1.1-6.4c0.7-2,1.8-3.7,3.2-5.1c1.4-1.5,3.1-2.6,5.2-3.4c2.1-0.8,4.4-1.2,7.1-1.2c2.7,0,5,0.4,7.1,1.2
						s3.8,2,5.2,3.4c1.4,1.5,2.5,3.2,3.2,5.1C221.2,194.2,221.5,196.3,221.5,198.6z M211.4,198.6c0-1.1-0.1-2.2-0.3-3.2
						s-0.6-2-1-2.8c-0.5-0.8-1.1-1.5-2-2c-0.8-0.5-1.9-0.7-3.1-0.7c-1.2,0-2.3,0.2-3.1,0.7s-1.5,1.1-2,2c-0.5,0.8-0.8,1.8-1,2.8
						s-0.3,2.1-0.3,3.2c0,1.1,0.1,2.2,0.3,3.2s0.6,2,1,2.8c0.5,0.8,1.1,1.5,2,2c0.8,0.5,1.9,0.7,3.1,0.7c1.2,0,2.3-0.2,3.1-0.7
						s1.5-1.1,2-2c0.5-0.8,0.8-1.8,1-2.8C211.2,200.8,211.4,199.7,211.4,198.6z"/>
					<path class="st1" d="M246.9,191.8h-1.2c-4,0-6.9,1-8.5,3v19.3H227V183h9.8v5.2c0.6-1.7,1.5-3,2.7-4s2.8-1.5,4.8-1.5
						c0.6,0,1.1,0,1.5,0.1s0.8,0.2,1.2,0.3L246.9,191.8z"/>
					<path class="st1" d="M292.8,201.5c0,1.9-0.4,3.6-1.1,5.2c-0.7,1.6-1.8,3-3.2,4.3c-1.4,1.2-3.1,2.2-5.1,2.9s-4.3,1-6.8,1
						c-2.3,0-4.7-0.3-7-0.8s-4.5-1.2-6.5-2.2l2.1-7.9c1.5,0.7,3.2,1.3,5,1.9c1.9,0.5,3.9,0.8,6,0.8c1.8,0,3.2-0.3,4.4-1
						c1.1-0.7,1.7-1.7,1.7-3.2c0-1.1-0.5-2-1.5-2.9s-2.8-1.8-5.4-2.8c-4.2-1.6-7.2-3.4-9.1-5.4s-2.9-4.6-2.9-7.7
						c0-4.1,1.3-7.2,4-9.4s6.4-3.2,11.1-3.2c2.4,0,4.7,0.3,6.9,0.8c2.2,0.5,4.1,1.2,5.6,2.1l-1.8,7.8c-1.5-0.7-3.1-1.3-4.9-1.7
						s-3.6-0.7-5.4-0.7c-1.6,0-2.8,0.3-3.8,0.8s-1.4,1.4-1.4,2.7c0,0.6,0.1,1.1,0.3,1.5c0.2,0.4,0.5,0.8,0.9,1.2s1.1,0.8,1.9,1.1
						c0.8,0.4,1.8,0.8,3,1.3c1.8,0.7,3.5,1.5,5,2.3c1.6,0.8,2.9,1.7,4.1,2.8c1.1,1.1,2,2.3,2.7,3.6
						C292.4,198.1,292.8,199.7,292.8,201.5z"/>
					<path class="st1" d="M327,207.4h-10l-8.3-17l-1.3,23.7h-10.2l3.2-42.3h9.4l12.2,25.9l12.2-25.9h9.4l3.2,42.3h-10.2l-1.3-23.7
						L327,207.4z"/>
					<path class="st1" d="M381.3,201.5c0,1.9-0.4,3.6-1.1,5.2c-0.7,1.6-1.8,3-3.2,4.3c-1.4,1.2-3.1,2.2-5.1,2.9s-4.3,1-6.8,1
						c-2.3,0-4.7-0.3-7-0.8s-4.5-1.2-6.5-2.2l2.1-7.9c1.5,0.7,3.2,1.3,5,1.9c1.9,0.5,3.9,0.8,6,0.8c1.8,0,3.2-0.3,4.4-1
						c1.1-0.7,1.7-1.7,1.7-3.2c0-1.1-0.5-2-1.5-2.9s-2.8-1.8-5.4-2.8c-4.2-1.6-7.2-3.4-9.1-5.4s-2.9-4.6-2.9-7.7
						c0-4.1,1.3-7.2,4-9.4s6.4-3.2,11.1-3.2c2.4,0,4.7,0.3,6.9,0.8c2.2,0.5,4.1,1.2,5.6,2.1l-1.8,7.8c-1.5-0.7-3.1-1.3-4.9-1.7
						s-3.6-0.7-5.4-0.7c-1.6,0-2.8,0.3-3.8,0.8s-1.4,1.4-1.4,2.7c0,0.6,0.1,1.1,0.3,1.5c0.2,0.4,0.5,0.8,0.9,1.2s1.1,0.8,1.9,1.1
						c0.8,0.4,1.8,0.8,3,1.3c1.8,0.7,3.5,1.5,5,2.3c1.6,0.8,2.9,1.7,4.1,2.8c1.1,1.1,2,2.3,2.7,3.6
						C381,198.1,381.3,199.7,381.3,201.5z"/>
				</g>
			</g>
		</g>
	</g>
</g>
</svg>
