<?xml version="1.0" encoding="utf-8"?>
<!-- Generator: Adobe Illustrator 23.0.4, SVG Export Plug-In . SVG Version: 6.00 Build 0)  -->
<svg version="1.1" id="Layer_1" xmlns="http://www.w3.org/2000/svg" xmlns:xlink="http://www.w3.org/1999/xlink" x="0px" y="0px"
	 viewBox="0 0 104 104" style="enable-background:new 0 0 104 104;" xml:space="preserve">
<style type="text/css">
	.st0{fill:#FFFFFF;}
	.st1{fill:#242021;}
	.st2{fill-rule:evenodd;clip-rule:evenodd;fill:#08A24E;}
	.st3{fill-rule:evenodd;clip-rule:evenodd;fill:#10A352;}
</style>
<g>
	<path class="st0" d="M52,0c-0.2,0-0.4,0-0.6,0v0H0v52.6h0C0.4,81.1,23.5,104,52,104c28.7,0,52-23.3,52-52S80.7,0,52,0z"/>
	<g>
		<path class="st1" d="M72.5,92.8v-7.2h4.4v1.6h-2.5v1.3h2.4V90h-2.4v1.2h2.5v1.6H72.5z M68.6,92.8v-5.5H67v-1.7h5.2v1.7h-1.6v5.5
			H68.6z M63.3,89h0.4c0.4,0,0.7-0.1,0.9-0.2c0.2-0.1,0.3-0.4,0.3-0.7c0-0.4-0.1-0.6-0.3-0.8c-0.2-0.2-0.5-0.2-0.9-0.2h-0.4V89z
			 M61.5,92.8v-7.2h2.1c0.8,0,1.4,0,1.7,0.1c0.3,0.1,0.6,0.2,0.8,0.4c0.3,0.2,0.5,0.5,0.6,0.8c0.1,0.3,0.2,0.6,0.2,1
			c0,0.6-0.1,1-0.4,1.4c-0.3,0.4-0.7,0.6-1.2,0.7l2,2.9H65L63.3,90v2.8H61.5z M57.4,91.4c0.5,0,1-0.2,1.4-0.6
			c0.4-0.4,0.5-0.9,0.5-1.5c0-0.6-0.2-1.1-0.5-1.5c-0.4-0.4-0.8-0.6-1.3-0.6c-0.5,0-1,0.2-1.4,0.6c-0.4,0.4-0.5,0.9-0.5,1.5
			c0,0.6,0.2,1.1,0.5,1.5C56.4,91.2,56.9,91.4,57.4,91.4z M61.3,89.2c0,0.5-0.1,1-0.3,1.5c-0.2,0.5-0.5,0.9-0.8,1.2
			c-0.4,0.4-0.8,0.6-1.3,0.8c-0.5,0.2-1,0.3-1.5,0.3c-0.5,0-1-0.1-1.5-0.3c-0.5-0.2-0.9-0.5-1.2-0.8c-0.4-0.4-0.7-0.8-0.8-1.2
			c-0.2-0.5-0.3-0.9-0.3-1.5c0-0.5,0.1-1,0.3-1.5c0.2-0.5,0.5-0.9,0.8-1.2c0.4-0.4,0.8-0.6,1.2-0.8c0.5-0.2,1-0.3,1.5-0.3
			c0.5,0,1,0.1,1.5,0.3c0.5,0.2,0.9,0.5,1.3,0.8c0.4,0.4,0.6,0.8,0.8,1.2C61.2,88.2,61.3,88.7,61.3,89.2z M48.9,90.5
			c0.3,0.3,0.6,0.6,0.9,0.7c0.3,0.2,0.6,0.2,0.9,0.2c0.3,0,0.5-0.1,0.6-0.2c0.2-0.1,0.3-0.3,0.3-0.5c0-0.2-0.1-0.4-0.2-0.6
			c-0.1-0.1-0.5-0.3-1-0.4c-0.7-0.2-1.2-0.4-1.5-0.7c-0.3-0.3-0.4-0.7-0.4-1.3c0-0.7,0.2-1.3,0.7-1.7c0.5-0.4,1.1-0.7,1.8-0.7
			c0.4,0,0.8,0.1,1.1,0.2c0.4,0.1,0.7,0.3,1,0.5l-0.6,1.4c-0.2-0.2-0.5-0.3-0.7-0.4c-0.2-0.1-0.5-0.1-0.7-0.1
			c-0.2,0-0.4,0.1-0.6,0.2c-0.1,0.1-0.2,0.3-0.2,0.4c0,0.2,0.1,0.3,0.2,0.4c0.1,0.1,0.4,0.2,0.8,0.3l0.1,0c0.8,0.2,1.3,0.5,1.6,0.7
			c0.2,0.2,0.3,0.4,0.4,0.6c0.1,0.2,0.1,0.5,0.1,0.8c0,0.8-0.3,1.4-0.8,1.8c-0.5,0.5-1.2,0.7-2,0.7c-0.5,0-1-0.1-1.4-0.3
			c-0.4-0.2-0.8-0.4-1.2-0.8L48.9,90.5z M69.6,80.9v3.7h-1.2v-0.6c-0.2,0.3-0.4,0.4-0.6,0.6c-0.2,0.1-0.5,0.2-0.8,0.2
			c-0.5,0-0.9-0.2-1.2-0.5c-0.3-0.4-0.4-0.8-0.4-1.5c0-0.6,0.2-1.1,0.5-1.4c0.3-0.4,0.7-0.5,1.3-0.5c0.3,0,0.5,0.1,0.7,0.2
			c0.2,0.1,0.4,0.3,0.5,0.6v-0.6H69.6z M68.4,82.8c0-0.3-0.1-0.5-0.2-0.7c-0.2-0.2-0.4-0.3-0.6-0.3c-0.3,0-0.5,0.1-0.6,0.3
			c-0.2,0.2-0.2,0.4-0.2,0.7c0,0.3,0.1,0.5,0.2,0.7c0.2,0.2,0.4,0.3,0.6,0.3c0.3,0,0.5-0.1,0.6-0.3C68.3,83.3,68.4,83.1,68.4,82.8z
			 M65.1,79v5.7h-1.2v-0.6c-0.2,0.3-0.4,0.4-0.6,0.6c-0.2,0.1-0.4,0.2-0.7,0.2c-0.5,0-0.9-0.2-1.2-0.5c-0.3-0.4-0.5-0.8-0.5-1.5
			c0-0.6,0.2-1.1,0.5-1.4c0.3-0.4,0.7-0.5,1.2-0.5c0.3,0,0.6,0.1,0.8,0.2c0.2,0.1,0.4,0.3,0.5,0.6c0-0.1,0-0.2,0-0.3
			c0-0.1,0-0.2,0-0.4V79H65.1z M64,82.9c0-0.3-0.1-0.5-0.2-0.7C63.6,82,63.4,82,63.1,82c-0.3,0-0.5,0.1-0.6,0.3
			c-0.2,0.2-0.2,0.4-0.2,0.7c0,0.3,0.1,0.5,0.2,0.7c0.2,0.2,0.4,0.2,0.6,0.2c0.3,0,0.5-0.1,0.6-0.3C63.9,83.4,64,83.2,64,82.9z
			 M74,77.6c0.5,0,1-0.2,1.4-0.6c0.4-0.4,0.5-0.9,0.5-1.5c0-0.6-0.2-1.1-0.5-1.5c-0.4-0.4-0.8-0.6-1.3-0.6c-0.5,0-1,0.2-1.4,0.6
			c-0.4,0.4-0.5,0.9-0.5,1.5c0,0.6,0.2,1.1,0.5,1.5C73,77.4,73.4,77.6,74,77.6z M77.8,75.5c0,0.5-0.1,1-0.3,1.5
			c-0.2,0.5-0.5,0.9-0.8,1.2c-0.4,0.4-0.8,0.6-1.3,0.8c-0.5,0.2-1,0.3-1.5,0.3c-0.5,0-1-0.1-1.5-0.3c-0.5-0.2-0.9-0.5-1.2-0.8
			c-0.4-0.4-0.7-0.8-0.8-1.2c-0.2-0.5-0.3-0.9-0.3-1.5c0-0.5,0.1-1,0.3-1.5c0.2-0.5,0.5-0.9,0.8-1.2c0.4-0.4,0.8-0.6,1.2-0.8
			c0.5-0.2,1-0.3,1.5-0.3c0.5,0,1,0.1,1.5,0.3c0.5,0.2,0.9,0.5,1.3,0.8c0.4,0.4,0.6,0.8,0.8,1.2C77.7,74.5,77.8,75,77.8,75.5z
			 M66.4,79.1l-3-7.2h2.1l1.4,4c0,0,0,0.1,0.1,0.3c0,0.2,0.1,0.4,0.2,0.7c0.1-0.2,0.1-0.4,0.1-0.6c0-0.2,0.1-0.3,0.1-0.4l1.4-4h2.1
			l-3,7.2H66.4z M58.6,79.1v-7.2H63v1.6h-2.5v1.3h2.4v1.5h-2.4v1.2H63v1.6H58.6z M48.6,79.1v-5.5H47v-1.7h5.2v1.7h-1.6v5.5H48.6z"/>
		<path class="st1" d="M54.4,75.3h0.4c0.4,0,0.7-0.1,0.9-0.2c0.2-0.1,0.3-0.4,0.3-0.7c0-0.4-0.1-0.6-0.3-0.8
			c-0.2-0.2-0.5-0.2-0.9-0.2h-0.4V75.3z M52.6,79.1v-7.2h2.1c0.8,0,1.4,0,1.7,0.1c0.3,0.1,0.6,0.2,0.8,0.4c0.3,0.2,0.5,0.5,0.6,0.8
			c0.1,0.3,0.2,0.6,0.2,1c0,0.6-0.1,1-0.4,1.4c-0.3,0.4-0.7,0.6-1.2,0.7l2,2.9h-2.2l-1.7-2.8v2.8H52.6z"/>
		<path class="st2" d="M39.2,49.2c-0.8,0.5-2.6,2.6-3.4,3.6l-1.7,2.1l-1.7,2.6c-0.7,1.1-1.3,2.4-1.8,3.6c-0.1,0.3-0.2,0.5-0.3,0.8
			c-0.4,1.1-0.8,2.1-1.1,3.3c-0.4,1.6-0.6,3.2-0.6,4.8v0.1c0,4,1.3,7.7,4,10.9l1.6,1.7c1.5,1.2,1.6,1.5,3.7,2.8l1.4,0.8
			c0.3,0.2,0.4,0.2,0.7,0.4c1.3,0.7,4.1,1.8,5.5,2.2c0.5,0.1,1.2,0.4,1.7,0.5c-0.6-1.1-1.1-2.2,0-3.4c0.1-0.2,0.2-0.2,0.3-0.4L46,85
			c-2.1-0.7-3.5-1.3-5.4-2.2c-0.2-0.1-0.4-0.2-0.6-0.3c-0.8-0.4-1.6-1-2.4-1.5c-3-2-5.9-5.4-6.6-9.7c-0.4-2.5-0.2-4.7,0.3-6.9
			c0.6-2.9,1.7-5,3-7.6c0.1-0.2,0.2-0.4,0.3-0.6c0.1-0.2,0.2-0.4,0.3-0.6c1.3-2.1,2.3-3.7,3.8-5.7C38.9,49.7,39.2,49.4,39.2,49.2"/>
		<polygon class="st2" points="39.3,49.2 39.3,49.2 39.3,49.1 		"/>
		<path class="st2" d="M39.3,49.2L39.3,49.2L39.3,49.2z"/>
		<path class="st3" d="M44.8,42c-0.1,0.4-1.2,2.2-1.5,2.5l-1.2,1.8c-1.6,2.2-1.8,1.7-3.9,5.2c-2.1,3.5-3.3,9-1.4,12.8
			c0.5,0.9,1.2,1.9,1.9,2.5c0.7,0.6,1.2,1,2.2,1.4c2.5,0.9,5.8,1,8-0.7c2.1-1.6,3-4.1,3.5-6.6c0.2-0.9,0.3-2.2,0.3-3.2
			c0-0.3,0-0.3,0.1-0.4c0,0.4,0.1,0.6,0.1,1c0,2.4,0,3.4-0.6,5.8c-0.1,0.3-0.2,0.6-0.2,0.9c2.6,1.4,6.6,1.1,8.8-0.4l0.8-0.6
			c0.7-0.5,1.5-1.5,1.8-2.3c0.6-1.5,0.8-2.8,0.4-4.7c-0.4-2-1.3-3.6-2.3-5.2c-0.6-1-2.5-3.4-3.3-4.3l-0.7-0.7
			c-0.5-0.5-0.9-0.9-1.4-1.4c-0.4-0.4-1.2-0.9-1.5-1.3c0.8,0.2,5.5,4.3,9.4,5c2.5,0.4,4.4,0.2,6.2-0.6c0.4-0.2,0.8-0.4,1.1-0.6
			c0.5-0.3,1.1-0.8,1.5-1.2l1.2-1.5c0.9-1.3,1.4-2.9,1.5-4.4v-0.7c-0.1-1.9-0.9-3.8-2.8-5c-1.4-1-3.7-1.7-5.5-1.7
			c-0.6,0-1.1-0.1-1.7,0L64.1,33c-0.9,0-2.5,0.3-3.3,0.3c0.3-0.2,2.3-0.6,2.6-0.7c0.7-0.1,3-0.4,3.7-0.3c0.3,0,0.5,0,0.8,0
			c0.8,0,3.5,0.5,4.2,0.8c0.1-0.2,0.1-0.4,0.2-0.6c1.9-5.3-1.1-12.4-8.9-10.2c-1.2,0.3-2.2,0.8-3.3,1.3c-0.8,0.4-2.1,1.3-2.8,1.8
			c-0.8,0.6-2.3,1.8-3,2.4l-1.2,1.1c-0.1,0.2-0.2,0.3-0.4,0.4c-0.7,0.6-1.2,1.3-1.8,2.1c-0.2,0.3-0.5,0.6-0.7,0.9
			c-0.3,0.4-1.9,2.3-2.2,2.5c0.1-0.4,1-1.5,1.2-1.9l1.7-2.2c0.1-0.1,0.2-0.3,0.4-0.4c1.6-1.9,3.6-4.1,4.5-6.4
			c1.3-3.3,1.7-7-0.2-10.1c-1-1.7-2.9-2.7-4.8-3.1c-0.4-0.1-0.6-0.1-1-0.1h-0.5h0c-1.9,0-3.2,0.6-4.8,1.5c-0.4,0.2-1.6,1.1-1.9,1.2
			c0,0.3,0.2,0.6,0.3,0.8c0.5,1.4,1.9,4.6,1.9,6l0-0.1c-0.4-0.7-0.6-2.1-1-2.9c-0.4-1-0.8-1.9-1.4-2.7c-0.6-0.8-1.3-1.4-2.2-1.9
			C39.6,12.3,38,11.9,37,12c-0.6,0.1-1.2,0.1-1.8,0.3c-1.6,0.5-2.7,1.2-4,2.1c-1.1,0.8-2.1,2.2-2.6,3.5c-0.9,2.3-0.3,5,0.7,7.1
			c0.1,0.1,0.1,0.2,0.2,0.3c0.3,0.7,0.8,1.3,1.2,1.9l0.9,1.1c0.2,0.2,0.3,0.3,0.5,0.5l0.5,0.5c0.2,0.2,0.3,0.3,0.5,0.5
			c0.5,0.4,0.6,0.5,1.2,0.9l4.4,2.7c0.4,0.3,0.8,0.5,1.2,0.8c0.2,0.1,0.4,0.3,0.6,0.4c0.5,0.3,2.7,1.8,2.9,2.3
			c-0.3-0.2-0.6-0.4-0.9-0.6c-2.2-1.5-4.4-2.8-6.8-4c-0.4-0.2-0.7-0.3-1-0.5L32.6,31c-2-0.8-4-1.5-6.2-1.5c-0.3,0-0.5-0.1-0.6,0
			c-0.2,0-0.4,0.1-0.7,0c-1.3,0-2.7,0.3-3.8,0.8c-3.3,1.3-4.9,4.3-4,7.8c0.6,2.1,1.1,2.5,2.1,4c0.4-0.3,0.8-0.7,1.2-1
			c1.9-1.4,4.2-2.2,6.5-2.5c1.5-0.2,2.8-0.2,4.3-0.3c0.3,0,1.5,0.1,1.9,0.1c0.1,0,0.1,0,0.2,0.1c-2.3,0-5.8,0.6-8,1.2
			c-1.7,0.5-3.2,1.3-4.5,2.4c-0.1,0.1-0.2,0.2-0.3,0.3l-0.6,0.6c-0.5,0.5-0.9,1-1.2,1.7c-1.5,2.9-1.2,6.2,1,8.6
			c0.2,0.2,0.4,0.4,0.6,0.6c0.2,0.2,0.4,0.3,0.6,0.5c0.5,0.3,0.9,0.6,1.5,0.8c1.8,0.7,4.1,0.9,6,0.5c2.3-0.5,4.4-1.5,6.3-2.9
			c0.5-0.3,0.9-0.6,1.3-1l1.5-1.3c0.1-0.1,0.2-0.2,0.3-0.3l0.6-0.6c0.8-0.7,1.5-1.6,2.2-2.4c0.2-0.2,0.3-0.4,0.5-0.6
			c0.2-0.2,0.3-0.4,0.5-0.6c0.4-0.4,0.7-0.8,1-1.3l1.4-2C44.4,42.5,44.7,42.1,44.8,42"/>
	</g>
</g>
</svg>
