<?xml version="1.0" encoding="utf-8"?>
<!-- Generator: Adobe Illustrator 23.0.4, SVG Export Plug-In . SVG Version: 6.00 Build 0)  -->
<svg version="1.1" id="Layer_1" xmlns="http://www.w3.org/2000/svg" xmlns:xlink="http://www.w3.org/1999/xlink" x="0px" y="0px"
	 viewBox="0 0 35 35" style="enable-background:new 0 0 35 35;" xml:space="preserve">
<style type="text/css">
	.st0{fill:#FFFFFF;}
	.st1{fill:#008F30;}
</style>
<g>
	<circle class="st0" cx="17.5" cy="17.5" r="17.5"/>
	<g>
		<path class="st1" d="M22.1,8.4h-9.3c-1.3,0-2.4,0.4-3.3,1.3c-1,0.9-1.4,2-1.5,3.2v9.4c0,1.2,0.6,2.3,1.4,3.2
			c1,0.9,2.1,1.3,3.4,1.3h9.4c1.3,0,2.5-0.5,3.4-1.3c1-0.9,1.4-2,1.4-3.2v-9.3c0-1.2-0.6-2.3-1.5-3.2C24.6,8.8,23.4,8.4,22.1,8.4z
			 M17.6,23.1c-3.4,0-6.2-2.5-6.2-5.7c0-3.2,2.8-5.7,6.2-5.7s6.1,2.6,6.1,5.7C23.7,20.5,21,23.1,17.6,23.1z M23.8,12.9
			c-0.8,0-1.4-0.6-1.4-1.3c0-0.7,0.6-1.3,1.4-1.3c0.8,0,1.4,0.6,1.4,1.3C25.3,12.3,24.6,12.9,23.8,12.9z"/>
		<path class="st1" d="M17.5,13.6c-2.2,0-4,1.7-4,3.8c0,2.1,1.8,3.8,4,3.8c2.2,0,4-1.7,4-3.8C21.5,15.3,19.7,13.6,17.5,13.6z"/>
		<path class="st1" d="M17.5,0C7.8,0,0,7.8,0,17.5C0,27.2,7.8,35,17.5,35S35,27.2,35,17.5C35,7.8,27.2,0,17.5,0z M28.7,22.2
			L28.7,22.2c-0.1,3.3-3,6.1-6.6,6.1h-9.3c-3.6,0-6.5-2.7-6.5-6.1v-9.4c0-3.3,2.9-6.1,6.5-6.1h9.4c3.6,0,6.5,2.7,6.4,6.1V22.2z"/>
	</g>
</g>
</svg>
