<?xml version="1.0" encoding="utf-8"?>
<!-- Generator: Adobe Illustrator 23.0.4, SVG Export Plug-In . SVG Version: 6.00 Build 0)  -->
<svg version="1.1" id="Layer_1" xmlns="http://www.w3.org/2000/svg" xmlns:xlink="http://www.w3.org/1999/xlink" x="0px" y="0px"
	 viewBox="0 0 35 35" style="enable-background:new 0 0 35 35;" xml:space="preserve">
<style type="text/css">
	.st0{fill:#FFFFFF;}
	.st1{fill:#008F30;}
</style>
<g>
	<g>
		<circle class="st0" cx="17.5" cy="17.5" r="17.5"/>
	</g>
	<path class="st1" d="M17.5,0C7.8,0,0,7.9,0,17.6c0,8.7,6.3,15.9,14.6,17.3c0-3.6,0-7.1,0-10.7c0,0,0-0.1,0-0.2c-0.1,0-0.1,0-0.2,0
		c-1.3,0-2.6,0-3.9,0c-0.2,0-0.2,0-0.2-0.2c0-1.5,0-3,0-4.6c0-0.1,0-0.2,0.2-0.2c1.3,0,2.6,0,3.9,0c0.1,0,0.1,0,0.2,0
		c0-0.1,0-0.1,0-0.1c0-1.3,0-2.5,0-3.8c0-1,0.2-2,0.7-2.9c0.6-1.3,1.5-2.1,2.8-2.7c0.9-0.4,1.8-0.5,2.7-0.5c1.1,0,2.1,0.1,3.2,0.1
		c0.2,0,0.4,0,0.6,0.1c0.1,0,0.1,0,0.1,0.2c0,0.6,0,1.3,0,1.9c0,0.7,0,1.5,0,2.2c0,0.1,0,0.2-0.2,0.2c-0.8,0-1.6,0-2.4,0
		c-0.4,0-0.7,0-1.1,0.1c-0.7,0.2-1.1,0.6-1.2,1.3c-0.1,0.3-0.1,0.6-0.1,0.8c0,1,0,2.1,0,3.1c0,0,0,0.1,0,0.1c0.1,0,0.1,0,0.2,0
		c1.5,0,3,0,4.4,0c0.2,0,0.2,0,0.2,0.2c-0.1,0.8-0.2,1.6-0.3,2.4c-0.1,0.7-0.2,1.4-0.3,2c0,0.3,0,0.3-0.3,0.3c-1.3,0-2.5,0-3.8,0
		c-0.1,0-0.1,0-0.2,0c0,0.1,0,0.1,0,0.2c0,3.9,0,6.9,0,10.7C28.3,33.9,35,26.5,35,17.6C35,7.9,27.2,0,17.5,0z"/>
</g>
</svg>
