<?xml version="1.0" encoding="utf-8"?>
<!-- Generator: Adobe Illustrator 23.0.4, SVG Export Plug-In . SVG Version: 6.00 Build 0)  -->
<svg version="1.1" id="Layer_1" xmlns="http://www.w3.org/2000/svg" xmlns:xlink="http://www.w3.org/1999/xlink" x="0px" y="0px"
	 viewBox="0 0 97 97" style="enable-background:new 0 0 97 97;" xml:space="preserve">
<style type="text/css">
	.st0{fill:#FFFFFF;}
	.st1{fill:#242021;}
	.st2{fill-rule:evenodd;clip-rule:evenodd;fill:#08A24E;}
	.st3{fill-rule:evenodd;clip-rule:evenodd;fill:#10A352;}
</style>
<g>
	<circle class="st0" cx="48.5" cy="48.5" r="48.5"/>
	<g>
		<path class="st1" d="M67.6,86.6v-6.8h4.1v1.5h-2.3v1.2h2.2v1.4h-2.2V85h2.3v1.5L67.6,86.6L67.6,86.6z M64,86.6v-5.2h-1.5v-1.6h4.9
			v1.6h-1.5v5.2H64z M59.1,83h0.3c0.4,0,0.7-0.1,0.9-0.2c0.2-0.1,0.3-0.3,0.3-0.6s-0.1-0.6-0.3-0.7c-0.2-0.1-0.5-0.2-0.9-0.2h-0.3
			V83z M57.4,86.6v-6.8h1.9c0.8,0,1.3,0,1.6,0.1c0.3,0.1,0.6,0.2,0.8,0.3c0.2,0.2,0.4,0.4,0.6,0.7c0.1,0.3,0.2,0.6,0.2,0.9
			c0,0.5-0.1,0.9-0.4,1.3c-0.3,0.3-0.6,0.5-1.1,0.7l1.8,2.7h-2.1l-1.6-2.6v2.6L57.4,86.6L57.4,86.6z M53.5,85.2
			c0.5,0,0.9-0.2,1.3-0.6c0.3-0.4,0.5-0.9,0.5-1.4c0-0.6-0.2-1-0.5-1.4s-0.8-0.6-1.3-0.6s-0.9,0.2-1.3,0.6c-0.3,0.4-0.5,0.9-0.5,1.4
			c0,0.6,0.2,1.1,0.5,1.4C52.6,85,53,85.2,53.5,85.2z M57.2,83.2c0,0.5-0.1,0.9-0.3,1.4c-0.2,0.4-0.4,0.8-0.8,1.1
			c-0.3,0.3-0.7,0.6-1.2,0.8c-0.4,0.2-0.9,0.3-1.4,0.3s-0.9-0.1-1.4-0.3c-0.4-0.2-0.8-0.4-1.2-0.8c-0.3-0.3-0.6-0.7-0.8-1.1
			c-0.2-0.4-0.3-0.9-0.3-1.4s0.1-0.9,0.3-1.4c0.2-0.4,0.4-0.8,0.8-1.1c0.3-0.3,0.7-0.6,1.2-0.8c0.4-0.2,0.9-0.3,1.4-0.3
			s0.9,0.1,1.4,0.3c0.4,0.2,0.8,0.4,1.2,0.8c0.3,0.3,0.6,0.7,0.8,1.1C57.1,82.3,57.2,82.7,57.2,83.2z M45.6,84.4
			c0.3,0.3,0.5,0.5,0.8,0.7s0.5,0.2,0.8,0.2c0.2,0,0.4-0.1,0.6-0.2C48,85,48,84.8,48,84.6s-0.1-0.4-0.2-0.5s-0.4-0.2-0.9-0.4
			c-0.7-0.2-1.1-0.4-1.4-0.7c-0.3-0.2-0.4-0.6-0.4-1.1c0-0.6,0.2-1.2,0.6-1.6c0.4-0.4,1-0.6,1.7-0.6c0.4,0,0.7,0.1,1.1,0.1
			c0.3,0.1,0.7,0.3,1,0.5l-0.6,1.3c-0.2-0.2-0.4-0.3-0.6-0.4s-0.4-0.1-0.7-0.1c-0.2,0-0.4,0.1-0.5,0.2s-0.2,0.2-0.2,0.4
			c0,0.2,0.1,0.3,0.2,0.4s0.4,0.2,0.7,0.3h0.1c0.8,0.2,1.2,0.4,1.5,0.7c0.2,0.2,0.3,0.4,0.4,0.6s0.1,0.5,0.1,0.8
			c0,0.7-0.2,1.3-0.7,1.7c-0.5,0.4-1.1,0.7-1.9,0.7c-0.5,0-0.9-0.1-1.3-0.2c-0.4-0.2-0.8-0.4-1.1-0.8L45.6,84.4z M64.9,75.5V79h-1.1
			v-0.6c-0.2,0.2-0.3,0.4-0.5,0.5s-0.4,0.2-0.7,0.2c-0.5,0-0.8-0.2-1.1-0.5c-0.3-0.3-0.4-0.8-0.4-1.4s0.1-1,0.4-1.4
			c0.3-0.3,0.7-0.5,1.2-0.5c0.3,0,0.5,0.1,0.7,0.2s0.4,0.3,0.5,0.5v-0.6L64.9,75.5L64.9,75.5z M63.8,77.2c0-0.3-0.1-0.5-0.2-0.6
			c-0.1-0.2-0.3-0.2-0.6-0.2c-0.3,0-0.4,0.1-0.6,0.2c-0.1,0.2-0.2,0.4-0.2,0.6c0,0.3,0.1,0.5,0.2,0.6C62.5,78,62.7,78,63,78
			c0.3,0,0.4-0.1,0.6-0.2S63.8,77.5,63.8,77.2z M60.8,73.7V79h-1.1v-0.6c-0.2,0.2-0.3,0.4-0.5,0.5c-0.2,0.1-0.4,0.2-0.7,0.2
			c-0.5,0-0.9-0.2-1.2-0.5c-0.3-0.3-0.4-0.8-0.4-1.4s0.1-1,0.4-1.3c0.3-0.3,0.7-0.5,1.1-0.5c0.3,0,0.5,0.1,0.7,0.2
			c0.2,0.1,0.3,0.3,0.5,0.5c0-0.1,0-0.2,0-0.3c0-0.1,0-0.2,0-0.3v-1.8L60.8,73.7L60.8,73.7z M59.7,77.3c0-0.3-0.1-0.5-0.2-0.6
			c-0.2-0.2-0.4-0.3-0.6-0.3c-0.2,0-0.4,0.1-0.6,0.2c-0.2,0.2-0.2,0.4-0.2,0.7s0.1,0.5,0.2,0.6c0.1,0.2,0.3,0.2,0.6,0.2
			c0.2,0,0.4-0.1,0.6-0.2C59.6,77.8,59.7,77.6,59.7,77.3z M69,72.4c0.5,0,0.9-0.2,1.3-0.6c0.3-0.4,0.5-0.9,0.5-1.4
			c0-0.6-0.2-1-0.5-1.4s-0.8-0.6-1.3-0.6s-0.9,0.2-1.3,0.6c-0.3,0.4-0.5,0.9-0.5,1.4c0,0.6,0.2,1.1,0.5,1.4
			C68.1,72.3,68.5,72.4,69,72.4z M72.7,70.4c0,0.5-0.1,0.9-0.3,1.4c-0.2,0.4-0.4,0.8-0.8,1.1c-0.3,0.3-0.7,0.6-1.2,0.8
			c-0.4,0.2-0.9,0.3-1.4,0.3s-0.9-0.1-1.4-0.3c-0.4-0.2-0.8-0.4-1.2-0.8c-0.3-0.3-0.6-0.7-0.8-1.1c-0.2-0.4-0.3-0.9-0.3-1.4
			s0.1-0.9,0.3-1.4c0.2-0.4,0.4-0.8,0.8-1.1c0.3-0.3,0.7-0.6,1.2-0.8c0.4-0.2,0.9-0.3,1.4-0.3s0.9,0.1,1.4,0.3
			c0.4,0.2,0.8,0.4,1.2,0.8c0.3,0.3,0.6,0.7,0.8,1.1C72.6,69.5,72.7,70,72.7,70.4z M61.9,73.7l-2.8-6.7h2l1.4,3.8c0,0,0,0.1,0.1,0.3
			c0,0.2,0.1,0.4,0.1,0.6c0-0.2,0.1-0.4,0.1-0.6s0.1-0.3,0.1-0.3l1.3-3.8h2l-2.8,6.8L61.9,73.7L61.9,73.7z M54.6,73.7V67h4.1v1.5
			h-2.3v1.2h2.2v1.4h-2.2v1.1h2.3v1.5L54.6,73.7L54.6,73.7z M45.3,73.7v-5.2h-1.5V67h4.9v1.6h-1.5v5.2H45.3z"/>
		<path class="st1" d="M50.8,70.3h0.3c0.4,0,0.7-0.1,0.9-0.2c0.2-0.1,0.3-0.3,0.3-0.6s-0.1-0.6-0.3-0.7c-0.2-0.3-0.5-0.3-0.9-0.3
			h-0.4L50.8,70.3L50.8,70.3z M49,73.7V67h1.9c0.8,0,1.3,0,1.6,0.1c0.3,0.1,0.6,0.2,0.8,0.3c0.2,0.2,0.4,0.4,0.6,0.7
			c0.1,0.3,0.2,0.6,0.2,0.9c0,0.5-0.1,0.9-0.4,1.3c-0.3,0.3-0.6,0.5-1.1,0.7l1.8,2.7h-2.1l-1.6-2.6v2.6L49,73.7L49,73.7z"/>
		<path class="st2" d="M36.5,45.9c-0.7,0.5-2.5,2.5-3.2,3.3l-1.6,2l-1.6,2.5c-0.6,1.1-1.2,2.2-1.7,3.3c-0.1,0.3-0.2,0.4-0.3,0.7
			c-0.4,1-0.7,2-1,3.1c-0.4,1.5-0.6,3-0.6,4.5v0.1c0,3.7,1.2,7.2,3.8,10.2l1.5,1.6c1.4,1.2,1.5,1.4,3.5,2.6l1.3,0.7
			c0.2,0.1,0.4,0.2,0.7,0.3c1.2,0.6,3.8,1.7,5.1,2c0.4,0.1,1.1,0.4,1.6,0.4c-0.5-1-1-2,0-3.2c0.1-0.1,0.2-0.2,0.3-0.3l-1.4-0.4
			c-1.9-0.6-3.3-1.2-5-2.1c-0.2-0.1-0.3-0.2-0.6-0.3c-0.8-0.4-1.5-0.9-2.2-1.4c-2.8-1.9-5.5-5.1-6.2-9.1c-0.4-2.3-0.2-4.4,0.3-6.5
			c0.6-2.7,1.6-4.7,2.8-7.1c0.1-0.2,0.2-0.3,0.3-0.6c0.1-0.2,0.2-0.4,0.3-0.6c1.2-2,2.1-3.5,3.5-5.4C36.3,46.3,36.5,46.1,36.5,45.9"
			/>
		<path class="st2" d="M36.6,45.8L36.6,45.8L36.6,45.8z"/>
		<path class="st2" d="M36.6,45.8L36.6,45.8L36.6,45.8z"/>
		<path class="st3" d="M41.8,39.1c-0.1,0.4-1.1,2-1.4,2.4l-1.1,1.7c-1.5,2-1.7,1.6-3.6,4.8c-2,3.3-3.1,8.4-1.3,11.9
			c0.4,0.8,1.1,1.8,1.8,2.4c0.7,0.5,1.1,0.9,2.1,1.3c2.3,0.8,5.4,0.9,7.5-0.7c1.9-1.5,2.8-3.8,3.2-6.2c0.2-0.8,0.3-2.1,0.3-3
			c0-0.3,0-0.3,0.1-0.4c0,0.4,0.1,0.5,0.1,0.9c0,2.2,0,3.2-0.5,5.4c-0.1,0.3-0.2,0.5-0.2,0.8c2.4,1.3,6.2,1,8.3-0.4l0.7-0.5
			c0.6-0.5,1.4-1.4,1.7-2.2c0.6-1.4,0.7-2.6,0.4-4.4c-0.4-1.8-1.2-3.3-2.2-4.9c-0.6-1-2.3-3.2-3.1-4L54,43.3
			c-0.4-0.4-0.8-0.8-1.3-1.3c-0.4-0.4-1.1-0.8-1.4-1.2c0.7,0.2,5.1,4.1,8.8,4.7c2.3,0.4,4.1,0.2,5.8-0.6c0.4-0.2,0.7-0.4,1.1-0.6
			c0.4-0.3,1-0.7,1.4-1.1l1.1-1.4c0.8-1.2,1.3-2.7,1.4-4.1V37c-0.1-1.8-0.9-3.5-2.6-4.7c-1.3-0.9-3.5-1.6-5.1-1.6
			c-0.5,0-1.1-0.1-1.6,0L60,30.8c-0.8,0-2.3,0.3-3.1,0.3c0.3-0.2,2.1-0.6,2.4-0.6c0.6-0.1,2.8-0.3,3.5-0.2c0.3,0,0.5,0,0.8,0
			c0.8,0,3.3,0.4,3.9,0.7c0-0.2,0.1-0.3,0.2-0.5c1.8-5-1-11.6-8.3-9.6c-1.4,0.2-2.3,0.6-3.3,1.1c-0.7,0.4-2,1.2-2.6,1.7
			c-0.7,0.5-2.2,1.7-2.8,2.3l-1.1,1.1c-0.1,0.2-0.2,0.2-0.3,0.4c-0.6,0.6-1.2,1.3-1.7,1.9c-0.2,0.3-0.4,0.5-0.7,0.8
			c-0.3,0.4-1.8,2.2-2,2.3c0.1-0.4,0.9-1.4,1.2-1.7l1.6-2.1c0.1-0.1,0.2-0.3,0.3-0.4c1.5-1.8,3.4-3.9,4.2-6c1.2-3,1.6-6.6-0.2-9.5
			c-1-1.6-2.7-2.5-4.5-2.9c-0.3-0.1-0.6-0.1-0.9-0.1h-0.5l0,0c-1.8,0-3,0.6-4.5,1.4c-0.4,0.2-1.5,1.1-1.8,1.1c0,0.3,0.2,0.6,0.3,0.8
			c0.5,1.3,1.8,4.3,1.8,5.6v-0.1c-0.3-0.7-0.6-2-0.9-2.8c-0.4-0.9-0.8-1.8-1.3-2.5c-0.6-0.7-1.2-1.3-2-1.8c-0.7-0.4-2.2-0.8-3.1-0.7
			C34,11,33.5,11,32.9,11.1c-1.5,0.4-2.6,1.1-3.7,2c-1,0.8-2,2.1-2.4,3.3c-0.8,2.1-0.3,4.7,0.6,6.7c0.1,0.1,0.1,0.2,0.2,0.3
			c0.3,0.6,0.7,1.2,1.2,1.7l0.9,1c0.1,0.2,0.3,0.3,0.5,0.5l0.5,0.4c0.2,0.2,0.3,0.3,0.5,0.5c0.5,0.4,0.5,0.5,1.1,0.8l4.1,2.6
			c0.4,0.2,0.8,0.5,1.1,0.8c0.2,0.1,0.4,0.2,0.6,0.4c0.4,0.3,2.6,1.7,2.7,2.2c-0.3-0.2-0.6-0.4-0.8-0.5c-2-1.4-4.1-2.6-6.4-3.7
			c-0.3-0.2-0.6-0.3-0.9-0.4l-2-0.9c-1.9-0.8-3.7-1.4-5.8-1.4c-0.3,0-0.4-0.1-0.6,0c-0.2,0-0.4,0-0.7,0c-1.2,0-2.5,0.3-3.6,0.8
			c-3.1,1.2-4.6,4.1-3.8,7.3c0.5,2,1,2.3,2,3.8c0.4-0.3,0.7-0.7,1.1-1c1.8-1.3,3.9-2,6.1-2.3c1.4-0.2,2.6-0.2,4-0.2
			c0.3,0,1.4,0,1.8,0.1c0.1,0,0.1,0,0.2,0.1c-2.2,0-5.5,0.6-7.5,1.1c-1.5,0.4-3,1.2-4.2,2.2c-0.1,0.1-0.1,0.2-0.3,0.2L18.9,40
			c-0.4,0.5-0.8,1-1.1,1.5c-1.4,2.7-1.2,5.8,0.9,8.1c0.2,0.2,0.3,0.4,0.5,0.5c0.2,0.2,0.4,0.3,0.6,0.5c0.4,0.3,0.9,0.6,1.4,0.8
			c1.6,0.7,3.8,0.9,5.6,0.5c2.1-0.5,4.1-1.4,5.9-2.7c0.4-0.3,0.8-0.6,1.2-0.9l1.4-1.2c0.1-0.1,0.2-0.2,0.3-0.3l0.6-0.5
			c0.7-0.7,1.4-1.5,2.1-2.2c0.2-0.2,0.3-0.4,0.5-0.6c0.2-0.2,0.3-0.4,0.5-0.6c0.3-0.4,0.6-0.8,0.9-1.2l1.4-1.9
			C41.4,39.6,41.6,39.2,41.8,39.1"/>
	</g>
</g>
</svg>
